%TF.GenerationSoftware,KiCad,Pcbnew,9.0.7*%
%TF.CreationDate,2026-03-01T08:57:25+09:00*%
%TF.ProjectId,Aida_Bottom,41696461-5f42-46f7-9474-6f6d2e6b6963,rev?*%
%TF.SameCoordinates,Original*%
%TF.FileFunction,Profile,NP*%
%FSLAX46Y46*%
G04 Gerber Fmt 4.6, Leading zero omitted, Abs format (unit mm)*
G04 Created by KiCad (PCBNEW 9.0.7) date 2026-03-01 08:57:25*
%MOMM*%
%LPD*%
G01*
G04 APERTURE LIST*
%TA.AperFunction,Profile*%
%ADD10C,0.050000*%
%TD*%
%ADD11C,0.050000*%
G04 APERTURE END LIST*
D10*
X125015710Y-50601599D02*
X122634458Y-55364103D01*
D11*
X136326693Y-113704688D02*
X136315365Y-113704678D01*
X136304062Y-113704649D01*
X136292782Y-113704599D01*
X136281526Y-113704529D01*
X136270293Y-113704440D01*
X136259085Y-113704331D01*
X136247899Y-113704202D01*
X136236738Y-113704053D01*
X136225599Y-113703885D01*
X136214484Y-113703697D01*
X136203392Y-113703490D01*
X136192323Y-113703263D01*
X136181277Y-113703016D01*
X136170255Y-113702750D01*
X136159254Y-113702465D01*
X136148277Y-113702160D01*
X136137322Y-113701836D01*
X136126391Y-113701492D01*
X136115481Y-113701130D01*
X136104594Y-113700748D01*
X136093729Y-113700346D01*
X136082887Y-113699926D01*
X136072066Y-113699486D01*
X136061269Y-113699028D01*
X136050492Y-113698550D01*
X136039738Y-113698053D01*
X136029005Y-113697538D01*
X136018295Y-113697003D01*
X136007606Y-113696449D01*
X135996939Y-113695877D01*
X135986293Y-113695286D01*
X135975669Y-113694676D01*
X135965065Y-113694047D01*
X135954484Y-113693399D01*
X135943923Y-113692733D01*
X135933384Y-113692048D01*
X135922865Y-113691344D01*
X135912368Y-113690621D01*
X135901890Y-113689880D01*
X135891435Y-113689121D01*
X135880999Y-113688343D01*
X135870585Y-113687547D01*
X135860190Y-113686732D01*
X135849817Y-113685898D01*
X135839463Y-113685046D01*
X135829131Y-113684176D01*
X135818817Y-113683288D01*
X135808525Y-113682381D01*
X135798251Y-113681456D01*
X135787999Y-113680512D01*
X135777765Y-113679551D01*
X135767553Y-113678571D01*
X135757359Y-113677573D01*
X135747186Y-113676557D01*
X135737030Y-113675522D01*
X135726896Y-113674470D01*
X135716780Y-113673400D01*
X135706685Y-113672311D01*
X135696606Y-113671205D01*
X135686549Y-113670080D01*
X135676509Y-113668938D01*
X135666490Y-113667777D01*
X135656488Y-113666599D01*
X135646507Y-113665403D01*
X135636542Y-113664188D01*
X135626598Y-113662957D01*
X135616671Y-113661707D01*
X135606764Y-113660439D01*
X135596873Y-113659154D01*
X135587003Y-113657851D01*
X135577148Y-113656530D01*
X135567315Y-113655191D01*
X135557496Y-113653835D01*
X135547699Y-113652461D01*
X135537916Y-113651069D01*
X135528155Y-113649660D01*
X135518408Y-113648233D01*
X135508681Y-113646789D01*
X135498969Y-113645326D01*
X135489278Y-113643847D01*
X135479601Y-113642349D01*
X135469945Y-113640835D01*
X135460302Y-113639302D01*
X135450680Y-113637753D01*
X135441071Y-113636186D01*
X135431483Y-113634601D01*
X135421909Y-113632999D01*
X135412355Y-113631379D01*
X135402814Y-113629742D01*
X135393293Y-113628088D01*
X135383785Y-113626416D01*
X135374297Y-113624727D01*
X135364822Y-113623020D01*
X135355368Y-113621297D01*
X135345925Y-113619555D01*
X135336503Y-113617797D01*
X135317702Y-113614228D01*
X135298965Y-113610590D01*
X135280292Y-113606883D01*
X135261680Y-113603107D01*
X135243130Y-113599262D01*
X135224642Y-113595348D01*
X135206213Y-113591365D01*
X135187845Y-113587313D01*
X135169535Y-113583193D01*
X135151284Y-113579004D01*
X135133090Y-113574746D01*
X135114953Y-113570420D01*
X135096873Y-113566025D01*
X135078849Y-113561562D01*
X135060879Y-113557030D01*
X135042964Y-113552429D01*
X135025102Y-113547760D01*
X135007294Y-113543022D01*
X134989537Y-113538215D01*
X134971833Y-113533340D01*
X134954179Y-113528396D01*
X134936575Y-113523382D01*
X134919021Y-113518301D01*
X134901516Y-113513150D01*
X134884058Y-113507930D01*
X134866648Y-113502641D01*
X134849285Y-113497282D01*
X134831968Y-113491855D01*
X134814696Y-113486358D01*
X134797468Y-113480791D01*
X134780285Y-113475155D01*
X134763144Y-113469448D01*
X134746046Y-113463672D01*
X134728989Y-113457826D01*
X134711973Y-113451909D01*
X134694998Y-113445921D01*
X134678061Y-113439863D01*
X134661163Y-113433734D01*
X134644303Y-113427534D01*
X134627480Y-113421262D01*
X134610693Y-113414919D01*
X134593942Y-113408503D01*
X134577225Y-113402016D01*
X134560542Y-113395456D01*
X134543892Y-113388823D01*
X134527274Y-113382117D01*
X134510688Y-113375338D01*
X134494132Y-113368485D01*
X134477606Y-113361558D01*
X134461108Y-113354556D01*
X134444638Y-113347480D01*
X134428196Y-113340328D01*
X134411779Y-113333101D01*
X134395388Y-113325797D01*
X134379021Y-113318417D01*
X134362677Y-113310961D01*
X134346356Y-113303426D01*
X134330056Y-113295814D01*
X134313776Y-113288123D01*
X134297516Y-113280353D01*
X134281275Y-113272503D01*
X134265050Y-113264573D01*
X134248842Y-113256563D01*
X134232650Y-113248470D01*
X134216471Y-113240296D01*
X134200305Y-113232039D01*
X134184152Y-113223699D01*
X134168008Y-113215274D01*
X134151875Y-113206764D01*
X134135750Y-113198168D01*
X134119631Y-113189486D01*
X134103519Y-113180716D01*
X134087411Y-113171858D01*
X134071306Y-113162910D01*
X134055203Y-113153872D01*
X134039100Y-113144743D01*
X134022995Y-113135522D01*
X134006889Y-113126207D01*
X133990778Y-113116798D01*
X133974661Y-113107293D01*
X133958537Y-113097691D01*
X133942404Y-113087990D01*
X133926260Y-113078191D01*
X133910103Y-113068290D01*
X133893932Y-113058287D01*
X133877745Y-113048180D01*
X133861539Y-113037968D01*
X133845313Y-113027648D01*
X133829064Y-113017220D01*
X133812790Y-113006681D01*
X133796489Y-112996029D01*
X133780159Y-112985263D01*
X133763797Y-112974381D01*
X133747400Y-112963379D01*
X133730966Y-112952257D01*
X133714491Y-112941011D01*
X133697973Y-112929640D01*
X133681409Y-112918139D01*
X133664795Y-112906508D01*
X133648129Y-112894742D01*
X133631405Y-112882838D01*
X133614621Y-112870793D01*
X133597772Y-112858605D01*
X133580854Y-112846268D01*
X133563863Y-112833778D01*
X133546794Y-112821133D01*
X133529642Y-112808327D01*
X133512400Y-112795355D01*
X133495064Y-112782213D01*
X133477628Y-112768894D01*
X133460084Y-112755393D01*
X133442425Y-112741704D01*
X133424644Y-112727820D01*
X133406733Y-112713732D01*
X133388682Y-112699434D01*
X133370482Y-112684916D01*
X133352122Y-112670169D01*
X133333590Y-112655182D01*
X133314874Y-112639944D01*
X133295960Y-112624443D01*
X133276832Y-112608663D01*
X133257473Y-112592590D01*
X133237864Y-112576207D01*
X133217983Y-112559492D01*
X133197805Y-112542425D01*
X133177302Y-112524980D01*
X133156444Y-112507127D01*
X133135191Y-112488834D01*
X133113502Y-112470061D01*
X133091325Y-112450761D01*
X133068599Y-112430879D01*
X133045250Y-112410346D01*
X133021186Y-112389080D01*
X132996290Y-112366975D01*
X132970412Y-112343894D01*
X132943352Y-112319653D01*
X132914828Y-112293997D01*
X132884430Y-112266552D01*
X132851503Y-112236720D01*
X132814885Y-112203442D01*
X132772075Y-112164441D01*
X132717726Y-112114845D01*
X132681353Y-112081647D01*
X132645013Y-112048509D01*
X132608691Y-112015445D01*
X132590531Y-111998947D01*
X132572369Y-111982472D01*
X132554203Y-111966023D01*
X132536031Y-111949603D01*
X132517851Y-111933212D01*
X132499662Y-111916853D01*
X132481460Y-111900528D01*
X132463244Y-111884237D01*
X132445012Y-111867984D01*
X132426762Y-111851771D01*
X132408491Y-111835598D01*
X132390199Y-111819467D01*
X132371882Y-111803382D01*
X132353539Y-111787343D01*
X132335167Y-111771352D01*
X132316765Y-111755412D01*
X132298331Y-111739523D01*
X132279862Y-111723688D01*
X132261357Y-111707909D01*
X132242813Y-111692188D01*
X132224229Y-111676526D01*
X132205602Y-111660926D01*
X132186931Y-111645388D01*
X132177577Y-111637644D01*
X132168212Y-111629916D01*
X132158835Y-111622204D01*
X132149446Y-111614510D01*
X132140043Y-111606833D01*
X132130628Y-111599173D01*
X132121199Y-111591531D01*
X132111758Y-111583907D01*
X132102302Y-111576300D01*
X132092832Y-111568713D01*
X132083349Y-111561143D01*
X132073850Y-111553593D01*
X132064337Y-111546061D01*
X132054809Y-111538549D01*
X132045266Y-111531056D01*
X132035708Y-111523583D01*
X132026133Y-111516130D01*
X132016543Y-111508697D01*
X132006936Y-111501285D01*
X131997313Y-111493893D01*
X131987673Y-111486522D01*
X131978016Y-111479172D01*
X131968342Y-111471844D01*
X131958650Y-111464537D01*
X131948941Y-111457252D01*
X131939213Y-111449989D01*
X131929467Y-111442748D01*
X131919703Y-111435530D01*
X131909920Y-111428334D01*
X131900118Y-111421161D01*
X131890296Y-111414012D01*
X131880455Y-111406886D01*
X131870595Y-111399783D01*
X131860714Y-111392705D01*
X131850812Y-111385650D01*
X131840891Y-111378620D01*
X131830948Y-111371615D01*
X131820984Y-111364634D01*
X131810999Y-111357679D01*
X131800993Y-111350748D01*
X131790964Y-111343843D01*
X131780914Y-111336964D01*
X131770841Y-111330111D01*
X131760745Y-111323284D01*
X131750627Y-111316484D01*
X131740485Y-111309710D01*
X131730320Y-111302963D01*
X131720132Y-111296243D01*
X131709919Y-111289550D01*
X131699683Y-111282886D01*
X131689422Y-111276248D01*
X131679136Y-111269639D01*
X131668826Y-111263059D01*
X131658490Y-111256506D01*
X131648129Y-111249983D01*
X131637742Y-111243488D01*
X131627330Y-111237023D01*
X131616891Y-111230587D01*
X131606426Y-111224181D01*
X131595934Y-111217804D01*
X131585415Y-111211458D01*
X131574869Y-111205142D01*
X131564295Y-111198857D01*
X131553694Y-111192603D01*
X131543065Y-111186379D01*
X131532408Y-111180187D01*
X131521722Y-111174027D01*
X131511007Y-111167898D01*
X131500264Y-111161801D01*
X131489491Y-111155736D01*
X131478689Y-111149704D01*
X131467857Y-111143705D01*
X131456995Y-111137738D01*
X131446103Y-111131805D01*
X131435180Y-111125905D01*
X131424226Y-111120038D01*
X131413242Y-111114205D01*
X131402226Y-111108407D01*
X131391179Y-111102643D01*
X131380100Y-111096913D01*
X131368989Y-111091218D01*
X131357845Y-111085558D01*
X131346670Y-111079933D01*
X131335461Y-111074344D01*
X131324219Y-111068790D01*
X131312944Y-111063272D01*
X131301636Y-111057791D01*
X131290293Y-111052345D01*
X131278917Y-111046937D01*
X131267506Y-111041565D01*
X131256061Y-111036230D01*
X131244581Y-111030933D01*
X131233065Y-111025673D01*
X131221515Y-111020451D01*
X131209929Y-111015267D01*
X131198306Y-111010121D01*
X131186648Y-111005014D01*
X131174954Y-110999945D01*
X131163223Y-110994915D01*
X131151455Y-110989925D01*
X131139650Y-110984973D01*
X131127807Y-110980062D01*
X131115927Y-110975190D01*
X131104009Y-110970358D01*
X131092053Y-110965567D01*
X131080059Y-110960816D01*
X131068026Y-110956106D01*
X131055954Y-110951437D01*
X131043842Y-110946809D01*
X131031692Y-110942223D01*
X131019502Y-110937678D01*
X131007271Y-110933175D01*
X130995001Y-110928715D01*
X130982690Y-110924296D01*
X130970339Y-110919921D01*
X130957947Y-110915588D01*
X130945513Y-110911299D01*
X130933038Y-110907052D01*
X130920521Y-110902850D01*
X130907963Y-110898691D01*
X130895362Y-110894576D01*
X130882718Y-110890505D01*
X130870032Y-110886479D01*
X130857303Y-110882497D01*
X130844531Y-110878561D01*
X130831715Y-110874669D01*
X130818856Y-110870823D01*
X130805952Y-110867023D01*
X130793005Y-110863269D01*
X130780012Y-110859560D01*
X130766975Y-110855898D01*
X130753893Y-110852283D01*
X130740766Y-110848714D01*
X130727593Y-110845192D01*
X130714375Y-110841718D01*
X130701110Y-110838291D01*
X130687800Y-110834912D01*
X130674442Y-110831580D01*
X130661038Y-110828297D01*
X130647587Y-110825062D01*
X130634088Y-110821876D01*
X130620542Y-110818739D01*
X130606948Y-110815651D01*
X130593307Y-110812612D01*
X130579616Y-110809623D01*
X130565877Y-110806684D01*
X130552090Y-110803794D01*
X130538253Y-110800955D01*
X130524367Y-110798167D01*
X130510431Y-110795429D01*
X130496446Y-110792742D01*
X130482410Y-110790106D01*
X130468324Y-110787522D01*
X130454188Y-110784989D01*
X130440000Y-110782508D01*
X130425762Y-110780080D01*
X130411472Y-110777703D01*
X130397130Y-110775380D01*
X130382737Y-110773109D01*
X130368291Y-110770891D01*
X130353794Y-110768726D01*
X130339243Y-110766615D01*
X130324639Y-110764558D01*
X130309983Y-110762554D01*
X130295273Y-110760605D01*
X130280509Y-110758710D01*
X130265691Y-110756870D01*
X130250820Y-110755085D01*
X130235893Y-110753355D01*
X130220913Y-110751680D01*
X130205877Y-110750061D01*
X130190786Y-110748497D01*
X130175639Y-110746990D01*
X130160437Y-110745539D01*
X130145179Y-110744144D01*
X130129865Y-110742806D01*
X130114494Y-110741526D01*
X130099066Y-110740302D01*
X130083582Y-110739136D01*
X130068040Y-110738027D01*
X130052441Y-110736977D01*
X130036784Y-110735984D01*
X130021069Y-110735050D01*
X130005296Y-110734174D01*
X129989464Y-110733358D01*
X129973574Y-110732600D01*
X129957625Y-110731901D01*
X129941616Y-110731263D01*
X129925548Y-110730683D01*
X129909420Y-110730164D01*
X129893232Y-110729705D01*
X129876984Y-110729307D01*
X129860675Y-110728969D01*
X129844305Y-110728692D01*
X129827875Y-110728476D01*
X129811383Y-110728322D01*
X129794829Y-110728229D01*
X129778214Y-110728198D01*
X74414105Y-113704688D02*
X74402777Y-113704678D01*
X74391474Y-113704649D01*
X74380194Y-113704599D01*
X74368938Y-113704529D01*
X74357705Y-113704440D01*
X74346497Y-113704331D01*
X74335311Y-113704202D01*
X74324150Y-113704053D01*
X74313011Y-113703885D01*
X74301896Y-113703697D01*
X74290804Y-113703490D01*
X74279735Y-113703263D01*
X74268689Y-113703016D01*
X74257667Y-113702750D01*
X74246666Y-113702465D01*
X74235689Y-113702160D01*
X74224734Y-113701836D01*
X74213803Y-113701492D01*
X74202893Y-113701130D01*
X74192006Y-113700748D01*
X74181141Y-113700346D01*
X74170299Y-113699926D01*
X74159478Y-113699486D01*
X74148681Y-113699028D01*
X74137904Y-113698550D01*
X74127150Y-113698053D01*
X74116417Y-113697538D01*
X74105707Y-113697003D01*
X74095018Y-113696449D01*
X74084351Y-113695877D01*
X74073705Y-113695286D01*
X74063081Y-113694676D01*
X74052477Y-113694047D01*
X74041896Y-113693399D01*
X74031335Y-113692733D01*
X74020796Y-113692048D01*
X74010277Y-113691344D01*
X73999780Y-113690621D01*
X73989302Y-113689880D01*
X73978847Y-113689121D01*
X73968411Y-113688343D01*
X73957997Y-113687547D01*
X73947602Y-113686732D01*
X73937229Y-113685898D01*
X73926875Y-113685046D01*
X73916543Y-113684176D01*
X73906229Y-113683288D01*
X73895937Y-113682381D01*
X73885663Y-113681456D01*
X73875411Y-113680512D01*
X73865177Y-113679551D01*
X73854965Y-113678571D01*
X73844771Y-113677573D01*
X73834598Y-113676557D01*
X73824442Y-113675522D01*
X73814308Y-113674470D01*
X73804192Y-113673400D01*
X73794097Y-113672311D01*
X73784018Y-113671205D01*
X73773961Y-113670080D01*
X73763921Y-113668938D01*
X73753902Y-113667777D01*
X73743900Y-113666599D01*
X73733919Y-113665403D01*
X73723954Y-113664188D01*
X73714010Y-113662957D01*
X73704083Y-113661707D01*
X73694176Y-113660439D01*
X73684285Y-113659154D01*
X73674415Y-113657851D01*
X73664560Y-113656530D01*
X73654727Y-113655191D01*
X73644908Y-113653835D01*
X73635111Y-113652461D01*
X73625328Y-113651069D01*
X73615567Y-113649660D01*
X73605820Y-113648233D01*
X73596093Y-113646789D01*
X73586381Y-113645326D01*
X73576690Y-113643847D01*
X73567013Y-113642349D01*
X73557357Y-113640835D01*
X73547714Y-113639302D01*
X73538092Y-113637753D01*
X73528483Y-113636186D01*
X73518895Y-113634601D01*
X73509321Y-113632999D01*
X73499767Y-113631379D01*
X73490226Y-113629742D01*
X73480705Y-113628088D01*
X73471197Y-113626416D01*
X73461709Y-113624727D01*
X73452234Y-113623020D01*
X73442780Y-113621297D01*
X73433337Y-113619555D01*
X73423915Y-113617797D01*
X73405114Y-113614228D01*
X73386377Y-113610590D01*
X73367704Y-113606883D01*
X73349092Y-113603107D01*
X73330542Y-113599262D01*
X73312054Y-113595348D01*
X73293625Y-113591365D01*
X73275257Y-113587313D01*
X73256947Y-113583193D01*
X73238696Y-113579004D01*
X73220502Y-113574746D01*
X73202365Y-113570420D01*
X73184285Y-113566025D01*
X73166261Y-113561562D01*
X73148291Y-113557030D01*
X73130376Y-113552429D01*
X73112514Y-113547760D01*
X73094706Y-113543022D01*
X73076949Y-113538215D01*
X73059245Y-113533340D01*
X73041591Y-113528396D01*
X73023987Y-113523382D01*
X73006433Y-113518301D01*
X72988928Y-113513150D01*
X72971470Y-113507930D01*
X72954060Y-113502641D01*
X72936697Y-113497282D01*
X72919380Y-113491855D01*
X72902108Y-113486358D01*
X72884880Y-113480791D01*
X72867697Y-113475155D01*
X72850556Y-113469448D01*
X72833458Y-113463672D01*
X72816401Y-113457826D01*
X72799385Y-113451909D01*
X72782410Y-113445921D01*
X72765473Y-113439863D01*
X72748575Y-113433734D01*
X72731715Y-113427534D01*
X72714892Y-113421262D01*
X72698105Y-113414919D01*
X72681354Y-113408503D01*
X72664637Y-113402016D01*
X72647954Y-113395456D01*
X72631304Y-113388823D01*
X72614686Y-113382117D01*
X72598100Y-113375338D01*
X72581544Y-113368485D01*
X72565018Y-113361558D01*
X72548520Y-113354556D01*
X72532050Y-113347480D01*
X72515608Y-113340328D01*
X72499191Y-113333101D01*
X72482800Y-113325797D01*
X72466433Y-113318417D01*
X72450089Y-113310961D01*
X72433768Y-113303426D01*
X72417468Y-113295814D01*
X72401188Y-113288123D01*
X72384928Y-113280353D01*
X72368687Y-113272503D01*
X72352462Y-113264573D01*
X72336254Y-113256563D01*
X72320062Y-113248470D01*
X72303883Y-113240296D01*
X72287717Y-113232039D01*
X72271564Y-113223699D01*
X72255420Y-113215274D01*
X72239287Y-113206764D01*
X72223162Y-113198168D01*
X72207043Y-113189486D01*
X72190931Y-113180716D01*
X72174823Y-113171858D01*
X72158718Y-113162910D01*
X72142615Y-113153872D01*
X72126512Y-113144743D01*
X72110407Y-113135522D01*
X72094301Y-113126207D01*
X72078190Y-113116798D01*
X72062073Y-113107293D01*
X72045949Y-113097691D01*
X72029816Y-113087990D01*
X72013672Y-113078191D01*
X71997515Y-113068290D01*
X71981344Y-113058287D01*
X71965157Y-113048180D01*
X71948951Y-113037968D01*
X71932725Y-113027648D01*
X71916476Y-113017220D01*
X71900202Y-113006681D01*
X71883901Y-112996029D01*
X71867571Y-112985263D01*
X71851209Y-112974381D01*
X71834812Y-112963379D01*
X71818378Y-112952257D01*
X71801903Y-112941011D01*
X71785385Y-112929640D01*
X71768821Y-112918139D01*
X71752207Y-112906508D01*
X71735541Y-112894742D01*
X71718817Y-112882838D01*
X71702033Y-112870793D01*
X71685184Y-112858605D01*
X71668266Y-112846268D01*
X71651275Y-112833778D01*
X71634206Y-112821133D01*
X71617054Y-112808327D01*
X71599812Y-112795355D01*
X71582476Y-112782213D01*
X71565040Y-112768894D01*
X71547496Y-112755393D01*
X71529837Y-112741704D01*
X71512056Y-112727820D01*
X71494145Y-112713732D01*
X71476094Y-112699434D01*
X71457894Y-112684916D01*
X71439534Y-112670169D01*
X71421002Y-112655182D01*
X71402286Y-112639944D01*
X71383372Y-112624443D01*
X71364244Y-112608663D01*
X71344885Y-112592590D01*
X71325276Y-112576207D01*
X71305395Y-112559492D01*
X71285217Y-112542425D01*
X71264714Y-112524980D01*
X71243856Y-112507127D01*
X71222603Y-112488834D01*
X71200914Y-112470061D01*
X71178737Y-112450761D01*
X71156011Y-112430879D01*
X71132662Y-112410346D01*
X71108598Y-112389080D01*
X71083702Y-112366975D01*
X71057824Y-112343894D01*
X71030764Y-112319653D01*
X71002240Y-112293997D01*
X70971842Y-112266552D01*
X70938915Y-112236720D01*
X70902297Y-112203442D01*
X70859487Y-112164441D01*
X70805138Y-112114845D01*
X70768765Y-112081647D01*
X70732425Y-112048509D01*
X70696103Y-112015445D01*
X70677943Y-111998947D01*
X70659781Y-111982472D01*
X70641615Y-111966023D01*
X70623443Y-111949603D01*
X70605263Y-111933212D01*
X70587074Y-111916853D01*
X70568872Y-111900528D01*
X70550656Y-111884237D01*
X70532424Y-111867984D01*
X70514174Y-111851771D01*
X70495903Y-111835598D01*
X70477611Y-111819467D01*
X70459294Y-111803382D01*
X70440951Y-111787343D01*
X70422579Y-111771352D01*
X70404177Y-111755412D01*
X70385743Y-111739523D01*
X70367274Y-111723688D01*
X70348769Y-111707909D01*
X70330225Y-111692188D01*
X70311641Y-111676526D01*
X70293014Y-111660926D01*
X70274343Y-111645388D01*
X70264989Y-111637644D01*
X70255624Y-111629916D01*
X70246247Y-111622204D01*
X70236858Y-111614510D01*
X70227455Y-111606833D01*
X70218040Y-111599173D01*
X70208611Y-111591531D01*
X70199170Y-111583907D01*
X70189714Y-111576300D01*
X70180244Y-111568713D01*
X70170761Y-111561143D01*
X70161262Y-111553593D01*
X70151749Y-111546061D01*
X70142221Y-111538549D01*
X70132678Y-111531056D01*
X70123120Y-111523583D01*
X70113545Y-111516130D01*
X70103955Y-111508697D01*
X70094348Y-111501285D01*
X70084725Y-111493893D01*
X70075085Y-111486522D01*
X70065428Y-111479172D01*
X70055754Y-111471844D01*
X70046062Y-111464537D01*
X70036353Y-111457252D01*
X70026625Y-111449989D01*
X70016879Y-111442748D01*
X70007115Y-111435530D01*
X69997332Y-111428334D01*
X69987530Y-111421161D01*
X69977708Y-111414012D01*
X69967867Y-111406886D01*
X69958007Y-111399783D01*
X69948126Y-111392705D01*
X69938224Y-111385650D01*
X69928303Y-111378620D01*
X69918360Y-111371615D01*
X69908396Y-111364634D01*
X69898411Y-111357679D01*
X69888405Y-111350748D01*
X69878376Y-111343843D01*
X69868326Y-111336964D01*
X69858253Y-111330111D01*
X69848157Y-111323284D01*
X69838039Y-111316484D01*
X69827897Y-111309710D01*
X69817732Y-111302963D01*
X69807544Y-111296243D01*
X69797331Y-111289550D01*
X69787095Y-111282886D01*
X69776834Y-111276248D01*
X69766548Y-111269639D01*
X69756238Y-111263059D01*
X69745902Y-111256506D01*
X69735541Y-111249983D01*
X69725154Y-111243488D01*
X69714742Y-111237023D01*
X69704303Y-111230587D01*
X69693838Y-111224181D01*
X69683346Y-111217804D01*
X69672827Y-111211458D01*
X69662281Y-111205142D01*
X69651707Y-111198857D01*
X69641106Y-111192603D01*
X69630477Y-111186379D01*
X69619820Y-111180187D01*
X69609134Y-111174027D01*
X69598419Y-111167898D01*
X69587676Y-111161801D01*
X69576903Y-111155736D01*
X69566101Y-111149704D01*
X69555269Y-111143705D01*
X69544407Y-111137738D01*
X69533515Y-111131805D01*
X69522592Y-111125905D01*
X69511638Y-111120038D01*
X69500654Y-111114205D01*
X69489638Y-111108407D01*
X69478591Y-111102643D01*
X69467512Y-111096913D01*
X69456401Y-111091218D01*
X69445257Y-111085558D01*
X69434082Y-111079933D01*
X69422873Y-111074344D01*
X69411631Y-111068790D01*
X69400356Y-111063272D01*
X69389048Y-111057791D01*
X69377705Y-111052345D01*
X69366329Y-111046937D01*
X69354918Y-111041565D01*
X69343473Y-111036230D01*
X69331993Y-111030933D01*
X69320477Y-111025673D01*
X69308927Y-111020451D01*
X69297341Y-111015267D01*
X69285718Y-111010121D01*
X69274060Y-111005014D01*
X69262366Y-110999945D01*
X69250635Y-110994915D01*
X69238867Y-110989925D01*
X69227062Y-110984973D01*
X69215219Y-110980062D01*
X69203339Y-110975190D01*
X69191421Y-110970358D01*
X69179465Y-110965567D01*
X69167471Y-110960816D01*
X69155438Y-110956106D01*
X69143366Y-110951437D01*
X69131254Y-110946809D01*
X69119104Y-110942223D01*
X69106914Y-110937678D01*
X69094683Y-110933175D01*
X69082413Y-110928715D01*
X69070102Y-110924296D01*
X69057751Y-110919921D01*
X69045359Y-110915588D01*
X69032925Y-110911299D01*
X69020450Y-110907052D01*
X69007933Y-110902850D01*
X68995375Y-110898691D01*
X68982774Y-110894576D01*
X68970130Y-110890505D01*
X68957444Y-110886479D01*
X68944715Y-110882497D01*
X68931943Y-110878561D01*
X68919127Y-110874669D01*
X68906268Y-110870823D01*
X68893364Y-110867023D01*
X68880417Y-110863269D01*
X68867424Y-110859560D01*
X68854387Y-110855898D01*
X68841305Y-110852283D01*
X68828178Y-110848714D01*
X68815005Y-110845192D01*
X68801787Y-110841718D01*
X68788522Y-110838291D01*
X68775212Y-110834912D01*
X68761854Y-110831580D01*
X68748450Y-110828297D01*
X68734999Y-110825062D01*
X68721500Y-110821876D01*
X68707954Y-110818739D01*
X68694360Y-110815651D01*
X68680719Y-110812612D01*
X68667028Y-110809623D01*
X68653289Y-110806684D01*
X68639502Y-110803794D01*
X68625665Y-110800955D01*
X68611779Y-110798167D01*
X68597843Y-110795429D01*
X68583858Y-110792742D01*
X68569822Y-110790106D01*
X68555736Y-110787522D01*
X68541600Y-110784989D01*
X68527412Y-110782508D01*
X68513174Y-110780080D01*
X68498884Y-110777703D01*
X68484542Y-110775380D01*
X68470149Y-110773109D01*
X68455703Y-110770891D01*
X68441206Y-110768726D01*
X68426655Y-110766615D01*
X68412051Y-110764558D01*
X68397395Y-110762554D01*
X68382685Y-110760605D01*
X68367921Y-110758710D01*
X68353103Y-110756870D01*
X68338232Y-110755085D01*
X68323305Y-110753355D01*
X68308325Y-110751680D01*
X68293289Y-110750061D01*
X68278198Y-110748497D01*
X68263051Y-110746990D01*
X68247849Y-110745539D01*
X68232591Y-110744144D01*
X68217277Y-110742806D01*
X68201906Y-110741526D01*
X68186478Y-110740302D01*
X68170994Y-110739136D01*
X68155452Y-110738027D01*
X68139853Y-110736977D01*
X68124196Y-110735984D01*
X68108481Y-110735050D01*
X68092708Y-110734174D01*
X68076876Y-110733358D01*
X68060986Y-110732600D01*
X68045037Y-110731901D01*
X68029028Y-110731263D01*
X68012960Y-110730683D01*
X67996832Y-110730164D01*
X67980644Y-110729705D01*
X67964396Y-110729307D01*
X67948087Y-110728969D01*
X67931717Y-110728692D01*
X67915287Y-110728476D01*
X67898795Y-110728322D01*
X67882241Y-110728229D01*
X67865626Y-110728198D01*
D10*
X116681250Y-63698471D02*
G75*
G02*
X119062429Y-66079721I-50J-2381229D01*
G01*
D11*
X125611023Y-47625020D02*
X125611005Y-47734933D01*
X125610962Y-47788650D01*
X125610878Y-47841577D01*
X125610739Y-47893740D01*
X125610645Y-47919544D01*
X125610532Y-47945168D01*
X125610399Y-47970614D01*
X125610244Y-47995887D01*
X125610065Y-48020989D01*
X125609860Y-48045925D01*
X125609628Y-48070697D01*
X125609367Y-48095309D01*
X125609076Y-48119764D01*
X125608752Y-48144066D01*
X125608394Y-48168218D01*
X125608000Y-48192223D01*
X125607569Y-48216086D01*
X125607099Y-48239809D01*
X125606588Y-48263395D01*
X125606034Y-48286849D01*
X125605436Y-48310173D01*
X125604792Y-48333371D01*
X125604100Y-48356447D01*
X125603359Y-48379403D01*
X125602566Y-48402244D01*
X125601721Y-48424972D01*
X125600822Y-48447591D01*
X125599866Y-48470104D01*
X125598852Y-48492516D01*
X125597779Y-48514828D01*
X125596644Y-48537046D01*
X125595447Y-48559171D01*
X125594184Y-48581207D01*
X125592855Y-48603159D01*
X125591459Y-48625029D01*
X125589992Y-48646820D01*
X125588454Y-48668536D01*
X125586842Y-48690181D01*
X125586008Y-48700978D01*
X125585156Y-48711758D01*
X125584284Y-48722522D01*
X125583392Y-48733270D01*
X125582482Y-48744003D01*
X125581551Y-48754721D01*
X125580600Y-48765424D01*
X125579630Y-48776113D01*
X125578638Y-48786789D01*
X125577626Y-48797452D01*
X125576593Y-48808102D01*
X125575540Y-48818739D01*
X125574464Y-48829365D01*
X125573368Y-48839979D01*
X125572249Y-48850581D01*
X125571109Y-48861174D01*
X125569947Y-48871756D01*
X125568762Y-48882328D01*
X125567554Y-48892891D01*
X125566324Y-48903445D01*
X125565071Y-48913990D01*
X125563795Y-48924528D01*
X125562495Y-48935058D01*
X125561171Y-48945580D01*
X125559824Y-48956096D01*
X125558453Y-48966605D01*
X125557057Y-48977108D01*
X125555637Y-48987606D01*
X125554192Y-48998099D01*
X125552723Y-49008587D01*
X125551228Y-49019070D01*
X125549708Y-49029550D01*
X125548162Y-49040027D01*
X125546591Y-49050500D01*
X125544993Y-49060971D01*
X125543369Y-49071440D01*
X125541719Y-49081907D01*
X125540043Y-49092373D01*
X125538339Y-49102838D01*
X125536609Y-49113303D01*
X125534851Y-49123767D01*
X125533066Y-49134232D01*
X125531253Y-49144698D01*
X125529412Y-49155165D01*
X125527543Y-49165634D01*
X125525646Y-49176105D01*
X125523720Y-49186578D01*
X125521766Y-49197055D01*
X125519783Y-49207535D01*
X125517770Y-49218018D01*
X125515728Y-49228506D01*
X125513656Y-49238999D01*
X125511555Y-49249497D01*
X125509424Y-49260000D01*
X125507262Y-49270509D01*
X125505070Y-49281025D01*
X125502847Y-49291547D01*
X125500594Y-49302077D01*
X125498309Y-49312615D01*
X125495993Y-49323160D01*
X125493646Y-49333714D01*
X125491266Y-49344277D01*
X125488855Y-49354849D01*
X125486412Y-49365431D01*
X125483936Y-49376024D01*
X125481428Y-49386626D01*
X125478887Y-49397240D01*
X125476313Y-49407866D01*
X125473706Y-49418503D01*
X125471065Y-49429153D01*
X125468391Y-49439816D01*
X125465683Y-49450492D01*
X125462941Y-49461181D01*
X125460164Y-49471884D01*
X125457353Y-49482602D01*
X125454508Y-49493335D01*
X125451627Y-49504083D01*
X125448711Y-49514847D01*
X125445760Y-49525627D01*
X125442774Y-49536424D01*
X125439751Y-49547238D01*
X125436693Y-49558069D01*
X125433598Y-49568918D01*
X125430467Y-49579785D01*
X125427300Y-49590671D01*
X125424095Y-49601576D01*
X125420854Y-49612501D01*
X125417575Y-49623446D01*
X125414259Y-49634412D01*
X125410905Y-49645398D01*
X125407514Y-49656405D01*
X125404084Y-49667434D01*
X125400616Y-49678486D01*
X125397109Y-49689559D01*
X125393563Y-49700656D01*
X125389979Y-49711777D01*
X125386355Y-49722921D01*
X125382692Y-49734089D01*
X125378990Y-49745282D01*
X125375247Y-49756501D01*
X125371465Y-49767744D01*
X125367642Y-49779014D01*
X125363779Y-49790310D01*
X125359875Y-49801633D01*
X125355931Y-49812983D01*
X125351945Y-49824361D01*
X125347918Y-49835767D01*
X125343849Y-49847202D01*
X125339739Y-49858665D01*
X125335587Y-49870158D01*
X125331392Y-49881681D01*
X125327156Y-49893234D01*
X125322876Y-49904817D01*
X125318554Y-49916432D01*
X125314189Y-49928078D01*
X125309781Y-49939756D01*
X125305329Y-49951467D01*
X125300833Y-49963210D01*
X125296294Y-49974986D01*
X125291711Y-49986796D01*
X125287083Y-49998641D01*
X125282411Y-50010519D01*
X125277694Y-50022433D01*
X125272932Y-50034382D01*
X125268126Y-50046366D01*
X125263273Y-50058387D01*
X125258375Y-50070445D01*
X125253432Y-50082539D01*
X125248442Y-50094671D01*
X125243407Y-50106841D01*
X125238324Y-50119049D01*
X125233196Y-50131296D01*
X125228020Y-50143582D01*
X125222797Y-50155908D01*
X125217527Y-50168274D01*
X125212210Y-50180680D01*
X125206845Y-50193127D01*
X125201432Y-50205616D01*
X125195970Y-50218146D01*
X125190461Y-50230718D01*
X125184903Y-50243333D01*
X125179296Y-50255991D01*
X125173640Y-50268692D01*
X125167936Y-50281437D01*
X125162181Y-50294227D01*
X125156377Y-50307061D01*
X125150524Y-50319940D01*
X125144620Y-50332865D01*
X125138666Y-50345836D01*
X125132661Y-50358853D01*
X125126606Y-50371917D01*
X125120500Y-50385028D01*
X125114343Y-50398187D01*
X125108135Y-50411394D01*
X125101875Y-50424650D01*
X125095563Y-50437955D01*
X125089199Y-50451309D01*
X125082784Y-50464713D01*
X125076315Y-50478167D01*
X125069795Y-50491672D01*
X125063221Y-50505227D01*
X125056595Y-50518835D01*
X125049915Y-50532494D01*
X125043182Y-50546206D01*
X125036395Y-50559970D01*
X125029554Y-50573788D01*
X125022659Y-50587660D01*
X125015710Y-50601585D01*
D10*
X122634458Y-38695325D02*
G75*
G02*
X125611075Y-41671890I42J-2976575D01*
G01*
D11*
X132159460Y-52387518D02*
X132159450Y-52372895D01*
X132159420Y-52358306D01*
X132159370Y-52343743D01*
X132159301Y-52329213D01*
X132159211Y-52314709D01*
X132159102Y-52300238D01*
X132158973Y-52285793D01*
X132158824Y-52271380D01*
X132158655Y-52256993D01*
X132158467Y-52242639D01*
X132158260Y-52228309D01*
X132158033Y-52214012D01*
X132157786Y-52199740D01*
X132157520Y-52185500D01*
X132157234Y-52171284D01*
X132156929Y-52157100D01*
X132156604Y-52142941D01*
X132156261Y-52128813D01*
X132155898Y-52114709D01*
X132155515Y-52100637D01*
X132155114Y-52086588D01*
X132154693Y-52072571D01*
X132154253Y-52058576D01*
X132153794Y-52044613D01*
X132153316Y-52030673D01*
X132152819Y-52016764D01*
X132152302Y-52002877D01*
X132151767Y-51989022D01*
X132151213Y-51975188D01*
X132150640Y-51961385D01*
X132150048Y-51947603D01*
X132149437Y-51933853D01*
X132148807Y-51920123D01*
X132148159Y-51906425D01*
X132147491Y-51892747D01*
X132146806Y-51879100D01*
X132146101Y-51865472D01*
X132145377Y-51851876D01*
X132144635Y-51838299D01*
X132143875Y-51824753D01*
X132143095Y-51811226D01*
X132142298Y-51797730D01*
X132141481Y-51784252D01*
X132140646Y-51770805D01*
X132139793Y-51757376D01*
X132138921Y-51743977D01*
X132138030Y-51730597D01*
X132137122Y-51717247D01*
X132136195Y-51703914D01*
X132135249Y-51690611D01*
X132134285Y-51677325D01*
X132133303Y-51664070D01*
X132132303Y-51650830D01*
X132131284Y-51637621D01*
X132129192Y-51611265D01*
X132127027Y-51585000D01*
X132124790Y-51558825D01*
X132122480Y-51532739D01*
X132120098Y-51506741D01*
X132117643Y-51480829D01*
X132115116Y-51455003D01*
X132112518Y-51429261D01*
X132109848Y-51403603D01*
X132107106Y-51378027D01*
X132104293Y-51352531D01*
X132101408Y-51327116D01*
X132098451Y-51301780D01*
X132095424Y-51276521D01*
X132092325Y-51251338D01*
X132089156Y-51226231D01*
X132085915Y-51201198D01*
X132082603Y-51176238D01*
X132079220Y-51151349D01*
X132075766Y-51126531D01*
X132072242Y-51101782D01*
X132068646Y-51077101D01*
X132064980Y-51052487D01*
X132061243Y-51027938D01*
X132057434Y-51003453D01*
X132053555Y-50979032D01*
X132049605Y-50954672D01*
X132045584Y-50930372D01*
X132041492Y-50906131D01*
X132037328Y-50881948D01*
X132033094Y-50857821D01*
X132028788Y-50833748D01*
X132024410Y-50809730D01*
X132019961Y-50785763D01*
X132015440Y-50761846D01*
X132010848Y-50737979D01*
X132006183Y-50714160D01*
X132001446Y-50690386D01*
X131996637Y-50666657D01*
X131991755Y-50642971D01*
X131986800Y-50619327D01*
X131981772Y-50595722D01*
X131976670Y-50572155D01*
X131971495Y-50548625D01*
X131966246Y-50525129D01*
X131960922Y-50501666D01*
X131955524Y-50478235D01*
X131950051Y-50454833D01*
X131944502Y-50431458D01*
X131938878Y-50408109D01*
X131933177Y-50384784D01*
X131927399Y-50361480D01*
X131921544Y-50338196D01*
X131915612Y-50314929D01*
X131909601Y-50291678D01*
X131903511Y-50268440D01*
X131897341Y-50245213D01*
X131891091Y-50221994D01*
X131884761Y-50198781D01*
X131878349Y-50175572D01*
X131871854Y-50152365D01*
X131865276Y-50129155D01*
X131858614Y-50105942D01*
X131851868Y-50082721D01*
X131845035Y-50059490D01*
X131838116Y-50036247D01*
X131831108Y-50012987D01*
X131824012Y-49989709D01*
X131816826Y-49966407D01*
X131809548Y-49943079D01*
X131802177Y-49919722D01*
X131794712Y-49896331D01*
X131787152Y-49872902D01*
X131779495Y-49849432D01*
X131771738Y-49825916D01*
X131763882Y-49802350D01*
X131755923Y-49778728D01*
X131747860Y-49755047D01*
X131739690Y-49731299D01*
X131731412Y-49707481D01*
X131723023Y-49683587D01*
X131714520Y-49659609D01*
X131705902Y-49635543D01*
X131697164Y-49611380D01*
X131688305Y-49587113D01*
X131679320Y-49562736D01*
X131670207Y-49538239D01*
X131660961Y-49513614D01*
X131651578Y-49488851D01*
X131642054Y-49463939D01*
X131632384Y-49438869D01*
X131622564Y-49413628D01*
X131612586Y-49388204D01*
X131602446Y-49362582D01*
X131592136Y-49336747D01*
X131581649Y-49310683D01*
X131570978Y-49284372D01*
X131560112Y-49257793D01*
X131549042Y-49230925D01*
X131537756Y-49203742D01*
X131526243Y-49176217D01*
X131514489Y-49148320D01*
X131502476Y-49120014D01*
X131490187Y-49091260D01*
X131477601Y-49062012D01*
X131464693Y-49032216D01*
X131451435Y-49001810D01*
X131437793Y-48970720D01*
X131423725Y-48938856D01*
X131409181Y-48906110D01*
X131394100Y-48872346D01*
X131378402Y-48837394D01*
X131361984Y-48801028D01*
X131344705Y-48762947D01*
X131326369Y-48722723D01*
X131306681Y-48679716D01*
X131285157Y-48632884D01*
X131260907Y-48580298D01*
X131231860Y-48517480D01*
X131205526Y-48460611D01*
X131165724Y-48374631D01*
X131145886Y-48331696D01*
X131126101Y-48288780D01*
X131106379Y-48245868D01*
X131086729Y-48202949D01*
X131076934Y-48181482D01*
X131067159Y-48160008D01*
X131057408Y-48138526D01*
X131047679Y-48117033D01*
X131037975Y-48095528D01*
X131028297Y-48074009D01*
X131018645Y-48052475D01*
X131009022Y-48030925D01*
X130999427Y-48009355D01*
X130989863Y-47987765D01*
X130980329Y-47966153D01*
X130970829Y-47944518D01*
X130961361Y-47922857D01*
X130951928Y-47901169D01*
X130942531Y-47879452D01*
X130933170Y-47857705D01*
X130923848Y-47835926D01*
X130914564Y-47814114D01*
X130905320Y-47792266D01*
X130896118Y-47770381D01*
X130886958Y-47748457D01*
X130877842Y-47726493D01*
X130868770Y-47704487D01*
X130859743Y-47682438D01*
X130850764Y-47660343D01*
X130841832Y-47638201D01*
X130832949Y-47616010D01*
X130824117Y-47593769D01*
X130815335Y-47571476D01*
X130806606Y-47549130D01*
X130797931Y-47526728D01*
X130789310Y-47504269D01*
X130780744Y-47481752D01*
X130772235Y-47459174D01*
X130763785Y-47436534D01*
X130755393Y-47413830D01*
X130747061Y-47391062D01*
X130742918Y-47379652D01*
X130738791Y-47368226D01*
X130734679Y-47356782D01*
X130730582Y-47345321D01*
X130726502Y-47333843D01*
X130722438Y-47322347D01*
X130718389Y-47310832D01*
X130714357Y-47299300D01*
X130710342Y-47287749D01*
X130706343Y-47276180D01*
X130702361Y-47264591D01*
X130698395Y-47252984D01*
X130694447Y-47241357D01*
X130690515Y-47229711D01*
X130686601Y-47218045D01*
X130682704Y-47206360D01*
X130678825Y-47194654D01*
X130674963Y-47182928D01*
X130671119Y-47171182D01*
X130667294Y-47159414D01*
X130663486Y-47147626D01*
X130659696Y-47135817D01*
X130655925Y-47123987D01*
X130652172Y-47112135D01*
X130648438Y-47100261D01*
X130644723Y-47088365D01*
X130641027Y-47076447D01*
X130637349Y-47064507D01*
X130633691Y-47052544D01*
X130630052Y-47040558D01*
X130626433Y-47028550D01*
X130622833Y-47016518D01*
X130619253Y-47004462D01*
X130615693Y-46992384D01*
X130612153Y-46980281D01*
X130608633Y-46968154D01*
X130605133Y-46956003D01*
X130601654Y-46943828D01*
X130598196Y-46931627D01*
X130594758Y-46919403D01*
X130591341Y-46907152D01*
X130587944Y-46894877D01*
X130584570Y-46882576D01*
X130581216Y-46870250D01*
X130577884Y-46857897D01*
X130574573Y-46845519D01*
X130571284Y-46833114D01*
X130568017Y-46820682D01*
X130564772Y-46808224D01*
X130561548Y-46795739D01*
X130558348Y-46783227D01*
X130555169Y-46770687D01*
X130552013Y-46758120D01*
X130548880Y-46745525D01*
X130545769Y-46732902D01*
X130542682Y-46720251D01*
X130539617Y-46707571D01*
X130536576Y-46694863D01*
X130533558Y-46682126D01*
X130530564Y-46669360D01*
X130527593Y-46656565D01*
X130524646Y-46643740D01*
X130521723Y-46630885D01*
X130518824Y-46618001D01*
X130515949Y-46605087D01*
X130513098Y-46592142D01*
X130510272Y-46579167D01*
X130507471Y-46566161D01*
X130504694Y-46553124D01*
X130501942Y-46540056D01*
X130499215Y-46526957D01*
X130496514Y-46513826D01*
X130493837Y-46500664D01*
X130491186Y-46487470D01*
X130488561Y-46474243D01*
X130485961Y-46460984D01*
X130483387Y-46447693D01*
X130480840Y-46434368D01*
X130478318Y-46421011D01*
X130475823Y-46407621D01*
X130473354Y-46394197D01*
X130470911Y-46380739D01*
X130468495Y-46367248D01*
X130466106Y-46353722D01*
X130463744Y-46340163D01*
X130461410Y-46326569D01*
X130459102Y-46312940D01*
X130456822Y-46299277D01*
X130454569Y-46285578D01*
X130452344Y-46271844D01*
X130450147Y-46258075D01*
X130447977Y-46244269D01*
X130445836Y-46230428D01*
X130443723Y-46216551D01*
X130441638Y-46202638D01*
X130439582Y-46188688D01*
X130437554Y-46174701D01*
X130435556Y-46160677D01*
X130433586Y-46146617D01*
X130431645Y-46132518D01*
X130429733Y-46118383D01*
X130427851Y-46104209D01*
X130425998Y-46089998D01*
X130424175Y-46075748D01*
X130422381Y-46061460D01*
X130420618Y-46047133D01*
X130418884Y-46032767D01*
X130417180Y-46018363D01*
X130415507Y-46003919D01*
X130413864Y-45989436D01*
X130412252Y-45974913D01*
X130410671Y-45960350D01*
X130409120Y-45945747D01*
X130407601Y-45931104D01*
X130406112Y-45916420D01*
X130404655Y-45901696D01*
X130403229Y-45886931D01*
X130401835Y-45872124D01*
X130400472Y-45857277D01*
X130399141Y-45842388D01*
X130397843Y-45827457D01*
X130396576Y-45812484D01*
X130395341Y-45797469D01*
X130394139Y-45782411D01*
X130392970Y-45767311D01*
X130391833Y-45752169D01*
X130390729Y-45736983D01*
X130389658Y-45721754D01*
X130388619Y-45706482D01*
X130387615Y-45691166D01*
X130386643Y-45675806D01*
X130385705Y-45660402D01*
X130384801Y-45644954D01*
X130383930Y-45629462D01*
X130383093Y-45613925D01*
X130382290Y-45598343D01*
X130381522Y-45582716D01*
X130380788Y-45567043D01*
X130380088Y-45551326D01*
X130379423Y-45535562D01*
X130378792Y-45519753D01*
X130378197Y-45503897D01*
X130377636Y-45487995D01*
X130377111Y-45472047D01*
X130376621Y-45456052D01*
X130376166Y-45440010D01*
X130375747Y-45423921D01*
X130375364Y-45407784D01*
X130375016Y-45391600D01*
X130374705Y-45375368D01*
X130374429Y-45359088D01*
X130374190Y-45342760D01*
X130373988Y-45326384D01*
X130373821Y-45309959D01*
X130373692Y-45293485D01*
X130373599Y-45276962D01*
X130373544Y-45260390D01*
X130373525Y-45243768D01*
D10*
X141684474Y-79771924D02*
G75*
G02*
X144065776Y-82153174I26J-2381276D01*
G01*
X74414105Y-113704688D02*
X118467267Y-113704763D01*
X61912500Y-47029705D02*
G75*
G02*
X64293750Y-44648400I2381300J5D01*
G01*
D11*
X107751633Y-75604699D02*
X107740305Y-75604689D01*
X107729002Y-75604660D01*
X107717722Y-75604610D01*
X107706466Y-75604540D01*
X107695234Y-75604451D01*
X107684025Y-75604342D01*
X107672840Y-75604213D01*
X107661678Y-75604064D01*
X107650540Y-75603896D01*
X107639425Y-75603708D01*
X107628333Y-75603501D01*
X107617264Y-75603274D01*
X107606218Y-75603027D01*
X107595196Y-75602761D01*
X107584196Y-75602476D01*
X107573219Y-75602171D01*
X107562264Y-75601847D01*
X107551332Y-75601503D01*
X107540422Y-75601141D01*
X107529536Y-75600759D01*
X107518671Y-75600357D01*
X107507829Y-75599937D01*
X107497008Y-75599497D01*
X107486211Y-75599039D01*
X107475434Y-75598561D01*
X107464680Y-75598064D01*
X107453948Y-75597549D01*
X107443238Y-75597014D01*
X107432548Y-75596460D01*
X107421881Y-75595888D01*
X107411235Y-75595297D01*
X107400611Y-75594687D01*
X107390008Y-75594058D01*
X107379427Y-75593410D01*
X107368865Y-75592744D01*
X107358327Y-75592058D01*
X107347807Y-75591355D01*
X107337311Y-75590632D01*
X107326833Y-75589891D01*
X107316378Y-75589132D01*
X107305942Y-75588354D01*
X107295528Y-75587558D01*
X107285133Y-75586743D01*
X107274761Y-75585909D01*
X107264406Y-75585057D01*
X107254074Y-75584187D01*
X107243760Y-75583299D01*
X107233469Y-75582392D01*
X107223195Y-75581467D01*
X107212943Y-75580523D01*
X107202709Y-75579562D01*
X107192497Y-75578582D01*
X107182303Y-75577584D01*
X107172130Y-75576568D01*
X107161974Y-75575533D01*
X107151841Y-75574481D01*
X107141724Y-75573410D01*
X107131629Y-75572322D01*
X107121551Y-75571215D01*
X107111494Y-75570091D01*
X107101454Y-75568949D01*
X107091435Y-75567788D01*
X107081433Y-75566610D01*
X107071452Y-75565414D01*
X107061487Y-75564199D01*
X107051543Y-75562968D01*
X107041615Y-75561718D01*
X107031709Y-75560450D01*
X107021818Y-75559165D01*
X107011948Y-75557862D01*
X107002093Y-75556541D01*
X106992260Y-75555202D01*
X106982442Y-75553846D01*
X106972644Y-75552472D01*
X106962862Y-75551080D01*
X106953100Y-75549671D01*
X106943353Y-75548244D01*
X106933627Y-75546800D01*
X106923915Y-75545337D01*
X106914224Y-75543858D01*
X106904547Y-75542360D01*
X106894890Y-75540846D01*
X106885248Y-75539313D01*
X106875626Y-75537764D01*
X106866017Y-75536197D01*
X106856429Y-75534612D01*
X106846855Y-75533010D01*
X106837301Y-75531390D01*
X106827760Y-75529753D01*
X106818239Y-75528099D01*
X106808731Y-75526427D01*
X106799244Y-75524738D01*
X106789769Y-75523031D01*
X106780314Y-75521308D01*
X106770871Y-75519566D01*
X106761449Y-75517808D01*
X106742649Y-75514239D01*
X106723912Y-75510601D01*
X106705238Y-75506894D01*
X106686627Y-75503118D01*
X106668077Y-75499273D01*
X106649589Y-75495359D01*
X106631160Y-75491376D01*
X106612792Y-75487324D01*
X106594482Y-75483204D01*
X106576231Y-75479015D01*
X106558038Y-75474757D01*
X106539901Y-75470431D01*
X106521821Y-75466036D01*
X106503797Y-75461573D01*
X106485827Y-75457041D01*
X106467912Y-75452440D01*
X106450051Y-75447771D01*
X106432242Y-75443033D01*
X106414486Y-75438226D01*
X106396781Y-75433351D01*
X106379127Y-75428406D01*
X106361524Y-75423393D01*
X106343970Y-75418311D01*
X106326464Y-75413161D01*
X106309007Y-75407941D01*
X106291597Y-75402652D01*
X106274234Y-75397293D01*
X106256917Y-75391866D01*
X106239645Y-75386369D01*
X106222418Y-75380802D01*
X106205234Y-75375165D01*
X106188094Y-75369459D01*
X106170996Y-75363683D01*
X106153939Y-75357836D01*
X106136923Y-75351920D01*
X106119948Y-75345932D01*
X106103011Y-75339874D01*
X106086113Y-75333745D01*
X106069253Y-75327544D01*
X106052430Y-75321273D01*
X106035644Y-75314929D01*
X106018892Y-75308514D01*
X106002176Y-75302026D01*
X105985493Y-75295466D01*
X105968843Y-75288834D01*
X105952225Y-75282128D01*
X105935639Y-75275349D01*
X105919083Y-75268495D01*
X105902557Y-75261568D01*
X105886059Y-75254567D01*
X105869590Y-75247490D01*
X105853147Y-75240339D01*
X105836731Y-75233111D01*
X105820339Y-75225808D01*
X105803972Y-75218428D01*
X105787629Y-75210971D01*
X105771307Y-75203437D01*
X105755008Y-75195824D01*
X105738728Y-75188133D01*
X105722468Y-75180363D01*
X105706227Y-75172514D01*
X105690002Y-75164584D01*
X105673795Y-75156573D01*
X105657602Y-75148481D01*
X105641423Y-75140307D01*
X105625258Y-75132050D01*
X105609104Y-75123709D01*
X105592961Y-75115284D01*
X105576828Y-75106774D01*
X105560702Y-75098179D01*
X105544584Y-75089496D01*
X105528472Y-75080726D01*
X105512364Y-75071868D01*
X105496259Y-75062921D01*
X105480156Y-75053883D01*
X105464053Y-75044754D01*
X105447949Y-75035532D01*
X105431842Y-75026218D01*
X105415731Y-75016808D01*
X105399615Y-75007303D01*
X105383491Y-74997701D01*
X105367358Y-74988001D01*
X105351214Y-74978201D01*
X105335057Y-74968300D01*
X105318886Y-74958297D01*
X105302699Y-74948190D01*
X105286493Y-74937978D01*
X105270267Y-74927658D01*
X105254018Y-74917230D01*
X105237745Y-74906691D01*
X105221444Y-74896040D01*
X105205114Y-74885274D01*
X105188752Y-74874391D01*
X105172355Y-74863390D01*
X105155921Y-74852268D01*
X105139446Y-74841022D01*
X105122929Y-74829650D01*
X105106365Y-74818150D01*
X105089751Y-74806518D01*
X105073084Y-74794752D01*
X105056361Y-74782848D01*
X105039577Y-74770804D01*
X105022728Y-74758615D01*
X105005811Y-74746278D01*
X104988820Y-74733789D01*
X104971751Y-74721144D01*
X104954598Y-74708338D01*
X104937357Y-74695366D01*
X104920022Y-74682224D01*
X104902585Y-74668905D01*
X104885041Y-74655404D01*
X104867383Y-74641715D01*
X104849602Y-74627831D01*
X104831691Y-74613743D01*
X104813640Y-74599445D01*
X104795441Y-74584927D01*
X104777081Y-74570180D01*
X104758549Y-74555194D01*
X104739834Y-74539956D01*
X104720920Y-74524454D01*
X104701793Y-74508675D01*
X104682434Y-74492602D01*
X104662825Y-74476219D01*
X104642944Y-74459505D01*
X104622766Y-74442438D01*
X104602264Y-74424993D01*
X104581406Y-74407140D01*
X104560154Y-74388847D01*
X104538466Y-74370074D01*
X104516290Y-74350775D01*
X104493564Y-74330893D01*
X104470216Y-74310361D01*
X104446152Y-74289096D01*
X104421257Y-74266991D01*
X104395381Y-74243911D01*
X104368322Y-74219671D01*
X104339801Y-74194017D01*
X104309405Y-74166574D01*
X104276482Y-74136745D01*
X104239868Y-74103472D01*
X104197069Y-74064478D01*
X104142666Y-74014833D01*
X104106293Y-73981634D01*
X104069953Y-73948496D01*
X104033631Y-73915432D01*
X104015471Y-73898933D01*
X103997309Y-73882458D01*
X103979143Y-73866009D01*
X103960971Y-73849589D01*
X103942791Y-73833198D01*
X103924602Y-73816838D01*
X103906400Y-73800512D01*
X103888184Y-73784222D01*
X103869952Y-73767969D01*
X103851702Y-73751755D01*
X103833431Y-73735582D01*
X103815139Y-73719451D01*
X103796822Y-73703365D01*
X103778479Y-73687326D01*
X103760107Y-73671335D01*
X103741705Y-73655394D01*
X103723271Y-73639506D01*
X103704802Y-73623671D01*
X103686297Y-73607892D01*
X103667753Y-73592170D01*
X103649169Y-73576508D01*
X103630542Y-73560907D01*
X103611871Y-73545369D01*
X103602517Y-73537625D01*
X103593152Y-73529897D01*
X103583775Y-73522185D01*
X103574386Y-73514491D01*
X103564983Y-73506814D01*
X103555568Y-73499154D01*
X103546139Y-73491511D01*
X103536698Y-73483887D01*
X103527242Y-73476281D01*
X103517772Y-73468693D01*
X103508289Y-73461123D01*
X103498790Y-73453573D01*
X103489277Y-73446041D01*
X103479749Y-73438529D01*
X103470206Y-73431036D01*
X103460648Y-73423563D01*
X103451073Y-73416110D01*
X103441483Y-73408677D01*
X103431876Y-73401264D01*
X103422253Y-73393872D01*
X103412613Y-73386501D01*
X103402956Y-73379151D01*
X103393282Y-73371823D01*
X103383590Y-73364516D01*
X103373881Y-73357230D01*
X103364153Y-73349967D01*
X103354407Y-73342726D01*
X103344643Y-73335508D01*
X103334860Y-73328312D01*
X103325058Y-73321139D01*
X103315236Y-73313990D01*
X103305395Y-73306864D01*
X103295535Y-73299761D01*
X103285654Y-73292682D01*
X103275752Y-73285628D01*
X103265831Y-73278598D01*
X103255888Y-73271592D01*
X103245924Y-73264611D01*
X103235939Y-73257656D01*
X103225933Y-73250725D01*
X103215904Y-73243820D01*
X103205854Y-73236941D01*
X103195781Y-73230088D01*
X103185685Y-73223261D01*
X103175567Y-73216460D01*
X103165425Y-73209686D01*
X103155260Y-73202939D01*
X103145072Y-73196219D01*
X103134859Y-73189527D01*
X103124623Y-73182862D01*
X103114362Y-73176224D01*
X103104076Y-73169615D01*
X103093766Y-73163034D01*
X103083430Y-73156482D01*
X103073069Y-73149958D01*
X103062682Y-73143464D01*
X103052270Y-73136998D01*
X103041831Y-73130562D01*
X103031366Y-73124156D01*
X103020874Y-73117779D01*
X103010355Y-73111433D01*
X102999809Y-73105117D01*
X102989235Y-73098832D01*
X102978634Y-73092577D01*
X102968005Y-73086354D01*
X102957348Y-73080162D01*
X102946662Y-73074001D01*
X102935947Y-73067872D01*
X102925204Y-73061775D01*
X102914431Y-73055711D01*
X102903629Y-73049678D01*
X102892797Y-73043679D01*
X102881935Y-73037712D01*
X102871043Y-73031778D01*
X102860120Y-73025878D01*
X102849166Y-73020012D01*
X102838182Y-73014179D01*
X102827166Y-73008380D01*
X102816119Y-73002616D01*
X102805040Y-72996886D01*
X102793929Y-72991191D01*
X102782785Y-72985531D01*
X102771610Y-72979906D01*
X102760401Y-72974317D01*
X102749159Y-72968763D01*
X102737884Y-72963245D01*
X102726576Y-72957763D01*
X102715233Y-72952318D01*
X102703857Y-72946909D01*
X102692446Y-72941538D01*
X102681001Y-72936203D01*
X102669521Y-72930905D01*
X102658005Y-72925645D01*
X102646455Y-72920423D01*
X102634869Y-72915239D01*
X102623246Y-72910093D01*
X102611588Y-72904986D01*
X102599894Y-72899917D01*
X102588163Y-72894887D01*
X102576395Y-72889896D01*
X102564590Y-72884945D01*
X102552747Y-72880033D01*
X102540867Y-72875161D01*
X102528949Y-72870330D01*
X102516993Y-72865538D01*
X102504999Y-72860787D01*
X102492966Y-72856077D01*
X102480894Y-72851408D01*
X102468782Y-72846780D01*
X102456632Y-72842194D01*
X102444442Y-72837649D01*
X102432211Y-72833146D01*
X102419941Y-72828686D01*
X102407630Y-72824267D01*
X102395279Y-72819892D01*
X102382887Y-72815559D01*
X102370453Y-72811269D01*
X102357978Y-72807023D01*
X102345461Y-72802820D01*
X102332903Y-72798661D01*
X102320302Y-72794546D01*
X102307658Y-72790475D01*
X102294972Y-72786449D01*
X102282243Y-72782468D01*
X102269471Y-72778531D01*
X102256655Y-72774640D01*
X102243796Y-72770793D01*
X102230892Y-72766993D01*
X102217945Y-72763239D01*
X102204952Y-72759530D01*
X102191915Y-72755868D01*
X102178833Y-72752252D01*
X102165706Y-72748684D01*
X102152533Y-72745162D01*
X102139315Y-72741687D01*
X102126050Y-72738260D01*
X102112740Y-72734881D01*
X102099382Y-72731550D01*
X102085978Y-72728267D01*
X102072527Y-72725032D01*
X102059028Y-72721846D01*
X102045482Y-72718709D01*
X102031888Y-72715620D01*
X102018247Y-72712582D01*
X102004556Y-72709592D01*
X101990817Y-72706653D01*
X101977030Y-72703764D01*
X101963193Y-72700924D01*
X101949307Y-72698136D01*
X101935371Y-72695398D01*
X101921386Y-72692711D01*
X101907350Y-72690075D01*
X101893264Y-72687491D01*
X101879128Y-72684958D01*
X101864940Y-72682477D01*
X101850702Y-72680049D01*
X101836412Y-72677672D01*
X101822070Y-72675348D01*
X101807677Y-72673077D01*
X101793231Y-72670860D01*
X101778734Y-72668695D01*
X101764183Y-72666584D01*
X101749579Y-72664526D01*
X101734923Y-72662523D01*
X101720213Y-72660574D01*
X101705449Y-72658679D01*
X101690631Y-72656839D01*
X101675760Y-72655053D01*
X101660833Y-72653323D01*
X101645853Y-72651648D01*
X101630817Y-72650029D01*
X101615726Y-72648466D01*
X101600579Y-72646958D01*
X101585377Y-72645507D01*
X101570119Y-72644113D01*
X101554805Y-72642775D01*
X101539434Y-72641494D01*
X101524006Y-72640270D01*
X101508522Y-72639104D01*
X101492980Y-72637995D01*
X101477381Y-72636945D01*
X101461724Y-72635952D01*
X101446009Y-72635018D01*
X101430236Y-72634142D01*
X101414404Y-72633326D01*
X101398514Y-72632568D01*
X101382565Y-72631869D01*
X101366556Y-72631231D01*
X101350488Y-72630651D01*
X101334360Y-72630132D01*
X101318172Y-72629673D01*
X101301924Y-72629275D01*
X101285615Y-72628937D01*
X101269245Y-72628660D01*
X101252815Y-72628444D01*
X101236323Y-72628290D01*
X101219769Y-72628197D01*
X101203154Y-72628166D01*
D10*
X44053142Y-33337508D02*
G75*
G02*
X45243692Y-34528134I-42J-1190592D01*
G01*
D11*
X43457829Y-33337508D02*
X43448875Y-33337518D01*
X43439946Y-33337548D01*
X43431052Y-33337598D01*
X43422182Y-33337668D01*
X43413348Y-33337757D01*
X43404537Y-33337866D01*
X43395761Y-33337995D01*
X43387010Y-33338143D01*
X43378292Y-33338311D01*
X43369599Y-33338498D01*
X43360939Y-33338705D01*
X43352304Y-33338931D01*
X43343702Y-33339176D01*
X43335124Y-33339440D01*
X43326579Y-33339724D01*
X43318058Y-33340026D01*
X43309569Y-33340348D01*
X43301105Y-33340688D01*
X43292673Y-33341047D01*
X43284265Y-33341426D01*
X43275888Y-33341822D01*
X43267536Y-33342238D01*
X43259215Y-33342672D01*
X43250918Y-33343125D01*
X43242652Y-33343596D01*
X43234410Y-33344086D01*
X43226199Y-33344594D01*
X43218011Y-33345121D01*
X43209854Y-33345666D01*
X43201720Y-33346229D01*
X43193617Y-33346810D01*
X43185537Y-33347409D01*
X43177487Y-33348027D01*
X43169461Y-33348662D01*
X43161464Y-33349315D01*
X43153490Y-33349987D01*
X43145546Y-33350676D01*
X43137624Y-33351383D01*
X43129732Y-33352107D01*
X43121862Y-33352850D01*
X43114022Y-33353609D01*
X43106204Y-33354387D01*
X43098415Y-33355182D01*
X43090649Y-33355995D01*
X43082911Y-33356825D01*
X43075195Y-33357672D01*
X43067507Y-33358537D01*
X43059842Y-33359419D01*
X43052205Y-33360318D01*
X43044590Y-33361235D01*
X43037002Y-33362168D01*
X43029437Y-33363119D01*
X43021899Y-33364086D01*
X43014382Y-33365071D01*
X43006893Y-33366073D01*
X42999426Y-33367091D01*
X42991985Y-33368127D01*
X42984566Y-33369179D01*
X42977174Y-33370248D01*
X42969803Y-33371334D01*
X42962459Y-33372436D01*
X42955136Y-33373555D01*
X42947839Y-33374690D01*
X42940564Y-33375843D01*
X42933314Y-33377011D01*
X42926085Y-33378197D01*
X42918882Y-33379398D01*
X42911700Y-33380616D01*
X42904544Y-33381850D01*
X42897408Y-33383101D01*
X42890297Y-33384368D01*
X42883208Y-33385651D01*
X42876143Y-33386950D01*
X42869098Y-33388266D01*
X42862078Y-33389597D01*
X42855079Y-33390945D01*
X42848104Y-33392308D01*
X42841150Y-33393688D01*
X42834220Y-33395083D01*
X42827310Y-33396495D01*
X42820424Y-33397922D01*
X42813558Y-33399366D01*
X42806715Y-33400824D01*
X42799893Y-33402299D01*
X42793094Y-33403790D01*
X42786316Y-33405296D01*
X42779560Y-33406818D01*
X42772824Y-33408356D01*
X42766111Y-33409909D01*
X42759418Y-33411478D01*
X42752747Y-33413063D01*
X42746097Y-33414663D01*
X42739468Y-33416278D01*
X42732859Y-33417909D01*
X42726272Y-33419555D01*
X42719705Y-33421217D01*
X42713160Y-33422894D01*
X42706634Y-33424587D01*
X42700129Y-33426295D01*
X42693644Y-33428018D01*
X42687180Y-33429756D01*
X42680736Y-33431510D01*
X42674313Y-33433279D01*
X42667908Y-33435063D01*
X42661525Y-33436862D01*
X42655161Y-33438677D01*
X42648817Y-33440506D01*
X42642492Y-33442351D01*
X42636188Y-33444211D01*
X42629903Y-33446086D01*
X42623637Y-33447975D01*
X42617391Y-33449880D01*
X42611164Y-33451800D01*
X42604956Y-33453735D01*
X42598768Y-33455685D01*
X42592598Y-33457649D01*
X42586448Y-33459629D01*
X42580317Y-33461624D01*
X42574204Y-33463633D01*
X42568110Y-33465657D01*
X42562035Y-33467697D01*
X42555978Y-33469751D01*
X42549940Y-33471819D01*
X42543921Y-33473903D01*
X42537919Y-33476001D01*
X42531936Y-33478114D01*
X42525972Y-33480242D01*
X42520025Y-33482385D01*
X42514096Y-33484542D01*
X42508186Y-33486714D01*
X42502293Y-33488901D01*
X42496418Y-33491103D01*
X42490561Y-33493319D01*
X42484722Y-33495550D01*
X42478900Y-33497795D01*
X42473096Y-33500055D01*
X42467309Y-33502330D01*
X42461539Y-33504620D01*
X42455787Y-33506924D01*
X42450052Y-33509243D01*
X42444334Y-33511576D01*
X42438634Y-33513924D01*
X42432949Y-33516287D01*
X42427283Y-33518664D01*
X42421632Y-33521055D01*
X42416000Y-33523462D01*
X42410383Y-33525883D01*
X42404783Y-33528318D01*
X42399200Y-33530768D01*
X42393633Y-33533233D01*
X42388082Y-33535712D01*
X42382549Y-33538206D01*
X42377030Y-33540714D01*
X42371530Y-33543237D01*
X42366043Y-33545775D01*
X42360575Y-33548327D01*
X42355121Y-33550894D01*
X42349684Y-33553475D01*
X42344262Y-33556071D01*
X42338857Y-33558681D01*
X42333466Y-33561306D01*
X42328092Y-33563946D01*
X42322733Y-33566600D01*
X42317390Y-33569269D01*
X42312061Y-33571953D01*
X42306750Y-33574650D01*
X42301452Y-33577364D01*
X42296171Y-33580090D01*
X42285652Y-33585589D01*
X42275194Y-33591146D01*
X42264795Y-33596762D01*
X42254456Y-33602437D01*
X42244175Y-33608171D01*
X42233952Y-33613964D01*
X42223787Y-33619815D01*
X42213679Y-33625727D01*
X42203627Y-33631697D01*
X42193632Y-33637727D01*
X42183692Y-33643817D01*
X42173807Y-33649967D01*
X42163977Y-33656177D01*
X42154201Y-33662447D01*
X42144479Y-33668778D01*
X42134810Y-33675169D01*
X42125193Y-33681621D01*
X42115629Y-33688134D01*
X42106117Y-33694709D01*
X42096656Y-33701345D01*
X42087246Y-33708043D01*
X42077886Y-33714803D01*
X42068577Y-33721626D01*
X42059317Y-33728511D01*
X42050106Y-33735459D01*
X42040944Y-33742470D01*
X42031830Y-33749545D01*
X42022764Y-33756684D01*
X42013745Y-33763888D01*
X42004774Y-33771156D01*
X41995849Y-33778489D01*
X41986970Y-33785887D01*
X41978137Y-33793351D01*
X41969350Y-33800881D01*
X41960607Y-33808478D01*
X41951909Y-33816142D01*
X41943256Y-33823874D01*
X41934646Y-33831673D01*
X41926080Y-33839541D01*
X41917557Y-33847477D01*
X41909076Y-33855483D01*
X41900638Y-33863559D01*
X41892242Y-33871705D01*
X41883888Y-33879922D01*
X41875574Y-33888210D01*
X41867302Y-33896571D01*
X41859070Y-33905004D01*
X41850879Y-33913510D01*
X41842727Y-33922090D01*
X41834615Y-33930744D01*
X41826542Y-33939473D01*
X41818507Y-33948278D01*
X41810511Y-33957160D01*
X41802554Y-33966118D01*
X41794634Y-33975154D01*
X41786751Y-33984268D01*
X41778906Y-33993462D01*
X41771098Y-34002735D01*
X41763326Y-34012090D01*
X41755590Y-34021525D01*
X41747889Y-34031043D01*
X41740225Y-34040644D01*
X41732595Y-34050329D01*
X41725001Y-34060099D01*
X41717441Y-34069955D01*
X41709915Y-34079897D01*
X41702423Y-34089927D01*
X41694964Y-34100045D01*
X41687539Y-34110253D01*
X41680146Y-34120551D01*
X41672787Y-34130941D01*
X41665459Y-34141424D01*
X41658163Y-34152000D01*
X41650899Y-34162671D01*
X41643666Y-34173438D01*
X41636464Y-34184303D01*
X41629293Y-34195265D01*
X41622152Y-34206328D01*
X41615040Y-34217491D01*
X41607959Y-34228756D01*
X41600906Y-34240125D01*
X41593882Y-34251599D01*
X41586887Y-34263180D01*
X41579920Y-34274868D01*
X41572980Y-34286666D01*
X41566068Y-34298575D01*
X41559183Y-34310596D01*
X41552324Y-34322732D01*
X41545492Y-34334983D01*
X41538685Y-34347353D01*
X41531904Y-34359841D01*
X41525147Y-34372452D01*
X41518415Y-34385186D01*
X41511707Y-34398045D01*
X41505022Y-34411032D01*
X41498360Y-34424148D01*
X41491721Y-34437397D01*
X41485103Y-34450779D01*
X41478507Y-34464299D01*
X41471932Y-34477958D01*
X41465377Y-34491758D01*
X41458842Y-34505703D01*
X41452326Y-34519796D01*
X41445828Y-34534039D01*
X41439348Y-34548435D01*
X41432885Y-34562988D01*
X41426438Y-34577700D01*
X41420007Y-34592577D01*
X41413590Y-34607620D01*
X41407187Y-34622834D01*
X41400797Y-34638224D01*
X41394418Y-34653792D01*
X41388051Y-34669545D01*
X41381693Y-34685486D01*
X41375344Y-34701620D01*
X41369003Y-34717953D01*
X41362667Y-34734490D01*
X41356337Y-34751237D01*
X41350010Y-34768200D01*
X41343685Y-34785386D01*
X41337360Y-34802803D01*
X41331033Y-34820457D01*
X41324703Y-34838356D01*
X41318368Y-34856510D01*
X41312025Y-34874927D01*
X41305671Y-34893617D01*
X41299306Y-34912592D01*
X41292925Y-34931863D01*
X41286525Y-34951443D01*
X41280104Y-34971345D01*
X41273657Y-34991586D01*
X41267180Y-35012180D01*
X41260670Y-35033147D01*
X41254121Y-35054507D01*
X41247527Y-35076283D01*
X41240883Y-35098499D01*
X41234182Y-35121184D01*
X41227415Y-35144371D01*
X41220573Y-35168096D01*
X41213647Y-35192400D01*
X41206624Y-35217333D01*
X41199490Y-35242951D01*
X41192228Y-35269322D01*
X41184818Y-35296528D01*
X41177236Y-35324667D01*
X41169450Y-35353861D01*
X41161423Y-35384266D01*
X41153104Y-35416084D01*
X41144424Y-35449589D01*
X41135288Y-35485165D01*
X41125552Y-35523386D01*
X41114985Y-35565180D01*
X41103160Y-35612253D01*
X41089103Y-35668502D01*
X41076579Y-35718763D01*
D10*
X126206250Y-82748487D02*
G75*
G02*
X128587413Y-85129737I-50J-2381213D01*
G01*
X119062500Y-73223400D02*
X119062500Y-66079721D01*
X66675000Y-116681250D02*
X147042237Y-116681523D01*
D11*
X55364089Y-46434374D02*
X55364099Y-46419761D01*
X55364129Y-46405201D01*
X55364179Y-46390708D01*
X55364248Y-46376267D01*
X55364338Y-46361892D01*
X55364446Y-46347569D01*
X55364575Y-46333312D01*
X55364723Y-46319106D01*
X55364890Y-46304965D01*
X55365076Y-46290875D01*
X55365282Y-46276849D01*
X55365507Y-46262875D01*
X55365751Y-46248963D01*
X55366014Y-46235103D01*
X55366296Y-46221304D01*
X55366596Y-46207557D01*
X55366916Y-46193872D01*
X55367254Y-46180236D01*
X55367610Y-46166662D01*
X55367986Y-46153138D01*
X55368379Y-46139675D01*
X55368791Y-46126261D01*
X55369222Y-46112907D01*
X55369670Y-46099603D01*
X55370137Y-46086358D01*
X55370622Y-46073161D01*
X55371124Y-46060024D01*
X55371645Y-46046935D01*
X55372184Y-46033905D01*
X55372740Y-46020922D01*
X55373314Y-46007997D01*
X55373906Y-45995121D01*
X55374516Y-45982301D01*
X55375143Y-45969529D01*
X55375787Y-45956813D01*
X55376449Y-45944144D01*
X55377128Y-45931531D01*
X55377824Y-45918966D01*
X55378537Y-45906455D01*
X55379268Y-45893991D01*
X55380016Y-45881582D01*
X55380780Y-45869219D01*
X55381562Y-45856910D01*
X55382360Y-45844647D01*
X55383175Y-45832437D01*
X55384007Y-45820274D01*
X55384856Y-45808163D01*
X55385721Y-45796097D01*
X55386602Y-45784084D01*
X55387501Y-45772116D01*
X55388415Y-45760199D01*
X55389346Y-45748327D01*
X55390293Y-45736507D01*
X55391256Y-45724730D01*
X55392236Y-45713005D01*
X55393232Y-45701323D01*
X55394243Y-45689692D01*
X55395271Y-45678104D01*
X55396314Y-45666566D01*
X55397374Y-45655071D01*
X55398449Y-45643625D01*
X55399540Y-45632223D01*
X55400646Y-45620868D01*
X55401769Y-45609557D01*
X55402907Y-45598293D01*
X55404060Y-45587072D01*
X55405229Y-45575898D01*
X55406413Y-45564767D01*
X55407613Y-45553682D01*
X55408828Y-45542639D01*
X55410058Y-45531642D01*
X55411303Y-45520687D01*
X55412564Y-45509777D01*
X55413839Y-45498909D01*
X55415130Y-45488086D01*
X55416436Y-45477304D01*
X55417756Y-45466566D01*
X55419092Y-45455870D01*
X55420442Y-45445217D01*
X55421807Y-45434605D01*
X55423187Y-45424036D01*
X55424582Y-45413507D01*
X55425991Y-45403021D01*
X55427415Y-45392576D01*
X55428853Y-45382172D01*
X55430306Y-45371808D01*
X55431773Y-45361486D01*
X55433255Y-45351203D01*
X55434751Y-45340962D01*
X55436262Y-45330760D01*
X55437786Y-45320598D01*
X55439325Y-45310475D01*
X55440878Y-45300392D01*
X55442446Y-45290348D01*
X55444027Y-45280344D01*
X55445623Y-45270378D01*
X55447232Y-45260451D01*
X55448856Y-45250562D01*
X55450494Y-45240711D01*
X55452145Y-45230899D01*
X55453810Y-45221124D01*
X55455489Y-45211387D01*
X55457182Y-45201687D01*
X55458889Y-45192025D01*
X55460610Y-45182399D01*
X55462344Y-45172811D01*
X55464092Y-45163259D01*
X55465853Y-45153743D01*
X55467628Y-45144264D01*
X55469417Y-45134821D01*
X55471219Y-45125413D01*
X55473034Y-45116042D01*
X55474863Y-45106705D01*
X55476706Y-45097405D01*
X55478562Y-45088138D01*
X55480431Y-45078908D01*
X55482314Y-45069711D01*
X55484210Y-45060550D01*
X55486119Y-45051422D01*
X55488041Y-45042329D01*
X55489977Y-45033269D01*
X55491926Y-45024244D01*
X55493888Y-45015251D01*
X55495863Y-45006293D01*
X55497852Y-44997366D01*
X55499853Y-44988474D01*
X55501868Y-44979613D01*
X55503895Y-44970787D01*
X55505936Y-44961991D01*
X55507990Y-44953229D01*
X55510057Y-44944497D01*
X55512136Y-44935799D01*
X55514229Y-44927130D01*
X55516334Y-44918495D01*
X55518453Y-44909889D01*
X55520584Y-44901317D01*
X55522729Y-44892772D01*
X55524886Y-44884262D01*
X55527056Y-44875778D01*
X55529239Y-44867328D01*
X55531435Y-44858905D01*
X55533643Y-44850516D01*
X55535865Y-44842152D01*
X55538099Y-44833821D01*
X55540346Y-44825517D01*
X55542605Y-44817245D01*
X55544878Y-44808998D01*
X55547163Y-44800784D01*
X55549462Y-44792594D01*
X55551772Y-44784437D01*
X55554096Y-44776304D01*
X55556432Y-44768204D01*
X55558782Y-44760126D01*
X55561143Y-44752081D01*
X55563518Y-44744059D01*
X55565905Y-44736069D01*
X55568305Y-44728101D01*
X55570717Y-44720164D01*
X55573144Y-44712250D01*
X55575581Y-44704367D01*
X55578033Y-44696505D01*
X55580496Y-44688674D01*
X55582973Y-44680864D01*
X55585461Y-44673086D01*
X55587964Y-44665327D01*
X55590478Y-44657599D01*
X55593007Y-44649891D01*
X55595546Y-44642213D01*
X55598100Y-44634555D01*
X55600665Y-44626927D01*
X55605836Y-44611737D01*
X55611058Y-44596644D01*
X55616331Y-44581646D01*
X55621657Y-44566740D01*
X55627034Y-44551926D01*
X55632464Y-44537202D01*
X55637946Y-44522566D01*
X55643480Y-44508016D01*
X55649068Y-44493552D01*
X55654708Y-44479171D01*
X55660402Y-44464872D01*
X55666150Y-44450653D01*
X55671952Y-44436513D01*
X55677809Y-44422449D01*
X55683720Y-44408461D01*
X55689687Y-44394546D01*
X55695710Y-44380703D01*
X55701789Y-44366931D01*
X55707926Y-44353226D01*
X55714119Y-44339588D01*
X55720371Y-44326015D01*
X55726681Y-44312504D01*
X55733051Y-44299055D01*
X55739481Y-44285665D01*
X55745972Y-44272331D01*
X55752525Y-44259053D01*
X55759140Y-44245828D01*
X55765819Y-44232655D01*
X55772562Y-44219530D01*
X55779370Y-44206452D01*
X55786246Y-44193418D01*
X55793188Y-44180427D01*
X55800200Y-44167475D01*
X55807282Y-44154562D01*
X55814436Y-44141683D01*
X55821662Y-44128837D01*
X55828963Y-44116020D01*
X55836341Y-44103231D01*
X55843796Y-44090465D01*
X55851331Y-44077721D01*
X55858947Y-44064995D01*
X55866648Y-44052284D01*
X55874434Y-44039584D01*
X55882309Y-44026892D01*
X55890275Y-44014204D01*
X55898335Y-44001517D01*
X55906492Y-43988825D01*
X55914748Y-43976125D01*
X55923108Y-43963413D01*
X55931574Y-43950682D01*
X55940151Y-43937928D01*
X55948844Y-43925145D01*
X55957656Y-43912327D01*
X55966593Y-43899468D01*
X55975661Y-43886560D01*
X55984865Y-43873596D01*
X55994212Y-43860568D01*
X56003710Y-43847465D01*
X56013366Y-43834279D01*
X56023190Y-43820999D01*
X56033192Y-43807611D01*
X56043383Y-43794103D01*
X56053775Y-43780458D01*
X56064384Y-43766660D01*
X56075226Y-43752688D01*
X56086321Y-43738520D01*
X56097690Y-43724130D01*
X56109361Y-43709485D01*
X56121364Y-43694549D01*
X56133738Y-43679278D01*
X56146529Y-43663616D01*
X56159797Y-43647496D01*
X56173615Y-43630829D01*
X56188083Y-43613500D01*
X56203338Y-43595351D01*
X56219574Y-43576154D01*
X56237093Y-43555559D01*
X56256403Y-43532976D01*
X56278511Y-43507234D01*
X56306074Y-43475245D01*
X56318014Y-43461404D01*
X56337933Y-43438311D01*
X56357815Y-43415227D01*
X56377653Y-43392131D01*
X56397437Y-43368999D01*
X56407306Y-43357412D01*
X56417159Y-43345809D01*
X56426993Y-43334186D01*
X56436809Y-43322540D01*
X56446604Y-43310869D01*
X56456378Y-43299169D01*
X56466130Y-43287439D01*
X56475858Y-43275674D01*
X56485562Y-43263874D01*
X56495240Y-43252033D01*
X56504891Y-43240151D01*
X56514515Y-43228224D01*
X56524109Y-43216249D01*
X56533674Y-43204223D01*
X56543207Y-43192145D01*
X56552708Y-43180010D01*
X56562175Y-43167817D01*
X56571608Y-43155562D01*
X56581005Y-43143243D01*
X56590365Y-43130856D01*
X56599688Y-43118400D01*
X56608971Y-43105871D01*
X56618214Y-43093267D01*
X56622821Y-43086936D01*
X56627417Y-43080584D01*
X56632002Y-43074213D01*
X56636576Y-43067821D01*
X56641140Y-43061408D01*
X56645693Y-43054973D01*
X56650234Y-43048518D01*
X56654765Y-43042040D01*
X56659284Y-43035539D01*
X56663791Y-43029016D01*
X56668287Y-43022471D01*
X56672770Y-43015901D01*
X56677242Y-43009308D01*
X56681702Y-43002691D01*
X56686149Y-42996050D01*
X56690584Y-42989383D01*
X56695007Y-42982692D01*
X56699417Y-42975975D01*
X56703814Y-42969232D01*
X56708198Y-42962464D01*
X56712569Y-42955668D01*
X56716927Y-42948846D01*
X56721272Y-42941997D01*
X56725603Y-42935120D01*
X56729920Y-42928215D01*
X56734223Y-42921282D01*
X56738513Y-42914321D01*
X56742789Y-42907330D01*
X56747050Y-42900311D01*
X56751297Y-42893261D01*
X56755530Y-42886182D01*
X56759748Y-42879072D01*
X56763951Y-42871932D01*
X56768140Y-42864761D01*
X56772313Y-42857558D01*
X56776471Y-42850324D01*
X56780614Y-42843057D01*
X56784742Y-42835759D01*
X56788853Y-42828427D01*
X56792950Y-42821062D01*
X56797030Y-42813664D01*
X56801094Y-42806233D01*
X56805142Y-42798767D01*
X56809174Y-42791266D01*
X56813190Y-42783731D01*
X56817189Y-42776160D01*
X56821171Y-42768554D01*
X56825136Y-42760913D01*
X56829085Y-42753234D01*
X56833016Y-42745520D01*
X56836930Y-42737768D01*
X56840827Y-42729980D01*
X56844706Y-42722153D01*
X56848568Y-42714289D01*
X56852412Y-42706386D01*
X56856237Y-42698445D01*
X56860045Y-42690465D01*
X56863835Y-42682445D01*
X56867606Y-42674386D01*
X56871358Y-42666287D01*
X56875092Y-42658147D01*
X56878808Y-42649966D01*
X56882504Y-42641745D01*
X56886181Y-42633482D01*
X56889839Y-42625177D01*
X56893478Y-42616831D01*
X56897097Y-42608441D01*
X56900697Y-42600009D01*
X56904277Y-42591534D01*
X56907837Y-42583015D01*
X56911377Y-42574453D01*
X56914897Y-42565846D01*
X56918397Y-42557195D01*
X56921876Y-42548499D01*
X56925334Y-42539757D01*
X56928772Y-42530970D01*
X56932189Y-42522137D01*
X56935585Y-42513258D01*
X56938960Y-42504332D01*
X56942314Y-42495359D01*
X56945646Y-42486339D01*
X56948956Y-42477271D01*
X56952245Y-42468155D01*
X56955512Y-42458991D01*
X56958758Y-42449778D01*
X56961981Y-42440516D01*
X56965181Y-42431205D01*
X56968360Y-42421844D01*
X56971516Y-42412433D01*
X56974649Y-42402971D01*
X56977759Y-42393459D01*
X56980847Y-42383895D01*
X56983911Y-42374280D01*
X56986953Y-42364613D01*
X56989970Y-42354894D01*
X56992965Y-42345123D01*
X56995936Y-42335298D01*
X56998882Y-42325420D01*
X57001806Y-42315489D01*
X57004705Y-42305504D01*
X57007579Y-42295465D01*
X57010430Y-42285370D01*
X57013256Y-42275221D01*
X57016057Y-42265017D01*
X57018834Y-42254757D01*
X57021586Y-42244441D01*
X57024313Y-42234069D01*
X57027014Y-42223640D01*
X57029691Y-42213154D01*
X57032341Y-42202611D01*
X57034967Y-42192009D01*
X57037566Y-42181350D01*
X57040140Y-42170633D01*
X57042688Y-42159856D01*
X57045210Y-42149021D01*
X57047705Y-42138126D01*
X57050174Y-42127171D01*
X57052616Y-42116156D01*
X57055032Y-42105080D01*
X57057421Y-42093944D01*
X57059783Y-42082746D01*
X57062118Y-42071487D01*
X57064425Y-42060166D01*
X57066705Y-42048783D01*
X57068958Y-42037337D01*
X57071183Y-42025828D01*
X57073380Y-42014256D01*
X57075550Y-42002621D01*
X57077691Y-41990921D01*
X57079804Y-41979157D01*
X57081888Y-41967328D01*
X57083945Y-41955435D01*
X57085972Y-41943475D01*
X57087971Y-41931451D01*
X57089941Y-41919360D01*
X57091882Y-41907203D01*
X57093793Y-41894979D01*
X57095676Y-41882687D01*
X57097528Y-41870329D01*
X57099352Y-41857902D01*
X57101145Y-41845408D01*
X57102909Y-41832845D01*
X57104642Y-41820213D01*
X57106346Y-41807512D01*
X57108019Y-41794741D01*
X57109662Y-41781901D01*
X57111274Y-41768990D01*
X57112855Y-41756009D01*
X57114406Y-41742957D01*
X57115925Y-41729834D01*
X57117414Y-41716638D01*
X57118871Y-41703371D01*
X57120297Y-41690032D01*
X57121691Y-41676620D01*
X57123054Y-41663135D01*
X57124384Y-41649577D01*
X57125683Y-41635945D01*
X57126950Y-41622239D01*
X57128184Y-41608458D01*
X57129386Y-41594603D01*
X57130556Y-41580673D01*
X57131693Y-41566667D01*
X57132797Y-41552585D01*
X57133868Y-41538428D01*
X57134906Y-41524194D01*
X57135911Y-41509883D01*
X57136882Y-41495495D01*
X57137821Y-41481029D01*
X57138725Y-41466485D01*
X57139596Y-41451864D01*
X57140432Y-41437163D01*
X57141235Y-41422384D01*
X57142003Y-41407526D01*
X57142738Y-41392588D01*
X57143437Y-41377570D01*
X57144103Y-41362472D01*
X57144733Y-41347293D01*
X57145328Y-41332033D01*
X57145889Y-41316692D01*
X57146414Y-41301269D01*
X57146904Y-41285764D01*
X57147359Y-41270176D01*
X57147778Y-41254506D01*
X57148161Y-41238753D01*
X57148509Y-41222917D01*
X57148820Y-41206996D01*
X57149096Y-41190992D01*
X57149335Y-41174903D01*
X57149537Y-41158730D01*
X57149704Y-41142471D01*
X57149833Y-41126126D01*
X57149926Y-41109696D01*
X57149981Y-41093180D01*
X57150000Y-41076577D01*
D10*
X125015714Y-70842227D02*
G75*
G02*
X123825073Y-69651595I-14J1190627D01*
G01*
X45243750Y-63698471D02*
X116681250Y-63698471D01*
X138112596Y-52387524D02*
X138112602Y-46439331D01*
X69056288Y-101798503D02*
X145256288Y-101798503D01*
X113704763Y-38695325D02*
X122634458Y-38695325D01*
D11*
X120848519Y-56554715D02*
X120875752Y-56554711D01*
X120902985Y-56554682D01*
X120930217Y-56554603D01*
X120943834Y-56554536D01*
X120957450Y-56554447D01*
X120971067Y-56554333D01*
X120984683Y-56554190D01*
X120998299Y-56554016D01*
X121011916Y-56553807D01*
X121025532Y-56553559D01*
X121039148Y-56553271D01*
X121052765Y-56552938D01*
X121066381Y-56552558D01*
X121079998Y-56552127D01*
X121093614Y-56551643D01*
X121107230Y-56551101D01*
X121120847Y-56550499D01*
X121134463Y-56549834D01*
X121148080Y-56549102D01*
X121161696Y-56548301D01*
X121175312Y-56547427D01*
X121188929Y-56546477D01*
X121195737Y-56545972D01*
X121202545Y-56545447D01*
X121209353Y-56544902D01*
X121216162Y-56544336D01*
X121222970Y-56543748D01*
X121229778Y-56543139D01*
X121236586Y-56542507D01*
X121243394Y-56541853D01*
X121250203Y-56541176D01*
X121257011Y-56540476D01*
X121263819Y-56539751D01*
X121270627Y-56539003D01*
X121277435Y-56538230D01*
X121284244Y-56537432D01*
X121291052Y-56536609D01*
X121297860Y-56535760D01*
X121304668Y-56534885D01*
X121311476Y-56533984D01*
X121318284Y-56533055D01*
X121325093Y-56532100D01*
X121331901Y-56531116D01*
X121338709Y-56530105D01*
X121345517Y-56529065D01*
X121352325Y-56527996D01*
X121359134Y-56526898D01*
X121365942Y-56525770D01*
X121372750Y-56524612D01*
X121379558Y-56523423D01*
X121386366Y-56522204D01*
X121393175Y-56520953D01*
X121399983Y-56519671D01*
X121406791Y-56518357D01*
X121413599Y-56517010D01*
X121420407Y-56515631D01*
X121427216Y-56514218D01*
X121434024Y-56512771D01*
X121440832Y-56511291D01*
X121447640Y-56509776D01*
X121454448Y-56508226D01*
X121461257Y-56506641D01*
X121468065Y-56505021D01*
X121474873Y-56503364D01*
X121481681Y-56501671D01*
X121488489Y-56499941D01*
X121495298Y-56498174D01*
X121502106Y-56496369D01*
X121508914Y-56494527D01*
X121515722Y-56492646D01*
X121522530Y-56490726D01*
X121529339Y-56488767D01*
X121536147Y-56486769D01*
X121542955Y-56484730D01*
X121549763Y-56482651D01*
X121556571Y-56480531D01*
X121563380Y-56478371D01*
X121570188Y-56476168D01*
X121576996Y-56473924D01*
X121583804Y-56471637D01*
X121590612Y-56469308D01*
X121597420Y-56466935D01*
X121604229Y-56464519D01*
X121611037Y-56462059D01*
X121617845Y-56459555D01*
X121624653Y-56457006D01*
X121631461Y-56454412D01*
X121638270Y-56451772D01*
X121645078Y-56449086D01*
X121651886Y-56446355D01*
X121658694Y-56443576D01*
X121665502Y-56440750D01*
X121672311Y-56437877D01*
X121679119Y-56434956D01*
X121685927Y-56431987D01*
X121692735Y-56428969D01*
X121699543Y-56425902D01*
X121706352Y-56422785D01*
X121713160Y-56419619D01*
X121719968Y-56416402D01*
X121726776Y-56413135D01*
X121733584Y-56409816D01*
X121740393Y-56406446D01*
X121747201Y-56403025D01*
X121754009Y-56399551D01*
X121760817Y-56396024D01*
X121767625Y-56392444D01*
X121774434Y-56388811D01*
X121781242Y-56385125D01*
X121788050Y-56381384D01*
X121794858Y-56377588D01*
X121801666Y-56373737D01*
X121808475Y-56369831D01*
X121815283Y-56365869D01*
X121822091Y-56361851D01*
X121828899Y-56357776D01*
X121835707Y-56353645D01*
X121842516Y-56349456D01*
X121849324Y-56345209D01*
X121856132Y-56340904D01*
X121862940Y-56336540D01*
X121869748Y-56332118D01*
X121876556Y-56327636D01*
X121883365Y-56323094D01*
X121890173Y-56318492D01*
X121896981Y-56313830D01*
X121903789Y-56309106D01*
X121910597Y-56304322D01*
X121917406Y-56299475D01*
X121924214Y-56294567D01*
X121931022Y-56289596D01*
X121937830Y-56284562D01*
X121944638Y-56279464D01*
X121951447Y-56274303D01*
X121958255Y-56269078D01*
X121965063Y-56263789D01*
X121971871Y-56258434D01*
X121978679Y-56253014D01*
X121985488Y-56247529D01*
X121992296Y-56241977D01*
X121999104Y-56236359D01*
X122005912Y-56230674D01*
X122012720Y-56224921D01*
X122019529Y-56219101D01*
X122026337Y-56213213D01*
X122033145Y-56207257D01*
X122039953Y-56201232D01*
X122046761Y-56195137D01*
X122053570Y-56188973D01*
X122060378Y-56182738D01*
X122067186Y-56176434D01*
X122073994Y-56170058D01*
X122080802Y-56163611D01*
X122087611Y-56157093D01*
X122094419Y-56150502D01*
X122101227Y-56143839D01*
X122108035Y-56137103D01*
X122114843Y-56130294D01*
X122121652Y-56123412D01*
X122128460Y-56116455D01*
X122135268Y-56109424D01*
X122142076Y-56102319D01*
X122148884Y-56095138D01*
X122155693Y-56087881D01*
X122162501Y-56080549D01*
X122169309Y-56073140D01*
X122176117Y-56065654D01*
X122182925Y-56058091D01*
X122189733Y-56050451D01*
X122196542Y-56042732D01*
X122203350Y-56034935D01*
X122210158Y-56027060D01*
X122216966Y-56019105D01*
X122223774Y-56011071D01*
X122230583Y-56002957D01*
X122237391Y-55994762D01*
X122244199Y-55986487D01*
X122251007Y-55978131D01*
X122257815Y-55969693D01*
X122264624Y-55961173D01*
X122271432Y-55952571D01*
X122278240Y-55943886D01*
X122285048Y-55935118D01*
X122291856Y-55926267D01*
X122298665Y-55917331D01*
X122305473Y-55908312D01*
X122312281Y-55899207D01*
X122319089Y-55890018D01*
X122325897Y-55880743D01*
X122332706Y-55871382D01*
X122339514Y-55861935D01*
X122346322Y-55852402D01*
X122353130Y-55842781D01*
X122359938Y-55833073D01*
X122366747Y-55823276D01*
X122373555Y-55813392D01*
X122380363Y-55803419D01*
X122387171Y-55793357D01*
X122393979Y-55783206D01*
X122400788Y-55772964D01*
X122407596Y-55762633D01*
X122414404Y-55752211D01*
X122421212Y-55741697D01*
X122428020Y-55731093D01*
X122434829Y-55720396D01*
X122441637Y-55709608D01*
X122448445Y-55698726D01*
X122455253Y-55687752D01*
X122462061Y-55676684D01*
X122468869Y-55665523D01*
X122475678Y-55654267D01*
X122482486Y-55642917D01*
X122489294Y-55631472D01*
X122496102Y-55619931D01*
X122502910Y-55608295D01*
X122509719Y-55596562D01*
X122516527Y-55584733D01*
X122523335Y-55572807D01*
X122530143Y-55560784D01*
X122536951Y-55548663D01*
X122543760Y-55536443D01*
X122550568Y-55524126D01*
X122557376Y-55511709D01*
X122564184Y-55499193D01*
X122570992Y-55486577D01*
X122577801Y-55473861D01*
X122584609Y-55461044D01*
X122591417Y-55448127D01*
X122600291Y-55431139D01*
X122609177Y-55413953D01*
X122618076Y-55396567D01*
X122626989Y-55378979D01*
X122634458Y-55364103D01*
D10*
X123825082Y-63103158D02*
G75*
G02*
X125015710Y-61912582I1190618J-42D01*
G01*
X140493848Y-33337508D02*
X56554715Y-33337508D01*
X98821938Y-72628166D02*
X101203154Y-72628166D01*
X64293750Y-56554715D02*
G75*
G02*
X61912585Y-54173465I50J2381215D01*
G01*
X66675000Y-116681250D02*
G75*
G02*
X63103150Y-113109375I0J3571850D01*
G01*
X55364089Y-34528134D02*
G75*
G02*
X56554715Y-33337489I1190611J34D01*
G01*
X133350092Y-53578150D02*
X136921964Y-53578156D01*
X47029694Y-51196870D02*
G75*
G02*
X45243830Y-49410959I6J1785870D01*
G01*
X136326693Y-113704688D02*
X145256352Y-113704763D01*
X43457829Y-33337508D02*
X44053100Y-33337509D01*
X144065722Y-92868808D02*
X144065724Y-82153174D01*
X130373525Y-39290638D02*
G75*
G02*
X131564153Y-38099925I1190675J38D01*
G01*
X45243750Y-75604731D02*
G75*
G02*
X42862569Y-73223481I50J2381231D01*
G01*
X123825082Y-63103158D02*
X123825082Y-69651595D01*
X138112600Y-72032859D02*
X145256350Y-72032859D01*
X45243750Y-75604731D02*
X92273459Y-75604699D01*
X147637602Y-111323513D02*
X147637538Y-104179753D01*
X145256288Y-101798503D02*
G75*
G02*
X147637597Y-104179753I12J-2381297D01*
G01*
X55364089Y-46434374D02*
X55364089Y-50006272D01*
X132754779Y-69651601D02*
X132754779Y-63103164D01*
X35718760Y-94654747D02*
X126206260Y-94654747D01*
X140493848Y-33337508D02*
G75*
G02*
X142875092Y-35718758I-48J-2381292D01*
G01*
X142875098Y-47625020D02*
X142875098Y-35718758D01*
X131564147Y-61912532D02*
G75*
G02*
X132754768Y-63103164I-47J-1190668D01*
G01*
X33337500Y-85129737D02*
G75*
G02*
X35718750Y-82748490I2381250J-3D01*
G01*
X125015714Y-70842227D02*
X131564151Y-70842227D01*
X35718750Y-82748487D02*
X126206250Y-82748487D01*
X125015746Y-110728273D02*
X129778214Y-110728198D01*
X33337500Y-85129737D02*
X33337500Y-92273495D01*
X55364089Y-50006272D02*
G75*
G02*
X54173463Y-51196889I-1190589J-28D01*
G01*
X125015710Y-61912532D02*
X131564147Y-61912532D01*
X128587500Y-92273497D02*
G75*
G02*
X126206250Y-94654800I-2381300J-3D01*
G01*
X147637602Y-111323513D02*
G75*
G02*
X145256352Y-113704702I-2381202J13D01*
G01*
X146446978Y-70842233D02*
G75*
G02*
X145256350Y-72032878I-1190678J33D01*
G01*
X64293750Y-56554715D02*
X120848519Y-56554715D01*
D11*
X31551593Y-73818874D02*
X31545546Y-73843102D01*
X31539540Y-73867247D01*
X31533576Y-73891306D01*
X31527652Y-73915283D01*
X31521771Y-73939175D01*
X31515930Y-73962987D01*
X31510130Y-73986714D01*
X31504370Y-74010360D01*
X31498651Y-74033924D01*
X31492972Y-74057408D01*
X31487333Y-74080811D01*
X31481734Y-74104134D01*
X31476174Y-74127376D01*
X31470654Y-74150540D01*
X31465174Y-74173625D01*
X31459732Y-74196631D01*
X31454330Y-74219560D01*
X31448966Y-74242410D01*
X31443641Y-74265184D01*
X31438354Y-74287881D01*
X31433106Y-74310502D01*
X31427896Y-74333047D01*
X31422723Y-74355517D01*
X31417589Y-74377911D01*
X31412491Y-74400231D01*
X31407432Y-74422477D01*
X31402409Y-74444650D01*
X31397424Y-74466748D01*
X31392475Y-74488775D01*
X31387564Y-74510728D01*
X31382688Y-74532612D01*
X31377849Y-74554421D01*
X31373046Y-74576162D01*
X31368280Y-74597829D01*
X31363549Y-74619429D01*
X31358854Y-74640957D01*
X31354194Y-74662418D01*
X31349571Y-74683807D01*
X31344981Y-74705130D01*
X31340428Y-74726383D01*
X31335909Y-74747571D01*
X31331425Y-74768688D01*
X31326975Y-74789743D01*
X31322560Y-74810727D01*
X31318179Y-74831649D01*
X31313832Y-74852502D01*
X31309519Y-74873294D01*
X31305241Y-74894016D01*
X31300995Y-74914680D01*
X31296783Y-74935274D01*
X31292604Y-74955811D01*
X31288459Y-74976279D01*
X31284346Y-74996690D01*
X31280267Y-75017033D01*
X31276219Y-75037321D01*
X31272206Y-75057542D01*
X31268223Y-75077708D01*
X31264274Y-75097807D01*
X31260356Y-75117853D01*
X31256471Y-75137833D01*
X31252616Y-75157761D01*
X31248795Y-75177623D01*
X31245003Y-75197434D01*
X31241245Y-75217180D01*
X31237516Y-75236877D01*
X31233819Y-75256508D01*
X31230152Y-75276092D01*
X31226518Y-75295611D01*
X31222912Y-75315083D01*
X31219339Y-75334492D01*
X31215794Y-75353855D01*
X31212281Y-75373154D01*
X31208797Y-75392409D01*
X31205344Y-75411601D01*
X31201919Y-75430751D01*
X31198525Y-75449837D01*
X31195160Y-75468883D01*
X31191825Y-75487865D01*
X31188518Y-75506808D01*
X31185242Y-75525689D01*
X31181992Y-75544532D01*
X31178774Y-75563313D01*
X31175582Y-75582057D01*
X31172421Y-75600739D01*
X31169286Y-75619386D01*
X31166182Y-75637972D01*
X31163103Y-75656524D01*
X31160055Y-75675016D01*
X31157032Y-75693475D01*
X31154039Y-75711874D01*
X31151072Y-75730241D01*
X31148135Y-75748549D01*
X31145222Y-75766828D01*
X31142339Y-75785047D01*
X31136652Y-75821370D01*
X31131072Y-75857522D01*
X31125599Y-75893508D01*
X31120230Y-75929331D01*
X31114967Y-75964995D01*
X31109806Y-76000504D01*
X31104748Y-76035863D01*
X31099791Y-76071076D01*
X31094935Y-76106146D01*
X31090178Y-76141078D01*
X31085520Y-76175877D01*
X31080959Y-76210546D01*
X31076496Y-76245091D01*
X31072127Y-76279516D01*
X31067854Y-76313826D01*
X31063675Y-76348024D01*
X31059589Y-76382118D01*
X31055595Y-76416110D01*
X31051693Y-76450007D01*
X31047881Y-76483813D01*
X31044159Y-76517535D01*
X31040526Y-76551177D01*
X31036980Y-76584745D01*
X31033522Y-76618245D01*
X31030150Y-76651684D01*
X31026864Y-76685067D01*
X31023663Y-76718401D01*
X31020546Y-76751692D01*
X31017512Y-76784947D01*
X31014560Y-76818174D01*
X31011690Y-76851380D01*
X31008901Y-76884573D01*
X31006193Y-76917761D01*
X31003563Y-76950953D01*
X31001013Y-76984156D01*
X30998541Y-77017382D01*
X30996146Y-77050639D01*
X30993828Y-77083937D01*
X30991586Y-77117289D01*
X30989419Y-77150704D01*
X30987327Y-77184196D01*
X30985309Y-77217778D01*
X30983364Y-77251463D01*
X30981492Y-77285266D01*
X30979692Y-77319204D01*
X30977963Y-77353293D01*
X30976306Y-77387552D01*
X30974718Y-77422000D01*
X30973201Y-77456660D01*
X30971752Y-77491556D01*
X30970372Y-77526712D01*
X30969060Y-77562159D01*
X30967815Y-77597927D01*
X30966638Y-77634051D01*
X30965526Y-77670572D01*
X30964480Y-77707533D01*
X30963500Y-77744984D01*
X30962584Y-77782983D01*
X30961733Y-77821596D01*
X30960945Y-77860899D01*
X30960220Y-77900983D01*
X30959558Y-77941955D01*
X30958959Y-77983946D01*
X30958421Y-78027115D01*
X30957945Y-78071662D01*
X30957529Y-78117846D01*
X30957173Y-78166008D01*
X30956877Y-78216619D01*
X30956640Y-78270365D01*
X30956460Y-78328308D01*
X30956338Y-78392285D01*
X30956270Y-78466050D01*
X30956250Y-78581250D01*
D10*
X59531250Y-97631250D02*
G75*
G02*
X63103050Y-101203125I-50J-3571850D01*
G01*
X42862525Y-66079818D02*
X42862500Y-73223440D01*
X67865626Y-110728198D02*
G75*
G02*
X66675002Y-109537572I-26J1190598D01*
G01*
D11*
X113704763Y-38695325D02*
X113678047Y-38695365D01*
X113651327Y-38695485D01*
X113624603Y-38695685D01*
X113597874Y-38695964D01*
X113571140Y-38696324D01*
X113544401Y-38696764D01*
X113517656Y-38697284D01*
X113490905Y-38697884D01*
X113464149Y-38698564D01*
X113437386Y-38699324D01*
X113410616Y-38700164D01*
X113383840Y-38701084D01*
X113357056Y-38702085D01*
X113330265Y-38703166D01*
X113303466Y-38704327D01*
X113276659Y-38705568D01*
X113249843Y-38706890D01*
X113223019Y-38708292D01*
X113196186Y-38709775D01*
X113169344Y-38711338D01*
X113142492Y-38712982D01*
X113115630Y-38714707D01*
X113088758Y-38716512D01*
X113061876Y-38718399D01*
X113034983Y-38720366D01*
X113008078Y-38722414D01*
X112981163Y-38724543D01*
X112954235Y-38726753D01*
X112927296Y-38729044D01*
X112900344Y-38731417D01*
X112873380Y-38733871D01*
X112846402Y-38736406D01*
X112819411Y-38739023D01*
X112792407Y-38741721D01*
X112765389Y-38744502D01*
X112738356Y-38747364D01*
X112711309Y-38750307D01*
X112684246Y-38753333D01*
X112657169Y-38756442D01*
X112630076Y-38759632D01*
X112602966Y-38762904D01*
X112575841Y-38766260D01*
X112548699Y-38769697D01*
X112521539Y-38773218D01*
X112494363Y-38776821D01*
X112467168Y-38780507D01*
X112439956Y-38784277D01*
X112412725Y-38788129D01*
X112385475Y-38792065D01*
X112358206Y-38796085D01*
X112330918Y-38800188D01*
X112303609Y-38804375D01*
X112276281Y-38808646D01*
X112248931Y-38813001D01*
X112221561Y-38817440D01*
X112194169Y-38821964D01*
X112166755Y-38826572D01*
X112139319Y-38831265D01*
X112111861Y-38836043D01*
X112084379Y-38840906D01*
X112056874Y-38845855D01*
X112029345Y-38850889D01*
X112001792Y-38856009D01*
X111974214Y-38861214D01*
X111946611Y-38866506D01*
X111918982Y-38871883D01*
X111891328Y-38877348D01*
X111863647Y-38882899D01*
X111835940Y-38888537D01*
X111808205Y-38894262D01*
X111780443Y-38900074D01*
X111752652Y-38905974D01*
X111724833Y-38911961D01*
X111696985Y-38918037D01*
X111669107Y-38924200D01*
X111641199Y-38930453D01*
X111613261Y-38936793D01*
X111585292Y-38943223D01*
X111557292Y-38949742D01*
X111529259Y-38956351D01*
X111501195Y-38963049D01*
X111473097Y-38969838D01*
X111444966Y-38976716D01*
X111416801Y-38983685D01*
X111388602Y-38990745D01*
X111360368Y-38997896D01*
X111332098Y-39005139D01*
X111303792Y-39012473D01*
X111275450Y-39019899D01*
X111247070Y-39027418D01*
X111218653Y-39035029D01*
X111190198Y-39042733D01*
X111161704Y-39050530D01*
X111133170Y-39058421D01*
X111104597Y-39066406D01*
X111075983Y-39074486D01*
X111047327Y-39082660D01*
X111018630Y-39090929D01*
X110989891Y-39099293D01*
X110961109Y-39107753D01*
X110932282Y-39116309D01*
X110903412Y-39124962D01*
X110874497Y-39133711D01*
X110845536Y-39142558D01*
X110816528Y-39151503D01*
X110787474Y-39160545D01*
X110758372Y-39169686D01*
X110729222Y-39178926D01*
X110700022Y-39188266D01*
X110670773Y-39197705D01*
X110641473Y-39207245D01*
X110612122Y-39216885D01*
X110582719Y-39226626D01*
X110553262Y-39236469D01*
X110523752Y-39246415D01*
X110494188Y-39256463D01*
X110464568Y-39266614D01*
X110434893Y-39276869D01*
X110405160Y-39287228D01*
X110375369Y-39297691D01*
X110345520Y-39308260D01*
X110315611Y-39318935D01*
X110285642Y-39329717D01*
X110255611Y-39340605D01*
X110225518Y-39351601D01*
X110195362Y-39362705D01*
X110165141Y-39373917D01*
X110134855Y-39385240D01*
X110104502Y-39396672D01*
X110074083Y-39408215D01*
X110043595Y-39419870D01*
X110013037Y-39431636D01*
X109982409Y-39443515D01*
X109951709Y-39455508D01*
X109920936Y-39467615D01*
X109890090Y-39479837D01*
X109859168Y-39492174D01*
X109828169Y-39504629D01*
X109797093Y-39517200D01*
X109765938Y-39529889D01*
X109734703Y-39542698D01*
X109703386Y-39555626D01*
X109671986Y-39568675D01*
X109640502Y-39581845D01*
X109608932Y-39595138D01*
X109577274Y-39608554D01*
X109545528Y-39622094D01*
X109513692Y-39635760D01*
X109481764Y-39649552D01*
X109449742Y-39663472D01*
X109417625Y-39677520D01*
X109385412Y-39691697D01*
X109353100Y-39706005D01*
X109320687Y-39720445D01*
X109288172Y-39735018D01*
X109255554Y-39749725D01*
X109222829Y-39764567D01*
X109189996Y-39779546D01*
X109157053Y-39794663D01*
X109123998Y-39809919D01*
X109090829Y-39825315D01*
X109057543Y-39840854D01*
X109024138Y-39856537D01*
X108990612Y-39872364D01*
X108956962Y-39888339D01*
X108923187Y-39904461D01*
X108889282Y-39920734D01*
X108855246Y-39937158D01*
X108821076Y-39953735D01*
X108786768Y-39970468D01*
X108752321Y-39987357D01*
X108717730Y-40004406D01*
X108682993Y-40021616D01*
X108648107Y-40038989D01*
X108613067Y-40056527D01*
X108577871Y-40074233D01*
X108542515Y-40092109D01*
X108506996Y-40110157D01*
X108471308Y-40128379D01*
X108435448Y-40146779D01*
X108399412Y-40165359D01*
X108363196Y-40184122D01*
X108326794Y-40203071D01*
X108290202Y-40222209D01*
X108253416Y-40241538D01*
X108216429Y-40261063D01*
X108179236Y-40280787D01*
X108141832Y-40300713D01*
X108104210Y-40320845D01*
X108066365Y-40341187D01*
X108028290Y-40361744D01*
X107989977Y-40382519D01*
X107951421Y-40403517D01*
X107912612Y-40424743D01*
X107873544Y-40446202D01*
X107834208Y-40467899D01*
X107794594Y-40489841D01*
X107754693Y-40512032D01*
X107714497Y-40534479D01*
X107673993Y-40557188D01*
X107633171Y-40580168D01*
X107592019Y-40603424D01*
X107550524Y-40626966D01*
X107508673Y-40650801D01*
X107466451Y-40674939D01*
X107423844Y-40699390D01*
X107380834Y-40724163D01*
X107337404Y-40749269D01*
X107293535Y-40774722D01*
X107249206Y-40800533D01*
X107204394Y-40826718D01*
X107159076Y-40853290D01*
X107113225Y-40880267D01*
X107066813Y-40907666D01*
X107019807Y-40935508D01*
X106972173Y-40963814D01*
X106923873Y-40992609D01*
X106874864Y-41021918D01*
X106825099Y-41051773D01*
X106774524Y-41082205D01*
X106723079Y-41113253D01*
X106670697Y-41144960D01*
X106617300Y-41177373D01*
X106562799Y-41210550D01*
X106507090Y-41244554D01*
X106450050Y-41279462D01*
X106391537Y-41315366D01*
X106331375Y-41352373D01*
X106269351Y-41390617D01*
X106205202Y-41430265D01*
X106138591Y-41471526D01*
X106069074Y-41514679D01*
X105996055Y-41560098D01*
X105918686Y-41608314D01*
X105835689Y-41660128D01*
X105744969Y-41716852D01*
X105642593Y-41780953D01*
X105519208Y-41858291D01*
X105420093Y-41920450D01*
X105315471Y-41986062D01*
X105211016Y-42051537D01*
X105106722Y-42116846D01*
X105054634Y-42149429D01*
X105002584Y-42181961D01*
X104950571Y-42214436D01*
X104898595Y-42246853D01*
X104846655Y-42279206D01*
X104794751Y-42311493D01*
X104742881Y-42343709D01*
X104691045Y-42375852D01*
X104639242Y-42407918D01*
X104587471Y-42439903D01*
X104535732Y-42471803D01*
X104484024Y-42503616D01*
X104432347Y-42535337D01*
X104380699Y-42566962D01*
X104329079Y-42598489D01*
X104277488Y-42629913D01*
X104225925Y-42661232D01*
X104200153Y-42676850D01*
X104174388Y-42692441D01*
X104148629Y-42708003D01*
X104122877Y-42723537D01*
X104097131Y-42739041D01*
X104071391Y-42754516D01*
X104045657Y-42769960D01*
X104019930Y-42785374D01*
X103994208Y-42800758D01*
X103968492Y-42816109D01*
X103942782Y-42831429D01*
X103917078Y-42846717D01*
X103891379Y-42861972D01*
X103865686Y-42877193D01*
X103839998Y-42892381D01*
X103814316Y-42907535D01*
X103788639Y-42922654D01*
X103762966Y-42937739D01*
X103737299Y-42952787D01*
X103711637Y-42967800D01*
X103685980Y-42982777D01*
X103660328Y-42997717D01*
X103634680Y-43012619D01*
X103609037Y-43027484D01*
X103583399Y-43042311D01*
X103557765Y-43057099D01*
X103532135Y-43071848D01*
X103506509Y-43086558D01*
X103480888Y-43101227D01*
X103455271Y-43115857D01*
X103429657Y-43130445D01*
X103404048Y-43144992D01*
X103378442Y-43159498D01*
X103352840Y-43173961D01*
X103327242Y-43188382D01*
X103301647Y-43202759D01*
X103276056Y-43217093D01*
X103250468Y-43231383D01*
X103224884Y-43245629D01*
X103199302Y-43259830D01*
X103173724Y-43273985D01*
X103148148Y-43288095D01*
X103122576Y-43302159D01*
X103097006Y-43316176D01*
X103071439Y-43330145D01*
X103045875Y-43344068D01*
X103020313Y-43357942D01*
X102994754Y-43371768D01*
X102969197Y-43385545D01*
X102943642Y-43399272D01*
X102918090Y-43412950D01*
X102892540Y-43426578D01*
X102866991Y-43440154D01*
X102841445Y-43453680D01*
X102815900Y-43467154D01*
X102790357Y-43480576D01*
X102764816Y-43493946D01*
X102739277Y-43507263D01*
X102713739Y-43520526D01*
X102688202Y-43533735D01*
X102662666Y-43546891D01*
X102637132Y-43559991D01*
X102611599Y-43573037D01*
X102586067Y-43586026D01*
X102560536Y-43598960D01*
X102535005Y-43611837D01*
X102509476Y-43624657D01*
X102483947Y-43637420D01*
X102458418Y-43650125D01*
X102432891Y-43662771D01*
X102407363Y-43675359D01*
X102381836Y-43687888D01*
X102356309Y-43700357D01*
X102330782Y-43712766D01*
X102305256Y-43725114D01*
X102279729Y-43737401D01*
X102254202Y-43749627D01*
X102228675Y-43761791D01*
X102203147Y-43773893D01*
X102177619Y-43785932D01*
X102152091Y-43797908D01*
X102126562Y-43809820D01*
X102101032Y-43821667D01*
X102075502Y-43833451D01*
X102049971Y-43845169D01*
X102024438Y-43856822D01*
X101998905Y-43868408D01*
X101973371Y-43879929D01*
X101947835Y-43891382D01*
X101922298Y-43902769D01*
X101896760Y-43914087D01*
X101871220Y-43925338D01*
X101845679Y-43936520D01*
X101820136Y-43947633D01*
X101794591Y-43958676D01*
X101769044Y-43969649D01*
X101743496Y-43980552D01*
X101717945Y-43991384D01*
X101692393Y-44002145D01*
X101666838Y-44012834D01*
X101641281Y-44023451D01*
X101615721Y-44033995D01*
X101590159Y-44044466D01*
X101564594Y-44054864D01*
X101539027Y-44065187D01*
X101513457Y-44075436D01*
X101487884Y-44085611D01*
X101462309Y-44095710D01*
X101436730Y-44105733D01*
X101411148Y-44115680D01*
X101385563Y-44125550D01*
X101359975Y-44135343D01*
X101334383Y-44145058D01*
X101308788Y-44154696D01*
X101283189Y-44164255D01*
X101257587Y-44173735D01*
X101231981Y-44183136D01*
X101206371Y-44192457D01*
X101180758Y-44201697D01*
X101155140Y-44210857D01*
X101129518Y-44219936D01*
X101103892Y-44228933D01*
X101078262Y-44237848D01*
X101052627Y-44246681D01*
X101039808Y-44251066D01*
X101026988Y-44255430D01*
X101014167Y-44259774D01*
X101001345Y-44264097D01*
X100988521Y-44268398D01*
X100975697Y-44272679D01*
X100962871Y-44276939D01*
X100950044Y-44281177D01*
X100937215Y-44285394D01*
X100924386Y-44289590D01*
X100911555Y-44293765D01*
X100898723Y-44297919D01*
X100885890Y-44302051D01*
X100873056Y-44306161D01*
X100860220Y-44310250D01*
X100847383Y-44314317D01*
X100834545Y-44318363D01*
X100821706Y-44322387D01*
X100808865Y-44326390D01*
X100796022Y-44330370D01*
X100783179Y-44334329D01*
X100770334Y-44338266D01*
X100757488Y-44342180D01*
X100744640Y-44346073D01*
X100731791Y-44349944D01*
X100718941Y-44353793D01*
X100706089Y-44357619D01*
X100693236Y-44361423D01*
X100680381Y-44365205D01*
X100667525Y-44368964D01*
X100654668Y-44372701D01*
X100641809Y-44376416D01*
X100628949Y-44380108D01*
X100616087Y-44383777D01*
X100603223Y-44387424D01*
X100590359Y-44391048D01*
X100577492Y-44394649D01*
X100564624Y-44398228D01*
X100551755Y-44401784D01*
X100538884Y-44405316D01*
X100526011Y-44408826D01*
X100513137Y-44412313D01*
X100500261Y-44415776D01*
X100487384Y-44419217D01*
X100474505Y-44422634D01*
X100461625Y-44426028D01*
X100448743Y-44429399D01*
X100435859Y-44432746D01*
X100422973Y-44436070D01*
X100410086Y-44439370D01*
X100397198Y-44442647D01*
X100384307Y-44445901D01*
X100371415Y-44449130D01*
X100358521Y-44452336D01*
X100345626Y-44455518D01*
X100332728Y-44458677D01*
X100319829Y-44461811D01*
X100306929Y-44464922D01*
X100294026Y-44468008D01*
X100281122Y-44471071D01*
X100268216Y-44474109D01*
X100255308Y-44477123D01*
X100242398Y-44480113D01*
X100229487Y-44483079D01*
X100216573Y-44486021D01*
X100203658Y-44488938D01*
X100190741Y-44491830D01*
X100177822Y-44494698D01*
X100164902Y-44497542D01*
X100151979Y-44500361D01*
X100139054Y-44503155D01*
X100126128Y-44505925D01*
X100113200Y-44508670D01*
X100100269Y-44511390D01*
X100087337Y-44514085D01*
X100074403Y-44516755D01*
X100061467Y-44519400D01*
X100048529Y-44522021D01*
X100035589Y-44524616D01*
X100022647Y-44527185D01*
X100009703Y-44529730D01*
X99996757Y-44532249D01*
X99983808Y-44534744D01*
X99970858Y-44537212D01*
X99957906Y-44539655D01*
X99944952Y-44542073D01*
X99931995Y-44544465D01*
X99919037Y-44546832D01*
X99906076Y-44549173D01*
X99893114Y-44551488D01*
X99880149Y-44553777D01*
X99867182Y-44556041D01*
X99854213Y-44558278D01*
X99841242Y-44560490D01*
X99828269Y-44562676D01*
X99815293Y-44564835D01*
X99802315Y-44566969D01*
X99789335Y-44569076D01*
X99776353Y-44571157D01*
X99763369Y-44573212D01*
X99750382Y-44575241D01*
X99737394Y-44577243D01*
X99724403Y-44579219D01*
X99711409Y-44581168D01*
X99698414Y-44583090D01*
X99685416Y-44584986D01*
X99672416Y-44586856D01*
X99659413Y-44588698D01*
X99646408Y-44590514D01*
X99633401Y-44592303D01*
X99620392Y-44594065D01*
X99607380Y-44595800D01*
X99594366Y-44597508D01*
X99581349Y-44599189D01*
X99568330Y-44600843D01*
X99555309Y-44602469D01*
X99542285Y-44604069D01*
X99529259Y-44605641D01*
X99516230Y-44607186D01*
X99503199Y-44608703D01*
X99490165Y-44610193D01*
X99477129Y-44611655D01*
X99464091Y-44613090D01*
X99451050Y-44614498D01*
X99438007Y-44615877D01*
X99424961Y-44617229D01*
X99411912Y-44618553D01*
X99398861Y-44619849D01*
X99385807Y-44621117D01*
X99372751Y-44622358D01*
X99359693Y-44623570D01*
X99346631Y-44624754D01*
X99333568Y-44625910D01*
X99320501Y-44627038D01*
X99307432Y-44628137D01*
X99294360Y-44629209D01*
X99281286Y-44630252D01*
X99268209Y-44631266D01*
X99255129Y-44632252D01*
X99242047Y-44633210D01*
X99228962Y-44634139D01*
X99215874Y-44635039D01*
X99202784Y-44635911D01*
X99189691Y-44636754D01*
X99176595Y-44637568D01*
X99163497Y-44638353D01*
X99150395Y-44639109D01*
X99137291Y-44639837D01*
X99124185Y-44640535D01*
X99111075Y-44641204D01*
X99097963Y-44641844D01*
X99084847Y-44642455D01*
X99071729Y-44643037D01*
X99058609Y-44643589D01*
X99045485Y-44644112D01*
X99032358Y-44644605D01*
X99019229Y-44645070D01*
X99006097Y-44645504D01*
X98992962Y-44645909D01*
X98979824Y-44646284D01*
X98966683Y-44646630D01*
X98953539Y-44646946D01*
X98940392Y-44647232D01*
X98927243Y-44647488D01*
X98914090Y-44647714D01*
X98900934Y-44647910D01*
X98887776Y-44648077D01*
X98874614Y-44648213D01*
X98861450Y-44648319D01*
X98848282Y-44648394D01*
X98835112Y-44648440D01*
X98821938Y-44648455D01*
X125015746Y-110728273D02*
X125004418Y-110728283D01*
X124993114Y-110728312D01*
X124981834Y-110728362D01*
X124970578Y-110728432D01*
X124959346Y-110728521D01*
X124948137Y-110728630D01*
X124936952Y-110728759D01*
X124925790Y-110728908D01*
X124914651Y-110729076D01*
X124903536Y-110729264D01*
X124892444Y-110729471D01*
X124881375Y-110729698D01*
X124870329Y-110729945D01*
X124859306Y-110730211D01*
X124848306Y-110730496D01*
X124837329Y-110730801D01*
X124826374Y-110731125D01*
X124815442Y-110731469D01*
X124804532Y-110731831D01*
X124793645Y-110732213D01*
X124782780Y-110732615D01*
X124771938Y-110733035D01*
X124761117Y-110733475D01*
X124750319Y-110733933D01*
X124739542Y-110734411D01*
X124728789Y-110734908D01*
X124718056Y-110735423D01*
X124707345Y-110735958D01*
X124696656Y-110736512D01*
X124685989Y-110737084D01*
X124675342Y-110737675D01*
X124664719Y-110738285D01*
X124654115Y-110738914D01*
X124643533Y-110739562D01*
X124632972Y-110740228D01*
X124622433Y-110740913D01*
X124611914Y-110741617D01*
X124601417Y-110742340D01*
X124590939Y-110743081D01*
X124580484Y-110743840D01*
X124570048Y-110744618D01*
X124559634Y-110745414D01*
X124549239Y-110746229D01*
X124538866Y-110747063D01*
X124528511Y-110747915D01*
X124518179Y-110748785D01*
X124507865Y-110749673D01*
X124497573Y-110750580D01*
X124487299Y-110751505D01*
X124477047Y-110752449D01*
X124466813Y-110753410D01*
X124456601Y-110754390D01*
X124446406Y-110755388D01*
X124436233Y-110756404D01*
X124426078Y-110757439D01*
X124415944Y-110758491D01*
X124405827Y-110759561D01*
X124395732Y-110760650D01*
X124385653Y-110761756D01*
X124375597Y-110762881D01*
X124365556Y-110764023D01*
X124355538Y-110765184D01*
X124345535Y-110766362D01*
X124335554Y-110767558D01*
X124325589Y-110768773D01*
X124315645Y-110770004D01*
X124305717Y-110771254D01*
X124295810Y-110772522D01*
X124285919Y-110773807D01*
X124276049Y-110775110D01*
X124266195Y-110776431D01*
X124256361Y-110777770D01*
X124246543Y-110779126D01*
X124236745Y-110780500D01*
X124226962Y-110781892D01*
X124217201Y-110783301D01*
X124207453Y-110784728D01*
X124197727Y-110786172D01*
X124188015Y-110787635D01*
X124178324Y-110789114D01*
X124168647Y-110790611D01*
X124158990Y-110792126D01*
X124149347Y-110793658D01*
X124139725Y-110795208D01*
X124130117Y-110796775D01*
X124120529Y-110798360D01*
X124110954Y-110799962D01*
X124101400Y-110801581D01*
X124091859Y-110803219D01*
X124082338Y-110804873D01*
X124072830Y-110806545D01*
X124063342Y-110808234D01*
X124053867Y-110809941D01*
X124044412Y-110811664D01*
X124034970Y-110813406D01*
X124025547Y-110815164D01*
X124006747Y-110818733D01*
X123988010Y-110822371D01*
X123969336Y-110826078D01*
X123950724Y-110829854D01*
X123932174Y-110833699D01*
X123913686Y-110837613D01*
X123895257Y-110841596D01*
X123876888Y-110845647D01*
X123858579Y-110849768D01*
X123840327Y-110853957D01*
X123822133Y-110858214D01*
X123803997Y-110862541D01*
X123785916Y-110866935D01*
X123767892Y-110871399D01*
X123749922Y-110875931D01*
X123732007Y-110880532D01*
X123714145Y-110885201D01*
X123696337Y-110889939D01*
X123678580Y-110894746D01*
X123660875Y-110899621D01*
X123643221Y-110904565D01*
X123625618Y-110909578D01*
X123608063Y-110914660D01*
X123590558Y-110919811D01*
X123573101Y-110925031D01*
X123555691Y-110930320D01*
X123538327Y-110935678D01*
X123521010Y-110941106D01*
X123503738Y-110946603D01*
X123486510Y-110952169D01*
X123469327Y-110957806D01*
X123452186Y-110963512D01*
X123435088Y-110969288D01*
X123418031Y-110975135D01*
X123401015Y-110981052D01*
X123384039Y-110987039D01*
X123367103Y-110993097D01*
X123350205Y-110999226D01*
X123333345Y-111005427D01*
X123316522Y-111011698D01*
X123299735Y-111018042D01*
X123282983Y-111024457D01*
X123266266Y-111030944D01*
X123249583Y-111037504D01*
X123232933Y-111044137D01*
X123216316Y-111050843D01*
X123199729Y-111057622D01*
X123183173Y-111064475D01*
X123166647Y-111071402D01*
X123150149Y-111078404D01*
X123133680Y-111085480D01*
X123117237Y-111092632D01*
X123100820Y-111099859D01*
X123084429Y-111107162D01*
X123068062Y-111114542D01*
X123051718Y-111121999D01*
X123035397Y-111129534D01*
X123019097Y-111137146D01*
X123002818Y-111144837D01*
X122986557Y-111152607D01*
X122970316Y-111160456D01*
X122954091Y-111168386D01*
X122937883Y-111176397D01*
X122921691Y-111184489D01*
X122905512Y-111192663D01*
X122889346Y-111200920D01*
X122873193Y-111209261D01*
X122857050Y-111217685D01*
X122840916Y-111226195D01*
X122824791Y-111234791D01*
X122808673Y-111243473D01*
X122792560Y-111252243D01*
X122776452Y-111261101D01*
X122760347Y-111270049D01*
X122744244Y-111279086D01*
X122728141Y-111288215D01*
X122712037Y-111297437D01*
X122695930Y-111306751D01*
X122679819Y-111316161D01*
X122663703Y-111325666D01*
X122647579Y-111335268D01*
X122631446Y-111344968D01*
X122615302Y-111354767D01*
X122599145Y-111364668D01*
X122582974Y-111374671D01*
X122566787Y-111384778D01*
X122550581Y-111394990D01*
X122534355Y-111405310D01*
X122518106Y-111415738D01*
X122501833Y-111426277D01*
X122485532Y-111436928D01*
X122469202Y-111447694D01*
X122452840Y-111458576D01*
X122436443Y-111469578D01*
X122420008Y-111480700D01*
X122403534Y-111491945D01*
X122387016Y-111503317D01*
X122370452Y-111514817D01*
X122353839Y-111526449D01*
X122337172Y-111538215D01*
X122320449Y-111550118D01*
X122303665Y-111562163D01*
X122286816Y-111574351D01*
X122269899Y-111586688D01*
X122252908Y-111599177D01*
X122235839Y-111611822D01*
X122218686Y-111624628D01*
X122201445Y-111637600D01*
X122184110Y-111650742D01*
X122166673Y-111664061D01*
X122149129Y-111677561D01*
X122131471Y-111691250D01*
X122113690Y-111705135D01*
X122095779Y-111719222D01*
X122077729Y-111733520D01*
X122059529Y-111748038D01*
X122041169Y-111762784D01*
X122022638Y-111777771D01*
X122003922Y-111793008D01*
X121985008Y-111808510D01*
X121965881Y-111824289D01*
X121946522Y-111840361D01*
X121926913Y-111856745D01*
X121907032Y-111873459D01*
X121886855Y-111890526D01*
X121866353Y-111907970D01*
X121845495Y-111925822D01*
X121824243Y-111944115D01*
X121802554Y-111962888D01*
X121780378Y-111982187D01*
X121757653Y-112002069D01*
X121734305Y-112022601D01*
X121710241Y-112043866D01*
X121685346Y-112065970D01*
X121659470Y-112089050D01*
X121632411Y-112113290D01*
X121603889Y-112138944D01*
X121573493Y-112166387D01*
X121540570Y-112196216D01*
X121503956Y-112229490D01*
X121461155Y-112268483D01*
X121406760Y-112318122D01*
X121370387Y-112351320D01*
X121334048Y-112384458D01*
X121297726Y-112417521D01*
X121279566Y-112434020D01*
X121261404Y-112450494D01*
X121243238Y-112466943D01*
X121225067Y-112483363D01*
X121206887Y-112499754D01*
X121188698Y-112516113D01*
X121170496Y-112532438D01*
X121152280Y-112548729D01*
X121134048Y-112564981D01*
X121115798Y-112581195D01*
X121097528Y-112597368D01*
X121079236Y-112613498D01*
X121060919Y-112629584D01*
X121042576Y-112645623D01*
X121024205Y-112661613D01*
X121005803Y-112677554D01*
X120987369Y-112693442D01*
X120968900Y-112709277D01*
X120950395Y-112725056D01*
X120931852Y-112740777D01*
X120913267Y-112756439D01*
X120894641Y-112772040D01*
X120875969Y-112787577D01*
X120866616Y-112795321D01*
X120857251Y-112803049D01*
X120847874Y-112810761D01*
X120838485Y-112818455D01*
X120829082Y-112826132D01*
X120819667Y-112833792D01*
X120810239Y-112841434D01*
X120800797Y-112849058D01*
X120791341Y-112856664D01*
X120781872Y-112864252D01*
X120772388Y-112871821D01*
X120762890Y-112879372D01*
X120753377Y-112886903D01*
X120743849Y-112894415D01*
X120734306Y-112901908D01*
X120724748Y-112909381D01*
X120715173Y-112916834D01*
X120705583Y-112924267D01*
X120695977Y-112931679D01*
X120686353Y-112939071D01*
X120676714Y-112946442D01*
X120667057Y-112953792D01*
X120657383Y-112961120D01*
X120647691Y-112968427D01*
X120637982Y-112975712D01*
X120628254Y-112982976D01*
X120618509Y-112990216D01*
X120608744Y-112997435D01*
X120598961Y-113004630D01*
X120589159Y-113011803D01*
X120579338Y-113018952D01*
X120569497Y-113026078D01*
X120559636Y-113033181D01*
X120549755Y-113040259D01*
X120539854Y-113047314D01*
X120529933Y-113054344D01*
X120519990Y-113061349D01*
X120510026Y-113068330D01*
X120500041Y-113075285D01*
X120490035Y-113082216D01*
X120480007Y-113089120D01*
X120469956Y-113096000D01*
X120459883Y-113102853D01*
X120449788Y-113109680D01*
X120439669Y-113116480D01*
X120429528Y-113123254D01*
X120419363Y-113130001D01*
X120409175Y-113136721D01*
X120398962Y-113143413D01*
X120388726Y-113150078D01*
X120378465Y-113156715D01*
X120368180Y-113163324D01*
X120357869Y-113169905D01*
X120347534Y-113176457D01*
X120337173Y-113182981D01*
X120326786Y-113189475D01*
X120316373Y-113195940D01*
X120305935Y-113202376D01*
X120295469Y-113208783D01*
X120284978Y-113215159D01*
X120274459Y-113221505D01*
X120263913Y-113227821D01*
X120253339Y-113234106D01*
X120242738Y-113240361D01*
X120232109Y-113246584D01*
X120221452Y-113252776D01*
X120210766Y-113258936D01*
X120200052Y-113265065D01*
X120189308Y-113271162D01*
X120178536Y-113277227D01*
X120167733Y-113283259D01*
X120156902Y-113289258D01*
X120146040Y-113295225D01*
X120135148Y-113301158D01*
X120124225Y-113307058D01*
X120113272Y-113312925D01*
X120102287Y-113318757D01*
X120091271Y-113324556D01*
X120080224Y-113330320D01*
X120069145Y-113336050D01*
X120058034Y-113341745D01*
X120046891Y-113347405D01*
X120035715Y-113353030D01*
X120024507Y-113358619D01*
X120013265Y-113364173D01*
X120001990Y-113369690D01*
X119990682Y-113375172D01*
X119979339Y-113380617D01*
X119967963Y-113386026D01*
X119956552Y-113391397D01*
X119945107Y-113396732D01*
X119933627Y-113402030D01*
X119922112Y-113407289D01*
X119910561Y-113412511D01*
X119898975Y-113417695D01*
X119887353Y-113422841D01*
X119875695Y-113427949D01*
X119864001Y-113433017D01*
X119852270Y-113438047D01*
X119840502Y-113443038D01*
X119828697Y-113447989D01*
X119816855Y-113452901D01*
X119804975Y-113457772D01*
X119793057Y-113462604D01*
X119781101Y-113467395D01*
X119769106Y-113472146D01*
X119757073Y-113476856D01*
X119745001Y-113481525D01*
X119732890Y-113486153D01*
X119720740Y-113490739D01*
X119708549Y-113495284D01*
X119696319Y-113499787D01*
X119684049Y-113504247D01*
X119671738Y-113508666D01*
X119659387Y-113513041D01*
X119646995Y-113517374D01*
X119634561Y-113521663D01*
X119622086Y-113525910D01*
X119609570Y-113530112D01*
X119597011Y-113534271D01*
X119584410Y-113538386D01*
X119571767Y-113542457D01*
X119559081Y-113546483D01*
X119546352Y-113550464D01*
X119533580Y-113554401D01*
X119520764Y-113558292D01*
X119507905Y-113562138D01*
X119495001Y-113565939D01*
X119482054Y-113569693D01*
X119469062Y-113573401D01*
X119456025Y-113577064D01*
X119442943Y-113580679D01*
X119429816Y-113584248D01*
X119416643Y-113587769D01*
X119403424Y-113591244D01*
X119390160Y-113594671D01*
X119376849Y-113598050D01*
X119363492Y-113601381D01*
X119350088Y-113604664D01*
X119336637Y-113607899D01*
X119323138Y-113611085D01*
X119309592Y-113614222D01*
X119295998Y-113617310D01*
X119282357Y-113620349D01*
X119268666Y-113623338D01*
X119254928Y-113626278D01*
X119241140Y-113629167D01*
X119227303Y-113632006D01*
X119213417Y-113634795D01*
X119199482Y-113637532D01*
X119185496Y-113640219D01*
X119171461Y-113642855D01*
X119157375Y-113645439D01*
X119143238Y-113647972D01*
X119129051Y-113650453D01*
X119114813Y-113652881D01*
X119100523Y-113655258D01*
X119086181Y-113657581D01*
X119071788Y-113659852D01*
X119057343Y-113662070D01*
X119042845Y-113664235D01*
X119028294Y-113666346D01*
X119013691Y-113668403D01*
X118999034Y-113670407D01*
X118984324Y-113672356D01*
X118969560Y-113674251D01*
X118954743Y-113676091D01*
X118939871Y-113677876D01*
X118924945Y-113679606D01*
X118909964Y-113681281D01*
X118894928Y-113682900D01*
X118879837Y-113684464D01*
X118864691Y-113685971D01*
X118849489Y-113687422D01*
X118834231Y-113688817D01*
X118818917Y-113690155D01*
X118803546Y-113691435D01*
X118788118Y-113692659D01*
X118772634Y-113693825D01*
X118757092Y-113694934D01*
X118741493Y-113695985D01*
X118725836Y-113696977D01*
X118710122Y-113697911D01*
X118694348Y-113698787D01*
X118678517Y-113699603D01*
X118662627Y-113700361D01*
X118646677Y-113701060D01*
X118630669Y-113701698D01*
X118614600Y-113702278D01*
X118598473Y-113702797D01*
X118582285Y-113703256D01*
X118566036Y-113703654D01*
X118549728Y-113703992D01*
X118533358Y-113704269D01*
X118516928Y-113704485D01*
X118500436Y-113704639D01*
X118483882Y-113704732D01*
X118467267Y-113704763D01*
X98821938Y-72628166D02*
X98810610Y-72628176D01*
X98799307Y-72628206D01*
X98788027Y-72628256D01*
X98776771Y-72628326D01*
X98765538Y-72628415D01*
X98754329Y-72628524D01*
X98743144Y-72628654D01*
X98731982Y-72628802D01*
X98720844Y-72628971D01*
X98709729Y-72629159D01*
X98698636Y-72629367D01*
X98687568Y-72629594D01*
X98676521Y-72629841D01*
X98665499Y-72630107D01*
X98654498Y-72630393D01*
X98643521Y-72630698D01*
X98632566Y-72631022D01*
X98621635Y-72631366D01*
X98610725Y-72631729D01*
X98599838Y-72632111D01*
X98588973Y-72632513D01*
X98578131Y-72632933D01*
X98567310Y-72633373D01*
X98556512Y-72633832D01*
X98545736Y-72634310D01*
X98534982Y-72634807D01*
X98524249Y-72635323D01*
X98513539Y-72635857D01*
X98502849Y-72636411D01*
X98492182Y-72636984D01*
X98481536Y-72637576D01*
X98470912Y-72638186D01*
X98460308Y-72638815D01*
X98449727Y-72639463D01*
X98439166Y-72640130D01*
X98428627Y-72640815D01*
X98418107Y-72641519D01*
X98407610Y-72642241D01*
X98397133Y-72642982D01*
X98386678Y-72643742D01*
X98376242Y-72644520D01*
X98365828Y-72645317D01*
X98355433Y-72646132D01*
X98345060Y-72646966D01*
X98334705Y-72647818D01*
X98324373Y-72648688D01*
X98314059Y-72649577D01*
X98303767Y-72650484D01*
X98293493Y-72651410D01*
X98283241Y-72652353D01*
X98273007Y-72653315D01*
X98262795Y-72654295D01*
X98252600Y-72655293D01*
X98242427Y-72656309D01*
X98232272Y-72657344D01*
X98222138Y-72658397D01*
X98212021Y-72659467D01*
X98201926Y-72660556D01*
X98191848Y-72661663D01*
X98181791Y-72662787D01*
X98171750Y-72663930D01*
X98161732Y-72665091D01*
X98151729Y-72666269D01*
X98141748Y-72667466D01*
X98131783Y-72668680D01*
X98121839Y-72669912D01*
X98111911Y-72671162D01*
X98102005Y-72672430D01*
X98092114Y-72673716D01*
X98082244Y-72675019D01*
X98072389Y-72676340D01*
X98062555Y-72677679D01*
X98052737Y-72679036D01*
X98042939Y-72680409D01*
X98033157Y-72681802D01*
X98023395Y-72683211D01*
X98013648Y-72684638D01*
X98003921Y-72686083D01*
X97994209Y-72687545D01*
X97984518Y-72689025D01*
X97974841Y-72690522D01*
X97965184Y-72692037D01*
X97955542Y-72693570D01*
X97945920Y-72695119D01*
X97936311Y-72696687D01*
X97926723Y-72698272D01*
X97917148Y-72699874D01*
X97907594Y-72701494D01*
X97898053Y-72703131D01*
X97888532Y-72704786D01*
X97879024Y-72706458D01*
X97869537Y-72708147D01*
X97860061Y-72709854D01*
X97850607Y-72711578D01*
X97841164Y-72713319D01*
X97831742Y-72715078D01*
X97812941Y-72718647D01*
X97794204Y-72722286D01*
X97775530Y-72725993D01*
X97756918Y-72729770D01*
X97738369Y-72733615D01*
X97719880Y-72737530D01*
X97701451Y-72741513D01*
X97683082Y-72745565D01*
X97664772Y-72749685D01*
X97646521Y-72753875D01*
X97628327Y-72758133D01*
X97610191Y-72762460D01*
X97592110Y-72766855D01*
X97574086Y-72771319D01*
X97556116Y-72775851D01*
X97538201Y-72780452D01*
X97520339Y-72785122D01*
X97502530Y-72789860D01*
X97484774Y-72794667D01*
X97467069Y-72799543D01*
X97449415Y-72804488D01*
X97431811Y-72809501D01*
X97414257Y-72814583D01*
X97396751Y-72819735D01*
X97379294Y-72824955D01*
X97361884Y-72830244D01*
X97344520Y-72835603D01*
X97327203Y-72841031D01*
X97309931Y-72846529D01*
X97292703Y-72852096D01*
X97275519Y-72857732D01*
X97258379Y-72863439D01*
X97241280Y-72869216D01*
X97224223Y-72875063D01*
X97207207Y-72880980D01*
X97190231Y-72886968D01*
X97173295Y-72893026D01*
X97156397Y-72899156D01*
X97139537Y-72905357D01*
X97122713Y-72911629D01*
X97105926Y-72917972D01*
X97089175Y-72924388D01*
X97072458Y-72930876D01*
X97055775Y-72937436D01*
X97039124Y-72944070D01*
X97022507Y-72950776D01*
X97005920Y-72957556D01*
X96989364Y-72964409D01*
X96972837Y-72971336D01*
X96956340Y-72978338D01*
X96939870Y-72985415D01*
X96923427Y-72992567D01*
X96907010Y-72999795D01*
X96890619Y-73007099D01*
X96874252Y-73014479D01*
X96857908Y-73021936D01*
X96841586Y-73029471D01*
X96825286Y-73037084D01*
X96809007Y-73044775D01*
X96792746Y-73052546D01*
X96776504Y-73060396D01*
X96760280Y-73068326D01*
X96744072Y-73076337D01*
X96727879Y-73084430D01*
X96711700Y-73092604D01*
X96695534Y-73100862D01*
X96679380Y-73109203D01*
X96663237Y-73117628D01*
X96647103Y-73126138D01*
X96630978Y-73134734D01*
X96614859Y-73143417D01*
X96598747Y-73152187D01*
X96582638Y-73161046D01*
X96566533Y-73169994D01*
X96550430Y-73179032D01*
X96534327Y-73188162D01*
X96518222Y-73197383D01*
X96502115Y-73206699D01*
X96486004Y-73216108D01*
X96469887Y-73225614D01*
X96453763Y-73235216D01*
X96437630Y-73244917D01*
X96421485Y-73254717D01*
X96405329Y-73264618D01*
X96389157Y-73274622D01*
X96372970Y-73284729D01*
X96356763Y-73294942D01*
X96340537Y-73305262D01*
X96324288Y-73315691D01*
X96308014Y-73326230D01*
X96291713Y-73336882D01*
X96275382Y-73347649D01*
X96259020Y-73358532D01*
X96242623Y-73369534D01*
X96226188Y-73380656D01*
X96209713Y-73391903D01*
X96193195Y-73403275D01*
X96176631Y-73414776D01*
X96160017Y-73426408D01*
X96143349Y-73438174D01*
X96126626Y-73450079D01*
X96109841Y-73462124D01*
X96092992Y-73474313D01*
X96076074Y-73486651D01*
X96059083Y-73499140D01*
X96042013Y-73511786D01*
X96024860Y-73524593D01*
X96007618Y-73537565D01*
X95990282Y-73550708D01*
X95972845Y-73564028D01*
X95955300Y-73577529D01*
X95937641Y-73591219D01*
X95919860Y-73605104D01*
X95901948Y-73619192D01*
X95883897Y-73633492D01*
X95865696Y-73648010D01*
X95847335Y-73662758D01*
X95828803Y-73677746D01*
X95810087Y-73692984D01*
X95791172Y-73708487D01*
X95772043Y-73724267D01*
X95752683Y-73740341D01*
X95733073Y-73756726D01*
X95713191Y-73773441D01*
X95693012Y-73790509D01*
X95672508Y-73807956D01*
X95651648Y-73825810D01*
X95630395Y-73844104D01*
X95608704Y-73862879D01*
X95586526Y-73882181D01*
X95563798Y-73902065D01*
X95540447Y-73922599D01*
X95516380Y-73943867D01*
X95491482Y-73965975D01*
X95465601Y-73989060D01*
X95438537Y-74013304D01*
X95410009Y-74038964D01*
X95379605Y-74066415D01*
X95346670Y-74096255D01*
X95310039Y-74129544D01*
X95267206Y-74168567D01*
X95212985Y-74218046D01*
X95176612Y-74251245D01*
X95140272Y-74284383D01*
X95103949Y-74317446D01*
X95085789Y-74333945D01*
X95067627Y-74350420D01*
X95049461Y-74366869D01*
X95031289Y-74383289D01*
X95013109Y-74399680D01*
X94994919Y-74416039D01*
X94976717Y-74432365D01*
X94958501Y-74448655D01*
X94940269Y-74464908D01*
X94922019Y-74481122D01*
X94903749Y-74497295D01*
X94885456Y-74513425D01*
X94867139Y-74529511D01*
X94848796Y-74545550D01*
X94830424Y-74561541D01*
X94812022Y-74577482D01*
X94793588Y-74593370D01*
X94775119Y-74609205D01*
X94756613Y-74624984D01*
X94738070Y-74640706D01*
X94719485Y-74656367D01*
X94700858Y-74671968D01*
X94682187Y-74687506D01*
X94672834Y-74695250D01*
X94663468Y-74702978D01*
X94654091Y-74710690D01*
X94644701Y-74718384D01*
X94635299Y-74726061D01*
X94625884Y-74733721D01*
X94616455Y-74741363D01*
X94607013Y-74748988D01*
X94597558Y-74756594D01*
X94588088Y-74764182D01*
X94578604Y-74771751D01*
X94569106Y-74779301D01*
X94559593Y-74786833D01*
X94550065Y-74794345D01*
X94540522Y-74801838D01*
X94530963Y-74809311D01*
X94521389Y-74816764D01*
X94511798Y-74824197D01*
X94502191Y-74831610D01*
X94492568Y-74839001D01*
X94482928Y-74846372D01*
X94473271Y-74853722D01*
X94463597Y-74861051D01*
X94453905Y-74868358D01*
X94444196Y-74875643D01*
X94434468Y-74882906D01*
X94424723Y-74890147D01*
X94414958Y-74897365D01*
X94405175Y-74904561D01*
X94395373Y-74911734D01*
X94385551Y-74918883D01*
X94375710Y-74926009D01*
X94365849Y-74933112D01*
X94355968Y-74940190D01*
X94346067Y-74947245D01*
X94336145Y-74954275D01*
X94326203Y-74961280D01*
X94316239Y-74968261D01*
X94306254Y-74975217D01*
X94296247Y-74982147D01*
X94286219Y-74989052D01*
X94276168Y-74995931D01*
X94266095Y-75002784D01*
X94256000Y-75009611D01*
X94245881Y-75016412D01*
X94235740Y-75023186D01*
X94225575Y-75029933D01*
X94215386Y-75036652D01*
X94205174Y-75043345D01*
X94194937Y-75050010D01*
X94184676Y-75056647D01*
X94174390Y-75063256D01*
X94164080Y-75069837D01*
X94153744Y-75076389D01*
X94143383Y-75082913D01*
X94132996Y-75089407D01*
X94122584Y-75095873D01*
X94112145Y-75102309D01*
X94101679Y-75108715D01*
X94091187Y-75115091D01*
X94080669Y-75121438D01*
X94070122Y-75127753D01*
X94059549Y-75134039D01*
X94048948Y-75140293D01*
X94038318Y-75146517D01*
X94027661Y-75152709D01*
X94016975Y-75158869D01*
X94006261Y-75164998D01*
X93995517Y-75171095D01*
X93984744Y-75177160D01*
X93973942Y-75183192D01*
X93963110Y-75189191D01*
X93952248Y-75195158D01*
X93941356Y-75201091D01*
X93930433Y-75206991D01*
X93919479Y-75212858D01*
X93908495Y-75218691D01*
X93897479Y-75224489D01*
X93886432Y-75230254D01*
X93875353Y-75235983D01*
X93864242Y-75241678D01*
X93853098Y-75247338D01*
X93841922Y-75252963D01*
X93830714Y-75258553D01*
X93819472Y-75264106D01*
X93808197Y-75269624D01*
X93796888Y-75275106D01*
X93785546Y-75280551D01*
X93774169Y-75285959D01*
X93762758Y-75291331D01*
X93751313Y-75296666D01*
X93739833Y-75301963D01*
X93728318Y-75307223D01*
X93716767Y-75312445D01*
X93705181Y-75317629D01*
X93693559Y-75322775D01*
X93681900Y-75327883D01*
X93670206Y-75332951D01*
X93658475Y-75337981D01*
X93646707Y-75342972D01*
X93634902Y-75347923D01*
X93623059Y-75352835D01*
X93611179Y-75357707D01*
X93599261Y-75362538D01*
X93587305Y-75367330D01*
X93575310Y-75372081D01*
X93563277Y-75376791D01*
X93551205Y-75381460D01*
X93539094Y-75386088D01*
X93526943Y-75390674D01*
X93514753Y-75395219D01*
X93502523Y-75399721D01*
X93490252Y-75404182D01*
X93477942Y-75408600D01*
X93465590Y-75412976D01*
X93453198Y-75417308D01*
X93440764Y-75421598D01*
X93428289Y-75425844D01*
X93415772Y-75430047D01*
X93403213Y-75434206D01*
X93390613Y-75438321D01*
X93377969Y-75442392D01*
X93365283Y-75446418D01*
X93352554Y-75450399D01*
X93339782Y-75454336D01*
X93326966Y-75458227D01*
X93314106Y-75462073D01*
X93301203Y-75465874D01*
X93288255Y-75469628D01*
X93275263Y-75473337D01*
X93262226Y-75476999D01*
X93249144Y-75480614D01*
X93236016Y-75484183D01*
X93222844Y-75487705D01*
X93209625Y-75491179D01*
X93196360Y-75494606D01*
X93183049Y-75497985D01*
X93169692Y-75501317D01*
X93156288Y-75504600D01*
X93142837Y-75507834D01*
X93129338Y-75511020D01*
X93115792Y-75514158D01*
X93102198Y-75517246D01*
X93088556Y-75520284D01*
X93074866Y-75523274D01*
X93061127Y-75526213D01*
X93047339Y-75529102D01*
X93033502Y-75531942D01*
X93019616Y-75534730D01*
X93005680Y-75537468D01*
X92991695Y-75540155D01*
X92977659Y-75542791D01*
X92963573Y-75545375D01*
X92949437Y-75547908D01*
X92935249Y-75550388D01*
X92921010Y-75552817D01*
X92906720Y-75555193D01*
X92892379Y-75557517D01*
X92877985Y-75559788D01*
X92863540Y-75562006D01*
X92849042Y-75564171D01*
X92834491Y-75566282D01*
X92819888Y-75568339D01*
X92805231Y-75570343D01*
X92790521Y-75572292D01*
X92775757Y-75574187D01*
X92760939Y-75576027D01*
X92746067Y-75577812D01*
X92731141Y-75579542D01*
X92716160Y-75581217D01*
X92701124Y-75582836D01*
X92686033Y-75584400D01*
X92670887Y-75585907D01*
X92655684Y-75587358D01*
X92640426Y-75588753D01*
X92625112Y-75590091D01*
X92609741Y-75591371D01*
X92594313Y-75592595D01*
X92578829Y-75593761D01*
X92563287Y-75594870D01*
X92547688Y-75595920D01*
X92532031Y-75596913D01*
X92516316Y-75597847D01*
X92500542Y-75598723D01*
X92484711Y-75599539D01*
X92468820Y-75600297D01*
X92452871Y-75600996D01*
X92436862Y-75601634D01*
X92420794Y-75602214D01*
X92404666Y-75602733D01*
X92388478Y-75603192D01*
X92372229Y-75603590D01*
X92355920Y-75603928D01*
X92339551Y-75604205D01*
X92323120Y-75604421D01*
X92306628Y-75604575D01*
X92290074Y-75604668D01*
X92273459Y-75604699D01*
D10*
X134540716Y-95250058D02*
G75*
G02*
X132159442Y-92868808I-16J2381258D01*
G01*
X47029694Y-51196870D02*
X54173463Y-51196898D01*
X144065726Y-48815648D02*
G75*
G02*
X142875052Y-47625020I-26J1190648D01*
G01*
X34528125Y-97631250D02*
X59531250Y-97631250D01*
X135731344Y-38100012D02*
G75*
G02*
X136921988Y-39290720I-44J-1190688D01*
G01*
X107751633Y-75604699D02*
X116681250Y-75604731D01*
X149423543Y-48815646D02*
G75*
G02*
X150614154Y-50006272I-43J-1190654D01*
G01*
D11*
X138112602Y-46439331D02*
X138112592Y-46418418D01*
X138112562Y-46397566D01*
X138112512Y-46376763D01*
X138112443Y-46356020D01*
X138112353Y-46335325D01*
X138112244Y-46314691D01*
X138112115Y-46294105D01*
X138111967Y-46273578D01*
X138111798Y-46253099D01*
X138111611Y-46232679D01*
X138111404Y-46212306D01*
X138111177Y-46191992D01*
X138110931Y-46171725D01*
X138110666Y-46151517D01*
X138110382Y-46131355D01*
X138110078Y-46111251D01*
X138109755Y-46091193D01*
X138109413Y-46071193D01*
X138109052Y-46051238D01*
X138108672Y-46031340D01*
X138108273Y-46011488D01*
X138107855Y-45991693D01*
X138107418Y-45971942D01*
X138106962Y-45952248D01*
X138106487Y-45932597D01*
X138105994Y-45913004D01*
X138105482Y-45893454D01*
X138104951Y-45873960D01*
X138104402Y-45854509D01*
X138103834Y-45835114D01*
X138103247Y-45815761D01*
X138102643Y-45796465D01*
X138102019Y-45777209D01*
X138101377Y-45758010D01*
X138100717Y-45738851D01*
X138100039Y-45719748D01*
X138099342Y-45700685D01*
X138098627Y-45681678D01*
X138097894Y-45662710D01*
X138097143Y-45643797D01*
X138096373Y-45624923D01*
X138095586Y-45606105D01*
X138094780Y-45587324D01*
X138093957Y-45568599D01*
X138093115Y-45549911D01*
X138092256Y-45531278D01*
X138091379Y-45512681D01*
X138090484Y-45494140D01*
X138089571Y-45475634D01*
X138088641Y-45457183D01*
X138087692Y-45438768D01*
X138086726Y-45420407D01*
X138085742Y-45402081D01*
X138084742Y-45383808D01*
X138083722Y-45365570D01*
X138082686Y-45347386D01*
X138081632Y-45329236D01*
X138080561Y-45311139D01*
X138079472Y-45293075D01*
X138078367Y-45275065D01*
X138077243Y-45257087D01*
X138076102Y-45239162D01*
X138074944Y-45221269D01*
X138073769Y-45203429D01*
X138072576Y-45185620D01*
X138071367Y-45167863D01*
X138070139Y-45150137D01*
X138068896Y-45132464D01*
X138067634Y-45114821D01*
X138066356Y-45097229D01*
X138065061Y-45079667D01*
X138063749Y-45062157D01*
X138062419Y-45044675D01*
X138061073Y-45027246D01*
X138059709Y-45009844D01*
X138058330Y-44992494D01*
X138055519Y-44957899D01*
X138052641Y-44923459D01*
X138049695Y-44889174D01*
X138046683Y-44855040D01*
X138043604Y-44821056D01*
X138040458Y-44787220D01*
X138037246Y-44753531D01*
X138033968Y-44719986D01*
X138030623Y-44686583D01*
X138027212Y-44653321D01*
X138023736Y-44620198D01*
X138020194Y-44587211D01*
X138016586Y-44554359D01*
X138012912Y-44521639D01*
X138009173Y-44489050D01*
X138005368Y-44456590D01*
X138001498Y-44424256D01*
X137997563Y-44392047D01*
X137993562Y-44359960D01*
X137989496Y-44327993D01*
X137985365Y-44296143D01*
X137981168Y-44264410D01*
X137976906Y-44232789D01*
X137972579Y-44201280D01*
X137968186Y-44169880D01*
X137963728Y-44138585D01*
X137959203Y-44107395D01*
X137954614Y-44076306D01*
X137949958Y-44045316D01*
X137945236Y-44014423D01*
X137940448Y-43983623D01*
X137935593Y-43952914D01*
X137930672Y-43922294D01*
X137925684Y-43891759D01*
X137920628Y-43861307D01*
X137915506Y-43830934D01*
X137910315Y-43800638D01*
X137905056Y-43770415D01*
X137899729Y-43740263D01*
X137894332Y-43710178D01*
X137888866Y-43680157D01*
X137883331Y-43650196D01*
X137877724Y-43620292D01*
X137872047Y-43590441D01*
X137866298Y-43560639D01*
X137860477Y-43530882D01*
X137854582Y-43501166D01*
X137848614Y-43471487D01*
X137842571Y-43441841D01*
X137836453Y-43412222D01*
X137830258Y-43382626D01*
X137823986Y-43353048D01*
X137817635Y-43323484D01*
X137811204Y-43293926D01*
X137804693Y-43264370D01*
X137798099Y-43234810D01*
X137791421Y-43205239D01*
X137784657Y-43175651D01*
X137777807Y-43146038D01*
X137770867Y-43116394D01*
X137763837Y-43086710D01*
X137756714Y-43056979D01*
X137749495Y-43027190D01*
X137742179Y-42997336D01*
X137734762Y-42967405D01*
X137727242Y-42937387D01*
X137719615Y-42907270D01*
X137711879Y-42877042D01*
X137704028Y-42846690D01*
X137696059Y-42816198D01*
X137687968Y-42785551D01*
X137679749Y-42754731D01*
X137671397Y-42723720D01*
X137662906Y-42692495D01*
X137654268Y-42661035D01*
X137645477Y-42629312D01*
X137636522Y-42597300D01*
X137627396Y-42564963D01*
X137618085Y-42532267D01*
X137608578Y-42499170D01*
X137598859Y-42465622D01*
X137588912Y-42431569D01*
X137578716Y-42396944D01*
X137568246Y-42361671D01*
X137557475Y-42325656D01*
X137546365Y-42288786D01*
X137534874Y-42250919D01*
X137522943Y-42211875D01*
X137510500Y-42171420D01*
X137497444Y-42129236D01*
X137483632Y-42084875D01*
X137468853Y-42037662D01*
X137452758Y-41986503D01*
X137434704Y-41929363D01*
X137413195Y-41861523D01*
X137393713Y-41800191D01*
X137370256Y-41726336D01*
X137358606Y-41689596D01*
X137347014Y-41652968D01*
X137335485Y-41616443D01*
X137324022Y-41580011D01*
X137312630Y-41543661D01*
X137301314Y-41507385D01*
X137290077Y-41471171D01*
X137278924Y-41435012D01*
X137267860Y-41398896D01*
X137262363Y-41380852D01*
X137256889Y-41362814D01*
X137251439Y-41344783D01*
X137246015Y-41326757D01*
X137240615Y-41308734D01*
X137235242Y-41290714D01*
X137229895Y-41272694D01*
X137224575Y-41254675D01*
X137219282Y-41236655D01*
X137214018Y-41218631D01*
X137208782Y-41200605D01*
X137203576Y-41182573D01*
X137198399Y-41164535D01*
X137193252Y-41146490D01*
X137188136Y-41128436D01*
X137183052Y-41110372D01*
X137177999Y-41092297D01*
X137172979Y-41074210D01*
X137167992Y-41056109D01*
X137163038Y-41037993D01*
X137158119Y-41019862D01*
X137153234Y-41001713D01*
X137148384Y-40983546D01*
X137143570Y-40965360D01*
X137138792Y-40947152D01*
X137134050Y-40928923D01*
X137129347Y-40910670D01*
X137124680Y-40892392D01*
X137120053Y-40874089D01*
X137115464Y-40855759D01*
X137110915Y-40837401D01*
X137106406Y-40819013D01*
X137101937Y-40800595D01*
X137097510Y-40782144D01*
X137093124Y-40763661D01*
X137088780Y-40745144D01*
X137084479Y-40726590D01*
X137080222Y-40708000D01*
X137076008Y-40689373D01*
X137071839Y-40670706D01*
X137067714Y-40651998D01*
X137063635Y-40633249D01*
X137059602Y-40614457D01*
X137055616Y-40595621D01*
X137051676Y-40576739D01*
X137047784Y-40557811D01*
X137043941Y-40538836D01*
X137040146Y-40519811D01*
X137036400Y-40500736D01*
X137032704Y-40481610D01*
X137029059Y-40462431D01*
X137025464Y-40443198D01*
X137021921Y-40423910D01*
X137018430Y-40404566D01*
X137014991Y-40385164D01*
X137011606Y-40365703D01*
X137008274Y-40346183D01*
X137004996Y-40326601D01*
X137001773Y-40306957D01*
X136998605Y-40287249D01*
X136995493Y-40267476D01*
X136992437Y-40247637D01*
X136989438Y-40227731D01*
X136986497Y-40207756D01*
X136983613Y-40187712D01*
X136980788Y-40167596D01*
X136978022Y-40147409D01*
X136975315Y-40127147D01*
X136972669Y-40106812D01*
X136970083Y-40086400D01*
X136967559Y-40065911D01*
X136965096Y-40045344D01*
X136962695Y-40024697D01*
X136960358Y-40003970D01*
X136958084Y-39983160D01*
X136955873Y-39962268D01*
X136953727Y-39941290D01*
X136951646Y-39920227D01*
X136949631Y-39899078D01*
X136947682Y-39877840D01*
X136945799Y-39856513D01*
X136943984Y-39835095D01*
X136942236Y-39813585D01*
X136940557Y-39791983D01*
X136938946Y-39770286D01*
X136937405Y-39748494D01*
X136935934Y-39726605D01*
X136934533Y-39704618D01*
X136933203Y-39682532D01*
X136931944Y-39660346D01*
X136930758Y-39638058D01*
X136929644Y-39615667D01*
X136928604Y-39593173D01*
X136927637Y-39570573D01*
X136926744Y-39547866D01*
X136925926Y-39525052D01*
X136925184Y-39502129D01*
X136924517Y-39479096D01*
X136923927Y-39455952D01*
X136923413Y-39432695D01*
X136922978Y-39409324D01*
X136922789Y-39397595D01*
X136922620Y-39385838D01*
X136922470Y-39374052D01*
X136922341Y-39362236D01*
X136922231Y-39350391D01*
X136922141Y-39338516D01*
X136922070Y-39326612D01*
X136922020Y-39314678D01*
X136921990Y-39302714D01*
X136921980Y-39290720D01*
D10*
X133350092Y-53578150D02*
G75*
G02*
X132159450Y-52387518I8J1190650D01*
G01*
X132159468Y-82153174D02*
G75*
G02*
X134540718Y-79771968I2381232J-26D01*
G01*
X138112596Y-52387524D02*
G75*
G02*
X136921964Y-53578096I-1190596J24D01*
G01*
X145256346Y-57745341D02*
X138112592Y-57745341D01*
X45243768Y-49410959D02*
X45243768Y-34528134D01*
D11*
X55364089Y-35718750D02*
X55364099Y-35733363D01*
X55364129Y-35747923D01*
X55364179Y-35762416D01*
X55364248Y-35776857D01*
X55364338Y-35791232D01*
X55364446Y-35805555D01*
X55364575Y-35819812D01*
X55364723Y-35834018D01*
X55364890Y-35848159D01*
X55365076Y-35862249D01*
X55365282Y-35876275D01*
X55365507Y-35890249D01*
X55365751Y-35904161D01*
X55366014Y-35918021D01*
X55366296Y-35931820D01*
X55366596Y-35945567D01*
X55366916Y-35959252D01*
X55367254Y-35972888D01*
X55367610Y-35986462D01*
X55367986Y-35999986D01*
X55368379Y-36013449D01*
X55368791Y-36026863D01*
X55369222Y-36040217D01*
X55369670Y-36053521D01*
X55370137Y-36066766D01*
X55370622Y-36079963D01*
X55371124Y-36093100D01*
X55371645Y-36106189D01*
X55372184Y-36119219D01*
X55372740Y-36132202D01*
X55373314Y-36145127D01*
X55373906Y-36158003D01*
X55374516Y-36170823D01*
X55375143Y-36183595D01*
X55375787Y-36196311D01*
X55376449Y-36208980D01*
X55377128Y-36221593D01*
X55377824Y-36234158D01*
X55378537Y-36246669D01*
X55379268Y-36259133D01*
X55380016Y-36271542D01*
X55380780Y-36283905D01*
X55381562Y-36296214D01*
X55382360Y-36308477D01*
X55383175Y-36320687D01*
X55384007Y-36332850D01*
X55384856Y-36344961D01*
X55385721Y-36357027D01*
X55386602Y-36369040D01*
X55387501Y-36381008D01*
X55388415Y-36392925D01*
X55389346Y-36404797D01*
X55390293Y-36416617D01*
X55391256Y-36428394D01*
X55392236Y-36440119D01*
X55393232Y-36451801D01*
X55394243Y-36463432D01*
X55395271Y-36475020D01*
X55396314Y-36486558D01*
X55397374Y-36498053D01*
X55398449Y-36509499D01*
X55399540Y-36520902D01*
X55400646Y-36532256D01*
X55401769Y-36543567D01*
X55402907Y-36554831D01*
X55404060Y-36566052D01*
X55405229Y-36577226D01*
X55406413Y-36588358D01*
X55407613Y-36599442D01*
X55408828Y-36610485D01*
X55410058Y-36621482D01*
X55411303Y-36632437D01*
X55412564Y-36643347D01*
X55413839Y-36654215D01*
X55415130Y-36665038D01*
X55416436Y-36675820D01*
X55417756Y-36686558D01*
X55419092Y-36697254D01*
X55420442Y-36707907D01*
X55421807Y-36718519D01*
X55423187Y-36729088D01*
X55424582Y-36739617D01*
X55425991Y-36750103D01*
X55427415Y-36760549D01*
X55428853Y-36770952D01*
X55430306Y-36781316D01*
X55431773Y-36791638D01*
X55433255Y-36801921D01*
X55434751Y-36812162D01*
X55436262Y-36822365D01*
X55437786Y-36832526D01*
X55439325Y-36842649D01*
X55440879Y-36852732D01*
X55442446Y-36862776D01*
X55444027Y-36872780D01*
X55445623Y-36882746D01*
X55447232Y-36892673D01*
X55448856Y-36902562D01*
X55450494Y-36912413D01*
X55452145Y-36922225D01*
X55453810Y-36932000D01*
X55455489Y-36941737D01*
X55457182Y-36951437D01*
X55458889Y-36961099D01*
X55460610Y-36970725D01*
X55462344Y-36980313D01*
X55464092Y-36989866D01*
X55465853Y-36999381D01*
X55467628Y-37008860D01*
X55469417Y-37018303D01*
X55471219Y-37027711D01*
X55473034Y-37037082D01*
X55474864Y-37046419D01*
X55476706Y-37055719D01*
X55478562Y-37064986D01*
X55480431Y-37074216D01*
X55482314Y-37083413D01*
X55484210Y-37092574D01*
X55486119Y-37101702D01*
X55488041Y-37110795D01*
X55489977Y-37119855D01*
X55491926Y-37128880D01*
X55493888Y-37137873D01*
X55495863Y-37146831D01*
X55497852Y-37155758D01*
X55499853Y-37164650D01*
X55501868Y-37173511D01*
X55503895Y-37182337D01*
X55505936Y-37191134D01*
X55507990Y-37199895D01*
X55510057Y-37208627D01*
X55512136Y-37217325D01*
X55514229Y-37225994D01*
X55516334Y-37234629D01*
X55518453Y-37243235D01*
X55520584Y-37251807D01*
X55522729Y-37260352D01*
X55524886Y-37268863D01*
X55527056Y-37277346D01*
X55529239Y-37285796D01*
X55531435Y-37294219D01*
X55533643Y-37302609D01*
X55535865Y-37310972D01*
X55538099Y-37319303D01*
X55540346Y-37327608D01*
X55542605Y-37335880D01*
X55544878Y-37344126D01*
X55547163Y-37352340D01*
X55549462Y-37360530D01*
X55551772Y-37368687D01*
X55554096Y-37376820D01*
X55556432Y-37384921D01*
X55558782Y-37392998D01*
X55561143Y-37401043D01*
X55563518Y-37409065D01*
X55565905Y-37417056D01*
X55568305Y-37425024D01*
X55570717Y-37432960D01*
X55573144Y-37440875D01*
X55575581Y-37448758D01*
X55578033Y-37456620D01*
X55580496Y-37464450D01*
X55582973Y-37472260D01*
X55585461Y-37480039D01*
X55587964Y-37487798D01*
X55590478Y-37495526D01*
X55593007Y-37503234D01*
X55595546Y-37510911D01*
X55598100Y-37518570D01*
X55600665Y-37526198D01*
X55605836Y-37541387D01*
X55611058Y-37556480D01*
X55616332Y-37571479D01*
X55621657Y-37586384D01*
X55627034Y-37601199D01*
X55632464Y-37615923D01*
X55637946Y-37630559D01*
X55643480Y-37645109D01*
X55649068Y-37659573D01*
X55654708Y-37673954D01*
X55660402Y-37688253D01*
X55666150Y-37702472D01*
X55671952Y-37716612D01*
X55677809Y-37730676D01*
X55683721Y-37744664D01*
X55689688Y-37758579D01*
X55695710Y-37772422D01*
X55701790Y-37786194D01*
X55707926Y-37799899D01*
X55714119Y-37813537D01*
X55720371Y-37827110D01*
X55726682Y-37840621D01*
X55733052Y-37854070D01*
X55739482Y-37867461D01*
X55745972Y-37880794D01*
X55752525Y-37894072D01*
X55759140Y-37907297D01*
X55765819Y-37920471D01*
X55772562Y-37933596D01*
X55779371Y-37946674D01*
X55786246Y-37959708D01*
X55793189Y-37972699D01*
X55800201Y-37985650D01*
X55807283Y-37998564D01*
X55814436Y-38011443D01*
X55821663Y-38024289D01*
X55828964Y-38037106D01*
X55836341Y-38049896D01*
X55843796Y-38062661D01*
X55851331Y-38075405D01*
X55858948Y-38088131D01*
X55866648Y-38100843D01*
X55874435Y-38113542D01*
X55882310Y-38126234D01*
X55890276Y-38138922D01*
X55898336Y-38151610D01*
X55906492Y-38164301D01*
X55914749Y-38177001D01*
X55923108Y-38189714D01*
X55931575Y-38202445D01*
X55940152Y-38215199D01*
X55948845Y-38227982D01*
X55957657Y-38240800D01*
X55966594Y-38253659D01*
X55975662Y-38266567D01*
X55984866Y-38279531D01*
X55994213Y-38292560D01*
X56003711Y-38305662D01*
X56013368Y-38318849D01*
X56023192Y-38332129D01*
X56033193Y-38345517D01*
X56043384Y-38359026D01*
X56053777Y-38372670D01*
X56064386Y-38386469D01*
X56075228Y-38400441D01*
X56086323Y-38414609D01*
X56097692Y-38429000D01*
X56109363Y-38443645D01*
X56121366Y-38458581D01*
X56133740Y-38473852D01*
X56146532Y-38489514D01*
X56159800Y-38505635D01*
X56173618Y-38522302D01*
X56188087Y-38539632D01*
X56203342Y-38557781D01*
X56219579Y-38576979D01*
X56237098Y-38597574D01*
X56256409Y-38620159D01*
X56278519Y-38645903D01*
X56306085Y-38677897D01*
X56318010Y-38691720D01*
X56337929Y-38714813D01*
X56357812Y-38737897D01*
X56377650Y-38760994D01*
X56397434Y-38784127D01*
X56407303Y-38795713D01*
X56417156Y-38807316D01*
X56426990Y-38818940D01*
X56436806Y-38830586D01*
X56446601Y-38842257D01*
X56456375Y-38853957D01*
X56466127Y-38865688D01*
X56475855Y-38877452D01*
X56485559Y-38889253D01*
X56495237Y-38901093D01*
X56504889Y-38912976D01*
X56514512Y-38924903D01*
X56524107Y-38936878D01*
X56533671Y-38948904D01*
X56543204Y-38960983D01*
X56552705Y-38973117D01*
X56562172Y-38985311D01*
X56571605Y-38997566D01*
X56581002Y-39009885D01*
X56590363Y-39022272D01*
X56599685Y-39034728D01*
X56608969Y-39047257D01*
X56618212Y-39059862D01*
X56622818Y-39066193D01*
X56627414Y-39072544D01*
X56632000Y-39078916D01*
X56636574Y-39085308D01*
X56641138Y-39091721D01*
X56645691Y-39098156D01*
X56650232Y-39104612D01*
X56654762Y-39111090D01*
X56659281Y-39117590D01*
X56663789Y-39124113D01*
X56668284Y-39130659D01*
X56672768Y-39137228D01*
X56677240Y-39143821D01*
X56681700Y-39150439D01*
X56686147Y-39157080D01*
X56690582Y-39163747D01*
X56695005Y-39170438D01*
X56699415Y-39177155D01*
X56703812Y-39183898D01*
X56708196Y-39190666D01*
X56712567Y-39197462D01*
X56716925Y-39204284D01*
X56721270Y-39211133D01*
X56725601Y-39218010D01*
X56729918Y-39224915D01*
X56734222Y-39231848D01*
X56738511Y-39238810D01*
X56742787Y-39245800D01*
X56747048Y-39252820D01*
X56751295Y-39259870D01*
X56755528Y-39266949D01*
X56759746Y-39274059D01*
X56763949Y-39281199D01*
X56768138Y-39288371D01*
X56772311Y-39295573D01*
X56776469Y-39302808D01*
X56780612Y-39310074D01*
X56784740Y-39317373D01*
X56788852Y-39324705D01*
X56792948Y-39332069D01*
X56797028Y-39339468D01*
X56801093Y-39346900D01*
X56805141Y-39354366D01*
X56809173Y-39361866D01*
X56813188Y-39369402D01*
X56817187Y-39376972D01*
X56821169Y-39384578D01*
X56825135Y-39392220D01*
X56829083Y-39399898D01*
X56833015Y-39407613D01*
X56836929Y-39415365D01*
X56840826Y-39423153D01*
X56844705Y-39430980D01*
X56848566Y-39438844D01*
X56852410Y-39446747D01*
X56856236Y-39454688D01*
X56860044Y-39462669D01*
X56863833Y-39470688D01*
X56867604Y-39478748D01*
X56871357Y-39486847D01*
X56875091Y-39494987D01*
X56878806Y-39503168D01*
X56882503Y-39511389D01*
X56886180Y-39519652D01*
X56889838Y-39527957D01*
X56893477Y-39536304D01*
X56897096Y-39544693D01*
X56900696Y-39553125D01*
X56904276Y-39561601D01*
X56907836Y-39570119D01*
X56911376Y-39578682D01*
X56914896Y-39587289D01*
X56918395Y-39595940D01*
X56921875Y-39604637D01*
X56925333Y-39613378D01*
X56928771Y-39622165D01*
X56932188Y-39630998D01*
X56935584Y-39639878D01*
X56938959Y-39648804D01*
X56942313Y-39657777D01*
X56945645Y-39666797D01*
X56948955Y-39675865D01*
X56952244Y-39684981D01*
X56955511Y-39694145D01*
X56958757Y-39703358D01*
X56961980Y-39712620D01*
X56965180Y-39721932D01*
X56968359Y-39731293D01*
X56971515Y-39740704D01*
X56974648Y-39750166D01*
X56977759Y-39759679D01*
X56980846Y-39769242D01*
X56983911Y-39778857D01*
X56986952Y-39788524D01*
X56989970Y-39798244D01*
X56992964Y-39808015D01*
X56995935Y-39817840D01*
X56998882Y-39827718D01*
X57001805Y-39837649D01*
X57004704Y-39847634D01*
X57007579Y-39857674D01*
X57010429Y-39867768D01*
X57013255Y-39877917D01*
X57016057Y-39888122D01*
X57018833Y-39898382D01*
X57021585Y-39908698D01*
X57024312Y-39919070D01*
X57027014Y-39929499D01*
X57029690Y-39939986D01*
X57032341Y-39950529D01*
X57034966Y-39961130D01*
X57037566Y-39971790D01*
X57040140Y-39982508D01*
X57042687Y-39993284D01*
X57045209Y-40004120D01*
X57047704Y-40015015D01*
X57050173Y-40025970D01*
X57052616Y-40036985D01*
X57055031Y-40048061D01*
X57057420Y-40059197D01*
X57059782Y-40070395D01*
X57062117Y-40081654D01*
X57064425Y-40092975D01*
X57066705Y-40104359D01*
X57068958Y-40115805D01*
X57071183Y-40127314D01*
X57073380Y-40138886D01*
X57075549Y-40150522D01*
X57077690Y-40162221D01*
X57079803Y-40173986D01*
X57081888Y-40185814D01*
X57083944Y-40197708D01*
X57085972Y-40209668D01*
X57087971Y-40221692D01*
X57089941Y-40233783D01*
X57091881Y-40245941D01*
X57093793Y-40258165D01*
X57095675Y-40270456D01*
X57097528Y-40282815D01*
X57099351Y-40295242D01*
X57101145Y-40307736D01*
X57102909Y-40320299D01*
X57104642Y-40332931D01*
X57106346Y-40345633D01*
X57108019Y-40358403D01*
X57109661Y-40371244D01*
X57111274Y-40384155D01*
X57112855Y-40397136D01*
X57114406Y-40410189D01*
X57115925Y-40423312D01*
X57117414Y-40436507D01*
X57118871Y-40449775D01*
X57120297Y-40463114D01*
X57121691Y-40476526D01*
X57123054Y-40490011D01*
X57124384Y-40503570D01*
X57125683Y-40517202D01*
X57126950Y-40530908D01*
X57128184Y-40544689D01*
X57129386Y-40558544D01*
X57130556Y-40572475D01*
X57131693Y-40586481D01*
X57132797Y-40600563D01*
X57133868Y-40614720D01*
X57134906Y-40628955D01*
X57135911Y-40643266D01*
X57136882Y-40657654D01*
X57137820Y-40672120D01*
X57138725Y-40686664D01*
X57139595Y-40701286D01*
X57140432Y-40715986D01*
X57141235Y-40730765D01*
X57142003Y-40745624D01*
X57142738Y-40760562D01*
X57143437Y-40775580D01*
X57144102Y-40790679D01*
X57144733Y-40805858D01*
X57145328Y-40821118D01*
X57145889Y-40836459D01*
X57146414Y-40851883D01*
X57146904Y-40867388D01*
X57147359Y-40882975D01*
X57147778Y-40898645D01*
X57148161Y-40914399D01*
X57148509Y-40930235D01*
X57148820Y-40946156D01*
X57149096Y-40962161D01*
X57149335Y-40978250D01*
X57149537Y-40994423D01*
X57149704Y-41010682D01*
X57149833Y-41027027D01*
X57149926Y-41043457D01*
X57149981Y-41059974D01*
X57150000Y-41076577D01*
D10*
X41076579Y-35718763D02*
X31551593Y-73818874D01*
X55364089Y-34528134D02*
X55364089Y-35718750D01*
X125611023Y-41671890D02*
X125611023Y-47625020D01*
X136921964Y-58935967D02*
X136921964Y-70842227D01*
X66675038Y-104179753D02*
G75*
G02*
X69056288Y-101798498I2381252J3D01*
G01*
X119062500Y-73223481D02*
G75*
G02*
X116681250Y-75604800I-2381300J-19D01*
G01*
X138112596Y-72032859D02*
G75*
G02*
X136921941Y-70842227I4J1190659D01*
G01*
X141684474Y-79771924D02*
X134540718Y-79771924D01*
X61912500Y-47029705D02*
X61912500Y-54173465D01*
X146446978Y-70842233D02*
X146446978Y-58935973D01*
X66675038Y-104179753D02*
X66675000Y-109537572D01*
X128587500Y-92273497D02*
X128587500Y-85129737D01*
X35718760Y-94654747D02*
G75*
G02*
X33337553Y-92273497I40J2381247D01*
G01*
X34528125Y-97631250D02*
G75*
G02*
X30956250Y-94059375I-25J3571850D01*
G01*
X64293750Y-44648438D02*
X98821938Y-44648455D01*
X30956250Y-78581250D02*
X30956250Y-94059375D01*
X132754779Y-69651601D02*
G75*
G02*
X131564151Y-70842179I-1190579J1D01*
G01*
X131564153Y-38100012D02*
X135731344Y-38100012D01*
X145256346Y-57745341D02*
G75*
G02*
X146446959Y-58935973I-146J-1190759D01*
G01*
X134540716Y-95250058D02*
X141684472Y-95250058D01*
X63103125Y-101203125D02*
X63103125Y-113109375D01*
X132159468Y-82153174D02*
X132159466Y-92868808D01*
X150614169Y-113109450D02*
X150614169Y-50006272D01*
X150614169Y-113109450D02*
G75*
G02*
X147042237Y-116681469I-3571869J-150D01*
G01*
X149423543Y-48815646D02*
X144065726Y-48815648D01*
X136921964Y-58935967D02*
G75*
G02*
X138112592Y-57745364I1190536J67D01*
G01*
X42862525Y-66079818D02*
G75*
G02*
X45243750Y-63698465I2381275J78D01*
G01*
X144065722Y-92868808D02*
G75*
G02*
X141684472Y-95250022I-2381222J8D01*
G01*
X130373525Y-39290638D02*
X130373525Y-45243768D01*
M02*
