%TF.GenerationSoftware,KiCad,Pcbnew,9.0.7*%
%TF.CreationDate,2026-03-01T08:56:34+09:00*%
%TF.ProjectId,Aida_Under_Cover,41696461-5f55-46e6-9465-725f436f7665,rev?*%
%TF.SameCoordinates,Original*%
%TF.FileFunction,Legend,Top*%
%TF.FilePolarity,Positive*%
%FSLAX46Y46*%
G04 Gerber Fmt 4.6, Leading zero omitted, Abs format (unit mm)*
G04 Created by KiCad (PCBNEW 9.0.7) date 2026-03-01 08:56:34*
%MOMM*%
%LPD*%
G01*
G04 APERTURE LIST*
%ADD10C,0.750000*%
%ADD11C,0.500000*%
%ADD12C,0.100000*%
G04 APERTURE END LIST*
D10*
X52386900Y-44350350D02*
X52386900Y-44500350D01*
X52386898Y-47500350D02*
X52386898Y-47650350D01*
X52386896Y-50650350D02*
X52386896Y-50800350D01*
X52386894Y-53800350D02*
X52386893Y-53950350D01*
X52386891Y-56950350D02*
X52386891Y-57100350D01*
X52386889Y-60100350D02*
X52386889Y-60250350D01*
X52386887Y-63250350D02*
X52386887Y-63400350D01*
X52386885Y-66400350D02*
X52386885Y-66550350D01*
X52386883Y-69550350D02*
X52386883Y-69700350D01*
X52386881Y-72700350D02*
X52386881Y-72850350D01*
X52386878Y-75850350D02*
X52386878Y-76000350D01*
X52386876Y-79000350D02*
X52386876Y-79150350D01*
X52386874Y-82150350D02*
X52386874Y-82300350D01*
X52386872Y-85300350D02*
X52386872Y-85450350D01*
X52386870Y-88450350D02*
X52386870Y-88600350D01*
X52386868Y-91600350D02*
X52386868Y-91750350D01*
X52386866Y-94750350D02*
X52386865Y-94900350D01*
D11*
X95250000Y-38100000D02*
X76200000Y-114300000D01*
X76200000Y-38100000D02*
X61912500Y-95250000D01*
X114300000Y-38100000D02*
X95250000Y-114300000D01*
D10*
X126206250Y-72628125D02*
X126206250Y-72778125D01*
X126206246Y-75778125D02*
X126206246Y-75928125D01*
X126206242Y-78928125D02*
X126206242Y-79078125D01*
X126206238Y-82078125D02*
X126206238Y-82228125D01*
X126206234Y-85228125D02*
X126206234Y-85378125D01*
X126206230Y-88378125D02*
X126206230Y-88528125D01*
X126206227Y-91528125D02*
X126206226Y-91678125D01*
X126206223Y-94678125D02*
X126206222Y-94828125D01*
X126206219Y-97828125D02*
X126206219Y-97978125D01*
X126206215Y-100978125D02*
X126206215Y-101128125D01*
X126206211Y-104128125D02*
X126206211Y-104278125D01*
X126206207Y-107278125D02*
X126206207Y-107428125D01*
X126206203Y-110428125D02*
X126206203Y-110578125D01*
X88106250Y-38100000D02*
X88106250Y-38250000D01*
X88106248Y-41250000D02*
X88106248Y-41400000D01*
X88106246Y-44400000D02*
X88106246Y-44550000D01*
X88106244Y-47550000D02*
X88106244Y-47700000D01*
X88106242Y-50700000D02*
X88106242Y-50850000D01*
X88106240Y-53850000D02*
X88106240Y-54000000D01*
X88106238Y-57000000D02*
X88106238Y-57150000D01*
X88106236Y-60150000D02*
X88106236Y-60300000D01*
X88106234Y-63300000D02*
X88106234Y-63450000D01*
X88106232Y-66450000D02*
X88106232Y-66600000D01*
X88106230Y-69600000D02*
X88106230Y-69750000D01*
X88106228Y-72750000D02*
X88106228Y-72900000D01*
X88106226Y-75900000D02*
X88106226Y-76050000D01*
X88106224Y-79050000D02*
X88106224Y-79200000D01*
X88106222Y-82200000D02*
X88106222Y-82350000D01*
X88106220Y-85350000D02*
X88106220Y-85500000D01*
X88106218Y-88500000D02*
X88106218Y-88650000D01*
X88106216Y-91650000D02*
X88106216Y-91800000D01*
X88106214Y-94800000D02*
X88106214Y-94950000D01*
X88106212Y-97950000D02*
X88106212Y-98100000D01*
X88106210Y-101100000D02*
X88106210Y-101250000D01*
X88106208Y-104250000D02*
X88106208Y-104400000D01*
X88106206Y-107400000D02*
X88106206Y-107550000D01*
X88106204Y-110550000D02*
X88106204Y-110700000D01*
X88106202Y-113700000D02*
X88106202Y-113850000D01*
D11*
X128812677Y-56249292D02*
X127711971Y-60652115D01*
X147637500Y-57150000D02*
X133350000Y-114300000D01*
D10*
X145256250Y-38100012D02*
X145256250Y-38250012D01*
X145256248Y-41250012D02*
X145256248Y-41400012D01*
X145256246Y-44400012D02*
X145256246Y-44550012D01*
X145256244Y-47550012D02*
X145256244Y-47700012D01*
X145256242Y-50700012D02*
X145256242Y-50850012D01*
X145256240Y-53850012D02*
X145256240Y-54000012D01*
X145256238Y-57000012D02*
X145256238Y-57150012D01*
X145256236Y-60150012D02*
X145256236Y-60300012D01*
X145256234Y-63300012D02*
X145256234Y-63450012D01*
X145256232Y-66450012D02*
X145256232Y-66600012D01*
X145256230Y-69600012D02*
X145256230Y-69750012D01*
X145256228Y-72750012D02*
X145256228Y-72900012D01*
X145256226Y-75900012D02*
X145256226Y-76050012D01*
X145256224Y-79050012D02*
X145256224Y-79200012D01*
X145256222Y-82200012D02*
X145256222Y-82350012D01*
X145256220Y-85350012D02*
X145256220Y-85500012D01*
X145256218Y-88500012D02*
X145256218Y-88650012D01*
X145256216Y-91650012D02*
X145256216Y-91800012D01*
X145256214Y-94800012D02*
X145256214Y-94950012D01*
X145256212Y-97950012D02*
X145256212Y-98100012D01*
X145256210Y-101100012D02*
X145256210Y-101250012D01*
X145256208Y-104250012D02*
X145256208Y-104400012D01*
X145256206Y-107400012D02*
X145256206Y-107550012D01*
X145256204Y-110550012D02*
X145256204Y-110700012D01*
X145256202Y-113700012D02*
X145256202Y-113850012D01*
D11*
X55959375Y-42862500D02*
X42862500Y-95250000D01*
D10*
X69056250Y-38100000D02*
X69056250Y-38250000D01*
X69056248Y-41250000D02*
X69056248Y-41400000D01*
X69056246Y-44400000D02*
X69056246Y-44550000D01*
X69056244Y-47550000D02*
X69056244Y-47700000D01*
X69056242Y-50700000D02*
X69056242Y-50850000D01*
X69056240Y-53850000D02*
X69056240Y-54000000D01*
X69056238Y-57000000D02*
X69056238Y-57150000D01*
X69056236Y-60150000D02*
X69056236Y-60300000D01*
X69056234Y-63300000D02*
X69056234Y-63450000D01*
X69056232Y-66450000D02*
X69056232Y-66600000D01*
X69056230Y-69600000D02*
X69056230Y-69750000D01*
X69056228Y-72750000D02*
X69056228Y-72900000D01*
X69056226Y-75900000D02*
X69056226Y-76050000D01*
X69056224Y-79050000D02*
X69056224Y-79200000D01*
X69056222Y-82200000D02*
X69056222Y-82350000D01*
X69056220Y-85350000D02*
X69056220Y-85500000D01*
X69056218Y-88500000D02*
X69056218Y-88650000D01*
X69056216Y-91650000D02*
X69056216Y-91800000D01*
X69056214Y-94800000D02*
X69056214Y-94950000D01*
X69056212Y-97950000D02*
X69056212Y-98100000D01*
X69056210Y-101100000D02*
X69056210Y-101250000D01*
X69056208Y-104250000D02*
X69056208Y-104400000D01*
X69056206Y-107400000D02*
X69056206Y-107550000D01*
X69056204Y-110550000D02*
X69056204Y-110700000D01*
X69056202Y-113700000D02*
X69056202Y-113850000D01*
X107156250Y-38100000D02*
X107156250Y-38250000D01*
X107156248Y-41250000D02*
X107156248Y-41400000D01*
X107156246Y-44400000D02*
X107156246Y-44550000D01*
X107156244Y-47550000D02*
X107156244Y-47700000D01*
X107156242Y-50700000D02*
X107156242Y-50850000D01*
X107156240Y-53850000D02*
X107156240Y-54000000D01*
X107156238Y-57000000D02*
X107156238Y-57150000D01*
X107156236Y-60150000D02*
X107156236Y-60300000D01*
X107156234Y-63300000D02*
X107156234Y-63450000D01*
X107156232Y-66450000D02*
X107156232Y-66600000D01*
X107156230Y-69600000D02*
X107156230Y-69750000D01*
X107156228Y-72750000D02*
X107156228Y-72900000D01*
X107156226Y-75900000D02*
X107156226Y-76050000D01*
X107156224Y-79050000D02*
X107156224Y-79200000D01*
X107156222Y-82200000D02*
X107156222Y-82350000D01*
X107156220Y-85350000D02*
X107156220Y-85500000D01*
X107156218Y-88500000D02*
X107156218Y-88650000D01*
X107156216Y-91650000D02*
X107156216Y-91800000D01*
X107156214Y-94800000D02*
X107156214Y-94950000D01*
X107156212Y-97950000D02*
X107156212Y-98100000D01*
X107156210Y-101100000D02*
X107156210Y-101250000D01*
X107156208Y-104250000D02*
X107156208Y-104400000D01*
X107156206Y-107400000D02*
X107156206Y-107550000D01*
X107156204Y-110550000D02*
X107156204Y-110700000D01*
X107156202Y-113700000D02*
X107156202Y-113850000D01*
D11*
X133350000Y-38100000D02*
X129778125Y-52387500D01*
X124820827Y-72216691D02*
X114300000Y-114300000D01*
D10*
X126206250Y-38100000D02*
X126206250Y-38250000D01*
X126206247Y-41250000D02*
X126206247Y-41400000D01*
X126206245Y-44400000D02*
X126206245Y-44550000D01*
X126206242Y-47550000D02*
X126206242Y-47700000D01*
X126206239Y-50700000D02*
X126206239Y-50850000D01*
X126206237Y-53850000D02*
X126206237Y-54000000D01*
X126206234Y-57000000D02*
X126206234Y-57150000D01*
X126206231Y-60150000D02*
X126206231Y-60300000D01*
D12*
X134794565Y-111977210D02*
X135270755Y-111977210D01*
X134699327Y-112262925D02*
X135032660Y-111262925D01*
X135032660Y-111262925D02*
X135365993Y-112262925D01*
X135699327Y-112262925D02*
X135699327Y-111596258D01*
X135699327Y-111262925D02*
X135651708Y-111310544D01*
X135651708Y-111310544D02*
X135699327Y-111358163D01*
X135699327Y-111358163D02*
X135746946Y-111310544D01*
X135746946Y-111310544D02*
X135699327Y-111262925D01*
X135699327Y-111262925D02*
X135699327Y-111358163D01*
X136604088Y-112262925D02*
X136604088Y-111262925D01*
X136604088Y-112215306D02*
X136508850Y-112262925D01*
X136508850Y-112262925D02*
X136318374Y-112262925D01*
X136318374Y-112262925D02*
X136223136Y-112215306D01*
X136223136Y-112215306D02*
X136175517Y-112167686D01*
X136175517Y-112167686D02*
X136127898Y-112072448D01*
X136127898Y-112072448D02*
X136127898Y-111786734D01*
X136127898Y-111786734D02*
X136175517Y-111691496D01*
X136175517Y-111691496D02*
X136223136Y-111643877D01*
X136223136Y-111643877D02*
X136318374Y-111596258D01*
X136318374Y-111596258D02*
X136508850Y-111596258D01*
X136508850Y-111596258D02*
X136604088Y-111643877D01*
X137508850Y-112262925D02*
X137508850Y-111739115D01*
X137508850Y-111739115D02*
X137461231Y-111643877D01*
X137461231Y-111643877D02*
X137365993Y-111596258D01*
X137365993Y-111596258D02*
X137175517Y-111596258D01*
X137175517Y-111596258D02*
X137080279Y-111643877D01*
X137508850Y-112215306D02*
X137413612Y-112262925D01*
X137413612Y-112262925D02*
X137175517Y-112262925D01*
X137175517Y-112262925D02*
X137080279Y-112215306D01*
X137080279Y-112215306D02*
X137032660Y-112120067D01*
X137032660Y-112120067D02*
X137032660Y-112024829D01*
X137032660Y-112024829D02*
X137080279Y-111929591D01*
X137080279Y-111929591D02*
X137175517Y-111881972D01*
X137175517Y-111881972D02*
X137413612Y-111881972D01*
X137413612Y-111881972D02*
X137508850Y-111834353D01*
X138746946Y-112262925D02*
X138746946Y-111262925D01*
X138746946Y-111262925D02*
X138985041Y-111262925D01*
X138985041Y-111262925D02*
X139127898Y-111310544D01*
X139127898Y-111310544D02*
X139223136Y-111405782D01*
X139223136Y-111405782D02*
X139270755Y-111501020D01*
X139270755Y-111501020D02*
X139318374Y-111691496D01*
X139318374Y-111691496D02*
X139318374Y-111834353D01*
X139318374Y-111834353D02*
X139270755Y-112024829D01*
X139270755Y-112024829D02*
X139223136Y-112120067D01*
X139223136Y-112120067D02*
X139127898Y-112215306D01*
X139127898Y-112215306D02*
X138985041Y-112262925D01*
X138985041Y-112262925D02*
X138746946Y-112262925D01*
X139746946Y-112262925D02*
X139746946Y-111262925D01*
X139746946Y-111262925D02*
X140318374Y-112262925D01*
X140318374Y-112262925D02*
X140318374Y-111262925D01*
X140985041Y-111262925D02*
X141080279Y-111262925D01*
X141080279Y-111262925D02*
X141175517Y-111310544D01*
X141175517Y-111310544D02*
X141223136Y-111358163D01*
X141223136Y-111358163D02*
X141270755Y-111453401D01*
X141270755Y-111453401D02*
X141318374Y-111643877D01*
X141318374Y-111643877D02*
X141318374Y-111881972D01*
X141318374Y-111881972D02*
X141270755Y-112072448D01*
X141270755Y-112072448D02*
X141223136Y-112167686D01*
X141223136Y-112167686D02*
X141175517Y-112215306D01*
X141175517Y-112215306D02*
X141080279Y-112262925D01*
X141080279Y-112262925D02*
X140985041Y-112262925D01*
X140985041Y-112262925D02*
X140889803Y-112215306D01*
X140889803Y-112215306D02*
X140842184Y-112167686D01*
X140842184Y-112167686D02*
X140794565Y-112072448D01*
X140794565Y-112072448D02*
X140746946Y-111881972D01*
X140746946Y-111881972D02*
X140746946Y-111643877D01*
X140746946Y-111643877D02*
X140794565Y-111453401D01*
X140794565Y-111453401D02*
X140842184Y-111358163D01*
X140842184Y-111358163D02*
X140889803Y-111310544D01*
X140889803Y-111310544D02*
X140985041Y-111262925D01*
X141937422Y-111262925D02*
X142032660Y-111262925D01*
X142032660Y-111262925D02*
X142127898Y-111310544D01*
X142127898Y-111310544D02*
X142175517Y-111358163D01*
X142175517Y-111358163D02*
X142223136Y-111453401D01*
X142223136Y-111453401D02*
X142270755Y-111643877D01*
X142270755Y-111643877D02*
X142270755Y-111881972D01*
X142270755Y-111881972D02*
X142223136Y-112072448D01*
X142223136Y-112072448D02*
X142175517Y-112167686D01*
X142175517Y-112167686D02*
X142127898Y-112215306D01*
X142127898Y-112215306D02*
X142032660Y-112262925D01*
X142032660Y-112262925D02*
X141937422Y-112262925D01*
X141937422Y-112262925D02*
X141842184Y-112215306D01*
X141842184Y-112215306D02*
X141794565Y-112167686D01*
X141794565Y-112167686D02*
X141746946Y-112072448D01*
X141746946Y-112072448D02*
X141699327Y-111881972D01*
X141699327Y-111881972D02*
X141699327Y-111643877D01*
X141699327Y-111643877D02*
X141746946Y-111453401D01*
X141746946Y-111453401D02*
X141794565Y-111358163D01*
X141794565Y-111358163D02*
X141842184Y-111310544D01*
X141842184Y-111310544D02*
X141937422Y-111262925D01*
X143223136Y-112262925D02*
X142651708Y-112262925D01*
X142937422Y-112262925D02*
X142937422Y-111262925D01*
X142937422Y-111262925D02*
X142842184Y-111405782D01*
X142842184Y-111405782D02*
X142746946Y-111501020D01*
X142746946Y-111501020D02*
X142651708Y-111548639D01*
X143842184Y-111262925D02*
X143937422Y-111262925D01*
X143937422Y-111262925D02*
X144032660Y-111310544D01*
X144032660Y-111310544D02*
X144080279Y-111358163D01*
X144080279Y-111358163D02*
X144127898Y-111453401D01*
X144127898Y-111453401D02*
X144175517Y-111643877D01*
X144175517Y-111643877D02*
X144175517Y-111881972D01*
X144175517Y-111881972D02*
X144127898Y-112072448D01*
X144127898Y-112072448D02*
X144080279Y-112167686D01*
X144080279Y-112167686D02*
X144032660Y-112215306D01*
X144032660Y-112215306D02*
X143937422Y-112262925D01*
X143937422Y-112262925D02*
X143842184Y-112262925D01*
X143842184Y-112262925D02*
X143746946Y-112215306D01*
X143746946Y-112215306D02*
X143699327Y-112167686D01*
X143699327Y-112167686D02*
X143651708Y-112072448D01*
X143651708Y-112072448D02*
X143604089Y-111881972D01*
X143604089Y-111881972D02*
X143604089Y-111643877D01*
X143604089Y-111643877D02*
X143651708Y-111453401D01*
X143651708Y-111453401D02*
X143699327Y-111358163D01*
X143699327Y-111358163D02*
X143746946Y-111310544D01*
X143746946Y-111310544D02*
X143842184Y-111262925D01*
X134842184Y-113872869D02*
X134842184Y-112872869D01*
X134842184Y-113253821D02*
X134937422Y-113206202D01*
X134937422Y-113206202D02*
X135127898Y-113206202D01*
X135127898Y-113206202D02*
X135223136Y-113253821D01*
X135223136Y-113253821D02*
X135270755Y-113301440D01*
X135270755Y-113301440D02*
X135318374Y-113396678D01*
X135318374Y-113396678D02*
X135318374Y-113682392D01*
X135318374Y-113682392D02*
X135270755Y-113777630D01*
X135270755Y-113777630D02*
X135223136Y-113825250D01*
X135223136Y-113825250D02*
X135127898Y-113872869D01*
X135127898Y-113872869D02*
X134937422Y-113872869D01*
X134937422Y-113872869D02*
X134842184Y-113825250D01*
X135651708Y-113206202D02*
X135889803Y-113872869D01*
X136127898Y-113206202D02*
X135889803Y-113872869D01*
X135889803Y-113872869D02*
X135794565Y-114110964D01*
X135794565Y-114110964D02*
X135746946Y-114158583D01*
X135746946Y-114158583D02*
X135651708Y-114206202D01*
X137889803Y-113396678D02*
X137842184Y-113349059D01*
X137842184Y-113349059D02*
X137746946Y-113301440D01*
X137746946Y-113301440D02*
X137651708Y-113301440D01*
X137651708Y-113301440D02*
X137556470Y-113349059D01*
X137556470Y-113349059D02*
X137508851Y-113396678D01*
X137508851Y-113396678D02*
X137461232Y-113491916D01*
X137461232Y-113491916D02*
X137461232Y-113587154D01*
X137461232Y-113587154D02*
X137508851Y-113682392D01*
X137508851Y-113682392D02*
X137556470Y-113730011D01*
X137556470Y-113730011D02*
X137651708Y-113777630D01*
X137651708Y-113777630D02*
X137746946Y-113777630D01*
X137746946Y-113777630D02*
X137842184Y-113730011D01*
X137842184Y-113730011D02*
X137889803Y-113682392D01*
X137889803Y-113301440D02*
X137889803Y-113682392D01*
X137889803Y-113682392D02*
X137937422Y-113730011D01*
X137937422Y-113730011D02*
X137985041Y-113730011D01*
X137985041Y-113730011D02*
X138080280Y-113682392D01*
X138080280Y-113682392D02*
X138127899Y-113587154D01*
X138127899Y-113587154D02*
X138127899Y-113349059D01*
X138127899Y-113349059D02*
X138032661Y-113206202D01*
X138032661Y-113206202D02*
X137889803Y-113110964D01*
X137889803Y-113110964D02*
X137699327Y-113063345D01*
X137699327Y-113063345D02*
X137508851Y-113110964D01*
X137508851Y-113110964D02*
X137365994Y-113206202D01*
X137365994Y-113206202D02*
X137270756Y-113349059D01*
X137270756Y-113349059D02*
X137223137Y-113539535D01*
X137223137Y-113539535D02*
X137270756Y-113730011D01*
X137270756Y-113730011D02*
X137365994Y-113872869D01*
X137365994Y-113872869D02*
X137508851Y-113968107D01*
X137508851Y-113968107D02*
X137699327Y-114015726D01*
X137699327Y-114015726D02*
X137889803Y-113968107D01*
X137889803Y-113968107D02*
X138032661Y-113872869D01*
X138556470Y-113206202D02*
X138556470Y-114063345D01*
X138556470Y-114063345D02*
X138508851Y-114158583D01*
X138508851Y-114158583D02*
X138413613Y-114206202D01*
X138413613Y-114206202D02*
X138365994Y-114206202D01*
X138556470Y-112872869D02*
X138508851Y-112920488D01*
X138508851Y-112920488D02*
X138556470Y-112968107D01*
X138556470Y-112968107D02*
X138604089Y-112920488D01*
X138604089Y-112920488D02*
X138556470Y-112872869D01*
X138556470Y-112872869D02*
X138556470Y-112968107D01*
X139032660Y-113206202D02*
X139032660Y-114206202D01*
X139032660Y-113253821D02*
X139127898Y-113206202D01*
X139127898Y-113206202D02*
X139318374Y-113206202D01*
X139318374Y-113206202D02*
X139413612Y-113253821D01*
X139413612Y-113253821D02*
X139461231Y-113301440D01*
X139461231Y-113301440D02*
X139508850Y-113396678D01*
X139508850Y-113396678D02*
X139508850Y-113682392D01*
X139508850Y-113682392D02*
X139461231Y-113777630D01*
X139461231Y-113777630D02*
X139413612Y-113825250D01*
X139413612Y-113825250D02*
X139318374Y-113872869D01*
X139318374Y-113872869D02*
X139127898Y-113872869D01*
X139127898Y-113872869D02*
X139032660Y-113825250D01*
X139889803Y-113825250D02*
X139985041Y-113872869D01*
X139985041Y-113872869D02*
X140175517Y-113872869D01*
X140175517Y-113872869D02*
X140270755Y-113825250D01*
X140270755Y-113825250D02*
X140318374Y-113730011D01*
X140318374Y-113730011D02*
X140318374Y-113682392D01*
X140318374Y-113682392D02*
X140270755Y-113587154D01*
X140270755Y-113587154D02*
X140175517Y-113539535D01*
X140175517Y-113539535D02*
X140032660Y-113539535D01*
X140032660Y-113539535D02*
X139937422Y-113491916D01*
X139937422Y-113491916D02*
X139889803Y-113396678D01*
X139889803Y-113396678D02*
X139889803Y-113349059D01*
X139889803Y-113349059D02*
X139937422Y-113253821D01*
X139937422Y-113253821D02*
X140032660Y-113206202D01*
X140032660Y-113206202D02*
X140175517Y-113206202D01*
X140175517Y-113206202D02*
X140270755Y-113253821D01*
X140746946Y-113872869D02*
X140746946Y-112872869D01*
X140842184Y-113491916D02*
X141127898Y-113872869D01*
X141127898Y-113206202D02*
X140746946Y-113587154D01*
X141937422Y-113825250D02*
X141842184Y-113872869D01*
X141842184Y-113872869D02*
X141651708Y-113872869D01*
X141651708Y-113872869D02*
X141556470Y-113825250D01*
X141556470Y-113825250D02*
X141508851Y-113730011D01*
X141508851Y-113730011D02*
X141508851Y-113349059D01*
X141508851Y-113349059D02*
X141556470Y-113253821D01*
X141556470Y-113253821D02*
X141651708Y-113206202D01*
X141651708Y-113206202D02*
X141842184Y-113206202D01*
X141842184Y-113206202D02*
X141937422Y-113253821D01*
X141937422Y-113253821D02*
X141985041Y-113349059D01*
X141985041Y-113349059D02*
X141985041Y-113444297D01*
X141985041Y-113444297D02*
X141508851Y-113539535D01*
X142413613Y-113206202D02*
X142413613Y-113872869D01*
X142413613Y-113301440D02*
X142461232Y-113253821D01*
X142461232Y-113253821D02*
X142556470Y-113206202D01*
X142556470Y-113206202D02*
X142699327Y-113206202D01*
X142699327Y-113206202D02*
X142794565Y-113253821D01*
X142794565Y-113253821D02*
X142842184Y-113349059D01*
X142842184Y-113349059D02*
X142842184Y-113872869D01*
X143318375Y-113206202D02*
X143318375Y-113872869D01*
X143318375Y-113301440D02*
X143365994Y-113253821D01*
X143365994Y-113253821D02*
X143461232Y-113206202D01*
X143461232Y-113206202D02*
X143604089Y-113206202D01*
X143604089Y-113206202D02*
X143699327Y-113253821D01*
X143699327Y-113253821D02*
X143746946Y-113349059D01*
X143746946Y-113349059D02*
X143746946Y-113872869D01*
M02*
