%TF.GenerationSoftware,KiCad,Pcbnew,9.0.7*%
%TF.CreationDate,2026-03-01T08:56:34+09:00*%
%TF.ProjectId,Aida_Under_Cover,41696461-5f55-46e6-9465-725f436f7665,rev?*%
%TF.SameCoordinates,Original*%
%TF.FileFunction,Legend,Bot*%
%TF.FilePolarity,Positive*%
%FSLAX46Y46*%
G04 Gerber Fmt 4.6, Leading zero omitted, Abs format (unit mm)*
G04 Created by KiCad (PCBNEW 9.0.7) date 2026-03-01 08:56:34*
%MOMM*%
%LPD*%
G01*
G04 APERTURE LIST*
%ADD10C,0.500000*%
%ADD11C,0.750000*%
%ADD12C,0.100000*%
G04 APERTURE END LIST*
D10*
X76200104Y-38100028D02*
X61912604Y-95250028D01*
D11*
X126206250Y-72628125D02*
X126206250Y-72778125D01*
X126206246Y-75778125D02*
X126206246Y-75928125D01*
X126206242Y-78928125D02*
X126206242Y-79078125D01*
X126206238Y-82078125D02*
X126206238Y-82228125D01*
X126206234Y-85228125D02*
X126206234Y-85378125D01*
X126206230Y-88378125D02*
X126206230Y-88528125D01*
X126206227Y-91528125D02*
X126206226Y-91678125D01*
X126206223Y-94678125D02*
X126206222Y-94828125D01*
X126206219Y-97828125D02*
X126206219Y-97978125D01*
X126206215Y-100978125D02*
X126206215Y-101128125D01*
X126206211Y-104128125D02*
X126206211Y-104278125D01*
X126206207Y-107278125D02*
X126206207Y-107428125D01*
X126206203Y-110428125D02*
X126206203Y-110578125D01*
X88106250Y-38100000D02*
X88106250Y-38250000D01*
X88106248Y-41250000D02*
X88106248Y-41400000D01*
X88106246Y-44400000D02*
X88106246Y-44550000D01*
X88106244Y-47550000D02*
X88106244Y-47700000D01*
X88106242Y-50700000D02*
X88106242Y-50850000D01*
X88106240Y-53850000D02*
X88106240Y-54000000D01*
X88106238Y-57000000D02*
X88106238Y-57150000D01*
X88106236Y-60150000D02*
X88106236Y-60300000D01*
X88106234Y-63300000D02*
X88106234Y-63450000D01*
X88106232Y-66450000D02*
X88106232Y-66600000D01*
X88106230Y-69600000D02*
X88106230Y-69750000D01*
X88106228Y-72750000D02*
X88106228Y-72900000D01*
X88106226Y-75900000D02*
X88106226Y-76050000D01*
X88106224Y-79050000D02*
X88106224Y-79200000D01*
X88106222Y-82200000D02*
X88106222Y-82350000D01*
X88106220Y-85350000D02*
X88106220Y-85500000D01*
X88106218Y-88500000D02*
X88106218Y-88650000D01*
X88106216Y-91650000D02*
X88106216Y-91800000D01*
X88106214Y-94800000D02*
X88106214Y-94950000D01*
X88106212Y-97950000D02*
X88106212Y-98100000D01*
X88106210Y-101100000D02*
X88106210Y-101250000D01*
X88106208Y-104250000D02*
X88106208Y-104400000D01*
X88106206Y-107400000D02*
X88106206Y-107550000D01*
X88106204Y-110550000D02*
X88106204Y-110700000D01*
X88106202Y-113700000D02*
X88106202Y-113850000D01*
D10*
X114300104Y-38100028D02*
X95250104Y-114300028D01*
X95250104Y-38100028D02*
X76200104Y-114300028D01*
X133350104Y-38100028D02*
X129778229Y-52387528D01*
X55959375Y-42862500D02*
X42862525Y-95250024D01*
D11*
X126206250Y-38100000D02*
X126206250Y-38250000D01*
X126206247Y-41250000D02*
X126206247Y-41400000D01*
X126206245Y-44400000D02*
X126206245Y-44550000D01*
X126206242Y-47550000D02*
X126206242Y-47700000D01*
X126206239Y-50700000D02*
X126206239Y-50850000D01*
X126206237Y-53850000D02*
X126206237Y-54000000D01*
X126206234Y-57000000D02*
X126206234Y-57150000D01*
X126206231Y-60150000D02*
X126206231Y-60300000D01*
D10*
X147637604Y-57150028D02*
X133350104Y-114300028D01*
X128812781Y-56249320D02*
X127712075Y-60652143D01*
D11*
X145256250Y-38100012D02*
X145256250Y-38250012D01*
X145256248Y-41250012D02*
X145256248Y-41400012D01*
X145256246Y-44400012D02*
X145256246Y-44550012D01*
X145256244Y-47550012D02*
X145256244Y-47700012D01*
X145256242Y-50700012D02*
X145256242Y-50850012D01*
X145256240Y-53850012D02*
X145256240Y-54000012D01*
X145256238Y-57000012D02*
X145256238Y-57150012D01*
X145256236Y-60150012D02*
X145256236Y-60300012D01*
X145256234Y-63300012D02*
X145256234Y-63450012D01*
X145256232Y-66450012D02*
X145256232Y-66600012D01*
X145256230Y-69600012D02*
X145256230Y-69750012D01*
X145256228Y-72750012D02*
X145256228Y-72900012D01*
X145256226Y-75900012D02*
X145256226Y-76050012D01*
X145256224Y-79050012D02*
X145256224Y-79200012D01*
X145256222Y-82200012D02*
X145256222Y-82350012D01*
X145256220Y-85350012D02*
X145256220Y-85500012D01*
X145256218Y-88500012D02*
X145256218Y-88650012D01*
X145256216Y-91650012D02*
X145256216Y-91800012D01*
X145256214Y-94800012D02*
X145256214Y-94950012D01*
X145256212Y-97950012D02*
X145256212Y-98100012D01*
X145256210Y-101100012D02*
X145256210Y-101250012D01*
X145256208Y-104250012D02*
X145256208Y-104400012D01*
X145256206Y-107400012D02*
X145256206Y-107550012D01*
X145256204Y-110550012D02*
X145256204Y-110700012D01*
X145256202Y-113700012D02*
X145256202Y-113850012D01*
D10*
X124820931Y-72216719D02*
X114300104Y-114300028D01*
D11*
X107156250Y-38100000D02*
X107156250Y-38250000D01*
X107156248Y-41250000D02*
X107156248Y-41400000D01*
X107156246Y-44400000D02*
X107156246Y-44550000D01*
X107156244Y-47550000D02*
X107156244Y-47700000D01*
X107156242Y-50700000D02*
X107156242Y-50850000D01*
X107156240Y-53850000D02*
X107156240Y-54000000D01*
X107156238Y-57000000D02*
X107156238Y-57150000D01*
X107156236Y-60150000D02*
X107156236Y-60300000D01*
X107156234Y-63300000D02*
X107156234Y-63450000D01*
X107156232Y-66450000D02*
X107156232Y-66600000D01*
X107156230Y-69600000D02*
X107156230Y-69750000D01*
X107156228Y-72750000D02*
X107156228Y-72900000D01*
X107156226Y-75900000D02*
X107156226Y-76050000D01*
X107156224Y-79050000D02*
X107156224Y-79200000D01*
X107156222Y-82200000D02*
X107156222Y-82350000D01*
X107156220Y-85350000D02*
X107156220Y-85500000D01*
X107156218Y-88500000D02*
X107156218Y-88650000D01*
X107156216Y-91650000D02*
X107156216Y-91800000D01*
X107156214Y-94800000D02*
X107156214Y-94950000D01*
X107156212Y-97950000D02*
X107156212Y-98100000D01*
X107156210Y-101100000D02*
X107156210Y-101250000D01*
X107156208Y-104250000D02*
X107156208Y-104400000D01*
X107156206Y-107400000D02*
X107156206Y-107550000D01*
X107156204Y-110550000D02*
X107156204Y-110700000D01*
X107156202Y-113700000D02*
X107156202Y-113850000D01*
X69056250Y-38100000D02*
X69056250Y-38250000D01*
X69056248Y-41250000D02*
X69056248Y-41400000D01*
X69056246Y-44400000D02*
X69056246Y-44550000D01*
X69056244Y-47550000D02*
X69056244Y-47700000D01*
X69056242Y-50700000D02*
X69056242Y-50850000D01*
X69056240Y-53850000D02*
X69056240Y-54000000D01*
X69056238Y-57000000D02*
X69056238Y-57150000D01*
X69056236Y-60150000D02*
X69056236Y-60300000D01*
X69056234Y-63300000D02*
X69056234Y-63450000D01*
X69056232Y-66450000D02*
X69056232Y-66600000D01*
X69056230Y-69600000D02*
X69056230Y-69750000D01*
X69056228Y-72750000D02*
X69056228Y-72900000D01*
X69056226Y-75900000D02*
X69056226Y-76050000D01*
X69056224Y-79050000D02*
X69056224Y-79200000D01*
X69056222Y-82200000D02*
X69056222Y-82350000D01*
X69056220Y-85350000D02*
X69056220Y-85500000D01*
X69056218Y-88500000D02*
X69056218Y-88650000D01*
X69056216Y-91650000D02*
X69056216Y-91800000D01*
X69056214Y-94800000D02*
X69056214Y-94950000D01*
X69056212Y-97950000D02*
X69056212Y-98100000D01*
X69056210Y-101100000D02*
X69056210Y-101250000D01*
X69056208Y-104250000D02*
X69056208Y-104400000D01*
X69056206Y-107400000D02*
X69056206Y-107550000D01*
X69056204Y-110550000D02*
X69056204Y-110700000D01*
X69056202Y-113700000D02*
X69056202Y-113850000D01*
X52387560Y-44350350D02*
X52387560Y-44500350D01*
X52387558Y-47500350D02*
X52387558Y-47650350D01*
X52387556Y-50650350D02*
X52387556Y-50800350D01*
X52387554Y-53800350D02*
X52387553Y-53950350D01*
X52387551Y-56950350D02*
X52387551Y-57100350D01*
X52387549Y-60100350D02*
X52387549Y-60250350D01*
X52387547Y-63250350D02*
X52387547Y-63400350D01*
X52387545Y-66400350D02*
X52387545Y-66550350D01*
X52387543Y-69550350D02*
X52387543Y-69700350D01*
X52387541Y-72700350D02*
X52387541Y-72850350D01*
X52387538Y-75850350D02*
X52387538Y-76000350D01*
X52387536Y-79000350D02*
X52387536Y-79150350D01*
X52387534Y-82150350D02*
X52387534Y-82300350D01*
X52387532Y-85300350D02*
X52387532Y-85450350D01*
X52387530Y-88450350D02*
X52387530Y-88600350D01*
X52387528Y-91600350D02*
X52387528Y-91750350D01*
X52387526Y-94750350D02*
X52387525Y-94900350D01*
D12*
X144402134Y-111977210D02*
X143925944Y-111977210D01*
X144497372Y-112262925D02*
X144164039Y-111262925D01*
X144164039Y-111262925D02*
X143830706Y-112262925D01*
X143497372Y-112262925D02*
X143497372Y-111596258D01*
X143497372Y-111262925D02*
X143544991Y-111310544D01*
X143544991Y-111310544D02*
X143497372Y-111358163D01*
X143497372Y-111358163D02*
X143449753Y-111310544D01*
X143449753Y-111310544D02*
X143497372Y-111262925D01*
X143497372Y-111262925D02*
X143497372Y-111358163D01*
X142592611Y-112262925D02*
X142592611Y-111262925D01*
X142592611Y-112215306D02*
X142687849Y-112262925D01*
X142687849Y-112262925D02*
X142878325Y-112262925D01*
X142878325Y-112262925D02*
X142973563Y-112215306D01*
X142973563Y-112215306D02*
X143021182Y-112167686D01*
X143021182Y-112167686D02*
X143068801Y-112072448D01*
X143068801Y-112072448D02*
X143068801Y-111786734D01*
X143068801Y-111786734D02*
X143021182Y-111691496D01*
X143021182Y-111691496D02*
X142973563Y-111643877D01*
X142973563Y-111643877D02*
X142878325Y-111596258D01*
X142878325Y-111596258D02*
X142687849Y-111596258D01*
X142687849Y-111596258D02*
X142592611Y-111643877D01*
X141687849Y-112262925D02*
X141687849Y-111739115D01*
X141687849Y-111739115D02*
X141735468Y-111643877D01*
X141735468Y-111643877D02*
X141830706Y-111596258D01*
X141830706Y-111596258D02*
X142021182Y-111596258D01*
X142021182Y-111596258D02*
X142116420Y-111643877D01*
X141687849Y-112215306D02*
X141783087Y-112262925D01*
X141783087Y-112262925D02*
X142021182Y-112262925D01*
X142021182Y-112262925D02*
X142116420Y-112215306D01*
X142116420Y-112215306D02*
X142164039Y-112120067D01*
X142164039Y-112120067D02*
X142164039Y-112024829D01*
X142164039Y-112024829D02*
X142116420Y-111929591D01*
X142116420Y-111929591D02*
X142021182Y-111881972D01*
X142021182Y-111881972D02*
X141783087Y-111881972D01*
X141783087Y-111881972D02*
X141687849Y-111834353D01*
X140449753Y-112262925D02*
X140449753Y-111262925D01*
X140449753Y-111262925D02*
X140211658Y-111262925D01*
X140211658Y-111262925D02*
X140068801Y-111310544D01*
X140068801Y-111310544D02*
X139973563Y-111405782D01*
X139973563Y-111405782D02*
X139925944Y-111501020D01*
X139925944Y-111501020D02*
X139878325Y-111691496D01*
X139878325Y-111691496D02*
X139878325Y-111834353D01*
X139878325Y-111834353D02*
X139925944Y-112024829D01*
X139925944Y-112024829D02*
X139973563Y-112120067D01*
X139973563Y-112120067D02*
X140068801Y-112215306D01*
X140068801Y-112215306D02*
X140211658Y-112262925D01*
X140211658Y-112262925D02*
X140449753Y-112262925D01*
X139449753Y-112262925D02*
X139449753Y-111262925D01*
X139449753Y-111262925D02*
X138878325Y-112262925D01*
X138878325Y-112262925D02*
X138878325Y-111262925D01*
X138211658Y-111262925D02*
X138116420Y-111262925D01*
X138116420Y-111262925D02*
X138021182Y-111310544D01*
X138021182Y-111310544D02*
X137973563Y-111358163D01*
X137973563Y-111358163D02*
X137925944Y-111453401D01*
X137925944Y-111453401D02*
X137878325Y-111643877D01*
X137878325Y-111643877D02*
X137878325Y-111881972D01*
X137878325Y-111881972D02*
X137925944Y-112072448D01*
X137925944Y-112072448D02*
X137973563Y-112167686D01*
X137973563Y-112167686D02*
X138021182Y-112215306D01*
X138021182Y-112215306D02*
X138116420Y-112262925D01*
X138116420Y-112262925D02*
X138211658Y-112262925D01*
X138211658Y-112262925D02*
X138306896Y-112215306D01*
X138306896Y-112215306D02*
X138354515Y-112167686D01*
X138354515Y-112167686D02*
X138402134Y-112072448D01*
X138402134Y-112072448D02*
X138449753Y-111881972D01*
X138449753Y-111881972D02*
X138449753Y-111643877D01*
X138449753Y-111643877D02*
X138402134Y-111453401D01*
X138402134Y-111453401D02*
X138354515Y-111358163D01*
X138354515Y-111358163D02*
X138306896Y-111310544D01*
X138306896Y-111310544D02*
X138211658Y-111262925D01*
X137259277Y-111262925D02*
X137164039Y-111262925D01*
X137164039Y-111262925D02*
X137068801Y-111310544D01*
X137068801Y-111310544D02*
X137021182Y-111358163D01*
X137021182Y-111358163D02*
X136973563Y-111453401D01*
X136973563Y-111453401D02*
X136925944Y-111643877D01*
X136925944Y-111643877D02*
X136925944Y-111881972D01*
X136925944Y-111881972D02*
X136973563Y-112072448D01*
X136973563Y-112072448D02*
X137021182Y-112167686D01*
X137021182Y-112167686D02*
X137068801Y-112215306D01*
X137068801Y-112215306D02*
X137164039Y-112262925D01*
X137164039Y-112262925D02*
X137259277Y-112262925D01*
X137259277Y-112262925D02*
X137354515Y-112215306D01*
X137354515Y-112215306D02*
X137402134Y-112167686D01*
X137402134Y-112167686D02*
X137449753Y-112072448D01*
X137449753Y-112072448D02*
X137497372Y-111881972D01*
X137497372Y-111881972D02*
X137497372Y-111643877D01*
X137497372Y-111643877D02*
X137449753Y-111453401D01*
X137449753Y-111453401D02*
X137402134Y-111358163D01*
X137402134Y-111358163D02*
X137354515Y-111310544D01*
X137354515Y-111310544D02*
X137259277Y-111262925D01*
X135973563Y-112262925D02*
X136544991Y-112262925D01*
X136259277Y-112262925D02*
X136259277Y-111262925D01*
X136259277Y-111262925D02*
X136354515Y-111405782D01*
X136354515Y-111405782D02*
X136449753Y-111501020D01*
X136449753Y-111501020D02*
X136544991Y-111548639D01*
X135354515Y-111262925D02*
X135259277Y-111262925D01*
X135259277Y-111262925D02*
X135164039Y-111310544D01*
X135164039Y-111310544D02*
X135116420Y-111358163D01*
X135116420Y-111358163D02*
X135068801Y-111453401D01*
X135068801Y-111453401D02*
X135021182Y-111643877D01*
X135021182Y-111643877D02*
X135021182Y-111881972D01*
X135021182Y-111881972D02*
X135068801Y-112072448D01*
X135068801Y-112072448D02*
X135116420Y-112167686D01*
X135116420Y-112167686D02*
X135164039Y-112215306D01*
X135164039Y-112215306D02*
X135259277Y-112262925D01*
X135259277Y-112262925D02*
X135354515Y-112262925D01*
X135354515Y-112262925D02*
X135449753Y-112215306D01*
X135449753Y-112215306D02*
X135497372Y-112167686D01*
X135497372Y-112167686D02*
X135544991Y-112072448D01*
X135544991Y-112072448D02*
X135592610Y-111881972D01*
X135592610Y-111881972D02*
X135592610Y-111643877D01*
X135592610Y-111643877D02*
X135544991Y-111453401D01*
X135544991Y-111453401D02*
X135497372Y-111358163D01*
X135497372Y-111358163D02*
X135449753Y-111310544D01*
X135449753Y-111310544D02*
X135354515Y-111262925D01*
X144354515Y-113872869D02*
X144354515Y-112872869D01*
X144354515Y-113253821D02*
X144259277Y-113206202D01*
X144259277Y-113206202D02*
X144068801Y-113206202D01*
X144068801Y-113206202D02*
X143973563Y-113253821D01*
X143973563Y-113253821D02*
X143925944Y-113301440D01*
X143925944Y-113301440D02*
X143878325Y-113396678D01*
X143878325Y-113396678D02*
X143878325Y-113682392D01*
X143878325Y-113682392D02*
X143925944Y-113777630D01*
X143925944Y-113777630D02*
X143973563Y-113825250D01*
X143973563Y-113825250D02*
X144068801Y-113872869D01*
X144068801Y-113872869D02*
X144259277Y-113872869D01*
X144259277Y-113872869D02*
X144354515Y-113825250D01*
X143544991Y-113206202D02*
X143306896Y-113872869D01*
X143068801Y-113206202D02*
X143306896Y-113872869D01*
X143306896Y-113872869D02*
X143402134Y-114110964D01*
X143402134Y-114110964D02*
X143449753Y-114158583D01*
X143449753Y-114158583D02*
X143544991Y-114206202D01*
X141306896Y-113396678D02*
X141354515Y-113349059D01*
X141354515Y-113349059D02*
X141449753Y-113301440D01*
X141449753Y-113301440D02*
X141544991Y-113301440D01*
X141544991Y-113301440D02*
X141640229Y-113349059D01*
X141640229Y-113349059D02*
X141687848Y-113396678D01*
X141687848Y-113396678D02*
X141735467Y-113491916D01*
X141735467Y-113491916D02*
X141735467Y-113587154D01*
X141735467Y-113587154D02*
X141687848Y-113682392D01*
X141687848Y-113682392D02*
X141640229Y-113730011D01*
X141640229Y-113730011D02*
X141544991Y-113777630D01*
X141544991Y-113777630D02*
X141449753Y-113777630D01*
X141449753Y-113777630D02*
X141354515Y-113730011D01*
X141354515Y-113730011D02*
X141306896Y-113682392D01*
X141306896Y-113301440D02*
X141306896Y-113682392D01*
X141306896Y-113682392D02*
X141259277Y-113730011D01*
X141259277Y-113730011D02*
X141211658Y-113730011D01*
X141211658Y-113730011D02*
X141116419Y-113682392D01*
X141116419Y-113682392D02*
X141068800Y-113587154D01*
X141068800Y-113587154D02*
X141068800Y-113349059D01*
X141068800Y-113349059D02*
X141164039Y-113206202D01*
X141164039Y-113206202D02*
X141306896Y-113110964D01*
X141306896Y-113110964D02*
X141497372Y-113063345D01*
X141497372Y-113063345D02*
X141687848Y-113110964D01*
X141687848Y-113110964D02*
X141830705Y-113206202D01*
X141830705Y-113206202D02*
X141925943Y-113349059D01*
X141925943Y-113349059D02*
X141973562Y-113539535D01*
X141973562Y-113539535D02*
X141925943Y-113730011D01*
X141925943Y-113730011D02*
X141830705Y-113872869D01*
X141830705Y-113872869D02*
X141687848Y-113968107D01*
X141687848Y-113968107D02*
X141497372Y-114015726D01*
X141497372Y-114015726D02*
X141306896Y-113968107D01*
X141306896Y-113968107D02*
X141164039Y-113872869D01*
X140640229Y-113206202D02*
X140640229Y-114063345D01*
X140640229Y-114063345D02*
X140687848Y-114158583D01*
X140687848Y-114158583D02*
X140783086Y-114206202D01*
X140783086Y-114206202D02*
X140830705Y-114206202D01*
X140640229Y-112872869D02*
X140687848Y-112920488D01*
X140687848Y-112920488D02*
X140640229Y-112968107D01*
X140640229Y-112968107D02*
X140592610Y-112920488D01*
X140592610Y-112920488D02*
X140640229Y-112872869D01*
X140640229Y-112872869D02*
X140640229Y-112968107D01*
X140164039Y-113206202D02*
X140164039Y-114206202D01*
X140164039Y-113253821D02*
X140068801Y-113206202D01*
X140068801Y-113206202D02*
X139878325Y-113206202D01*
X139878325Y-113206202D02*
X139783087Y-113253821D01*
X139783087Y-113253821D02*
X139735468Y-113301440D01*
X139735468Y-113301440D02*
X139687849Y-113396678D01*
X139687849Y-113396678D02*
X139687849Y-113682392D01*
X139687849Y-113682392D02*
X139735468Y-113777630D01*
X139735468Y-113777630D02*
X139783087Y-113825250D01*
X139783087Y-113825250D02*
X139878325Y-113872869D01*
X139878325Y-113872869D02*
X140068801Y-113872869D01*
X140068801Y-113872869D02*
X140164039Y-113825250D01*
X139306896Y-113825250D02*
X139211658Y-113872869D01*
X139211658Y-113872869D02*
X139021182Y-113872869D01*
X139021182Y-113872869D02*
X138925944Y-113825250D01*
X138925944Y-113825250D02*
X138878325Y-113730011D01*
X138878325Y-113730011D02*
X138878325Y-113682392D01*
X138878325Y-113682392D02*
X138925944Y-113587154D01*
X138925944Y-113587154D02*
X139021182Y-113539535D01*
X139021182Y-113539535D02*
X139164039Y-113539535D01*
X139164039Y-113539535D02*
X139259277Y-113491916D01*
X139259277Y-113491916D02*
X139306896Y-113396678D01*
X139306896Y-113396678D02*
X139306896Y-113349059D01*
X139306896Y-113349059D02*
X139259277Y-113253821D01*
X139259277Y-113253821D02*
X139164039Y-113206202D01*
X139164039Y-113206202D02*
X139021182Y-113206202D01*
X139021182Y-113206202D02*
X138925944Y-113253821D01*
X138449753Y-113872869D02*
X138449753Y-112872869D01*
X138354515Y-113491916D02*
X138068801Y-113872869D01*
X138068801Y-113206202D02*
X138449753Y-113587154D01*
X137259277Y-113825250D02*
X137354515Y-113872869D01*
X137354515Y-113872869D02*
X137544991Y-113872869D01*
X137544991Y-113872869D02*
X137640229Y-113825250D01*
X137640229Y-113825250D02*
X137687848Y-113730011D01*
X137687848Y-113730011D02*
X137687848Y-113349059D01*
X137687848Y-113349059D02*
X137640229Y-113253821D01*
X137640229Y-113253821D02*
X137544991Y-113206202D01*
X137544991Y-113206202D02*
X137354515Y-113206202D01*
X137354515Y-113206202D02*
X137259277Y-113253821D01*
X137259277Y-113253821D02*
X137211658Y-113349059D01*
X137211658Y-113349059D02*
X137211658Y-113444297D01*
X137211658Y-113444297D02*
X137687848Y-113539535D01*
X136783086Y-113206202D02*
X136783086Y-113872869D01*
X136783086Y-113301440D02*
X136735467Y-113253821D01*
X136735467Y-113253821D02*
X136640229Y-113206202D01*
X136640229Y-113206202D02*
X136497372Y-113206202D01*
X136497372Y-113206202D02*
X136402134Y-113253821D01*
X136402134Y-113253821D02*
X136354515Y-113349059D01*
X136354515Y-113349059D02*
X136354515Y-113872869D01*
X135878324Y-113206202D02*
X135878324Y-113872869D01*
X135878324Y-113301440D02*
X135830705Y-113253821D01*
X135830705Y-113253821D02*
X135735467Y-113206202D01*
X135735467Y-113206202D02*
X135592610Y-113206202D01*
X135592610Y-113206202D02*
X135497372Y-113253821D01*
X135497372Y-113253821D02*
X135449753Y-113349059D01*
X135449753Y-113349059D02*
X135449753Y-113872869D01*
M02*
