%TF.GenerationSoftware,KiCad,Pcbnew,9.0.7*%
%TF.CreationDate,2026-03-01T08:55:19+09:00*%
%TF.ProjectId,Aida_Mid_Outside,41696461-5f4d-4696-945f-4f7574736964,rev?*%
%TF.SameCoordinates,Original*%
%TF.FileFunction,Copper,L2,Bot*%
%TF.FilePolarity,Positive*%
%FSLAX46Y46*%
G04 Gerber Fmt 4.6, Leading zero omitted, Abs format (unit mm)*
G04 Created by KiCad (PCBNEW 9.0.7) date 2026-03-01 08:55:19*
%MOMM*%
%LPD*%
G01*
G04 APERTURE LIST*
G04 Aperture macros list*
%AMFreePoly0*
4,1,18,0.629926,1.692426,0.637215,1.683591,0.881507,1.322037,1.335531,0.983935,1.781286,0.836983,1.816077,0.807010,1.822500,0.780000,1.822500,-0.950000,1.804926,-0.992426,1.762500,-1.010000,-0.837500,-1.010000,-0.879926,-0.992426,-0.897500,-0.950000,-0.897500,1.650000,-0.879926,1.692426,-0.837500,1.710000,0.587500,1.710000,0.629926,1.692426,0.629926,1.692426,$1*%
G04 Aperture macros list end*
%TA.AperFunction,ConnectorPad*%
%ADD10C,4.400000*%
%TD*%
%TA.AperFunction,ComponentPad*%
%ADD11C,5.500000*%
%TD*%
%TA.AperFunction,ComponentPad*%
%ADD12R,1.350000X1.350000*%
%TD*%
%TA.AperFunction,SMDPad,CuDef*%
%ADD13FreePoly0,0.000000*%
%TD*%
%TA.AperFunction,SMDPad,CuDef*%
%ADD14R,2.600000X2.600000*%
%TD*%
%TA.AperFunction,ComponentPad*%
%ADD15C,4.400000*%
%TD*%
%TA.AperFunction,ComponentPad*%
%ADD16C,0.800000*%
%TD*%
%TA.AperFunction,ViaPad*%
%ADD17C,0.600000*%
%TD*%
%TA.AperFunction,Conductor*%
%ADD18C,0.381000*%
%TD*%
G04 APERTURE END LIST*
D10*
%TO.P,H3,1,1*%
%TO.N,GND*%
X58340654Y-36314073D03*
D11*
X58340654Y-36314073D03*
%TD*%
D12*
%TO.P,TP3,1,1*%
%TO.N,GND*%
X53578150Y-36314073D03*
%TD*%
%TO.P,TP2,1,1*%
%TO.N,COL_0_to_Base*%
X44053142Y-47625020D03*
%TD*%
D10*
%TO.P,H2,1,1*%
%TO.N,COL_0_to_Base*%
X39885951Y-53578150D03*
D11*
X39885951Y-53578150D03*
%TD*%
D13*
%TO.P,SW_LEFT1,1,1*%
%TO.N,COL_0_from_Base*%
X55200000Y-53925000D03*
D14*
%TO.P,SW_LEFT1,2,2*%
%TO.N,COL_0_to_Base*%
X44112500Y-51375000D03*
%TD*%
D12*
%TO.P,TP1,1,1*%
%TO.N,COL_0_from_Base*%
X45839081Y-39885951D03*
%TD*%
D15*
%TO.P,H1,1,1*%
%TO.N,COL_0_from_Base*%
X42267203Y-42862516D03*
%TD*%
D16*
%TO.P,SW_RIGHT1,2,2*%
%TO.N,COL_0_to_Base*%
X60587500Y-52825000D03*
X60587500Y-50025000D03*
%TD*%
D17*
%TO.N,COL_0_from_Base*%
X49812500Y-51412500D03*
%TO.N,GND*%
X60562500Y-48212500D03*
X43062500Y-55812500D03*
X39112500Y-47412500D03*
X60562500Y-55212500D03*
X42562500Y-34562500D03*
%TD*%
D18*
%TO.N,COL_0_from_Base*%
X55200000Y-53641804D02*
X55200000Y-53925000D01*
X45243768Y-39885951D02*
X45839081Y-39885951D01*
X52970696Y-51412500D02*
X55200000Y-53641804D01*
X42267203Y-42862516D02*
X45243768Y-39885951D01*
X49812500Y-51412500D02*
X52970696Y-51412500D01*
%TO.N,COL_0_to_Base*%
X46054000Y-49433500D02*
X44112500Y-51375000D01*
X44112500Y-51375000D02*
X44112500Y-47684378D01*
X59996000Y-49433500D02*
X56583304Y-49433500D01*
X56583304Y-49433500D02*
X55450304Y-50566500D01*
X60587500Y-50025000D02*
X59996000Y-49433500D01*
X44112500Y-47684378D02*
X44053142Y-47625020D01*
X41909350Y-53578150D02*
X44112500Y-51375000D01*
X49324696Y-50566500D02*
X48191696Y-49433500D01*
X39885951Y-53578150D02*
X41909350Y-53578150D01*
X48191696Y-49433500D02*
X46054000Y-49433500D01*
X55450304Y-50566500D02*
X49324696Y-50566500D01*
%TD*%
%TA.AperFunction,Conductor*%
%TO.N,GND*%
G36*
X59617847Y-50133444D02*
G01*
X59648746Y-50140746D01*
X59651131Y-50143217D01*
X59654425Y-50144185D01*
X59675206Y-50168167D01*
X59697262Y-50191025D01*
X59698806Y-50195404D01*
X59700180Y-50196989D01*
X59709003Y-50224309D01*
X59721603Y-50287658D01*
X59721606Y-50287667D01*
X59789483Y-50451540D01*
X59789490Y-50451553D01*
X59888035Y-50599034D01*
X59888038Y-50599038D01*
X60013461Y-50724461D01*
X60013465Y-50724464D01*
X60160946Y-50823009D01*
X60160959Y-50823016D01*
X60214870Y-50845346D01*
X60324834Y-50890894D01*
X60324836Y-50890894D01*
X60324841Y-50890896D01*
X60498804Y-50925499D01*
X60498807Y-50925500D01*
X60498809Y-50925500D01*
X60676193Y-50925500D01*
X60676194Y-50925499D01*
X60734182Y-50913964D01*
X60850158Y-50890896D01*
X60850161Y-50890894D01*
X60850166Y-50890894D01*
X60942098Y-50852815D01*
X61011567Y-50845346D01*
X61074046Y-50876622D01*
X61109698Y-50936711D01*
X61113550Y-50967376D01*
X61113550Y-51882624D01*
X61093865Y-51949663D01*
X61041061Y-51995418D01*
X60971903Y-52005362D01*
X60942098Y-51997185D01*
X60850167Y-51959106D01*
X60850158Y-51959103D01*
X60676194Y-51924500D01*
X60676191Y-51924500D01*
X60498809Y-51924500D01*
X60498806Y-51924500D01*
X60324841Y-51959103D01*
X60324832Y-51959106D01*
X60160959Y-52026983D01*
X60160946Y-52026990D01*
X60013465Y-52125535D01*
X60013461Y-52125538D01*
X59888038Y-52250961D01*
X59888035Y-52250965D01*
X59789490Y-52398446D01*
X59789483Y-52398459D01*
X59721606Y-52562332D01*
X59721603Y-52562341D01*
X59687000Y-52736304D01*
X59687000Y-52913695D01*
X59721603Y-53087658D01*
X59721606Y-53087667D01*
X59789483Y-53251540D01*
X59789490Y-53251553D01*
X59888035Y-53399034D01*
X59888038Y-53399038D01*
X60013461Y-53524461D01*
X60013465Y-53524464D01*
X60160946Y-53623009D01*
X60160959Y-53623016D01*
X60214870Y-53645346D01*
X60324834Y-53690894D01*
X60324836Y-53690894D01*
X60324841Y-53690896D01*
X60498804Y-53725499D01*
X60498807Y-53725500D01*
X60498809Y-53725500D01*
X60676193Y-53725500D01*
X60676194Y-53725499D01*
X60734182Y-53713964D01*
X60850158Y-53690896D01*
X60850161Y-53690894D01*
X60850166Y-53690894D01*
X60942098Y-53652815D01*
X61011567Y-53645346D01*
X61074046Y-53676622D01*
X61109698Y-53736711D01*
X61113550Y-53767376D01*
X61113550Y-56182540D01*
X61113549Y-56190479D01*
X61113544Y-56190500D01*
X61113547Y-56224989D01*
X61113547Y-56227077D01*
X61104204Y-56258887D01*
X61093868Y-56294099D01*
X61093860Y-56294105D01*
X61093858Y-56294115D01*
X61067926Y-56316581D01*
X61041069Y-56339859D01*
X61041057Y-56339861D01*
X61041051Y-56339867D01*
X61040995Y-56339874D01*
X60989514Y-56351068D01*
X60952982Y-56351059D01*
X60952981Y-56351059D01*
X60945600Y-56351057D01*
X60944181Y-56351150D01*
X41977391Y-56351150D01*
X41910352Y-56331465D01*
X41864597Y-56278661D01*
X41854653Y-56209503D01*
X41883678Y-56145947D01*
X41898726Y-56131297D01*
X41970370Y-56072500D01*
X42071486Y-55989516D01*
X42297317Y-55763685D01*
X42499926Y-55516806D01*
X42677360Y-55251256D01*
X42827912Y-54969594D01*
X42950131Y-54674531D01*
X43042840Y-54368910D01*
X43105147Y-54055673D01*
X43136451Y-53737837D01*
X43136451Y-53418463D01*
X43134112Y-53394721D01*
X43134433Y-53393029D01*
X43133831Y-53391414D01*
X43140916Y-53358842D01*
X43147130Y-53326078D01*
X43148433Y-53324286D01*
X43148683Y-53323141D01*
X43169834Y-53294887D01*
X43252903Y-53211818D01*
X43314226Y-53178333D01*
X43340584Y-53175499D01*
X45460371Y-53175499D01*
X45460372Y-53175499D01*
X45519983Y-53169091D01*
X45654831Y-53118796D01*
X45770046Y-53032546D01*
X45856296Y-52917331D01*
X45906591Y-52782483D01*
X45913000Y-52722873D01*
X45912999Y-52675440D01*
X45932682Y-52608405D01*
X45985485Y-52562649D01*
X46054644Y-52552704D01*
X46118200Y-52581727D01*
X46124680Y-52587761D01*
X46230830Y-52693911D01*
X46230838Y-52693918D01*
X46412882Y-52833607D01*
X46412885Y-52833608D01*
X46412888Y-52833611D01*
X46611612Y-52948344D01*
X46611617Y-52948346D01*
X46611623Y-52948349D01*
X46702980Y-52986190D01*
X46823613Y-53036158D01*
X47045262Y-53095548D01*
X47272766Y-53125500D01*
X47272773Y-53125500D01*
X47502227Y-53125500D01*
X47502234Y-53125500D01*
X47729738Y-53095548D01*
X47951387Y-53036158D01*
X48163388Y-52948344D01*
X48362112Y-52833611D01*
X48544161Y-52693919D01*
X48544165Y-52693914D01*
X48544170Y-52693911D01*
X48706411Y-52531670D01*
X48706414Y-52531665D01*
X48706419Y-52531661D01*
X48846111Y-52349612D01*
X48960844Y-52150888D01*
X49023961Y-51998509D01*
X49067802Y-51944107D01*
X49134096Y-51922042D01*
X49201795Y-51939321D01*
X49226203Y-51958282D01*
X49302207Y-52034286D01*
X49302211Y-52034289D01*
X49433314Y-52121890D01*
X49433327Y-52121897D01*
X49563919Y-52175989D01*
X49579003Y-52182237D01*
X49733653Y-52212999D01*
X49733656Y-52213000D01*
X49733658Y-52213000D01*
X49891344Y-52213000D01*
X49891345Y-52212999D01*
X50045997Y-52182237D01*
X50191679Y-52121894D01*
X50191688Y-52121887D01*
X50197053Y-52119021D01*
X50198205Y-52121176D01*
X50254631Y-52103519D01*
X50256823Y-52103500D01*
X51084057Y-52103500D01*
X51151096Y-52123185D01*
X51196851Y-52175989D01*
X51206795Y-52245147D01*
X51177770Y-52308703D01*
X51171738Y-52315181D01*
X51068581Y-52418338D01*
X50928892Y-52600382D01*
X50814157Y-52799109D01*
X50814150Y-52799123D01*
X50726342Y-53011112D01*
X50703718Y-53095548D01*
X50667641Y-53230193D01*
X50666953Y-53232759D01*
X50666951Y-53232770D01*
X50637000Y-53460258D01*
X50637000Y-53689741D01*
X50661946Y-53879215D01*
X50666952Y-53917238D01*
X50666953Y-53917240D01*
X50726342Y-54138887D01*
X50814150Y-54350876D01*
X50814157Y-54350890D01*
X50928892Y-54549617D01*
X51068581Y-54731661D01*
X51068589Y-54731670D01*
X51230830Y-54893911D01*
X51230838Y-54893918D01*
X51412882Y-55033607D01*
X51412885Y-55033608D01*
X51412888Y-55033611D01*
X51611612Y-55148344D01*
X51611617Y-55148346D01*
X51611623Y-55148349D01*
X51702980Y-55186190D01*
X51823613Y-55236158D01*
X52045262Y-55295548D01*
X52272766Y-55325500D01*
X52272773Y-55325500D01*
X52502227Y-55325500D01*
X52502234Y-55325500D01*
X52729738Y-55295548D01*
X52951387Y-55236158D01*
X53163388Y-55148344D01*
X53362112Y-55033611D01*
X53544161Y-54893919D01*
X53583756Y-54854324D01*
X53645078Y-54820838D01*
X53714770Y-54825822D01*
X53770704Y-54867692D01*
X53794014Y-54923267D01*
X53794895Y-54929035D01*
X53830478Y-55068444D01*
X53830479Y-55068448D01*
X53849517Y-55114408D01*
X53901310Y-55209262D01*
X53999354Y-55314567D01*
X54058780Y-55349825D01*
X54123092Y-55387983D01*
X54169054Y-55407021D01*
X54220084Y-55425024D01*
X54362500Y-55445500D01*
X54362503Y-55445500D01*
X56962504Y-55445500D01*
X57016536Y-55442604D01*
X57063005Y-55430743D01*
X57155946Y-55407021D01*
X57201908Y-55387983D01*
X57296761Y-55336190D01*
X57402066Y-55238147D01*
X57475483Y-55114408D01*
X57494521Y-55068446D01*
X57512524Y-55017416D01*
X57533000Y-54875000D01*
X57533000Y-53230193D01*
X57552685Y-53163154D01*
X57605489Y-53117399D01*
X57640811Y-53107255D01*
X57729738Y-53095548D01*
X57951387Y-53036158D01*
X58163388Y-52948344D01*
X58362112Y-52833611D01*
X58544161Y-52693919D01*
X58544165Y-52693914D01*
X58544170Y-52693911D01*
X58706411Y-52531670D01*
X58706414Y-52531665D01*
X58706419Y-52531661D01*
X58846111Y-52349612D01*
X58960844Y-52150888D01*
X59048658Y-51938887D01*
X59108048Y-51717238D01*
X59138000Y-51489734D01*
X59138000Y-51260266D01*
X59108048Y-51032762D01*
X59048658Y-50811113D01*
X58976203Y-50636192D01*
X58960849Y-50599123D01*
X58960846Y-50599117D01*
X58960844Y-50599112D01*
X58846111Y-50400388D01*
X58846108Y-50400385D01*
X58846107Y-50400382D01*
X58787486Y-50323987D01*
X58762291Y-50258818D01*
X58776329Y-50190373D01*
X58825143Y-50140383D01*
X58885861Y-50124500D01*
X59587386Y-50124500D01*
X59617847Y-50133444D01*
G37*
%TD.AperFunction*%
%TA.AperFunction,Conductor*%
G36*
X61056581Y-33857483D02*
G01*
X61102337Y-33910286D01*
X61113543Y-33961824D01*
X61113534Y-34005965D01*
X61113550Y-34006226D01*
X61113550Y-49082624D01*
X61093865Y-49149663D01*
X61041061Y-49195418D01*
X60971903Y-49205362D01*
X60942098Y-49197185D01*
X60850167Y-49159106D01*
X60850159Y-49159104D01*
X60698140Y-49128865D01*
X60636229Y-49096480D01*
X60634651Y-49094929D01*
X60436492Y-48896769D01*
X60436485Y-48896763D01*
X60323312Y-48821144D01*
X60323309Y-48821142D01*
X60197561Y-48769056D01*
X60197551Y-48769053D01*
X60064060Y-48742500D01*
X60064058Y-48742500D01*
X56515246Y-48742500D01*
X56515244Y-48742500D01*
X56381752Y-48769053D01*
X56381742Y-48769056D01*
X56255999Y-48821140D01*
X56255986Y-48821147D01*
X56142818Y-48896764D01*
X56142814Y-48896767D01*
X55200401Y-49839181D01*
X55139078Y-49872666D01*
X55112720Y-49875500D01*
X54326156Y-49875500D01*
X54259117Y-49855815D01*
X54213362Y-49803011D01*
X54203418Y-49733853D01*
X54232443Y-49670297D01*
X54238475Y-49663819D01*
X54339000Y-49563294D01*
X54441620Y-49460674D01*
X54634235Y-49219143D01*
X54798595Y-48957565D01*
X54932635Y-48679229D01*
X55034668Y-48387636D01*
X55103411Y-48086452D01*
X55138000Y-47779465D01*
X55138000Y-47470535D01*
X55103411Y-47163548D01*
X55034668Y-46862364D01*
X54980545Y-46707691D01*
X54966646Y-46667968D01*
X54932635Y-46570771D01*
X54798595Y-46292435D01*
X54634235Y-46030857D01*
X54441620Y-45789326D01*
X54223174Y-45570880D01*
X54170728Y-45529056D01*
X54086089Y-45461558D01*
X53981643Y-45378265D01*
X53720065Y-45213905D01*
X53720062Y-45213903D01*
X53441736Y-45079868D01*
X53441722Y-45079862D01*
X53150147Y-44977835D01*
X53150135Y-44977831D01*
X52848955Y-44909089D01*
X52848937Y-44909086D01*
X52541971Y-44874500D01*
X52541965Y-44874500D01*
X52233035Y-44874500D01*
X52233028Y-44874500D01*
X51926062Y-44909086D01*
X51926044Y-44909089D01*
X51624864Y-44977831D01*
X51624852Y-44977835D01*
X51333277Y-45079862D01*
X51333263Y-45079868D01*
X51054937Y-45213903D01*
X50793358Y-45378264D01*
X50551826Y-45570879D01*
X50333379Y-45789326D01*
X50140764Y-46030858D01*
X49976403Y-46292437D01*
X49842368Y-46570763D01*
X49842362Y-46570777D01*
X49740335Y-46862352D01*
X49740331Y-46862364D01*
X49671589Y-47163544D01*
X49671586Y-47163562D01*
X49637000Y-47470528D01*
X49637000Y-47779471D01*
X49671586Y-48086437D01*
X49671589Y-48086455D01*
X49740331Y-48387635D01*
X49740335Y-48387647D01*
X49842362Y-48679222D01*
X49842368Y-48679236D01*
X49976403Y-48957562D01*
X49976405Y-48957565D01*
X50140765Y-49219143D01*
X50284463Y-49399334D01*
X50333379Y-49460673D01*
X50536525Y-49663819D01*
X50570010Y-49725142D01*
X50565026Y-49794834D01*
X50523154Y-49850767D01*
X50457690Y-49875184D01*
X50448844Y-49875500D01*
X49662279Y-49875500D01*
X49595240Y-49855815D01*
X49574598Y-49839181D01*
X48632188Y-48896769D01*
X48632181Y-48896763D01*
X48519008Y-48821144D01*
X48519005Y-48821142D01*
X48393257Y-48769056D01*
X48393247Y-48769053D01*
X48259756Y-48742500D01*
X48259754Y-48742500D01*
X45985942Y-48742500D01*
X45985940Y-48742500D01*
X45852448Y-48769053D01*
X45852438Y-48769056D01*
X45726695Y-48821140D01*
X45726682Y-48821147D01*
X45613514Y-48896764D01*
X45613510Y-48896767D01*
X45015181Y-49495097D01*
X44953858Y-49528582D01*
X44884166Y-49523598D01*
X44828233Y-49481726D01*
X44803816Y-49416262D01*
X44803500Y-49407416D01*
X44803500Y-48892188D01*
X44823185Y-48825149D01*
X44875989Y-48779394D01*
X44884167Y-48776006D01*
X44970470Y-48743817D01*
X44970469Y-48743817D01*
X44970473Y-48743816D01*
X45085688Y-48657566D01*
X45171938Y-48542351D01*
X45222233Y-48407503D01*
X45228642Y-48347893D01*
X45228641Y-46902148D01*
X45222233Y-46842537D01*
X45171938Y-46707689D01*
X45171937Y-46707688D01*
X45171935Y-46707684D01*
X45085689Y-46592475D01*
X45085686Y-46592472D01*
X44970477Y-46506226D01*
X44970470Y-46506222D01*
X44835624Y-46455928D01*
X44835625Y-46455928D01*
X44776025Y-46449521D01*
X44776023Y-46449520D01*
X44776015Y-46449520D01*
X44776006Y-46449520D01*
X43330271Y-46449520D01*
X43330265Y-46449521D01*
X43270658Y-46455928D01*
X43135813Y-46506222D01*
X43135806Y-46506226D01*
X43020597Y-46592472D01*
X43020594Y-46592475D01*
X42934348Y-46707684D01*
X42934344Y-46707691D01*
X42884050Y-46842537D01*
X42881919Y-46862364D01*
X42877643Y-46902143D01*
X42877642Y-46902155D01*
X42877642Y-48347890D01*
X42877643Y-48347896D01*
X42884050Y-48407503D01*
X42934344Y-48542348D01*
X42934348Y-48542355D01*
X43020594Y-48657564D01*
X43020597Y-48657567D01*
X43135806Y-48743813D01*
X43135813Y-48743817D01*
X43180760Y-48760581D01*
X43270659Y-48794111D01*
X43310758Y-48798422D01*
X43375306Y-48825159D01*
X43415154Y-48882552D01*
X43421500Y-48921711D01*
X43421500Y-49450500D01*
X43401815Y-49517539D01*
X43349011Y-49563294D01*
X43297500Y-49574500D01*
X42764629Y-49574500D01*
X42764623Y-49574501D01*
X42705016Y-49580908D01*
X42570171Y-49631202D01*
X42570164Y-49631206D01*
X42454955Y-49717452D01*
X42454952Y-49717455D01*
X42368706Y-49832664D01*
X42368702Y-49832671D01*
X42318408Y-49967517D01*
X42312001Y-50027116D01*
X42312000Y-50027135D01*
X42312000Y-51107935D01*
X42292315Y-51174974D01*
X42239511Y-51220729D01*
X42170353Y-51230673D01*
X42106797Y-51201648D01*
X42100319Y-51195616D01*
X42071491Y-51166788D01*
X41824612Y-50964179D01*
X41824589Y-50964162D01*
X41559073Y-50786751D01*
X41559045Y-50786734D01*
X41277402Y-50636192D01*
X41277397Y-50636190D01*
X40982333Y-50513970D01*
X40676705Y-50421259D01*
X40363472Y-50358953D01*
X40363473Y-50358953D01*
X40124092Y-50335377D01*
X40045638Y-50327650D01*
X39726264Y-50327650D01*
X39653773Y-50334789D01*
X39408428Y-50358953D01*
X39095196Y-50421259D01*
X38789568Y-50513970D01*
X38494504Y-50636190D01*
X38494499Y-50636192D01*
X38212856Y-50786734D01*
X38212843Y-50786742D01*
X38014509Y-50919264D01*
X37947832Y-50940141D01*
X37880452Y-50921656D01*
X37833762Y-50869677D01*
X37822586Y-50800707D01*
X37825319Y-50786095D01*
X39539840Y-43928616D01*
X39575196Y-43868356D01*
X39637522Y-43836776D01*
X39707027Y-43843904D01*
X39761644Y-43887478D01*
X39771856Y-43904894D01*
X39899936Y-44170854D01*
X39899938Y-44170857D01*
X40061311Y-44427680D01*
X40250424Y-44664820D01*
X40464899Y-44879295D01*
X40702039Y-45068408D01*
X40958862Y-45229781D01*
X41232138Y-45361384D01*
X41447154Y-45436621D01*
X41518419Y-45461558D01*
X41518431Y-45461562D01*
X41814140Y-45529056D01*
X41814149Y-45529057D01*
X41814154Y-45529058D01*
X42015077Y-45551696D01*
X42115540Y-45563015D01*
X42115543Y-45563016D01*
X42115546Y-45563016D01*
X42418863Y-45563016D01*
X42418864Y-45563015D01*
X42572897Y-45545660D01*
X42720251Y-45529058D01*
X42720254Y-45529057D01*
X42720266Y-45529056D01*
X43015975Y-45461562D01*
X43302268Y-45361384D01*
X43575544Y-45229781D01*
X43832367Y-45068408D01*
X44069507Y-44879295D01*
X44283982Y-44664820D01*
X44473095Y-44427680D01*
X44634468Y-44170857D01*
X44766071Y-43897581D01*
X44866249Y-43611288D01*
X44933743Y-43315579D01*
X44967703Y-43014173D01*
X44967703Y-42710859D01*
X44933743Y-42409453D01*
X44933741Y-42409444D01*
X44929996Y-42393034D01*
X44925088Y-42371530D01*
X46337000Y-42371530D01*
X46337000Y-42578469D01*
X46377368Y-42781412D01*
X46377370Y-42781420D01*
X46456559Y-42972598D01*
X46514041Y-43058626D01*
X46571524Y-43144657D01*
X46717842Y-43290975D01*
X46717845Y-43290977D01*
X46889902Y-43405941D01*
X47081080Y-43485130D01*
X47284030Y-43525499D01*
X47284034Y-43525500D01*
X47284035Y-43525500D01*
X47490966Y-43525500D01*
X47490967Y-43525499D01*
X47693920Y-43485130D01*
X47885098Y-43405941D01*
X48057155Y-43290977D01*
X48203477Y-43144655D01*
X48318441Y-42972598D01*
X48397630Y-42781420D01*
X48438000Y-42578465D01*
X48438000Y-42371535D01*
X48437999Y-42371530D01*
X56337000Y-42371530D01*
X56337000Y-42578469D01*
X56377368Y-42781412D01*
X56377370Y-42781420D01*
X56456559Y-42972598D01*
X56514041Y-43058626D01*
X56571524Y-43144657D01*
X56717842Y-43290975D01*
X56717845Y-43290977D01*
X56889902Y-43405941D01*
X57081080Y-43485130D01*
X57284030Y-43525499D01*
X57284034Y-43525500D01*
X57284035Y-43525500D01*
X57490966Y-43525500D01*
X57490967Y-43525499D01*
X57693920Y-43485130D01*
X57885098Y-43405941D01*
X58057155Y-43290977D01*
X58203477Y-43144655D01*
X58318441Y-42972598D01*
X58397630Y-42781420D01*
X58438000Y-42578465D01*
X58438000Y-42371535D01*
X58397630Y-42168580D01*
X58318441Y-41977402D01*
X58203477Y-41805345D01*
X58203475Y-41805342D01*
X58057157Y-41659024D01*
X57936339Y-41578297D01*
X57885098Y-41544059D01*
X57693920Y-41464870D01*
X57693912Y-41464868D01*
X57490969Y-41424500D01*
X57490965Y-41424500D01*
X57284035Y-41424500D01*
X57284030Y-41424500D01*
X57081087Y-41464868D01*
X57081079Y-41464870D01*
X56889903Y-41544058D01*
X56717842Y-41659024D01*
X56571524Y-41805342D01*
X56456558Y-41977403D01*
X56377370Y-42168579D01*
X56377368Y-42168587D01*
X56337000Y-42371530D01*
X48437999Y-42371530D01*
X48397630Y-42168580D01*
X48318441Y-41977402D01*
X48203477Y-41805345D01*
X48203475Y-41805342D01*
X48057157Y-41659024D01*
X47936339Y-41578297D01*
X47885098Y-41544059D01*
X47693920Y-41464870D01*
X47693912Y-41464868D01*
X47490969Y-41424500D01*
X47490965Y-41424500D01*
X47284035Y-41424500D01*
X47284030Y-41424500D01*
X47081087Y-41464868D01*
X47081079Y-41464870D01*
X46889903Y-41544058D01*
X46717842Y-41659024D01*
X46571524Y-41805342D01*
X46456558Y-41977403D01*
X46377370Y-42168579D01*
X46377368Y-42168587D01*
X46337000Y-42371530D01*
X44925088Y-42371530D01*
X44866249Y-42113744D01*
X44866245Y-42113732D01*
X44818541Y-41977402D01*
X44766071Y-41827451D01*
X44646085Y-41578297D01*
X44634733Y-41509355D01*
X44662455Y-41445221D01*
X44670113Y-41436825D01*
X45010405Y-41096533D01*
X45071726Y-41063050D01*
X45111338Y-41060927D01*
X45116208Y-41061451D01*
X46561953Y-41061450D01*
X46621564Y-41055042D01*
X46756412Y-41004747D01*
X46871627Y-40918497D01*
X46957877Y-40803282D01*
X47008172Y-40668434D01*
X47014581Y-40608824D01*
X47014580Y-39163079D01*
X47008172Y-39103468D01*
X46957877Y-38968620D01*
X46957876Y-38968619D01*
X46957874Y-38968615D01*
X46871628Y-38853406D01*
X46871625Y-38853403D01*
X46756416Y-38767157D01*
X46756409Y-38767153D01*
X46621563Y-38716859D01*
X46621564Y-38716859D01*
X46561964Y-38710452D01*
X46561962Y-38710451D01*
X46561954Y-38710451D01*
X46561945Y-38710451D01*
X45116210Y-38710451D01*
X45116204Y-38710452D01*
X45056597Y-38716859D01*
X44921752Y-38767153D01*
X44921745Y-38767157D01*
X44806536Y-38853403D01*
X44806533Y-38853406D01*
X44720287Y-38968615D01*
X44720283Y-38968622D01*
X44669989Y-39103468D01*
X44663582Y-39163067D01*
X44663582Y-39163074D01*
X44663581Y-39163086D01*
X44663581Y-39437554D01*
X44643896Y-39504593D01*
X44627262Y-39525235D01*
X43692902Y-40459594D01*
X43631579Y-40493079D01*
X43561887Y-40488095D01*
X43551419Y-40483633D01*
X43302271Y-40363649D01*
X43015986Y-40263473D01*
X43015974Y-40263469D01*
X42787759Y-40211380D01*
X42720266Y-40195976D01*
X42720263Y-40195975D01*
X42720251Y-40195973D01*
X42418866Y-40162016D01*
X42418860Y-40162016D01*
X42115546Y-40162016D01*
X42115539Y-40162016D01*
X41814154Y-40195973D01*
X41814140Y-40195976D01*
X41518431Y-40263469D01*
X41518419Y-40263473D01*
X41232134Y-40363649D01*
X40958864Y-40495249D01*
X40702036Y-40656625D01*
X40702034Y-40656626D01*
X40558698Y-40770933D01*
X40494012Y-40797342D01*
X40425316Y-40784585D01*
X40374423Y-40736714D01*
X40357489Y-40668928D01*
X40361088Y-40643915D01*
X41562134Y-35840155D01*
X41562138Y-35840156D01*
X41562142Y-35840122D01*
X41604643Y-35670365D01*
X41605286Y-35667911D01*
X41626281Y-35591228D01*
X52403150Y-35591228D01*
X52403150Y-36064073D01*
X53262464Y-36064073D01*
X53258070Y-36068467D01*
X53205409Y-36159679D01*
X53178150Y-36261412D01*
X53178150Y-36366734D01*
X53205409Y-36468467D01*
X53258070Y-36559679D01*
X53262464Y-36564073D01*
X52403150Y-36564073D01*
X52403150Y-37036917D01*
X52409551Y-37096445D01*
X52409553Y-37096452D01*
X52459795Y-37231159D01*
X52459799Y-37231166D01*
X52545959Y-37346260D01*
X52545962Y-37346263D01*
X52661056Y-37432423D01*
X52661063Y-37432427D01*
X52795770Y-37482669D01*
X52795777Y-37482671D01*
X52855305Y-37489072D01*
X52855322Y-37489073D01*
X53328150Y-37489073D01*
X53328150Y-36629759D01*
X53332544Y-36634153D01*
X53423756Y-36686814D01*
X53525489Y-36714073D01*
X53630811Y-36714073D01*
X53732544Y-36686814D01*
X53823756Y-36634153D01*
X53828150Y-36629759D01*
X53828150Y-37489073D01*
X54300978Y-37489073D01*
X54300994Y-37489072D01*
X54360522Y-37482671D01*
X54360529Y-37482669D01*
X54495236Y-37432427D01*
X54495243Y-37432423D01*
X54610337Y-37346263D01*
X54610340Y-37346260D01*
X54696500Y-37231166D01*
X54696504Y-37231159D01*
X54746746Y-37096452D01*
X54746748Y-37096445D01*
X54753149Y-37036917D01*
X54753150Y-37036900D01*
X54753150Y-36564073D01*
X53893836Y-36564073D01*
X53898230Y-36559679D01*
X53950891Y-36468467D01*
X53978150Y-36366734D01*
X53978150Y-36261412D01*
X53950891Y-36159679D01*
X53898230Y-36068467D01*
X53893836Y-36064073D01*
X54753150Y-36064073D01*
X54753150Y-35591245D01*
X54753149Y-35591228D01*
X54746748Y-35531700D01*
X54746746Y-35531693D01*
X54696504Y-35396986D01*
X54696500Y-35396979D01*
X54610340Y-35281885D01*
X54610337Y-35281882D01*
X54495243Y-35195722D01*
X54495236Y-35195718D01*
X54360529Y-35145476D01*
X54360522Y-35145474D01*
X54300994Y-35139073D01*
X53828150Y-35139073D01*
X53828150Y-35998387D01*
X53823756Y-35993993D01*
X53732544Y-35941332D01*
X53630811Y-35914073D01*
X53525489Y-35914073D01*
X53423756Y-35941332D01*
X53332544Y-35993993D01*
X53328150Y-35998387D01*
X53328150Y-35139073D01*
X52855305Y-35139073D01*
X52795777Y-35145474D01*
X52795770Y-35145476D01*
X52661063Y-35195718D01*
X52661056Y-35195722D01*
X52545962Y-35281882D01*
X52545959Y-35281885D01*
X52459799Y-35396979D01*
X52459795Y-35396986D01*
X52409553Y-35531693D01*
X52409551Y-35531700D01*
X52403150Y-35591228D01*
X41626281Y-35591228D01*
X41733174Y-35200808D01*
X41735627Y-35192901D01*
X41847468Y-34870886D01*
X41851849Y-34859974D01*
X41960613Y-34622305D01*
X41967368Y-34609561D01*
X42076326Y-34430109D01*
X42085845Y-34416562D01*
X42197369Y-34278510D01*
X42209726Y-34265316D01*
X42328311Y-34155901D01*
X42343062Y-34144233D01*
X42486383Y-34047604D01*
X42498420Y-34040444D01*
X42563486Y-34006571D01*
X42571713Y-34002667D01*
X42655486Y-33966648D01*
X42663702Y-33963459D01*
X42757150Y-33931002D01*
X42765265Y-33928492D01*
X42869138Y-33900251D01*
X42877011Y-33898385D01*
X42994536Y-33874578D01*
X43002052Y-33873297D01*
X43132040Y-33855252D01*
X43139163Y-33854474D01*
X43286472Y-33842705D01*
X43293162Y-33842352D01*
X43462693Y-33838045D01*
X43465685Y-33838007D01*
X60989543Y-33837799D01*
X61056581Y-33857483D01*
G37*
%TD.AperFunction*%
%TD*%
M02*
