%TF.GenerationSoftware,KiCad,Pcbnew,9.0.7*%
%TF.CreationDate,2026-03-01T08:55:19+09:00*%
%TF.ProjectId,Aida_Mid_Outside,41696461-5f4d-4696-945f-4f7574736964,rev?*%
%TF.SameCoordinates,Original*%
%TF.FileFunction,Profile,NP*%
%FSLAX46Y46*%
G04 Gerber Fmt 4.6, Leading zero omitted, Abs format (unit mm)*
G04 Created by KiCad (PCBNEW 9.0.7) date 2026-03-01 08:55:19*
%MOMM*%
%LPD*%
G01*
G04 APERTURE LIST*
%ADD10C,0.050000*%
%TA.AperFunction,Profile*%
%ADD11C,0.050000*%
%TD*%
G04 APERTURE END LIST*
D10*
X36611450Y-56851650D02*
X36604664Y-56851650D01*
X36597919Y-56851630D01*
X36591255Y-56851591D01*
X36584631Y-56851532D01*
X36578087Y-56851453D01*
X36571582Y-56851355D01*
X36565155Y-56851238D01*
X36558767Y-56851101D01*
X36552455Y-56850946D01*
X36546182Y-56850772D01*
X36539983Y-56850581D01*
X36533822Y-56850370D01*
X36527734Y-56850142D01*
X36521684Y-56849895D01*
X36515705Y-56849631D01*
X36509763Y-56849348D01*
X36503891Y-56849049D01*
X36498055Y-56848732D01*
X36492288Y-56848398D01*
X36486557Y-56848046D01*
X36480894Y-56847679D01*
X36475265Y-56847293D01*
X36469703Y-56846892D01*
X36464175Y-56846474D01*
X36458712Y-56846040D01*
X36453283Y-56845589D01*
X36447917Y-56845123D01*
X36442586Y-56844640D01*
X36437316Y-56844143D01*
X36432080Y-56843628D01*
X36426904Y-56843099D01*
X36421761Y-56842554D01*
X36416678Y-56841995D01*
X36411627Y-56841419D01*
X36406635Y-56840830D01*
X36401674Y-56840224D01*
X36396771Y-56839605D01*
X36391899Y-56838970D01*
X36387083Y-56838322D01*
X36382298Y-56837658D01*
X36377569Y-56836981D01*
X36372869Y-56836289D01*
X36368224Y-56835584D01*
X36363608Y-56834863D01*
X36359046Y-56834131D01*
X36354512Y-56833383D01*
X36350031Y-56832623D01*
X36345579Y-56831848D01*
X36341178Y-56831061D01*
X36336805Y-56830260D01*
X36332482Y-56829447D01*
X36328187Y-56828618D01*
X36323942Y-56827779D01*
X36319724Y-56826925D01*
X36315553Y-56826061D01*
X36311411Y-56825181D01*
X36307315Y-56824291D01*
X36303246Y-56823387D01*
X36299223Y-56822472D01*
X36295227Y-56821542D01*
X36291276Y-56820603D01*
X36287351Y-56819649D01*
X36283470Y-56818685D01*
X36279615Y-56817708D01*
X36275803Y-56816720D01*
X36272017Y-56815718D01*
X36268273Y-56814707D01*
X36264554Y-56813682D01*
X36260877Y-56812648D01*
X36257225Y-56811600D01*
X36253613Y-56810543D01*
X36250026Y-56809471D01*
X36246479Y-56808392D01*
X36242955Y-56807298D01*
X36239471Y-56806195D01*
X36236010Y-56805080D01*
X36232588Y-56803955D01*
X36229189Y-56802817D01*
X36225828Y-56801670D01*
X36222490Y-56800511D01*
X36219188Y-56799342D01*
X36215909Y-56798161D01*
X36212667Y-56796971D01*
X36209446Y-56795769D01*
X36206261Y-56794558D01*
X36203098Y-56793334D01*
X36199970Y-56792102D01*
X36196863Y-56790857D01*
X36193790Y-56789604D01*
X36190739Y-56788338D01*
X36187721Y-56787064D01*
X36184724Y-56785778D01*
X36181760Y-56784483D01*
X36178816Y-56783176D01*
X36175904Y-56781862D01*
X36173014Y-56780534D01*
X36170154Y-56779199D01*
X36167314Y-56777852D01*
X36164505Y-56776496D01*
X36161717Y-56775129D01*
X36158957Y-56773753D01*
X36156219Y-56772365D01*
X36153509Y-56770970D01*
X36150819Y-56769562D01*
X36148157Y-56768146D01*
X36145515Y-56766719D01*
X36142901Y-56765283D01*
X36140306Y-56763835D01*
X36137738Y-56762380D01*
X36135190Y-56760913D01*
X36132668Y-56759437D01*
X36130165Y-56757950D01*
X36127689Y-56756455D01*
X36125231Y-56754948D01*
X36122798Y-56753433D01*
X36120384Y-56751906D01*
X36117995Y-56750371D01*
X36115625Y-56748824D01*
X36113278Y-56747269D01*
X36110950Y-56745703D01*
X36108646Y-56744128D01*
X36106360Y-56742541D01*
X36104097Y-56740947D01*
X36101853Y-56739340D01*
X36099630Y-56737725D01*
X36097426Y-56736098D01*
X36095244Y-56734463D01*
X36093080Y-56732816D01*
X36090937Y-56731161D01*
X36088812Y-56729494D01*
X36086708Y-56727818D01*
X36084622Y-56726130D01*
X36082556Y-56724433D01*
X36080507Y-56722725D01*
X36078479Y-56721008D01*
X36076468Y-56719279D01*
X36074477Y-56717541D01*
X36072503Y-56715791D01*
X36070549Y-56714031D01*
X36068611Y-56712260D01*
X36066692Y-56710479D01*
X36064791Y-56708687D01*
X36062908Y-56706885D01*
X36061041Y-56705071D01*
X36059193Y-56703247D01*
X36057362Y-56701411D01*
X36055548Y-56699565D01*
X36053751Y-56697707D01*
X36051971Y-56695839D01*
X36050208Y-56693959D01*
X36048462Y-56692067D01*
X36046733Y-56690165D01*
X36045020Y-56688251D01*
X36043323Y-56686325D01*
X36039980Y-56682439D01*
X36036701Y-56678505D01*
X36033486Y-56674524D01*
X36030335Y-56670494D01*
X36027246Y-56666414D01*
X36024220Y-56662285D01*
X36021255Y-56658104D01*
X36018351Y-56653871D01*
X36015508Y-56649585D01*
X36012726Y-56645246D01*
X36010003Y-56640851D01*
X36007339Y-56636401D01*
X36004735Y-56631894D01*
X36002189Y-56627328D01*
X35999702Y-56622704D01*
X35997274Y-56618019D01*
X35994903Y-56613273D01*
X35992591Y-56608464D01*
X35990337Y-56603592D01*
X35988140Y-56598653D01*
X35986002Y-56593649D01*
X35983921Y-56588576D01*
X35981898Y-56583433D01*
X35979934Y-56578220D01*
X35978027Y-56572935D01*
X35976179Y-56567575D01*
X35974390Y-56562140D01*
X35972659Y-56556628D01*
X35970988Y-56551037D01*
X35969376Y-56545365D01*
X35967824Y-56539612D01*
X35966332Y-56533774D01*
X35964900Y-56527850D01*
X35963530Y-56521838D01*
X35962221Y-56515737D01*
X35960975Y-56509544D01*
X35959791Y-56503257D01*
X35958670Y-56496873D01*
X35957614Y-56490392D01*
X35956622Y-56483811D01*
X35955696Y-56477127D01*
X35954836Y-56470337D01*
X35954043Y-56463441D01*
X35953318Y-56456434D01*
X35952662Y-56449315D01*
X35952076Y-56442081D01*
X35951560Y-56434728D01*
X35951116Y-56427255D01*
X35950745Y-56419659D01*
X35950447Y-56411935D01*
X35950225Y-56404082D01*
X35950079Y-56396096D01*
X35950011Y-56387974D01*
X35950022Y-56379711D01*
X35950112Y-56371306D01*
X35950285Y-56362753D01*
X35950540Y-56354050D01*
X35950880Y-56345191D01*
X35951306Y-56336174D01*
X35951820Y-56326993D01*
X35952424Y-56317645D01*
X35953118Y-56308124D01*
X35953906Y-56298425D01*
X35954789Y-56288544D01*
X35955769Y-56278475D01*
X35956848Y-56268213D01*
X35958029Y-56257752D01*
X35959313Y-56247085D01*
X35960704Y-56236206D01*
X35962202Y-56225108D01*
X35963812Y-56213785D01*
X35965536Y-56202228D01*
X35967377Y-56190429D01*
X35969338Y-56178380D01*
X35971422Y-56166073D01*
X35973632Y-56153496D01*
X35975972Y-56140641D01*
X35978447Y-56127496D01*
X35981059Y-56114050D01*
X35983814Y-56100289D01*
X35986716Y-56086201D01*
X35989769Y-56071771D01*
X35992980Y-56056983D01*
X35996354Y-56041821D01*
X35999897Y-56026265D01*
X36003617Y-56010295D01*
X36007519Y-55993889D01*
X36011614Y-55977022D01*
X36015908Y-55959668D01*
X36016150Y-55958700D01*
D11*
X61614050Y-56256350D02*
X61614051Y-33932726D01*
X61018750Y-33337300D02*
G75*
G02*
X61614000Y-33932726I-50J-595300D01*
G01*
D10*
X43457829Y-33337508D02*
X43448875Y-33337518D01*
X43439946Y-33337548D01*
X43431052Y-33337598D01*
X43422182Y-33337668D01*
X43413348Y-33337757D01*
X43404537Y-33337866D01*
X43395761Y-33337995D01*
X43387010Y-33338143D01*
X43378292Y-33338311D01*
X43369599Y-33338498D01*
X43360939Y-33338705D01*
X43352304Y-33338931D01*
X43343702Y-33339176D01*
X43335124Y-33339440D01*
X43326579Y-33339724D01*
X43318058Y-33340026D01*
X43309569Y-33340348D01*
X43301105Y-33340688D01*
X43292673Y-33341047D01*
X43284265Y-33341426D01*
X43275888Y-33341822D01*
X43267536Y-33342238D01*
X43259215Y-33342672D01*
X43250918Y-33343125D01*
X43242652Y-33343596D01*
X43234410Y-33344086D01*
X43226199Y-33344594D01*
X43218011Y-33345121D01*
X43209854Y-33345666D01*
X43201720Y-33346229D01*
X43193617Y-33346810D01*
X43185537Y-33347409D01*
X43177487Y-33348027D01*
X43169461Y-33348662D01*
X43161464Y-33349315D01*
X43153490Y-33349987D01*
X43145546Y-33350676D01*
X43137624Y-33351383D01*
X43129732Y-33352107D01*
X43121862Y-33352850D01*
X43114022Y-33353609D01*
X43106204Y-33354387D01*
X43098415Y-33355182D01*
X43090649Y-33355995D01*
X43082911Y-33356825D01*
X43075195Y-33357672D01*
X43067507Y-33358537D01*
X43059842Y-33359419D01*
X43052205Y-33360318D01*
X43044590Y-33361235D01*
X43037002Y-33362168D01*
X43029437Y-33363119D01*
X43021899Y-33364086D01*
X43014382Y-33365071D01*
X43006893Y-33366073D01*
X42999426Y-33367091D01*
X42991985Y-33368127D01*
X42984566Y-33369179D01*
X42977174Y-33370248D01*
X42969803Y-33371334D01*
X42962459Y-33372436D01*
X42955136Y-33373555D01*
X42947839Y-33374690D01*
X42940564Y-33375843D01*
X42933314Y-33377011D01*
X42926085Y-33378197D01*
X42918882Y-33379398D01*
X42911700Y-33380616D01*
X42904544Y-33381850D01*
X42897408Y-33383101D01*
X42890297Y-33384368D01*
X42883208Y-33385651D01*
X42876143Y-33386950D01*
X42869098Y-33388266D01*
X42862078Y-33389597D01*
X42855079Y-33390945D01*
X42848104Y-33392308D01*
X42841150Y-33393688D01*
X42834220Y-33395083D01*
X42827310Y-33396495D01*
X42820424Y-33397922D01*
X42813558Y-33399366D01*
X42806715Y-33400824D01*
X42799893Y-33402299D01*
X42793094Y-33403790D01*
X42786316Y-33405296D01*
X42779560Y-33406818D01*
X42772824Y-33408356D01*
X42766111Y-33409909D01*
X42759418Y-33411478D01*
X42752747Y-33413063D01*
X42746097Y-33414663D01*
X42739468Y-33416278D01*
X42732859Y-33417909D01*
X42726272Y-33419555D01*
X42719705Y-33421217D01*
X42713160Y-33422894D01*
X42706634Y-33424587D01*
X42700129Y-33426295D01*
X42693644Y-33428018D01*
X42687180Y-33429756D01*
X42680736Y-33431510D01*
X42674313Y-33433279D01*
X42667908Y-33435063D01*
X42661525Y-33436862D01*
X42655161Y-33438677D01*
X42648817Y-33440506D01*
X42642492Y-33442351D01*
X42636188Y-33444211D01*
X42629903Y-33446086D01*
X42623637Y-33447975D01*
X42617391Y-33449880D01*
X42611164Y-33451800D01*
X42604956Y-33453735D01*
X42598768Y-33455685D01*
X42592598Y-33457649D01*
X42586448Y-33459629D01*
X42580317Y-33461624D01*
X42574204Y-33463633D01*
X42568110Y-33465657D01*
X42562035Y-33467697D01*
X42555978Y-33469751D01*
X42549940Y-33471819D01*
X42543921Y-33473903D01*
X42537919Y-33476001D01*
X42531936Y-33478114D01*
X42525972Y-33480242D01*
X42520025Y-33482385D01*
X42514096Y-33484542D01*
X42508186Y-33486714D01*
X42502293Y-33488901D01*
X42496418Y-33491103D01*
X42490561Y-33493319D01*
X42484722Y-33495550D01*
X42478900Y-33497795D01*
X42473096Y-33500055D01*
X42467309Y-33502330D01*
X42461539Y-33504620D01*
X42455787Y-33506924D01*
X42450052Y-33509243D01*
X42444334Y-33511576D01*
X42438634Y-33513924D01*
X42432949Y-33516287D01*
X42427283Y-33518664D01*
X42421632Y-33521055D01*
X42416000Y-33523462D01*
X42410383Y-33525883D01*
X42404783Y-33528318D01*
X42399200Y-33530768D01*
X42393633Y-33533233D01*
X42388082Y-33535712D01*
X42382549Y-33538206D01*
X42377030Y-33540714D01*
X42371530Y-33543237D01*
X42366043Y-33545775D01*
X42360575Y-33548327D01*
X42355121Y-33550894D01*
X42349684Y-33553475D01*
X42344262Y-33556071D01*
X42338857Y-33558681D01*
X42333466Y-33561306D01*
X42328092Y-33563946D01*
X42322733Y-33566600D01*
X42317390Y-33569269D01*
X42312061Y-33571953D01*
X42306750Y-33574650D01*
X42301452Y-33577364D01*
X42296171Y-33580090D01*
X42285652Y-33585589D01*
X42275194Y-33591146D01*
X42264795Y-33596762D01*
X42254456Y-33602437D01*
X42244175Y-33608171D01*
X42233952Y-33613964D01*
X42223787Y-33619815D01*
X42213679Y-33625727D01*
X42203627Y-33631697D01*
X42193632Y-33637727D01*
X42183692Y-33643817D01*
X42173807Y-33649967D01*
X42163977Y-33656177D01*
X42154201Y-33662447D01*
X42144479Y-33668778D01*
X42134810Y-33675169D01*
X42125193Y-33681621D01*
X42115629Y-33688134D01*
X42106117Y-33694709D01*
X42096656Y-33701345D01*
X42087246Y-33708043D01*
X42077886Y-33714803D01*
X42068577Y-33721626D01*
X42059317Y-33728511D01*
X42050106Y-33735459D01*
X42040944Y-33742470D01*
X42031830Y-33749545D01*
X42022764Y-33756684D01*
X42013745Y-33763888D01*
X42004774Y-33771156D01*
X41995849Y-33778489D01*
X41986970Y-33785887D01*
X41978137Y-33793351D01*
X41969350Y-33800881D01*
X41960607Y-33808478D01*
X41951909Y-33816142D01*
X41943256Y-33823874D01*
X41934646Y-33831673D01*
X41926080Y-33839541D01*
X41917557Y-33847477D01*
X41909076Y-33855483D01*
X41900638Y-33863559D01*
X41892242Y-33871705D01*
X41883888Y-33879922D01*
X41875574Y-33888210D01*
X41867302Y-33896571D01*
X41859070Y-33905004D01*
X41850879Y-33913510D01*
X41842727Y-33922090D01*
X41834615Y-33930744D01*
X41826542Y-33939473D01*
X41818507Y-33948278D01*
X41810511Y-33957160D01*
X41802554Y-33966118D01*
X41794634Y-33975154D01*
X41786751Y-33984268D01*
X41778906Y-33993462D01*
X41771098Y-34002735D01*
X41763326Y-34012090D01*
X41755590Y-34021525D01*
X41747889Y-34031043D01*
X41740225Y-34040644D01*
X41732595Y-34050329D01*
X41725001Y-34060099D01*
X41717441Y-34069955D01*
X41709915Y-34079897D01*
X41702423Y-34089927D01*
X41694964Y-34100045D01*
X41687539Y-34110253D01*
X41680146Y-34120551D01*
X41672787Y-34130941D01*
X41665459Y-34141424D01*
X41658163Y-34152000D01*
X41650899Y-34162671D01*
X41643666Y-34173438D01*
X41636464Y-34184303D01*
X41629293Y-34195265D01*
X41622152Y-34206328D01*
X41615040Y-34217491D01*
X41607959Y-34228756D01*
X41600906Y-34240125D01*
X41593882Y-34251599D01*
X41586887Y-34263180D01*
X41579920Y-34274868D01*
X41572980Y-34286666D01*
X41566068Y-34298575D01*
X41559183Y-34310596D01*
X41552324Y-34322732D01*
X41545492Y-34334983D01*
X41538685Y-34347353D01*
X41531904Y-34359841D01*
X41525147Y-34372452D01*
X41518415Y-34385186D01*
X41511707Y-34398045D01*
X41505022Y-34411032D01*
X41498360Y-34424148D01*
X41491721Y-34437397D01*
X41485103Y-34450779D01*
X41478507Y-34464299D01*
X41471932Y-34477958D01*
X41465377Y-34491758D01*
X41458842Y-34505703D01*
X41452326Y-34519796D01*
X41445828Y-34534039D01*
X41439348Y-34548435D01*
X41432885Y-34562988D01*
X41426438Y-34577700D01*
X41420007Y-34592577D01*
X41413590Y-34607620D01*
X41407187Y-34622834D01*
X41400797Y-34638224D01*
X41394418Y-34653792D01*
X41388051Y-34669545D01*
X41381693Y-34685486D01*
X41375344Y-34701620D01*
X41369003Y-34717953D01*
X41362667Y-34734490D01*
X41356337Y-34751237D01*
X41350010Y-34768200D01*
X41343685Y-34785386D01*
X41337360Y-34802803D01*
X41331033Y-34820457D01*
X41324703Y-34838356D01*
X41318368Y-34856510D01*
X41312025Y-34874927D01*
X41305671Y-34893617D01*
X41299306Y-34912592D01*
X41292925Y-34931863D01*
X41286525Y-34951443D01*
X41280104Y-34971345D01*
X41273657Y-34991586D01*
X41267180Y-35012180D01*
X41260670Y-35033147D01*
X41254121Y-35054507D01*
X41247527Y-35076283D01*
X41240883Y-35098499D01*
X41234182Y-35121184D01*
X41227415Y-35144371D01*
X41220573Y-35168096D01*
X41213647Y-35192400D01*
X41206624Y-35217333D01*
X41199490Y-35242951D01*
X41192228Y-35269322D01*
X41184818Y-35296528D01*
X41177236Y-35324667D01*
X41169450Y-35353861D01*
X41161423Y-35384266D01*
X41153104Y-35416084D01*
X41144424Y-35449589D01*
X41135288Y-35485165D01*
X41125552Y-35523386D01*
X41114985Y-35565180D01*
X41103160Y-35612253D01*
X41089103Y-35668502D01*
X41076579Y-35718763D01*
D11*
X61018750Y-33337300D02*
X43457829Y-33337508D01*
X61614050Y-56256350D02*
G75*
G02*
X61018737Y-56851550I-595150J-50D01*
G01*
X41076579Y-35718763D02*
X36016150Y-55958700D01*
X36611450Y-56851650D02*
X61018737Y-56851650D01*
M02*
