%TF.GenerationSoftware,KiCad,Pcbnew,9.0.7*%
%TF.CreationDate,2026-03-01T08:55:19+09:00*%
%TF.ProjectId,Aida_Mid_Outside,41696461-5f4d-4696-945f-4f7574736964,rev?*%
%TF.SameCoordinates,Original*%
%TF.FileFunction,Legend,Top*%
%TF.FilePolarity,Positive*%
%FSLAX46Y46*%
G04 Gerber Fmt 4.6, Leading zero omitted, Abs format (unit mm)*
G04 Created by KiCad (PCBNEW 9.0.7) date 2026-03-01 08:55:19*
%MOMM*%
%LPD*%
G01*
G04 APERTURE LIST*
%ADD10C,0.225000*%
%ADD11C,0.150000*%
%ADD12C,0.120000*%
G04 APERTURE END LIST*
D10*
G36*
X46308419Y-37107362D02*
G01*
X46350339Y-37155270D01*
X46397704Y-37281575D01*
X46372077Y-37486588D01*
X46286658Y-37623257D01*
X46214457Y-37687437D01*
X46069769Y-37755526D01*
X45536640Y-37755526D01*
X45626372Y-37037669D01*
X46108052Y-37037669D01*
X46308419Y-37107362D01*
G37*
G36*
X46323809Y-36243317D02*
G01*
X46371768Y-36298127D01*
X46419133Y-36424432D01*
X46404220Y-36543731D01*
X46318800Y-36680402D01*
X46246602Y-36744578D01*
X46101911Y-36812669D01*
X45654497Y-36812669D01*
X45733515Y-36180526D01*
X46206077Y-36180526D01*
X46323809Y-36243317D01*
G37*
G36*
X47887396Y-37706894D02*
G01*
X47784055Y-37755526D01*
X47408755Y-37755526D01*
X47310337Y-37703036D01*
X47270698Y-37597333D01*
X47285611Y-37478034D01*
X47362057Y-37355722D01*
X47491492Y-37294812D01*
X47894916Y-37294812D01*
X47916864Y-37292650D01*
X47919351Y-37291619D01*
X47922039Y-37291493D01*
X47940125Y-37285061D01*
X47887396Y-37706894D01*
G37*
G36*
X43238094Y-36243317D02*
G01*
X43286053Y-36298127D01*
X43333418Y-36424432D01*
X43307791Y-36629445D01*
X43222372Y-36766114D01*
X43150171Y-36830294D01*
X43005483Y-36898383D01*
X42472354Y-36898383D01*
X42562086Y-36180526D01*
X43120362Y-36180526D01*
X43238094Y-36243317D01*
G37*
G36*
X51527781Y-38180526D02*
G01*
X41925565Y-38180526D01*
X41925565Y-37876119D01*
X42125565Y-37876119D01*
X42137203Y-37918443D01*
X42164151Y-37953091D01*
X42202309Y-37974790D01*
X42245866Y-37980234D01*
X42288190Y-37968596D01*
X42322838Y-37941648D01*
X42344537Y-37903490D01*
X42349404Y-37881980D01*
X42444229Y-37123383D01*
X42708403Y-37123383D01*
X43168817Y-37924104D01*
X43181632Y-37942053D01*
X43216409Y-37968837D01*
X43258788Y-37980272D01*
X43302318Y-37974619D01*
X43340371Y-37952739D01*
X43367155Y-37917961D01*
X43378445Y-37876119D01*
X45296994Y-37876119D01*
X45298864Y-37882919D01*
X45298864Y-37889974D01*
X45304634Y-37903905D01*
X45308632Y-37918443D01*
X45312962Y-37924010D01*
X45315662Y-37930528D01*
X45326323Y-37941189D01*
X45335580Y-37953091D01*
X45341712Y-37956578D01*
X45346700Y-37961566D01*
X45360630Y-37967336D01*
X45373738Y-37974790D01*
X45380737Y-37975664D01*
X45387254Y-37978364D01*
X45409202Y-37980526D01*
X46094916Y-37980526D01*
X46116864Y-37978364D01*
X46119351Y-37977333D01*
X46122038Y-37977207D01*
X46142818Y-37969818D01*
X46324961Y-37884104D01*
X46331449Y-37880231D01*
X46333960Y-37879361D01*
X46338782Y-37875856D01*
X46343899Y-37872803D01*
X46345685Y-37870839D01*
X46351801Y-37866395D01*
X46448228Y-37780680D01*
X46453275Y-37775218D01*
X46455421Y-37773688D01*
X46459103Y-37768911D01*
X46463196Y-37764483D01*
X46464344Y-37762113D01*
X46468887Y-37756222D01*
X46554666Y-37618976D01*
X47043422Y-37618976D01*
X47044785Y-37623934D01*
X47044611Y-37629075D01*
X47050293Y-37650384D01*
X47114579Y-37821813D01*
X47119889Y-37832614D01*
X47120748Y-37835435D01*
X47122062Y-37837033D01*
X47124310Y-37841605D01*
X47136898Y-37855078D01*
X47148626Y-37869341D01*
X47152870Y-37872171D01*
X47154278Y-37873678D01*
X47156953Y-37874894D01*
X47166975Y-37881577D01*
X47327688Y-37967291D01*
X47348072Y-37975711D01*
X47353572Y-37976247D01*
X47358682Y-37978364D01*
X47380630Y-37980526D01*
X47809202Y-37980526D01*
X47831150Y-37978364D01*
X47833637Y-37977333D01*
X47836324Y-37977207D01*
X47857104Y-37969818D01*
X47903160Y-37948144D01*
X47907008Y-37953091D01*
X47945166Y-37974790D01*
X47988723Y-37980234D01*
X48031047Y-37968596D01*
X48065695Y-37941648D01*
X48087394Y-37903490D01*
X48092261Y-37881980D01*
X48135851Y-37533262D01*
X48682708Y-37533262D01*
X48684071Y-37538220D01*
X48683897Y-37543360D01*
X48689579Y-37564670D01*
X48753864Y-37736098D01*
X48760972Y-37750555D01*
X48761710Y-37752737D01*
X48762782Y-37754236D01*
X48763595Y-37755890D01*
X48765166Y-37757571D01*
X48774536Y-37770678D01*
X48849536Y-37856393D01*
X48861498Y-37867622D01*
X48862912Y-37869341D01*
X48864354Y-37870303D01*
X48865616Y-37871487D01*
X48867604Y-37872470D01*
X48881260Y-37881577D01*
X49041975Y-37967291D01*
X49062358Y-37975711D01*
X49067858Y-37976247D01*
X49072968Y-37978364D01*
X49094916Y-37980526D01*
X49437773Y-37980526D01*
X49459721Y-37978364D01*
X49462208Y-37977333D01*
X49464895Y-37977207D01*
X49485675Y-37969818D01*
X49667818Y-37884104D01*
X49681199Y-37876119D01*
X50268422Y-37876119D01*
X50280060Y-37918443D01*
X50307008Y-37953091D01*
X50345166Y-37974790D01*
X50388723Y-37980234D01*
X50431047Y-37968596D01*
X50465695Y-37941648D01*
X50487394Y-37903490D01*
X50492261Y-37881980D01*
X50551296Y-37409699D01*
X50612964Y-37354883D01*
X50970944Y-37927650D01*
X50984410Y-37945116D01*
X51020148Y-37970603D01*
X51062918Y-37980473D01*
X51106211Y-37973224D01*
X51143435Y-37949960D01*
X51168921Y-37914221D01*
X51178791Y-37871451D01*
X51171543Y-37828158D01*
X51161744Y-37808401D01*
X50783534Y-37203265D01*
X51291085Y-36752109D01*
X51306053Y-36735912D01*
X51325203Y-36696415D01*
X51327781Y-36652596D01*
X51313393Y-36611125D01*
X51284230Y-36578317D01*
X51244733Y-36559167D01*
X51200914Y-36556589D01*
X51159444Y-36570977D01*
X51141603Y-36583942D01*
X50593629Y-37071028D01*
X50717261Y-36081980D01*
X50717838Y-36059933D01*
X50706200Y-36017609D01*
X50679252Y-35982961D01*
X50641094Y-35961262D01*
X50597537Y-35955818D01*
X50555213Y-35967456D01*
X50520565Y-35994404D01*
X50498866Y-36032562D01*
X50493999Y-36054072D01*
X50268999Y-37854072D01*
X50268422Y-37876119D01*
X49681199Y-37876119D01*
X49686756Y-37872803D01*
X49716298Y-37840336D01*
X49731166Y-37799036D01*
X49729097Y-37755190D01*
X49710406Y-37715472D01*
X49677940Y-37685930D01*
X49636640Y-37671062D01*
X49592793Y-37673131D01*
X49572014Y-37680520D01*
X49412626Y-37755526D01*
X49123041Y-37755526D01*
X49005307Y-37692734D01*
X48957349Y-37637925D01*
X48909984Y-37511619D01*
X48967753Y-37049463D01*
X49053172Y-36912793D01*
X49125372Y-36848615D01*
X49270063Y-36780526D01*
X49559648Y-36780526D01*
X49695545Y-36853005D01*
X49715929Y-36861425D01*
X49759617Y-36865688D01*
X49801609Y-36852907D01*
X49835515Y-36825029D01*
X49856172Y-36786298D01*
X49860435Y-36742610D01*
X49847654Y-36700617D01*
X49819776Y-36666711D01*
X49801428Y-36654475D01*
X49640714Y-36568761D01*
X49620331Y-36560340D01*
X49614827Y-36559803D01*
X49609721Y-36557688D01*
X49587773Y-36555526D01*
X49244916Y-36555526D01*
X49222968Y-36557688D01*
X49220480Y-36558718D01*
X49217793Y-36558845D01*
X49197014Y-36566234D01*
X49014871Y-36651948D01*
X49008380Y-36655820D01*
X49005873Y-36656691D01*
X49001052Y-36660193D01*
X48995933Y-36663249D01*
X48994145Y-36665213D01*
X48988032Y-36669656D01*
X48891603Y-36755370D01*
X48886553Y-36760834D01*
X48884410Y-36762363D01*
X48880728Y-36767138D01*
X48876636Y-36771567D01*
X48875487Y-36773936D01*
X48870944Y-36779829D01*
X48763801Y-36951258D01*
X48754002Y-36971016D01*
X48753610Y-36973355D01*
X48752437Y-36975419D01*
X48747570Y-36996929D01*
X48683285Y-37511215D01*
X48682708Y-37533262D01*
X48135851Y-37533262D01*
X48210118Y-36939122D01*
X48210695Y-36917076D01*
X48209331Y-36912117D01*
X48209506Y-36906978D01*
X48203824Y-36885668D01*
X48139539Y-36714239D01*
X48134226Y-36703434D01*
X48133369Y-36700617D01*
X48132056Y-36699020D01*
X48129808Y-36694448D01*
X48117211Y-36680966D01*
X48105491Y-36666711D01*
X48101251Y-36663883D01*
X48099841Y-36662374D01*
X48097160Y-36661155D01*
X48087143Y-36654475D01*
X47926428Y-36568761D01*
X47906045Y-36560340D01*
X47900541Y-36559803D01*
X47895435Y-36557688D01*
X47873487Y-36555526D01*
X47530630Y-36555526D01*
X47508682Y-36557688D01*
X47506194Y-36558718D01*
X47503507Y-36558845D01*
X47482728Y-36566234D01*
X47300585Y-36651948D01*
X47281647Y-36663249D01*
X47252105Y-36695716D01*
X47237237Y-36737016D01*
X47239306Y-36780862D01*
X47257996Y-36820580D01*
X47290463Y-36850122D01*
X47331763Y-36864990D01*
X47375609Y-36862921D01*
X47396389Y-36855532D01*
X47555777Y-36780526D01*
X47845362Y-36780526D01*
X47943780Y-36833015D01*
X47983418Y-36938717D01*
X47973110Y-37021180D01*
X47869768Y-37069812D01*
X47466345Y-37069812D01*
X47444397Y-37071974D01*
X47441909Y-37073004D01*
X47439222Y-37073131D01*
X47418443Y-37080520D01*
X47236300Y-37166234D01*
X47217362Y-37177535D01*
X47210531Y-37185041D01*
X47202268Y-37190935D01*
X47188802Y-37208401D01*
X47081659Y-37379829D01*
X47071860Y-37399587D01*
X47071468Y-37401926D01*
X47070295Y-37403990D01*
X47065428Y-37425500D01*
X47043999Y-37596929D01*
X47043422Y-37618976D01*
X46554666Y-37618976D01*
X46576030Y-37584794D01*
X46585829Y-37565037D01*
X46586221Y-37562695D01*
X46587394Y-37560633D01*
X46592261Y-37539123D01*
X46624404Y-37281980D01*
X46624981Y-37259933D01*
X46623617Y-37254974D01*
X46623792Y-37249834D01*
X46618110Y-37228524D01*
X46553824Y-37057096D01*
X46546713Y-37042634D01*
X46545977Y-37040456D01*
X46544906Y-37038958D01*
X46544093Y-37037304D01*
X46542521Y-37035622D01*
X46533152Y-37022515D01*
X46458152Y-36936801D01*
X46442072Y-36921707D01*
X46435740Y-36918575D01*
X46430465Y-36913879D01*
X46410445Y-36904627D01*
X46406687Y-36903319D01*
X46480371Y-36837824D01*
X46485419Y-36832360D01*
X46487564Y-36830831D01*
X46491249Y-36826050D01*
X46495338Y-36821626D01*
X46496485Y-36819259D01*
X46501030Y-36813365D01*
X46608173Y-36641937D01*
X46617972Y-36622180D01*
X46618364Y-36619838D01*
X46619537Y-36617776D01*
X46624404Y-36596266D01*
X46645833Y-36424837D01*
X46646410Y-36402791D01*
X46645046Y-36397832D01*
X46645221Y-36392691D01*
X46639539Y-36371381D01*
X46575253Y-36199953D01*
X46568142Y-36185491D01*
X46567406Y-36183313D01*
X46566335Y-36181815D01*
X46565522Y-36180161D01*
X46563950Y-36178479D01*
X46554581Y-36165372D01*
X46479581Y-36079658D01*
X46467614Y-36068425D01*
X46466205Y-36066711D01*
X46464765Y-36065751D01*
X46463501Y-36064564D01*
X46461506Y-36063577D01*
X46447857Y-36054475D01*
X46287143Y-35968761D01*
X46266760Y-35960340D01*
X46261256Y-35959803D01*
X46256150Y-35957688D01*
X46234202Y-35955526D01*
X45634202Y-35955526D01*
X45628369Y-35956100D01*
X45626109Y-35955818D01*
X45623246Y-35956605D01*
X45612254Y-35957688D01*
X45598322Y-35963458D01*
X45583785Y-35967456D01*
X45578217Y-35971786D01*
X45571700Y-35974486D01*
X45561038Y-35985147D01*
X45549137Y-35994404D01*
X45545649Y-36000536D01*
X45540662Y-36005524D01*
X45534891Y-36019454D01*
X45527438Y-36032562D01*
X45525000Y-36043333D01*
X45523864Y-36046078D01*
X45523864Y-36048357D01*
X45522571Y-36054072D01*
X45297571Y-37854072D01*
X45296994Y-37876119D01*
X43378445Y-37876119D01*
X43378590Y-37875583D01*
X43372937Y-37832053D01*
X43363871Y-37811948D01*
X42967946Y-37123383D01*
X43030630Y-37123383D01*
X43052578Y-37121221D01*
X43055065Y-37120190D01*
X43057752Y-37120064D01*
X43078532Y-37112675D01*
X43260675Y-37026961D01*
X43267163Y-37023088D01*
X43269674Y-37022218D01*
X43274496Y-37018713D01*
X43279613Y-37015660D01*
X43281399Y-37013696D01*
X43287515Y-37009252D01*
X43383942Y-36923537D01*
X43388989Y-36918075D01*
X43391135Y-36916545D01*
X43394817Y-36911768D01*
X43398910Y-36907340D01*
X43400058Y-36904970D01*
X43404601Y-36899079D01*
X43511744Y-36727651D01*
X43521543Y-36707894D01*
X43521935Y-36705552D01*
X43523108Y-36703490D01*
X43527975Y-36681980D01*
X43560118Y-36424837D01*
X43560695Y-36402790D01*
X43559331Y-36397831D01*
X43559506Y-36392691D01*
X43553824Y-36371381D01*
X43489538Y-36199953D01*
X43482427Y-36185491D01*
X43481691Y-36183313D01*
X43480620Y-36181815D01*
X43479807Y-36180161D01*
X43478235Y-36178479D01*
X43468866Y-36165372D01*
X43393866Y-36079658D01*
X43381899Y-36068425D01*
X43380490Y-36066711D01*
X43379050Y-36065751D01*
X43377786Y-36064564D01*
X43375791Y-36063577D01*
X43362142Y-36054475D01*
X43201428Y-35968761D01*
X43181045Y-35960340D01*
X43175541Y-35959803D01*
X43170435Y-35957688D01*
X43148487Y-35955526D01*
X42462773Y-35955526D01*
X42456940Y-35956100D01*
X42454680Y-35955818D01*
X42451817Y-35956605D01*
X42440825Y-35957688D01*
X42426893Y-35963458D01*
X42412356Y-35967456D01*
X42406788Y-35971786D01*
X42400271Y-35974486D01*
X42389609Y-35985147D01*
X42377708Y-35994404D01*
X42374220Y-36000536D01*
X42369233Y-36005524D01*
X42363462Y-36019454D01*
X42356009Y-36032562D01*
X42353571Y-36043333D01*
X42352435Y-36046078D01*
X42352435Y-36048357D01*
X42351142Y-36054072D01*
X42126142Y-37854072D01*
X42125565Y-37876119D01*
X41925565Y-37876119D01*
X41925565Y-35755526D01*
X51527781Y-35755526D01*
X51527781Y-38180526D01*
G37*
D11*
X52816245Y-37926511D02*
X52721007Y-37878892D01*
X52721007Y-37878892D02*
X52578150Y-37878892D01*
X52578150Y-37878892D02*
X52435293Y-37926511D01*
X52435293Y-37926511D02*
X52340055Y-38021749D01*
X52340055Y-38021749D02*
X52292436Y-38116987D01*
X52292436Y-38116987D02*
X52244817Y-38307463D01*
X52244817Y-38307463D02*
X52244817Y-38450320D01*
X52244817Y-38450320D02*
X52292436Y-38640796D01*
X52292436Y-38640796D02*
X52340055Y-38736034D01*
X52340055Y-38736034D02*
X52435293Y-38831273D01*
X52435293Y-38831273D02*
X52578150Y-38878892D01*
X52578150Y-38878892D02*
X52673388Y-38878892D01*
X52673388Y-38878892D02*
X52816245Y-38831273D01*
X52816245Y-38831273D02*
X52863864Y-38783653D01*
X52863864Y-38783653D02*
X52863864Y-38450320D01*
X52863864Y-38450320D02*
X52673388Y-38450320D01*
X53292436Y-38878892D02*
X53292436Y-37878892D01*
X53292436Y-37878892D02*
X53863864Y-38878892D01*
X53863864Y-38878892D02*
X53863864Y-37878892D01*
X54340055Y-38878892D02*
X54340055Y-37878892D01*
X54340055Y-37878892D02*
X54578150Y-37878892D01*
X54578150Y-37878892D02*
X54721007Y-37926511D01*
X54721007Y-37926511D02*
X54816245Y-38021749D01*
X54816245Y-38021749D02*
X54863864Y-38116987D01*
X54863864Y-38116987D02*
X54911483Y-38307463D01*
X54911483Y-38307463D02*
X54911483Y-38450320D01*
X54911483Y-38450320D02*
X54863864Y-38640796D01*
X54863864Y-38640796D02*
X54816245Y-38736034D01*
X54816245Y-38736034D02*
X54721007Y-38831273D01*
X54721007Y-38831273D02*
X54578150Y-38878892D01*
X54578150Y-38878892D02*
X54340055Y-38878892D01*
X40052916Y-50365852D02*
X40005297Y-50413472D01*
X40005297Y-50413472D02*
X39862440Y-50461091D01*
X39862440Y-50461091D02*
X39767202Y-50461091D01*
X39767202Y-50461091D02*
X39624345Y-50413472D01*
X39624345Y-50413472D02*
X39529107Y-50318233D01*
X39529107Y-50318233D02*
X39481488Y-50222995D01*
X39481488Y-50222995D02*
X39433869Y-50032519D01*
X39433869Y-50032519D02*
X39433869Y-49889662D01*
X39433869Y-49889662D02*
X39481488Y-49699186D01*
X39481488Y-49699186D02*
X39529107Y-49603948D01*
X39529107Y-49603948D02*
X39624345Y-49508710D01*
X39624345Y-49508710D02*
X39767202Y-49461091D01*
X39767202Y-49461091D02*
X39862440Y-49461091D01*
X39862440Y-49461091D02*
X40005297Y-49508710D01*
X40005297Y-49508710D02*
X40052916Y-49556329D01*
X40671964Y-49461091D02*
X40862440Y-49461091D01*
X40862440Y-49461091D02*
X40957678Y-49508710D01*
X40957678Y-49508710D02*
X41052916Y-49603948D01*
X41052916Y-49603948D02*
X41100535Y-49794424D01*
X41100535Y-49794424D02*
X41100535Y-50127757D01*
X41100535Y-50127757D02*
X41052916Y-50318233D01*
X41052916Y-50318233D02*
X40957678Y-50413472D01*
X40957678Y-50413472D02*
X40862440Y-50461091D01*
X40862440Y-50461091D02*
X40671964Y-50461091D01*
X40671964Y-50461091D02*
X40576726Y-50413472D01*
X40576726Y-50413472D02*
X40481488Y-50318233D01*
X40481488Y-50318233D02*
X40433869Y-50127757D01*
X40433869Y-50127757D02*
X40433869Y-49794424D01*
X40433869Y-49794424D02*
X40481488Y-49603948D01*
X40481488Y-49603948D02*
X40576726Y-49508710D01*
X40576726Y-49508710D02*
X40671964Y-49461091D01*
X42005297Y-50461091D02*
X41529107Y-50461091D01*
X41529107Y-50461091D02*
X41529107Y-49461091D01*
X42529107Y-49461091D02*
X42624345Y-49461091D01*
X42624345Y-49461091D02*
X42719583Y-49508710D01*
X42719583Y-49508710D02*
X42767202Y-49556329D01*
X42767202Y-49556329D02*
X42814821Y-49651567D01*
X42814821Y-49651567D02*
X42862440Y-49842043D01*
X42862440Y-49842043D02*
X42862440Y-50080138D01*
X42862440Y-50080138D02*
X42814821Y-50270614D01*
X42814821Y-50270614D02*
X42767202Y-50365852D01*
X42767202Y-50365852D02*
X42719583Y-50413472D01*
X42719583Y-50413472D02*
X42624345Y-50461091D01*
X42624345Y-50461091D02*
X42529107Y-50461091D01*
X42529107Y-50461091D02*
X42433869Y-50413472D01*
X42433869Y-50413472D02*
X42386250Y-50365852D01*
X42386250Y-50365852D02*
X42338631Y-50270614D01*
X42338631Y-50270614D02*
X42291012Y-50080138D01*
X42291012Y-50080138D02*
X42291012Y-49842043D01*
X42291012Y-49842043D02*
X42338631Y-49651567D01*
X42338631Y-49651567D02*
X42386250Y-49556329D01*
X42386250Y-49556329D02*
X42433869Y-49508710D01*
X42433869Y-49508710D02*
X42529107Y-49461091D01*
X43052917Y-50556329D02*
X43814821Y-50556329D01*
X43910060Y-49794424D02*
X44291012Y-49794424D01*
X44052917Y-49461091D02*
X44052917Y-50318233D01*
X44052917Y-50318233D02*
X44100536Y-50413472D01*
X44100536Y-50413472D02*
X44195774Y-50461091D01*
X44195774Y-50461091D02*
X44291012Y-50461091D01*
X44767203Y-50461091D02*
X44671965Y-50413472D01*
X44671965Y-50413472D02*
X44624346Y-50365852D01*
X44624346Y-50365852D02*
X44576727Y-50270614D01*
X44576727Y-50270614D02*
X44576727Y-49984900D01*
X44576727Y-49984900D02*
X44624346Y-49889662D01*
X44624346Y-49889662D02*
X44671965Y-49842043D01*
X44671965Y-49842043D02*
X44767203Y-49794424D01*
X44767203Y-49794424D02*
X44910060Y-49794424D01*
X44910060Y-49794424D02*
X45005298Y-49842043D01*
X45005298Y-49842043D02*
X45052917Y-49889662D01*
X45052917Y-49889662D02*
X45100536Y-49984900D01*
X45100536Y-49984900D02*
X45100536Y-50270614D01*
X45100536Y-50270614D02*
X45052917Y-50365852D01*
X45052917Y-50365852D02*
X45005298Y-50413472D01*
X45005298Y-50413472D02*
X44910060Y-50461091D01*
X44910060Y-50461091D02*
X44767203Y-50461091D01*
X47411108Y-40245531D02*
X47363489Y-40293151D01*
X47363489Y-40293151D02*
X47220632Y-40340770D01*
X47220632Y-40340770D02*
X47125394Y-40340770D01*
X47125394Y-40340770D02*
X46982537Y-40293151D01*
X46982537Y-40293151D02*
X46887299Y-40197912D01*
X46887299Y-40197912D02*
X46839680Y-40102674D01*
X46839680Y-40102674D02*
X46792061Y-39912198D01*
X46792061Y-39912198D02*
X46792061Y-39769341D01*
X46792061Y-39769341D02*
X46839680Y-39578865D01*
X46839680Y-39578865D02*
X46887299Y-39483627D01*
X46887299Y-39483627D02*
X46982537Y-39388389D01*
X46982537Y-39388389D02*
X47125394Y-39340770D01*
X47125394Y-39340770D02*
X47220632Y-39340770D01*
X47220632Y-39340770D02*
X47363489Y-39388389D01*
X47363489Y-39388389D02*
X47411108Y-39436008D01*
X48030156Y-39340770D02*
X48220632Y-39340770D01*
X48220632Y-39340770D02*
X48315870Y-39388389D01*
X48315870Y-39388389D02*
X48411108Y-39483627D01*
X48411108Y-39483627D02*
X48458727Y-39674103D01*
X48458727Y-39674103D02*
X48458727Y-40007436D01*
X48458727Y-40007436D02*
X48411108Y-40197912D01*
X48411108Y-40197912D02*
X48315870Y-40293151D01*
X48315870Y-40293151D02*
X48220632Y-40340770D01*
X48220632Y-40340770D02*
X48030156Y-40340770D01*
X48030156Y-40340770D02*
X47934918Y-40293151D01*
X47934918Y-40293151D02*
X47839680Y-40197912D01*
X47839680Y-40197912D02*
X47792061Y-40007436D01*
X47792061Y-40007436D02*
X47792061Y-39674103D01*
X47792061Y-39674103D02*
X47839680Y-39483627D01*
X47839680Y-39483627D02*
X47934918Y-39388389D01*
X47934918Y-39388389D02*
X48030156Y-39340770D01*
X49363489Y-40340770D02*
X48887299Y-40340770D01*
X48887299Y-40340770D02*
X48887299Y-39340770D01*
X49887299Y-39340770D02*
X49982537Y-39340770D01*
X49982537Y-39340770D02*
X50077775Y-39388389D01*
X50077775Y-39388389D02*
X50125394Y-39436008D01*
X50125394Y-39436008D02*
X50173013Y-39531246D01*
X50173013Y-39531246D02*
X50220632Y-39721722D01*
X50220632Y-39721722D02*
X50220632Y-39959817D01*
X50220632Y-39959817D02*
X50173013Y-40150293D01*
X50173013Y-40150293D02*
X50125394Y-40245531D01*
X50125394Y-40245531D02*
X50077775Y-40293151D01*
X50077775Y-40293151D02*
X49982537Y-40340770D01*
X49982537Y-40340770D02*
X49887299Y-40340770D01*
X49887299Y-40340770D02*
X49792061Y-40293151D01*
X49792061Y-40293151D02*
X49744442Y-40245531D01*
X49744442Y-40245531D02*
X49696823Y-40150293D01*
X49696823Y-40150293D02*
X49649204Y-39959817D01*
X49649204Y-39959817D02*
X49649204Y-39721722D01*
X49649204Y-39721722D02*
X49696823Y-39531246D01*
X49696823Y-39531246D02*
X49744442Y-39436008D01*
X49744442Y-39436008D02*
X49792061Y-39388389D01*
X49792061Y-39388389D02*
X49887299Y-39340770D01*
X50411109Y-40436008D02*
X51173013Y-40436008D01*
X51268252Y-39674103D02*
X51649204Y-39674103D01*
X51411109Y-40340770D02*
X51411109Y-39483627D01*
X51411109Y-39483627D02*
X51458728Y-39388389D01*
X51458728Y-39388389D02*
X51553966Y-39340770D01*
X51553966Y-39340770D02*
X51649204Y-39340770D01*
X51982538Y-40340770D02*
X51982538Y-39674103D01*
X51982538Y-39864579D02*
X52030157Y-39769341D01*
X52030157Y-39769341D02*
X52077776Y-39721722D01*
X52077776Y-39721722D02*
X52173014Y-39674103D01*
X52173014Y-39674103D02*
X52268252Y-39674103D01*
X52744443Y-40340770D02*
X52649205Y-40293151D01*
X52649205Y-40293151D02*
X52601586Y-40245531D01*
X52601586Y-40245531D02*
X52553967Y-40150293D01*
X52553967Y-40150293D02*
X52553967Y-39864579D01*
X52553967Y-39864579D02*
X52601586Y-39769341D01*
X52601586Y-39769341D02*
X52649205Y-39721722D01*
X52649205Y-39721722D02*
X52744443Y-39674103D01*
X52744443Y-39674103D02*
X52887300Y-39674103D01*
X52887300Y-39674103D02*
X52982538Y-39721722D01*
X52982538Y-39721722D02*
X53030157Y-39769341D01*
X53030157Y-39769341D02*
X53077776Y-39864579D01*
X53077776Y-39864579D02*
X53077776Y-40150293D01*
X53077776Y-40150293D02*
X53030157Y-40245531D01*
X53030157Y-40245531D02*
X52982538Y-40293151D01*
X52982538Y-40293151D02*
X52887300Y-40340770D01*
X52887300Y-40340770D02*
X52744443Y-40340770D01*
X53506348Y-40340770D02*
X53506348Y-39674103D01*
X53506348Y-39769341D02*
X53553967Y-39721722D01*
X53553967Y-39721722D02*
X53649205Y-39674103D01*
X53649205Y-39674103D02*
X53792062Y-39674103D01*
X53792062Y-39674103D02*
X53887300Y-39721722D01*
X53887300Y-39721722D02*
X53934919Y-39816960D01*
X53934919Y-39816960D02*
X53934919Y-40340770D01*
X53934919Y-39816960D02*
X53982538Y-39721722D01*
X53982538Y-39721722D02*
X54077776Y-39674103D01*
X54077776Y-39674103D02*
X54220633Y-39674103D01*
X54220633Y-39674103D02*
X54315872Y-39721722D01*
X54315872Y-39721722D02*
X54363491Y-39816960D01*
X54363491Y-39816960D02*
X54363491Y-40340770D01*
D12*
%TO.C,TP3*%
X52468150Y-35204073D02*
X53578150Y-35204073D01*
X52468150Y-36314073D02*
X52468150Y-35204073D01*
X52468150Y-37314073D02*
X52468150Y-37424073D01*
X52468150Y-37314073D02*
X54688150Y-37314073D01*
X52468150Y-37424073D02*
X54688150Y-37424073D01*
X54688150Y-37314073D02*
X54688150Y-37424073D01*
%TO.C,TP2*%
X42943142Y-46515020D02*
X44053142Y-46515020D01*
X42943142Y-47625020D02*
X42943142Y-46515020D01*
X42943142Y-48625020D02*
X42943142Y-48735020D01*
X42943142Y-48625020D02*
X45163142Y-48625020D01*
X42943142Y-48735020D02*
X45163142Y-48735020D01*
X45163142Y-48625020D02*
X45163142Y-48735020D01*
%TO.C,TP1*%
X44729081Y-38775951D02*
X45839081Y-38775951D01*
X44729081Y-39885951D02*
X44729081Y-38775951D01*
X44729081Y-40885951D02*
X44729081Y-40995951D01*
X44729081Y-40885951D02*
X46949081Y-40885951D01*
X44729081Y-40995951D02*
X46949081Y-40995951D01*
X46949081Y-40885951D02*
X46949081Y-40995951D01*
D11*
%TO.C,SW_RIGHT1*%
X50387500Y-51825000D02*
X50887500Y-51325000D01*
X50387500Y-55325000D02*
X50887500Y-55825000D01*
X50887500Y-51325000D02*
X53387500Y-51325000D01*
X50887500Y-55825000D02*
X53887500Y-55825000D01*
X53887500Y-55825000D02*
X54387500Y-55325000D01*
X54387500Y-54325000D02*
X54387500Y-55325000D01*
X54887500Y-49125000D02*
X59387500Y-49125000D01*
X54887500Y-49825000D02*
X54887500Y-49125000D01*
X59387500Y-49125000D02*
X59387500Y-49525000D01*
X59387500Y-53325000D02*
X59387500Y-53825000D01*
X59387500Y-53825000D02*
X54887500Y-53825000D01*
X54387500Y-54325000D02*
G75*
G02*
X54887500Y-53825000I500001J-1D01*
G01*
X54887500Y-49825000D02*
G75*
G02*
X53387500Y-51325000I-1500001J1D01*
G01*
%TD*%
M02*
