%TF.GenerationSoftware,KiCad,Pcbnew,9.0.7*%
%TF.CreationDate,2026-03-01T08:55:44+09:00*%
%TF.ProjectId,Aida_Top,41696461-5f54-46f7-902e-6b696361645f,rev?*%
%TF.SameCoordinates,Original*%
%TF.FileFunction,Copper,L2,Bot*%
%TF.FilePolarity,Positive*%
%FSLAX46Y46*%
G04 Gerber Fmt 4.6, Leading zero omitted, Abs format (unit mm)*
G04 Created by KiCad (PCBNEW 9.0.7) date 2026-03-01 08:55:44*
%MOMM*%
%LPD*%
G01*
G04 APERTURE LIST*
G04 Aperture macros list*
%AMFreePoly0*
4,1,18,0.642426,1.729926,0.649923,1.720782,0.894077,1.354550,1.352962,1.016424,1.793974,0.869421,1.828666,0.839333,1.835000,0.812500,1.835000,-0.912500,1.817426,-0.954926,1.775000,-0.972500,-0.825000,-0.972500,-0.867426,-0.954926,-0.885000,-0.912500,-0.885000,1.687500,-0.867426,1.729926,-0.825000,1.747500,0.600000,1.747500,0.642426,1.729926,0.642426,1.729926,$1*%
G04 Aperture macros list end*
%TA.AperFunction,ComponentPad*%
%ADD10R,1.350000X1.350000*%
%TD*%
%TA.AperFunction,ComponentPad*%
%ADD11C,4.400000*%
%TD*%
%TA.AperFunction,SMDPad,CuDef*%
%ADD12FreePoly0,0.000000*%
%TD*%
%TA.AperFunction,ComponentPad*%
%ADD13C,0.800000*%
%TD*%
%TA.AperFunction,SMDPad,CuDef*%
%ADD14R,1.625000X3.600000*%
%TD*%
%TA.AperFunction,ConnectorPad*%
%ADD15C,4.400000*%
%TD*%
%TA.AperFunction,ComponentPad*%
%ADD16C,5.500000*%
%TD*%
%TA.AperFunction,ViaPad*%
%ADD17C,0.600000*%
%TD*%
%TA.AperFunction,Conductor*%
%ADD18C,0.381000*%
%TD*%
G04 APERTURE END LIST*
D10*
%TO.P,TP2,1,1*%
%TO.N,COL_4_from_Mid*%
X142875100Y-52387524D03*
%TD*%
D11*
%TO.P,H3,1,1*%
%TO.N,COL_4_to_Base_via_Mid*%
X139303222Y-36314073D03*
%TD*%
D10*
%TO.P,TP3,1,1*%
%TO.N,COL_4_to_Base_via_Mid*%
X144065726Y-36314073D03*
%TD*%
D12*
%TO.P,SW_LEFT1,1,1*%
%TO.N,COL_4_from_Mid*%
X131387500Y-53962500D03*
D13*
%TO.P,SW_LEFT1,2,2*%
%TO.N,COL_4_to_Base_via_Mid*%
X120387500Y-50025000D03*
X120387500Y-52825000D03*
D14*
X120800000Y-51425000D03*
%TD*%
D15*
%TO.P,H1,1,1*%
%TO.N,GND*%
X123825084Y-36314073D03*
D16*
X123825084Y-36314073D03*
%TD*%
D15*
%TO.P,H2,1,1*%
%TO.N,COL_4_from_Mid*%
X147637604Y-52387524D03*
D16*
X147637604Y-52387524D03*
%TD*%
D10*
%TO.P,TP1,1,1*%
%TO.N,GND*%
X128587588Y-36314073D03*
%TD*%
D17*
%TO.N,GND*%
X149412500Y-48812500D03*
X135212500Y-55812500D03*
X120612500Y-48612500D03*
X120612500Y-34212500D03*
X149412500Y-55812500D03*
X149012500Y-35012500D03*
X136612500Y-34212500D03*
X138412500Y-44812500D03*
X142012500Y-34212500D03*
X135212500Y-44812500D03*
X120612500Y-55812500D03*
%TO.N,COL_4_from_Mid*%
X127562500Y-51562500D03*
%TO.N,COL_4_to_Base_via_Mid*%
X136812500Y-48934278D03*
%TD*%
D18*
%TO.N,COL_4_from_Mid*%
X142875100Y-52387524D02*
X147637604Y-52387524D01*
X135337540Y-52387524D02*
X142875100Y-52387524D01*
X131598463Y-54173463D02*
X131387500Y-53962500D01*
X133762564Y-53962500D02*
X135337540Y-52387524D01*
X131387500Y-53629304D02*
X129320696Y-51562500D01*
X131387500Y-53962500D02*
X131387500Y-53629304D01*
X129320696Y-51562500D02*
X127562500Y-51562500D01*
X131387500Y-53962500D02*
X133762564Y-53962500D01*
%TO.N,COL_4_to_Base_via_Mid*%
X127369091Y-50566500D02*
X131650304Y-50566500D01*
X133282526Y-48934278D02*
X136812500Y-48934278D01*
X139303222Y-36314073D02*
X144065726Y-36314073D01*
X122783304Y-49433500D02*
X126236091Y-49433500D01*
X121646000Y-50579000D02*
X121646000Y-50570804D01*
X120800000Y-50437500D02*
X120800000Y-51425000D01*
X126236091Y-49433500D02*
X127369091Y-50566500D01*
X121646000Y-50570804D02*
X122783304Y-49433500D01*
X120800000Y-51425000D02*
X121646000Y-50579000D01*
X120387500Y-50025000D02*
X120800000Y-50437500D01*
X131650304Y-50566500D02*
X133282526Y-48934278D01*
%TD*%
%TA.AperFunction,Conductor*%
%TO.N,GND*%
G36*
X125965546Y-50144185D02*
G01*
X125986188Y-50160819D01*
X126424492Y-50599123D01*
X126843466Y-51018096D01*
X126876951Y-51079419D01*
X126871967Y-51149110D01*
X126858890Y-51174664D01*
X126853109Y-51183316D01*
X126853102Y-51183328D01*
X126792764Y-51328998D01*
X126792761Y-51329010D01*
X126762000Y-51483653D01*
X126762000Y-51641346D01*
X126792761Y-51795989D01*
X126792764Y-51796001D01*
X126853102Y-51941672D01*
X126853109Y-51941685D01*
X126940710Y-52072788D01*
X126940713Y-52072792D01*
X127052207Y-52184286D01*
X127052211Y-52184289D01*
X127183314Y-52271890D01*
X127183317Y-52271891D01*
X127183321Y-52271894D01*
X127183953Y-52272155D01*
X127183980Y-52272167D01*
X127184271Y-52272401D01*
X127188691Y-52274764D01*
X127188243Y-52275601D01*
X127238387Y-52316004D01*
X127260456Y-52382297D01*
X127243181Y-52449998D01*
X127234911Y-52462217D01*
X127128892Y-52600383D01*
X127014157Y-52799109D01*
X127014150Y-52799123D01*
X126926342Y-53011112D01*
X126866953Y-53232759D01*
X126866951Y-53232770D01*
X126837000Y-53460258D01*
X126837000Y-53689741D01*
X126858034Y-53849499D01*
X126866952Y-53917238D01*
X126905378Y-54060646D01*
X126926342Y-54138887D01*
X127014150Y-54350876D01*
X127014156Y-54350888D01*
X127099804Y-54499236D01*
X127128892Y-54549617D01*
X127268581Y-54731661D01*
X127268589Y-54731670D01*
X127430830Y-54893911D01*
X127430838Y-54893918D01*
X127612882Y-55033607D01*
X127612885Y-55033608D01*
X127612888Y-55033611D01*
X127811612Y-55148344D01*
X127811617Y-55148346D01*
X127811623Y-55148349D01*
X127902980Y-55186190D01*
X128023613Y-55236158D01*
X128245262Y-55295548D01*
X128472766Y-55325500D01*
X128472773Y-55325500D01*
X128702227Y-55325500D01*
X128702234Y-55325500D01*
X128929738Y-55295548D01*
X129151387Y-55236158D01*
X129363388Y-55148344D01*
X129562112Y-55033611D01*
X129744161Y-54893919D01*
X129783756Y-54854324D01*
X129845078Y-54820838D01*
X129914770Y-54825822D01*
X129970704Y-54867692D01*
X129994014Y-54923267D01*
X129994895Y-54929035D01*
X130030478Y-55068444D01*
X130030479Y-55068448D01*
X130049517Y-55114408D01*
X130101310Y-55209262D01*
X130199354Y-55314567D01*
X130258780Y-55349825D01*
X130323092Y-55387983D01*
X130369054Y-55407021D01*
X130420084Y-55425024D01*
X130562500Y-55445500D01*
X130562503Y-55445500D01*
X133162504Y-55445500D01*
X133216536Y-55442604D01*
X133263005Y-55430743D01*
X133355946Y-55407021D01*
X133401908Y-55387983D01*
X133496761Y-55336190D01*
X133602066Y-55238147D01*
X133675483Y-55114408D01*
X133694521Y-55068446D01*
X133712524Y-55017416D01*
X133733000Y-54875000D01*
X133733000Y-54774682D01*
X133752685Y-54707643D01*
X133805489Y-54661888D01*
X133832809Y-54653065D01*
X133838718Y-54651889D01*
X133964121Y-54626945D01*
X134089875Y-54574856D01*
X134092550Y-54573067D01*
X134092566Y-54573063D01*
X134092564Y-54573060D01*
X134175241Y-54517816D01*
X134203051Y-54499235D01*
X135587443Y-53114843D01*
X135648766Y-53081358D01*
X135675124Y-53078524D01*
X141586278Y-53078524D01*
X141653317Y-53098209D01*
X141699072Y-53151013D01*
X141703114Y-53162807D01*
X141703298Y-53162739D01*
X141756302Y-53304852D01*
X141756306Y-53304859D01*
X141842552Y-53420068D01*
X141842555Y-53420071D01*
X141957764Y-53506317D01*
X141957771Y-53506321D01*
X142092617Y-53556615D01*
X142092616Y-53556615D01*
X142099544Y-53557359D01*
X142152227Y-53563024D01*
X143597972Y-53563023D01*
X143657583Y-53556615D01*
X143792431Y-53506320D01*
X143907646Y-53420070D01*
X143993896Y-53304855D01*
X144041104Y-53178284D01*
X144046902Y-53162739D01*
X144049180Y-53163588D01*
X144057900Y-53148272D01*
X144070209Y-53121321D01*
X144074995Y-53118245D01*
X144077810Y-53113301D01*
X144104063Y-53099564D01*
X144128987Y-53083547D01*
X144136830Y-53082419D01*
X144139717Y-53080909D01*
X144163922Y-53078524D01*
X144359108Y-53078524D01*
X144426147Y-53098209D01*
X144471902Y-53151013D01*
X144479772Y-53175384D01*
X144479976Y-53175334D01*
X144480711Y-53178269D01*
X144480713Y-53178278D01*
X144480715Y-53178284D01*
X144527491Y-53332483D01*
X144573424Y-53483906D01*
X144695644Y-53778970D01*
X144695646Y-53778975D01*
X144846188Y-54060618D01*
X144846205Y-54060646D01*
X145023616Y-54326162D01*
X145023633Y-54326185D01*
X145226242Y-54573064D01*
X145452063Y-54798885D01*
X145452068Y-54798889D01*
X145452069Y-54798890D01*
X145698948Y-55001499D01*
X145698955Y-55001504D01*
X145698965Y-55001511D01*
X145964481Y-55178922D01*
X145964486Y-55178925D01*
X145964498Y-55178933D01*
X145964507Y-55178937D01*
X145964509Y-55178939D01*
X146246152Y-55329481D01*
X146246154Y-55329481D01*
X146246160Y-55329485D01*
X146541223Y-55451704D01*
X146846844Y-55544413D01*
X147160081Y-55606720D01*
X147477917Y-55638024D01*
X147477920Y-55638024D01*
X147797288Y-55638024D01*
X147797291Y-55638024D01*
X148115127Y-55606720D01*
X148428364Y-55544413D01*
X148733985Y-55451704D01*
X149029048Y-55329485D01*
X149310710Y-55178933D01*
X149576260Y-55001499D01*
X149823139Y-54798890D01*
X149847347Y-54774682D01*
X149901244Y-54720786D01*
X149962567Y-54687301D01*
X150032259Y-54692285D01*
X150088192Y-54734157D01*
X150112609Y-54799621D01*
X150112925Y-54808467D01*
X150112925Y-56182740D01*
X150112924Y-56190679D01*
X150112919Y-56190700D01*
X150112922Y-56225222D01*
X150112922Y-56227358D01*
X150102829Y-56261720D01*
X150093243Y-56294380D01*
X150093235Y-56294386D01*
X150093233Y-56294396D01*
X150067301Y-56316862D01*
X150040444Y-56340140D01*
X150040432Y-56340142D01*
X150040426Y-56340148D01*
X150040370Y-56340155D01*
X149988922Y-56351350D01*
X120327280Y-56351350D01*
X120327235Y-56351347D01*
X120318996Y-56351347D01*
X120311107Y-56351347D01*
X120282330Y-56351348D01*
X120273645Y-56348798D01*
X120264685Y-56350087D01*
X120240642Y-56339108D01*
X120215290Y-56331665D01*
X120209363Y-56324825D01*
X120201128Y-56321065D01*
X120186837Y-56298830D01*
X120169534Y-56278862D01*
X120167246Y-56268349D01*
X120163351Y-56262288D01*
X120158335Y-56227392D01*
X120158327Y-56227357D01*
X120158331Y-56190700D01*
X120158325Y-56190677D01*
X120158325Y-53849499D01*
X120178010Y-53782460D01*
X120230814Y-53736705D01*
X120282325Y-53725499D01*
X120284367Y-53725499D01*
X120284375Y-53725500D01*
X120298809Y-53725500D01*
X120500854Y-53725500D01*
X120500858Y-53725499D01*
X121660371Y-53725499D01*
X121660372Y-53725499D01*
X121719983Y-53719091D01*
X121854831Y-53668796D01*
X121970046Y-53582546D01*
X122056296Y-53467331D01*
X122106591Y-53332483D01*
X122113000Y-53272873D01*
X122112999Y-52675440D01*
X122132683Y-52608403D01*
X122185487Y-52562648D01*
X122254646Y-52552704D01*
X122318202Y-52581729D01*
X122324680Y-52587761D01*
X122430830Y-52693911D01*
X122430838Y-52693918D01*
X122612882Y-52833607D01*
X122612885Y-52833608D01*
X122612888Y-52833611D01*
X122811612Y-52948344D01*
X122811617Y-52948346D01*
X122811623Y-52948349D01*
X122902980Y-52986190D01*
X123023613Y-53036158D01*
X123245262Y-53095548D01*
X123472766Y-53125500D01*
X123472773Y-53125500D01*
X123702227Y-53125500D01*
X123702234Y-53125500D01*
X123929738Y-53095548D01*
X124151387Y-53036158D01*
X124363388Y-52948344D01*
X124562112Y-52833611D01*
X124744161Y-52693919D01*
X124744165Y-52693914D01*
X124744170Y-52693911D01*
X124906411Y-52531670D01*
X124906414Y-52531665D01*
X124906419Y-52531661D01*
X125046111Y-52349612D01*
X125160844Y-52150888D01*
X125248658Y-51938887D01*
X125308048Y-51717238D01*
X125338000Y-51489734D01*
X125338000Y-51260266D01*
X125308048Y-51032762D01*
X125248658Y-50811113D01*
X125160844Y-50599112D01*
X125046111Y-50400388D01*
X125046108Y-50400385D01*
X125046107Y-50400382D01*
X124987486Y-50323987D01*
X124962291Y-50258818D01*
X124976329Y-50190373D01*
X125025143Y-50140383D01*
X125085861Y-50124500D01*
X125898507Y-50124500D01*
X125965546Y-50144185D01*
G37*
%TD.AperFunction*%
%TA.AperFunction,Conductor*%
G36*
X137804673Y-33857685D02*
G01*
X137850428Y-33910489D01*
X137860372Y-33979647D01*
X137831347Y-34043203D01*
X137803606Y-34066994D01*
X137738059Y-34108180D01*
X137500918Y-34297293D01*
X137286442Y-34511769D01*
X137097329Y-34748910D01*
X136935955Y-35005734D01*
X136804355Y-35279004D01*
X136704179Y-35565289D01*
X136704175Y-35565301D01*
X136636682Y-35861010D01*
X136636679Y-35861024D01*
X136602722Y-36162409D01*
X136602722Y-36465736D01*
X136636679Y-36767121D01*
X136636682Y-36767135D01*
X136704175Y-37062844D01*
X136704179Y-37062856D01*
X136804355Y-37349141D01*
X136935955Y-37622411D01*
X136935957Y-37622414D01*
X137097330Y-37879237D01*
X137286443Y-38116377D01*
X137500918Y-38330852D01*
X137738058Y-38519965D01*
X137994881Y-38681338D01*
X138268157Y-38812941D01*
X138483173Y-38888178D01*
X138554438Y-38913115D01*
X138554450Y-38913119D01*
X138850159Y-38980613D01*
X138850168Y-38980614D01*
X138850173Y-38980615D01*
X139051096Y-39003253D01*
X139151559Y-39014572D01*
X139151562Y-39014573D01*
X139151565Y-39014573D01*
X139454882Y-39014573D01*
X139454883Y-39014572D01*
X139608916Y-38997217D01*
X139756270Y-38980615D01*
X139756273Y-38980614D01*
X139756285Y-38980613D01*
X140051994Y-38913119D01*
X140338287Y-38812941D01*
X140611563Y-38681338D01*
X140868386Y-38519965D01*
X141105526Y-38330852D01*
X141320001Y-38116377D01*
X141509114Y-37879237D01*
X141670487Y-37622414D01*
X141802090Y-37349138D01*
X141890472Y-37096556D01*
X141893425Y-37088118D01*
X141934146Y-37031342D01*
X141999099Y-37005595D01*
X142010466Y-37005073D01*
X142776904Y-37005073D01*
X142843943Y-37024758D01*
X142889698Y-37077562D01*
X142893740Y-37089356D01*
X142893924Y-37089288D01*
X142946928Y-37231401D01*
X142946932Y-37231408D01*
X143033178Y-37346617D01*
X143033181Y-37346620D01*
X143148390Y-37432866D01*
X143148397Y-37432870D01*
X143283243Y-37483164D01*
X143283242Y-37483164D01*
X143290170Y-37483908D01*
X143342853Y-37489573D01*
X144788598Y-37489572D01*
X144848209Y-37483164D01*
X144983057Y-37432869D01*
X145098272Y-37346619D01*
X145184522Y-37231404D01*
X145234817Y-37096556D01*
X145241226Y-37036946D01*
X145241225Y-35591201D01*
X145234817Y-35531590D01*
X145210070Y-35465241D01*
X145184523Y-35396744D01*
X145184519Y-35396737D01*
X145098273Y-35281528D01*
X145098270Y-35281525D01*
X144983061Y-35195279D01*
X144983054Y-35195275D01*
X144848208Y-35144981D01*
X144848209Y-35144981D01*
X144788609Y-35138574D01*
X144788607Y-35138573D01*
X144788599Y-35138573D01*
X144788590Y-35138573D01*
X143342855Y-35138573D01*
X143342849Y-35138574D01*
X143283242Y-35144981D01*
X143148397Y-35195275D01*
X143148390Y-35195279D01*
X143033181Y-35281525D01*
X143033178Y-35281528D01*
X142946932Y-35396737D01*
X142946928Y-35396744D01*
X142893924Y-35538858D01*
X142891645Y-35538008D01*
X142863016Y-35588296D01*
X142801109Y-35620688D01*
X142776904Y-35623073D01*
X142010466Y-35623073D01*
X141943427Y-35603388D01*
X141897672Y-35550584D01*
X141893425Y-35540028D01*
X141843370Y-35396979D01*
X141802090Y-35279008D01*
X141670487Y-35005732D01*
X141509114Y-34748909D01*
X141320001Y-34511769D01*
X141105526Y-34297294D01*
X140868386Y-34108181D01*
X140839408Y-34089973D01*
X140802838Y-34066994D01*
X140756547Y-34014659D01*
X140745899Y-33945605D01*
X140774274Y-33881757D01*
X140832664Y-33843385D01*
X140868810Y-33838000D01*
X148166328Y-33838000D01*
X148228167Y-33838000D01*
X148236277Y-33838265D01*
X148469586Y-33853560D01*
X148485666Y-33855677D01*
X148556352Y-33869738D01*
X148711011Y-33900503D01*
X148726666Y-33904698D01*
X148895472Y-33962001D01*
X148944226Y-33978551D01*
X148959210Y-33984757D01*
X149165278Y-34086381D01*
X149179317Y-34094487D01*
X149370353Y-34222134D01*
X149383206Y-34231996D01*
X149555957Y-34383496D01*
X149567421Y-34394961D01*
X149718905Y-34567697D01*
X149728779Y-34580565D01*
X149841261Y-34748909D01*
X149856423Y-34771600D01*
X149864532Y-34785646D01*
X149966147Y-34991702D01*
X149972354Y-35006688D01*
X150046205Y-35224248D01*
X150050403Y-35239914D01*
X150095224Y-35465241D01*
X150097342Y-35481323D01*
X150108581Y-35652808D01*
X150112660Y-35715034D01*
X150112925Y-35723144D01*
X150112925Y-49966581D01*
X150093240Y-50033620D01*
X150040436Y-50079375D01*
X149971278Y-50089319D01*
X149907722Y-50060294D01*
X149901244Y-50054262D01*
X149823144Y-49976162D01*
X149576265Y-49773553D01*
X149576242Y-49773536D01*
X149310726Y-49596125D01*
X149310698Y-49596108D01*
X149029055Y-49445566D01*
X149029050Y-49445564D01*
X149026650Y-49444570D01*
X148942627Y-49409766D01*
X148733986Y-49323344D01*
X148428358Y-49230633D01*
X148115125Y-49168327D01*
X148115126Y-49168327D01*
X147875745Y-49144751D01*
X147797291Y-49137024D01*
X147477917Y-49137024D01*
X147405426Y-49144163D01*
X147160081Y-49168327D01*
X146846849Y-49230633D01*
X146541221Y-49323344D01*
X146246157Y-49445564D01*
X146246152Y-49445566D01*
X145964509Y-49596108D01*
X145964481Y-49596125D01*
X145698965Y-49773536D01*
X145698942Y-49773553D01*
X145452063Y-49976162D01*
X145226242Y-50201983D01*
X145023633Y-50448862D01*
X145023616Y-50448885D01*
X144846205Y-50714401D01*
X144846188Y-50714429D01*
X144695646Y-50996072D01*
X144695644Y-50996077D01*
X144573424Y-51291141D01*
X144480711Y-51596778D01*
X144479976Y-51599714D01*
X144479249Y-51599532D01*
X144466013Y-51624839D01*
X144452821Y-51653727D01*
X144449935Y-51655581D01*
X144448346Y-51658620D01*
X144420754Y-51674334D01*
X144394043Y-51691501D01*
X144389456Y-51692160D01*
X144387633Y-51693199D01*
X144359108Y-51696524D01*
X144163922Y-51696524D01*
X144096883Y-51676839D01*
X144051128Y-51624035D01*
X144047085Y-51612240D01*
X144046902Y-51612309D01*
X143993897Y-51470195D01*
X143993893Y-51470188D01*
X143907647Y-51354979D01*
X143907644Y-51354976D01*
X143792435Y-51268730D01*
X143792428Y-51268726D01*
X143657582Y-51218432D01*
X143657583Y-51218432D01*
X143597983Y-51212025D01*
X143597981Y-51212024D01*
X143597973Y-51212024D01*
X143597964Y-51212024D01*
X142152229Y-51212024D01*
X142152223Y-51212025D01*
X142092616Y-51218432D01*
X141957771Y-51268726D01*
X141957764Y-51268730D01*
X141842555Y-51354976D01*
X141842552Y-51354979D01*
X141756306Y-51470188D01*
X141756302Y-51470195D01*
X141703298Y-51612309D01*
X141701019Y-51611459D01*
X141672390Y-51661747D01*
X141610483Y-51694139D01*
X141586278Y-51696524D01*
X135452170Y-51696524D01*
X135385131Y-51676839D01*
X135339376Y-51624035D01*
X135329231Y-51556338D01*
X135337999Y-51489741D01*
X135338000Y-51489734D01*
X135338000Y-51260266D01*
X135308048Y-51032762D01*
X135248658Y-50811113D01*
X135160844Y-50599112D01*
X135046111Y-50400388D01*
X135046108Y-50400385D01*
X135046107Y-50400382D01*
X134906418Y-50218338D01*
X134906411Y-50218330D01*
X134744170Y-50056089D01*
X134744161Y-50056081D01*
X134562117Y-49916392D01*
X134562112Y-49916389D01*
X134458665Y-49856664D01*
X134410450Y-49806098D01*
X134397227Y-49737491D01*
X134423195Y-49672626D01*
X134480110Y-49632098D01*
X134520666Y-49625278D01*
X136368177Y-49625278D01*
X136427009Y-49642553D01*
X136427947Y-49640799D01*
X136433315Y-49643668D01*
X136433321Y-49643672D01*
X136433327Y-49643674D01*
X136433328Y-49643675D01*
X136578998Y-49704013D01*
X136579003Y-49704015D01*
X136729008Y-49733853D01*
X136733653Y-49734777D01*
X136733656Y-49734778D01*
X136733658Y-49734778D01*
X136891344Y-49734778D01*
X136891345Y-49734777D01*
X137045997Y-49704015D01*
X137191679Y-49643672D01*
X137322789Y-49556067D01*
X137434289Y-49444567D01*
X137521894Y-49313457D01*
X137582237Y-49167775D01*
X137613000Y-49013120D01*
X137613000Y-48855436D01*
X137613000Y-48855433D01*
X137612999Y-48855431D01*
X137595818Y-48769056D01*
X137582237Y-48700781D01*
X137560095Y-48647324D01*
X137521897Y-48555105D01*
X137521890Y-48555092D01*
X137434289Y-48423989D01*
X137434286Y-48423985D01*
X137322792Y-48312491D01*
X137322788Y-48312488D01*
X137191685Y-48224887D01*
X137191672Y-48224880D01*
X137046001Y-48164542D01*
X137045989Y-48164539D01*
X136891345Y-48133778D01*
X136891342Y-48133778D01*
X136733658Y-48133778D01*
X136733655Y-48133778D01*
X136579010Y-48164539D01*
X136578998Y-48164542D01*
X136433328Y-48224880D01*
X136427947Y-48227757D01*
X136426794Y-48225601D01*
X136370369Y-48243259D01*
X136368177Y-48243278D01*
X133214464Y-48243278D01*
X133099964Y-48266054D01*
X133099963Y-48266054D01*
X133088524Y-48268329D01*
X133080966Y-48269833D01*
X133080965Y-48269833D01*
X132955220Y-48321918D01*
X132955207Y-48321925D01*
X132842039Y-48397542D01*
X132842035Y-48397545D01*
X131400401Y-49839181D01*
X131339078Y-49872666D01*
X131312720Y-49875500D01*
X130526156Y-49875500D01*
X130459117Y-49855815D01*
X130413362Y-49803011D01*
X130403418Y-49733853D01*
X130432443Y-49670297D01*
X130438475Y-49663819D01*
X130506186Y-49596108D01*
X130641620Y-49460674D01*
X130834235Y-49219143D01*
X130998595Y-48957565D01*
X131132635Y-48679229D01*
X131234668Y-48387636D01*
X131303411Y-48086452D01*
X131338000Y-47779465D01*
X131338000Y-47470535D01*
X131303411Y-47163548D01*
X131234668Y-46862364D01*
X131132635Y-46570771D01*
X130998595Y-46292435D01*
X130834235Y-46030857D01*
X130641620Y-45789326D01*
X130423174Y-45570880D01*
X130181643Y-45378265D01*
X129920065Y-45213905D01*
X129920062Y-45213903D01*
X129641736Y-45079868D01*
X129641722Y-45079862D01*
X129350147Y-44977835D01*
X129350135Y-44977831D01*
X129048955Y-44909089D01*
X129048937Y-44909086D01*
X128741971Y-44874500D01*
X128741965Y-44874500D01*
X128433035Y-44874500D01*
X128433028Y-44874500D01*
X128126062Y-44909086D01*
X128126044Y-44909089D01*
X127824864Y-44977831D01*
X127824852Y-44977835D01*
X127533277Y-45079862D01*
X127533263Y-45079868D01*
X127254937Y-45213903D01*
X126993358Y-45378264D01*
X126751826Y-45570879D01*
X126533379Y-45789326D01*
X126340764Y-46030858D01*
X126176403Y-46292437D01*
X126042368Y-46570763D01*
X126042362Y-46570777D01*
X125940335Y-46862352D01*
X125940331Y-46862364D01*
X125871589Y-47163544D01*
X125871586Y-47163562D01*
X125837000Y-47470528D01*
X125837000Y-47779471D01*
X125871586Y-48086437D01*
X125871589Y-48086455D01*
X125940331Y-48387635D01*
X125940335Y-48387647D01*
X126006784Y-48577545D01*
X126010346Y-48647324D01*
X125975618Y-48707951D01*
X125913624Y-48740179D01*
X125889743Y-48742500D01*
X122715243Y-48742500D01*
X122705024Y-48744533D01*
X122705019Y-48744534D01*
X122581754Y-48769053D01*
X122581742Y-48769056D01*
X122455999Y-48821140D01*
X122455986Y-48821147D01*
X122342818Y-48896764D01*
X122342814Y-48896767D01*
X122047213Y-49192368D01*
X121985890Y-49225853D01*
X121916198Y-49220869D01*
X121885221Y-49203954D01*
X121869744Y-49192368D01*
X121854831Y-49181204D01*
X121854829Y-49181203D01*
X121854828Y-49181202D01*
X121719982Y-49130908D01*
X121719983Y-49130908D01*
X121660383Y-49124501D01*
X121660381Y-49124500D01*
X121660373Y-49124500D01*
X121660365Y-49124500D01*
X120282325Y-49124500D01*
X120215286Y-49104815D01*
X120169531Y-49052011D01*
X120158325Y-49000500D01*
X120158325Y-42371530D01*
X122537000Y-42371530D01*
X122537000Y-42578469D01*
X122577368Y-42781412D01*
X122577370Y-42781420D01*
X122656558Y-42972596D01*
X122771524Y-43144657D01*
X122917842Y-43290975D01*
X122917845Y-43290977D01*
X123089902Y-43405941D01*
X123281080Y-43485130D01*
X123484030Y-43525499D01*
X123484034Y-43525500D01*
X123484035Y-43525500D01*
X123690966Y-43525500D01*
X123690967Y-43525499D01*
X123893920Y-43485130D01*
X124085098Y-43405941D01*
X124257155Y-43290977D01*
X124403477Y-43144655D01*
X124518441Y-42972598D01*
X124597630Y-42781420D01*
X124638000Y-42578465D01*
X124638000Y-42371535D01*
X124637999Y-42371530D01*
X132537000Y-42371530D01*
X132537000Y-42578469D01*
X132577368Y-42781412D01*
X132577370Y-42781420D01*
X132656558Y-42972596D01*
X132771524Y-43144657D01*
X132917842Y-43290975D01*
X132917845Y-43290977D01*
X133089902Y-43405941D01*
X133281080Y-43485130D01*
X133484030Y-43525499D01*
X133484034Y-43525500D01*
X133484035Y-43525500D01*
X133690966Y-43525500D01*
X133690967Y-43525499D01*
X133893920Y-43485130D01*
X134085098Y-43405941D01*
X134257155Y-43290977D01*
X134403477Y-43144655D01*
X134518441Y-42972598D01*
X134597630Y-42781420D01*
X134638000Y-42578465D01*
X134638000Y-42371535D01*
X134597630Y-42168580D01*
X134518441Y-41977402D01*
X134403477Y-41805345D01*
X134403475Y-41805342D01*
X134257157Y-41659024D01*
X134171126Y-41601541D01*
X134085098Y-41544059D01*
X133893920Y-41464870D01*
X133893912Y-41464868D01*
X133690969Y-41424500D01*
X133690965Y-41424500D01*
X133484035Y-41424500D01*
X133484030Y-41424500D01*
X133281087Y-41464868D01*
X133281079Y-41464870D01*
X133089903Y-41544058D01*
X132917842Y-41659024D01*
X132771524Y-41805342D01*
X132656558Y-41977403D01*
X132577370Y-42168579D01*
X132577368Y-42168587D01*
X132537000Y-42371530D01*
X124637999Y-42371530D01*
X124597630Y-42168580D01*
X124518441Y-41977402D01*
X124403477Y-41805345D01*
X124403475Y-41805342D01*
X124257157Y-41659024D01*
X124171126Y-41601541D01*
X124085098Y-41544059D01*
X123893920Y-41464870D01*
X123893912Y-41464868D01*
X123690969Y-41424500D01*
X123690965Y-41424500D01*
X123484035Y-41424500D01*
X123484030Y-41424500D01*
X123281087Y-41464868D01*
X123281079Y-41464870D01*
X123089903Y-41544058D01*
X122917842Y-41659024D01*
X122771524Y-41805342D01*
X122656558Y-41977403D01*
X122577370Y-42168579D01*
X122577368Y-42168587D01*
X122537000Y-42371530D01*
X120158325Y-42371530D01*
X120158325Y-35591228D01*
X127412588Y-35591228D01*
X127412588Y-36064073D01*
X128271902Y-36064073D01*
X128267508Y-36068467D01*
X128214847Y-36159679D01*
X128187588Y-36261412D01*
X128187588Y-36366734D01*
X128214847Y-36468467D01*
X128267508Y-36559679D01*
X128271902Y-36564073D01*
X127412588Y-36564073D01*
X127412588Y-37036917D01*
X127418989Y-37096445D01*
X127418991Y-37096452D01*
X127469233Y-37231159D01*
X127469237Y-37231166D01*
X127555397Y-37346260D01*
X127555400Y-37346263D01*
X127670494Y-37432423D01*
X127670501Y-37432427D01*
X127805208Y-37482669D01*
X127805215Y-37482671D01*
X127864743Y-37489072D01*
X127864760Y-37489073D01*
X128337588Y-37489073D01*
X128337588Y-36629759D01*
X128341982Y-36634153D01*
X128433194Y-36686814D01*
X128534927Y-36714073D01*
X128640249Y-36714073D01*
X128741982Y-36686814D01*
X128833194Y-36634153D01*
X128837588Y-36629759D01*
X128837588Y-37489073D01*
X129310416Y-37489073D01*
X129310432Y-37489072D01*
X129369960Y-37482671D01*
X129369967Y-37482669D01*
X129504674Y-37432427D01*
X129504681Y-37432423D01*
X129619775Y-37346263D01*
X129619778Y-37346260D01*
X129705938Y-37231166D01*
X129705942Y-37231159D01*
X129756184Y-37096452D01*
X129756186Y-37096445D01*
X129762587Y-37036917D01*
X129762588Y-37036900D01*
X129762588Y-36564073D01*
X128903274Y-36564073D01*
X128907668Y-36559679D01*
X128960329Y-36468467D01*
X128987588Y-36366734D01*
X128987588Y-36261412D01*
X128960329Y-36159679D01*
X128907668Y-36068467D01*
X128903274Y-36064073D01*
X129762588Y-36064073D01*
X129762588Y-35591245D01*
X129762587Y-35591228D01*
X129756186Y-35531700D01*
X129756184Y-35531693D01*
X129705942Y-35396986D01*
X129705938Y-35396979D01*
X129619778Y-35281885D01*
X129619775Y-35281882D01*
X129504681Y-35195722D01*
X129504674Y-35195718D01*
X129369967Y-35145476D01*
X129369960Y-35145474D01*
X129310432Y-35139073D01*
X128837588Y-35139073D01*
X128837588Y-35998387D01*
X128833194Y-35993993D01*
X128741982Y-35941332D01*
X128640249Y-35914073D01*
X128534927Y-35914073D01*
X128433194Y-35941332D01*
X128341982Y-35993993D01*
X128337588Y-35998387D01*
X128337588Y-35139073D01*
X127864743Y-35139073D01*
X127805215Y-35145474D01*
X127805208Y-35145476D01*
X127670501Y-35195718D01*
X127670494Y-35195722D01*
X127555400Y-35281882D01*
X127555397Y-35281885D01*
X127469237Y-35396979D01*
X127469233Y-35396986D01*
X127418991Y-35531693D01*
X127418989Y-35531700D01*
X127412588Y-35591228D01*
X120158325Y-35591228D01*
X120158325Y-33962001D01*
X120160875Y-33953315D01*
X120159587Y-33944357D01*
X120170565Y-33920316D01*
X120178010Y-33894962D01*
X120184849Y-33889035D01*
X120188610Y-33880800D01*
X120210845Y-33866509D01*
X120230814Y-33849207D01*
X120241328Y-33846919D01*
X120247388Y-33843025D01*
X120282304Y-33838004D01*
X120282320Y-33838001D01*
X120318996Y-33838003D01*
X120319006Y-33838000D01*
X120327277Y-33838000D01*
X137737634Y-33838000D01*
X137804673Y-33857685D01*
G37*
%TD.AperFunction*%
%TD*%
M02*
