M48
; DRILL file {KiCad 9.0.7} date 2026-03-01T08:57:48+0900
; FORMAT={-:-/ absolute / metric / decimal}
; #@! TF.CreationDate,2026-03-01T08:57:48+09:00
; #@! TF.GenerationSoftware,Kicad,Pcbnew,9.0.7
; #@! TF.FileFunction,NonPlated,1,2,NPTH
FMAT,2
METRIC
; #@! TA.AperFunction,NonPlated,NPTH,ComponentDrill
T1C1.000
%
G90
G05
T1
X36.362Y-92.225G85X36.362Y-79.225
G05
X36.362Y-79.225G85X49.362Y-79.225
G05
X36.362Y-92.225G85X49.362Y-92.225
G05
X45.887Y-73.175G85X45.887Y-60.175
G05
X49.362Y-92.225G85X49.362Y-79.225
G05
X45.887Y-60.175G85X58.887Y-60.175
G05
X45.887Y-73.175G85X58.887Y-73.175
G05
X55.412Y-92.225G85X55.412Y-79.225
G05
X58.887Y-73.175G85X58.887Y-60.175
G05
X55.412Y-79.225G85X68.412Y-79.225
G05
X55.412Y-92.225G85X68.412Y-92.225
G05
X64.938Y-54.125G85X64.938Y-41.125
G05
X64.938Y-73.175G85X64.938Y-60.175
G05
X68.412Y-92.225G85X68.412Y-79.225
G05
X69.7Y-111.275G85X69.7Y-98.275
G05
X64.938Y-41.125G85X77.938Y-41.125
G05
X64.938Y-54.125G85X77.938Y-54.125
G05
X64.938Y-60.175G85X77.938Y-60.175
G05
X64.938Y-73.175G85X77.938Y-73.175
G05
X74.462Y-92.225G85X74.462Y-79.225
G05
X69.7Y-98.275G85X82.7Y-98.275
G05
X69.7Y-111.275G85X82.7Y-111.275
G05
X77.938Y-54.125G85X77.938Y-41.125
G05
X77.938Y-73.175G85X77.938Y-60.175
G05
X74.462Y-79.225G85X87.462Y-79.225
G05
X74.462Y-92.225G85X87.462Y-92.225
G05
X82.7Y-111.275G85X82.7Y-98.275
G05
X83.987Y-54.125G85X83.987Y-41.125
G05
X83.987Y-73.175G85X83.987Y-60.175
G05
X87.462Y-92.225G85X87.462Y-79.225
G05
X88.75Y-111.275G85X88.75Y-98.275
G05
X83.987Y-41.125G85X96.987Y-41.125
G05
X83.987Y-54.125G85X96.987Y-54.125
G05
X83.987Y-60.175G85X96.987Y-60.175
G05
X83.987Y-73.175G85X96.987Y-73.175
G05
X93.513Y-92.225G85X93.513Y-79.225
G05
X88.75Y-98.275G85X101.75Y-98.275
G05
X88.75Y-111.275G85X101.75Y-111.275
G05
X96.987Y-54.125G85X96.987Y-41.125
G05
X96.987Y-73.175G85X96.987Y-60.175
G05
X93.513Y-79.225G85X106.512Y-79.225
G05
X93.513Y-92.225G85X106.512Y-92.225
G05
X101.75Y-111.275G85X101.75Y-98.275
G05
X103.037Y-73.175G85X103.037Y-60.175
G05
X106.512Y-92.225G85X106.512Y-79.225
G05
X103.037Y-60.175G85X116.037Y-60.175
G05
X103.037Y-73.175G85X116.037Y-73.175
G05
X110.181Y-111.275G85X110.181Y-98.275
G05
X112.563Y-92.225G85X112.563Y-79.225
G05
X116.037Y-73.175G85X116.037Y-60.175
G05
X110.181Y-98.275G85X123.181Y-98.275
G05
X110.181Y-111.275G85X123.181Y-111.275
G05
X112.563Y-79.225G85X125.563Y-79.225
G05
X112.563Y-92.225G85X125.563Y-92.225
G05
X123.181Y-111.275G85X123.181Y-98.275
G05
X125.563Y-92.225G85X125.563Y-79.225
G05
X131.612Y-111.275G85X131.612Y-98.275
G05
X131.612Y-98.275G85X144.612Y-98.275
G05
X131.612Y-111.275G85X144.612Y-111.275
G05
X144.612Y-111.275G85X144.612Y-98.275
G05
M30
