%TF.GenerationSoftware,KiCad,Pcbnew,9.0.7*%
%TF.CreationDate,2026-03-01T08:56:09+09:00*%
%TF.ProjectId,Aida_Plate_Mid_Outside,41696461-5f50-46c6-9174-655f4d69645f,rev?*%
%TF.SameCoordinates,Original*%
%TF.FileFunction,Copper,L1,Top*%
%TF.FilePolarity,Positive*%
%FSLAX46Y46*%
G04 Gerber Fmt 4.6, Leading zero omitted, Abs format (unit mm)*
G04 Created by KiCad (PCBNEW 9.0.7) date 2026-03-01 08:56:09*
%MOMM*%
%LPD*%
G01*
G04 APERTURE LIST*
G04 Aperture macros list*
%AMRoundRect*
0 Rectangle with rounded corners*
0 $1 Rounding radius*
0 $2 $3 $4 $5 $6 $7 $8 $9 X,Y pos of 4 corners*
0 Add a 4 corners polygon primitive as box body*
4,1,4,$2,$3,$4,$5,$6,$7,$8,$9,$2,$3,0*
0 Add four circle primitives for the rounded corners*
1,1,$1+$1,$2,$3*
1,1,$1+$1,$4,$5*
1,1,$1+$1,$6,$7*
1,1,$1+$1,$8,$9*
0 Add four rect primitives between the rounded corners*
20,1,$1+$1,$2,$3,$4,$5,0*
20,1,$1+$1,$4,$5,$6,$7,0*
20,1,$1+$1,$6,$7,$8,$9,0*
20,1,$1+$1,$8,$9,$2,$3,0*%
G04 Aperture macros list end*
%TA.AperFunction,WasherPad*%
%ADD10RoundRect,0.900000X0.000010X-6.500000X0.000010X6.500000X-0.000010X6.500000X-0.000010X-6.500000X0*%
%TD*%
%TA.AperFunction,WasherPad*%
%ADD11RoundRect,0.900000X-6.500000X-0.000010X6.500000X-0.000010X6.500000X0.000010X-6.500000X0.000010X0*%
%TD*%
G04 APERTURE END LIST*
D10*
%TO.P,SW_LEFT1,*%
%TO.N,*%
X45887500Y-47625000D03*
D11*
X52387500Y-41125000D03*
X52387500Y-54125000D03*
D10*
X58887500Y-47625000D03*
%TD*%
%TA.AperFunction,Conductor*%
%TO.N,GND*%
G36*
X57430039Y-42545185D02*
G01*
X57475794Y-42597989D01*
X57487000Y-42649500D01*
X57487000Y-52600500D01*
X57467315Y-52667539D01*
X57414511Y-52713294D01*
X57363000Y-52724500D01*
X47412000Y-52724500D01*
X47344961Y-52704815D01*
X47299206Y-52652011D01*
X47288000Y-52600500D01*
X47288000Y-42649500D01*
X47307685Y-42582461D01*
X47360489Y-42536706D01*
X47412000Y-42525500D01*
X57363000Y-42525500D01*
X57430039Y-42545185D01*
G37*
%TD.AperFunction*%
%TA.AperFunction,Conductor*%
G36*
X61056581Y-33857483D02*
G01*
X61102337Y-33910286D01*
X61113543Y-33961824D01*
X61113534Y-34005965D01*
X61113550Y-34006226D01*
X61113550Y-56182532D01*
X61113543Y-56182642D01*
X61113547Y-56227058D01*
X61093868Y-56294099D01*
X61041069Y-56339859D01*
X60989514Y-56351068D01*
X60952982Y-56351059D01*
X60952981Y-56351059D01*
X60945600Y-56351057D01*
X60944181Y-56351150D01*
X36621967Y-56351150D01*
X36617797Y-56351080D01*
X36592068Y-56350214D01*
X36525729Y-56328285D01*
X36481777Y-56273972D01*
X36474165Y-56204518D01*
X36475221Y-56199258D01*
X36502891Y-56075500D01*
X36503602Y-56072500D01*
X36527707Y-55976091D01*
X37153819Y-53471863D01*
X38535451Y-53471863D01*
X38535451Y-53684436D01*
X38568704Y-53894389D01*
X38634395Y-54096564D01*
X38730902Y-54285970D01*
X38855841Y-54457936D01*
X39006164Y-54608259D01*
X39178130Y-54733198D01*
X39178132Y-54733199D01*
X39178135Y-54733201D01*
X39367539Y-54829707D01*
X39569708Y-54895396D01*
X39779664Y-54928650D01*
X39779665Y-54928650D01*
X39992237Y-54928650D01*
X39992238Y-54928650D01*
X40202194Y-54895396D01*
X40404363Y-54829707D01*
X40593767Y-54733201D01*
X40615740Y-54717236D01*
X40765737Y-54608259D01*
X40765739Y-54608256D01*
X40765743Y-54608254D01*
X40916055Y-54457942D01*
X40916057Y-54457938D01*
X40916060Y-54457936D01*
X41040999Y-54285970D01*
X41040998Y-54285970D01*
X41041002Y-54285966D01*
X41137508Y-54096562D01*
X41203197Y-53894393D01*
X41236451Y-53684437D01*
X41236451Y-53471863D01*
X41203197Y-53261907D01*
X41137508Y-53059738D01*
X41041002Y-52870334D01*
X41041000Y-52870331D01*
X41040999Y-52870329D01*
X40916060Y-52698363D01*
X40765737Y-52548040D01*
X40593771Y-52423101D01*
X40404365Y-52326594D01*
X40404364Y-52326593D01*
X40404363Y-52326593D01*
X40202194Y-52260904D01*
X40202192Y-52260903D01*
X40202191Y-52260903D01*
X40040908Y-52235358D01*
X39992238Y-52227650D01*
X39779664Y-52227650D01*
X39730993Y-52235358D01*
X39569711Y-52260903D01*
X39367536Y-52326594D01*
X39178130Y-52423101D01*
X39006164Y-52548040D01*
X38855841Y-52698363D01*
X38730902Y-52870329D01*
X38634395Y-53059735D01*
X38568704Y-53261910D01*
X38535451Y-53471863D01*
X37153819Y-53471863D01*
X37206313Y-53261907D01*
X39887849Y-42536706D01*
X40264641Y-41029670D01*
X44487000Y-41029670D01*
X44487000Y-54220329D01*
X44487001Y-54220368D01*
X44489845Y-54273901D01*
X44489845Y-54273902D01*
X44525438Y-54457936D01*
X44535113Y-54507962D01*
X44584568Y-54639008D01*
X44619286Y-54731007D01*
X44739944Y-54936620D01*
X44739949Y-54936627D01*
X44893614Y-55118883D01*
X44893616Y-55118885D01*
X45075872Y-55272550D01*
X45075879Y-55272555D01*
X45281492Y-55393213D01*
X45504538Y-55477387D01*
X45738601Y-55522655D01*
X45792162Y-55525500D01*
X45792170Y-55525500D01*
X58982830Y-55525500D01*
X58982838Y-55525500D01*
X59036399Y-55522655D01*
X59270462Y-55477387D01*
X59493508Y-55393213D01*
X59699121Y-55272555D01*
X59881384Y-55118884D01*
X60035055Y-54936621D01*
X60155713Y-54731008D01*
X60239887Y-54507962D01*
X60285155Y-54273899D01*
X60288000Y-54220338D01*
X60288000Y-41029662D01*
X60285155Y-40976101D01*
X60239887Y-40742038D01*
X60155713Y-40518992D01*
X60035055Y-40313379D01*
X60035050Y-40313372D01*
X59881385Y-40131116D01*
X59881383Y-40131114D01*
X59699127Y-39977449D01*
X59699120Y-39977444D01*
X59493507Y-39856786D01*
X59401508Y-39822068D01*
X59270462Y-39772613D01*
X59270457Y-39772612D01*
X59036401Y-39727345D01*
X58982868Y-39724501D01*
X58982845Y-39724500D01*
X58982838Y-39724500D01*
X45982838Y-39724500D01*
X45792162Y-39724500D01*
X45792154Y-39724500D01*
X45792131Y-39724501D01*
X45738598Y-39727345D01*
X45738597Y-39727345D01*
X45504542Y-39772612D01*
X45504540Y-39772612D01*
X45504538Y-39772613D01*
X45429252Y-39801024D01*
X45281492Y-39856786D01*
X45075879Y-39977444D01*
X45075872Y-39977449D01*
X44893616Y-40131114D01*
X44893614Y-40131116D01*
X44739949Y-40313372D01*
X44739944Y-40313379D01*
X44619286Y-40518992D01*
X44563524Y-40666752D01*
X44535113Y-40742038D01*
X44535112Y-40742040D01*
X44535112Y-40742042D01*
X44489845Y-40976097D01*
X44489845Y-40976098D01*
X44487001Y-41029631D01*
X44487000Y-41029670D01*
X40264641Y-41029670D01*
X41470218Y-36207786D01*
X56990154Y-36207786D01*
X56990154Y-36420359D01*
X57023407Y-36630312D01*
X57089098Y-36832487D01*
X57185605Y-37021893D01*
X57310544Y-37193859D01*
X57460867Y-37344182D01*
X57632833Y-37469121D01*
X57632835Y-37469122D01*
X57632838Y-37469124D01*
X57822242Y-37565630D01*
X58024411Y-37631319D01*
X58234367Y-37664573D01*
X58234368Y-37664573D01*
X58446940Y-37664573D01*
X58446941Y-37664573D01*
X58656897Y-37631319D01*
X58859066Y-37565630D01*
X59048470Y-37469124D01*
X59070443Y-37453159D01*
X59220440Y-37344182D01*
X59220442Y-37344179D01*
X59220446Y-37344177D01*
X59370758Y-37193865D01*
X59370760Y-37193861D01*
X59370763Y-37193859D01*
X59495702Y-37021893D01*
X59495701Y-37021893D01*
X59495705Y-37021889D01*
X59592211Y-36832485D01*
X59657900Y-36630316D01*
X59691154Y-36420360D01*
X59691154Y-36207786D01*
X59657900Y-35997830D01*
X59592211Y-35795661D01*
X59495705Y-35606257D01*
X59495703Y-35606254D01*
X59495702Y-35606252D01*
X59370763Y-35434286D01*
X59220440Y-35283963D01*
X59048474Y-35159024D01*
X58859068Y-35062517D01*
X58859067Y-35062516D01*
X58859066Y-35062516D01*
X58656897Y-34996827D01*
X58656895Y-34996826D01*
X58656894Y-34996826D01*
X58495611Y-34971281D01*
X58446941Y-34963573D01*
X58234367Y-34963573D01*
X58185696Y-34971281D01*
X58024414Y-34996826D01*
X57822239Y-35062517D01*
X57632833Y-35159024D01*
X57460867Y-35283963D01*
X57310544Y-35434286D01*
X57185605Y-35606252D01*
X57089098Y-35795658D01*
X57023407Y-35997833D01*
X56990154Y-36207786D01*
X41470218Y-36207786D01*
X41562134Y-35840155D01*
X41562138Y-35840156D01*
X41562142Y-35840122D01*
X41604643Y-35670365D01*
X41605286Y-35667911D01*
X41733174Y-35200808D01*
X41735627Y-35192901D01*
X41847468Y-34870886D01*
X41851849Y-34859974D01*
X41960613Y-34622305D01*
X41967368Y-34609561D01*
X42076326Y-34430109D01*
X42085845Y-34416562D01*
X42197369Y-34278510D01*
X42209726Y-34265316D01*
X42328311Y-34155901D01*
X42343062Y-34144233D01*
X42486383Y-34047604D01*
X42498420Y-34040444D01*
X42563486Y-34006571D01*
X42571713Y-34002667D01*
X42655486Y-33966648D01*
X42663702Y-33963459D01*
X42757150Y-33931002D01*
X42765265Y-33928492D01*
X42869138Y-33900251D01*
X42877011Y-33898385D01*
X42994536Y-33874578D01*
X43002052Y-33873297D01*
X43132040Y-33855252D01*
X43139163Y-33854474D01*
X43286472Y-33842705D01*
X43293162Y-33842352D01*
X43462693Y-33838045D01*
X43465685Y-33838007D01*
X60989543Y-33837799D01*
X61056581Y-33857483D01*
G37*
%TD.AperFunction*%
%TD*%
M02*
