%TF.GenerationSoftware,KiCad,Pcbnew,9.0.7*%
%TF.CreationDate,2026-03-01T08:57:01+09:00*%
%TF.ProjectId,Aida_Plate_Top,41696461-5f50-46c6-9174-655f546f702e,rev?*%
%TF.SameCoordinates,Original*%
%TF.FileFunction,Copper,L1,Top*%
%TF.FilePolarity,Positive*%
%FSLAX46Y46*%
G04 Gerber Fmt 4.6, Leading zero omitted, Abs format (unit mm)*
G04 Created by KiCad (PCBNEW 9.0.7) date 2026-03-01 08:57:01*
%MOMM*%
%LPD*%
G01*
G04 APERTURE LIST*
G04 Aperture macros list*
%AMRoundRect*
0 Rectangle with rounded corners*
0 $1 Rounding radius*
0 $2 $3 $4 $5 $6 $7 $8 $9 X,Y pos of 4 corners*
0 Add a 4 corners polygon primitive as box body*
4,1,4,$2,$3,$4,$5,$6,$7,$8,$9,$2,$3,0*
0 Add four circle primitives for the rounded corners*
1,1,$1+$1,$2,$3*
1,1,$1+$1,$4,$5*
1,1,$1+$1,$6,$7*
1,1,$1+$1,$8,$9*
0 Add four rect primitives between the rounded corners*
20,1,$1+$1,$2,$3,$4,$5,0*
20,1,$1+$1,$4,$5,$6,$7,0*
20,1,$1+$1,$6,$7,$8,$9,0*
20,1,$1+$1,$8,$9,$2,$3,0*%
G04 Aperture macros list end*
%TA.AperFunction,WasherPad*%
%ADD10RoundRect,0.900000X0.000010X-6.500000X0.000010X6.500000X-0.000010X6.500000X-0.000010X-6.500000X0*%
%TD*%
%TA.AperFunction,WasherPad*%
%ADD11RoundRect,0.900000X-6.500000X-0.000010X6.500000X-0.000010X6.500000X0.000010X-6.500000X0.000010X0*%
%TD*%
G04 APERTURE END LIST*
D10*
%TO.P,SW_LEFT1,*%
%TO.N,*%
X122087500Y-47625000D03*
D11*
X128587500Y-41125000D03*
X128587500Y-54125000D03*
D10*
X135087500Y-47625000D03*
%TD*%
%TA.AperFunction,Conductor*%
%TO.N,GND*%
G36*
X133630039Y-42545185D02*
G01*
X133675794Y-42597989D01*
X133687000Y-42649500D01*
X133687000Y-52600500D01*
X133667315Y-52667539D01*
X133614511Y-52713294D01*
X133563000Y-52724500D01*
X123612000Y-52724500D01*
X123544961Y-52704815D01*
X123499206Y-52652011D01*
X123488000Y-52600500D01*
X123488000Y-42649500D01*
X123507685Y-42582461D01*
X123560489Y-42536706D01*
X123612000Y-42525500D01*
X133563000Y-42525500D01*
X133630039Y-42545185D01*
G37*
%TD.AperFunction*%
%TA.AperFunction,Conductor*%
G36*
X148236277Y-33838265D02*
G01*
X148469586Y-33853560D01*
X148485666Y-33855677D01*
X148556352Y-33869738D01*
X148711011Y-33900503D01*
X148726666Y-33904698D01*
X148895472Y-33962001D01*
X148944226Y-33978551D01*
X148959210Y-33984757D01*
X149165278Y-34086381D01*
X149179317Y-34094487D01*
X149370353Y-34222134D01*
X149383206Y-34231996D01*
X149555957Y-34383496D01*
X149567421Y-34394961D01*
X149718905Y-34567697D01*
X149728779Y-34580565D01*
X149856423Y-34771600D01*
X149864532Y-34785646D01*
X149966147Y-34991702D01*
X149972354Y-35006688D01*
X150046205Y-35224248D01*
X150050403Y-35239914D01*
X150081748Y-35397494D01*
X150089066Y-35434286D01*
X150095224Y-35465241D01*
X150097342Y-35481323D01*
X150108581Y-35652808D01*
X150112660Y-35715034D01*
X150112925Y-35723144D01*
X150112925Y-56182740D01*
X150112924Y-56190679D01*
X150112919Y-56190700D01*
X150112922Y-56225222D01*
X150112922Y-56227358D01*
X150102829Y-56261720D01*
X150093243Y-56294380D01*
X150093235Y-56294386D01*
X150093233Y-56294396D01*
X150067301Y-56316862D01*
X150040444Y-56340140D01*
X150040432Y-56340142D01*
X150040426Y-56340148D01*
X150040370Y-56340155D01*
X149988922Y-56351350D01*
X120327280Y-56351350D01*
X120327235Y-56351347D01*
X120318996Y-56351347D01*
X120311107Y-56351347D01*
X120282330Y-56351348D01*
X120273645Y-56348798D01*
X120264685Y-56350087D01*
X120240642Y-56339108D01*
X120215290Y-56331665D01*
X120209363Y-56324825D01*
X120201128Y-56321065D01*
X120186837Y-56298830D01*
X120169534Y-56278862D01*
X120167246Y-56268349D01*
X120163351Y-56262288D01*
X120158335Y-56227392D01*
X120158327Y-56227357D01*
X120158331Y-56190700D01*
X120158325Y-56190677D01*
X120158325Y-41029670D01*
X120687000Y-41029670D01*
X120687000Y-54220329D01*
X120687001Y-54220368D01*
X120689845Y-54273901D01*
X120689845Y-54273902D01*
X120735112Y-54507957D01*
X120735113Y-54507962D01*
X120784568Y-54639008D01*
X120819286Y-54731007D01*
X120939944Y-54936620D01*
X120939949Y-54936627D01*
X121093614Y-55118883D01*
X121093616Y-55118885D01*
X121275872Y-55272550D01*
X121275879Y-55272555D01*
X121481492Y-55393213D01*
X121704538Y-55477387D01*
X121938601Y-55522655D01*
X121992162Y-55525500D01*
X121992170Y-55525500D01*
X135182830Y-55525500D01*
X135182838Y-55525500D01*
X135236399Y-55522655D01*
X135470462Y-55477387D01*
X135693508Y-55393213D01*
X135899121Y-55272555D01*
X136081384Y-55118884D01*
X136235055Y-54936621D01*
X136355713Y-54731008D01*
X136439887Y-54507962D01*
X136485155Y-54273899D01*
X136488000Y-54220338D01*
X136488000Y-52281237D01*
X146287104Y-52281237D01*
X146287104Y-52493810D01*
X146320357Y-52703763D01*
X146386048Y-52905938D01*
X146482555Y-53095344D01*
X146607494Y-53267310D01*
X146757817Y-53417633D01*
X146929783Y-53542572D01*
X146929785Y-53542573D01*
X146929788Y-53542575D01*
X147119192Y-53639081D01*
X147321361Y-53704770D01*
X147531317Y-53738024D01*
X147531318Y-53738024D01*
X147743890Y-53738024D01*
X147743891Y-53738024D01*
X147953847Y-53704770D01*
X148156016Y-53639081D01*
X148345420Y-53542575D01*
X148367393Y-53526610D01*
X148517390Y-53417633D01*
X148517392Y-53417630D01*
X148517396Y-53417628D01*
X148667708Y-53267316D01*
X148667710Y-53267312D01*
X148667713Y-53267310D01*
X148792652Y-53095344D01*
X148792651Y-53095344D01*
X148792655Y-53095340D01*
X148889161Y-52905936D01*
X148954850Y-52703767D01*
X148988104Y-52493811D01*
X148988104Y-52281237D01*
X148954850Y-52071281D01*
X148889161Y-51869112D01*
X148792655Y-51679708D01*
X148792653Y-51679705D01*
X148792652Y-51679703D01*
X148667713Y-51507737D01*
X148517390Y-51357414D01*
X148345424Y-51232475D01*
X148156018Y-51135968D01*
X148156017Y-51135967D01*
X148156016Y-51135967D01*
X147953847Y-51070278D01*
X147953845Y-51070277D01*
X147953844Y-51070277D01*
X147792561Y-51044732D01*
X147743891Y-51037024D01*
X147531317Y-51037024D01*
X147482646Y-51044732D01*
X147321364Y-51070277D01*
X147119189Y-51135968D01*
X146929783Y-51232475D01*
X146757817Y-51357414D01*
X146607494Y-51507737D01*
X146482555Y-51679703D01*
X146386048Y-51869109D01*
X146320357Y-52071284D01*
X146287104Y-52281237D01*
X136488000Y-52281237D01*
X136488000Y-41029662D01*
X136485155Y-40976101D01*
X136439887Y-40742038D01*
X136355713Y-40518992D01*
X136235055Y-40313379D01*
X136235050Y-40313372D01*
X136081385Y-40131116D01*
X136081383Y-40131114D01*
X135899127Y-39977449D01*
X135899120Y-39977444D01*
X135693507Y-39856786D01*
X135601508Y-39822068D01*
X135470462Y-39772613D01*
X135470457Y-39772612D01*
X135236401Y-39727345D01*
X135182868Y-39724501D01*
X135182845Y-39724500D01*
X135182838Y-39724500D01*
X122182838Y-39724500D01*
X121992162Y-39724500D01*
X121992154Y-39724500D01*
X121992131Y-39724501D01*
X121938598Y-39727345D01*
X121938597Y-39727345D01*
X121704542Y-39772612D01*
X121704540Y-39772612D01*
X121704538Y-39772613D01*
X121629252Y-39801024D01*
X121481492Y-39856786D01*
X121275879Y-39977444D01*
X121275872Y-39977449D01*
X121093616Y-40131114D01*
X121093614Y-40131116D01*
X120939949Y-40313372D01*
X120939944Y-40313379D01*
X120819286Y-40518992D01*
X120763524Y-40666752D01*
X120735113Y-40742038D01*
X120735112Y-40742040D01*
X120735112Y-40742042D01*
X120689845Y-40976097D01*
X120689845Y-40976098D01*
X120687001Y-41029631D01*
X120687000Y-41029670D01*
X120158325Y-41029670D01*
X120158325Y-36207786D01*
X122474584Y-36207786D01*
X122474584Y-36420359D01*
X122507837Y-36630312D01*
X122573528Y-36832487D01*
X122670035Y-37021893D01*
X122794974Y-37193859D01*
X122945297Y-37344182D01*
X123117263Y-37469121D01*
X123117265Y-37469122D01*
X123117268Y-37469124D01*
X123306672Y-37565630D01*
X123508841Y-37631319D01*
X123718797Y-37664573D01*
X123718798Y-37664573D01*
X123931370Y-37664573D01*
X123931371Y-37664573D01*
X124141327Y-37631319D01*
X124343496Y-37565630D01*
X124532900Y-37469124D01*
X124554873Y-37453159D01*
X124704870Y-37344182D01*
X124704872Y-37344179D01*
X124704876Y-37344177D01*
X124855188Y-37193865D01*
X124855190Y-37193861D01*
X124855193Y-37193859D01*
X124980132Y-37021893D01*
X124980131Y-37021893D01*
X124980135Y-37021889D01*
X125076641Y-36832485D01*
X125142330Y-36630316D01*
X125175584Y-36420360D01*
X125175584Y-36207786D01*
X125142330Y-35997830D01*
X125076641Y-35795661D01*
X124980135Y-35606257D01*
X124980133Y-35606254D01*
X124980132Y-35606252D01*
X124855193Y-35434286D01*
X124704870Y-35283963D01*
X124532904Y-35159024D01*
X124343498Y-35062517D01*
X124343497Y-35062516D01*
X124343496Y-35062516D01*
X124141327Y-34996827D01*
X124141325Y-34996826D01*
X124141324Y-34996826D01*
X123980041Y-34971281D01*
X123931371Y-34963573D01*
X123718797Y-34963573D01*
X123670126Y-34971281D01*
X123508844Y-34996826D01*
X123306669Y-35062517D01*
X123117263Y-35159024D01*
X122945297Y-35283963D01*
X122794974Y-35434286D01*
X122670035Y-35606252D01*
X122573528Y-35795658D01*
X122507837Y-35997833D01*
X122474584Y-36207786D01*
X120158325Y-36207786D01*
X120158325Y-33962001D01*
X120160875Y-33953315D01*
X120159587Y-33944357D01*
X120170565Y-33920316D01*
X120178010Y-33894962D01*
X120184849Y-33889035D01*
X120188610Y-33880800D01*
X120210845Y-33866509D01*
X120230814Y-33849207D01*
X120241328Y-33846919D01*
X120247388Y-33843025D01*
X120282304Y-33838004D01*
X120282320Y-33838001D01*
X120318996Y-33838003D01*
X120319006Y-33838000D01*
X120327277Y-33838000D01*
X148166328Y-33838000D01*
X148228167Y-33838000D01*
X148236277Y-33838265D01*
G37*
%TD.AperFunction*%
%TD*%
M02*
