M48
; DRILL file {KiCad 9.0.7} date 2026-03-01T08:46:20+0900
; FORMAT={-:-/ absolute / metric / decimal}
; #@! TF.CreationDate,2026-03-01T08:46:20+09:00
; #@! TF.GenerationSoftware,Kicad,Pcbnew,9.0.7
; #@! TF.FileFunction,NonPlated,1,2,NPTH
FMAT,2
METRIC
; #@! TA.AperFunction,NonPlated,NPTH,ComponentDrill
T1C0.500
; #@! TA.AperFunction,NonPlated,NPTH,ComponentDrill
T2C0.650
; #@! TA.AperFunction,NonPlated,NPTH,ComponentDrill
T3C0.800
; #@! TA.AperFunction,NonPlated,NPTH,ComponentDrill
T4C1.600
; #@! TA.AperFunction,NonPlated,NPTH,ComponentDrill
T5C2.900
; #@! TA.AperFunction,NonPlated,NPTH,ComponentDrill
T6C3.000
; #@! TA.AperFunction,NonPlated,NPTH,ComponentDrill
T7C5.000
%
G90
G05
T1
X150.862Y-37.931
X150.862Y-38.781
X150.862Y-39.631
X150.862Y-40.481
X150.862Y-41.331
X150.862Y-42.181
X150.862Y-43.031
X150.862Y-59.789
X150.862Y-60.639
X150.862Y-61.489
X150.862Y-62.339
X150.862Y-63.189
X150.862Y-64.039
X150.862Y-64.889
X150.862Y-105.628
X150.862Y-106.478
X150.862Y-107.328
X150.862Y-108.178
X150.862Y-109.028
X150.862Y-109.878
X150.862Y-110.728
X153.934Y-59.789
X153.934Y-60.639
X153.934Y-61.489
X153.934Y-62.339
X153.934Y-63.189
X153.934Y-64.039
X153.934Y-64.889
X153.934Y-105.628
X153.934Y-106.478
X153.934Y-107.328
X153.934Y-108.178
X153.934Y-109.028
X153.934Y-109.878
X153.934Y-110.728
X153.936Y-37.931
X153.936Y-38.781
X153.936Y-39.631
X153.936Y-40.481
X153.936Y-41.331
X153.936Y-42.181
X153.936Y-43.031
T2
X47.712Y-40.105
X53.492Y-40.105
X251.309Y-40.105
X257.089Y-40.105
T3
X146.447Y-37.319
X146.447Y-44.319
X158.353Y-37.319
X158.353Y-44.319
T4
X47.862Y-80.575
X57.387Y-61.525
X66.912Y-80.575
X76.438Y-42.475
X76.438Y-61.525
X81.2Y-99.625
X85.962Y-80.575
X95.487Y-42.475
X95.487Y-61.525
X100.25Y-99.625
X105.012Y-80.575
X114.537Y-61.525
X121.681Y-99.625
X124.063Y-80.575
X143.112Y-99.625
X171.688Y-99.625
X190.737Y-80.575
X193.119Y-99.625
X200.262Y-61.525
X209.787Y-80.575
X214.55Y-99.625
X219.312Y-42.475
X219.312Y-61.525
X228.837Y-80.575
X233.6Y-99.625
X238.362Y-42.475
X238.362Y-61.525
X247.887Y-80.575
X257.412Y-61.525
X266.938Y-80.575
T6
X37.862Y-89.475
X42.862Y-91.675
X47.387Y-70.425
X52.387Y-72.625
X56.912Y-89.475
X61.912Y-91.675
X66.438Y-51.375
X66.438Y-70.425
X71.2Y-108.525
X71.438Y-53.575
X71.438Y-72.625
X75.962Y-89.475
X76.2Y-110.725
X80.962Y-91.675
X85.487Y-51.375
X85.487Y-70.425
X90.25Y-108.525
X90.487Y-53.575
X90.487Y-72.625
X95.012Y-89.475
X95.25Y-110.725
X100.012Y-91.675
X104.537Y-70.425
X109.537Y-72.625
X111.681Y-108.525
X114.063Y-89.475
X116.681Y-110.725
X119.063Y-91.675
X133.112Y-108.525
X138.112Y-110.725
X161.688Y-108.525
X166.688Y-110.725
X180.737Y-89.475
X183.119Y-108.525
X185.737Y-91.675
X188.119Y-110.725
X190.262Y-70.425
X195.262Y-72.625
X199.787Y-89.475
X204.55Y-108.525
X204.787Y-91.675
X209.312Y-51.375
X209.312Y-70.425
X209.55Y-110.725
X214.312Y-53.575
X214.312Y-72.625
X218.837Y-89.475
X223.6Y-108.525
X223.837Y-91.675
X228.362Y-51.375
X228.362Y-70.425
X228.6Y-110.725
X233.362Y-53.575
X233.362Y-72.625
X237.887Y-89.475
X242.887Y-91.675
X247.412Y-70.425
X252.412Y-72.625
X256.938Y-89.475
X261.938Y-91.675
T7
X42.862Y-85.725
X52.387Y-66.675
X61.912Y-85.725
X71.438Y-47.625
X71.438Y-66.675
X76.2Y-104.775
X80.962Y-85.725
X90.487Y-47.625
X90.487Y-66.675
X95.25Y-104.775
X100.012Y-85.725
X109.537Y-66.675
X116.681Y-104.775
X119.063Y-85.725
X138.112Y-104.775
X166.688Y-104.775
X185.737Y-85.725
X188.119Y-104.775
X195.262Y-66.675
X204.787Y-85.725
X209.55Y-104.775
X214.312Y-47.625
X214.312Y-66.675
X223.837Y-85.725
X228.6Y-104.775
X233.362Y-47.625
X233.362Y-66.675
X242.887Y-85.725
X252.412Y-66.675
X261.938Y-85.725
T1
X141.375Y-61.972G85X141.375Y-59.472
G05
X141.375Y-66.734G85X141.375Y-64.234
G05
X141.375Y-71.497G85X141.375Y-68.997
G05
X141.375Y-59.472G85X144.375Y-59.472
G05
X141.375Y-61.972G85X144.375Y-61.972
G05
X141.375Y-64.234G85X144.375Y-64.234
G05
X141.375Y-66.734G85X144.375Y-66.734
G05
X141.375Y-68.997G85X144.375Y-68.997
G05
X141.375Y-71.497G85X144.375Y-71.497
G05
X144.375Y-61.972G85X144.375Y-59.472
G05
X144.375Y-66.734G85X144.375Y-64.234
G05
X144.375Y-71.497G85X144.375Y-68.997
G05
X160.425Y-61.972G85X160.425Y-59.472
G05
X160.425Y-66.734G85X160.425Y-64.234
G05
X160.425Y-71.497G85X160.425Y-68.997
G05
X160.425Y-59.472G85X163.425Y-59.472
G05
X160.425Y-61.972G85X163.425Y-61.972
G05
X160.425Y-64.234G85X163.425Y-64.234
G05
X160.425Y-66.734G85X163.425Y-66.734
G05
X160.425Y-68.997G85X163.425Y-68.997
G05
X160.425Y-71.497G85X163.425Y-71.497
G05
X163.425Y-61.972G85X163.425Y-59.472
G05
X163.425Y-66.734G85X163.425Y-64.234
G05
X163.425Y-71.497G85X163.425Y-68.997
G05
T5
X143.125Y-60.722G85X142.625Y-60.722
G05
X143.125Y-65.484G85X142.625Y-65.484
G05
X143.125Y-70.247G85X142.625Y-70.247
G05
X162.175Y-60.722G85X161.675Y-60.722
G05
X162.175Y-65.484G85X161.675Y-65.484
G05
X162.175Y-70.247G85X161.675Y-70.247
G05
M30
