%TF.GenerationSoftware,KiCad,Pcbnew,9.0.7*%
%TF.CreationDate,2026-03-01T08:46:25+09:00*%
%TF.ProjectId,Aida_Base,41696461-5f42-4617-9365-2e6b69636164,rev?*%
%TF.SameCoordinates,Original*%
%TF.FileFunction,Legend,Top*%
%TF.FilePolarity,Positive*%
%FSLAX46Y46*%
G04 Gerber Fmt 4.6, Leading zero omitted, Abs format (unit mm)*
G04 Created by KiCad (PCBNEW 9.0.7) date 2026-03-01 08:46:25*
%MOMM*%
%LPD*%
G01*
G04 APERTURE LIST*
%ADD10C,0.150000*%
G04 APERTURE END LIST*
D10*
X103774404Y-89243884D02*
X103441071Y-88767693D01*
X103202976Y-89243884D02*
X103202976Y-88243884D01*
X103202976Y-88243884D02*
X103583928Y-88243884D01*
X103583928Y-88243884D02*
X103679166Y-88291503D01*
X103679166Y-88291503D02*
X103726785Y-88339122D01*
X103726785Y-88339122D02*
X103774404Y-88434360D01*
X103774404Y-88434360D02*
X103774404Y-88577217D01*
X103774404Y-88577217D02*
X103726785Y-88672455D01*
X103726785Y-88672455D02*
X103679166Y-88720074D01*
X103679166Y-88720074D02*
X103583928Y-88767693D01*
X103583928Y-88767693D02*
X103202976Y-88767693D01*
X104583928Y-89196265D02*
X104488690Y-89243884D01*
X104488690Y-89243884D02*
X104298214Y-89243884D01*
X104298214Y-89243884D02*
X104202976Y-89196265D01*
X104202976Y-89196265D02*
X104155357Y-89101026D01*
X104155357Y-89101026D02*
X104155357Y-88720074D01*
X104155357Y-88720074D02*
X104202976Y-88624836D01*
X104202976Y-88624836D02*
X104298214Y-88577217D01*
X104298214Y-88577217D02*
X104488690Y-88577217D01*
X104488690Y-88577217D02*
X104583928Y-88624836D01*
X104583928Y-88624836D02*
X104631547Y-88720074D01*
X104631547Y-88720074D02*
X104631547Y-88815312D01*
X104631547Y-88815312D02*
X104155357Y-88910550D01*
X105012500Y-89196265D02*
X105107738Y-89243884D01*
X105107738Y-89243884D02*
X105298214Y-89243884D01*
X105298214Y-89243884D02*
X105393452Y-89196265D01*
X105393452Y-89196265D02*
X105441071Y-89101026D01*
X105441071Y-89101026D02*
X105441071Y-89053407D01*
X105441071Y-89053407D02*
X105393452Y-88958169D01*
X105393452Y-88958169D02*
X105298214Y-88910550D01*
X105298214Y-88910550D02*
X105155357Y-88910550D01*
X105155357Y-88910550D02*
X105060119Y-88862931D01*
X105060119Y-88862931D02*
X105012500Y-88767693D01*
X105012500Y-88767693D02*
X105012500Y-88720074D01*
X105012500Y-88720074D02*
X105060119Y-88624836D01*
X105060119Y-88624836D02*
X105155357Y-88577217D01*
X105155357Y-88577217D02*
X105298214Y-88577217D01*
X105298214Y-88577217D02*
X105393452Y-88624836D01*
X106250595Y-89196265D02*
X106155357Y-89243884D01*
X106155357Y-89243884D02*
X105964881Y-89243884D01*
X105964881Y-89243884D02*
X105869643Y-89196265D01*
X105869643Y-89196265D02*
X105822024Y-89101026D01*
X105822024Y-89101026D02*
X105822024Y-88720074D01*
X105822024Y-88720074D02*
X105869643Y-88624836D01*
X105869643Y-88624836D02*
X105964881Y-88577217D01*
X105964881Y-88577217D02*
X106155357Y-88577217D01*
X106155357Y-88577217D02*
X106250595Y-88624836D01*
X106250595Y-88624836D02*
X106298214Y-88720074D01*
X106298214Y-88720074D02*
X106298214Y-88815312D01*
X106298214Y-88815312D02*
X105822024Y-88910550D01*
X106583929Y-88577217D02*
X106964881Y-88577217D01*
X106726786Y-88243884D02*
X106726786Y-89101026D01*
X106726786Y-89101026D02*
X106774405Y-89196265D01*
X106774405Y-89196265D02*
X106869643Y-89243884D01*
X106869643Y-89243884D02*
X106964881Y-89243884D01*
%TO.C,J1*%
X143396875Y-35718750D02*
X143396875Y-47818750D01*
X143646875Y-35718750D02*
X143646875Y-33718750D01*
X149246875Y-33718750D02*
X143646875Y-33718750D01*
X149246875Y-35718750D02*
X149246875Y-33718750D01*
X149496875Y-35718750D02*
X143396875Y-35718750D01*
X149496875Y-35718750D02*
X149496875Y-47818750D01*
X149496875Y-47818750D02*
X143396875Y-47818750D01*
%TO.C,J2*%
X155303238Y-35718760D02*
X155303238Y-47818760D01*
X155553238Y-35718760D02*
X155553238Y-33718760D01*
X161153238Y-33718760D02*
X155553238Y-33718760D01*
X161153238Y-35718760D02*
X161153238Y-33718760D01*
X161403238Y-35718760D02*
X155303238Y-35718760D01*
X161403238Y-35718760D02*
X161403238Y-47818760D01*
X161403238Y-47818760D02*
X155303238Y-47818760D01*
%TD*%
M02*
