%TF.GenerationSoftware,KiCad,Pcbnew,9.0.7*%
%TF.CreationDate,2026-03-01T08:46:25+09:00*%
%TF.ProjectId,Aida_Base,41696461-5f42-4617-9365-2e6b69636164,rev?*%
%TF.SameCoordinates,Original*%
%TF.FileFunction,Profile,NP*%
%FSLAX46Y46*%
G04 Gerber Fmt 4.6, Leading zero omitted, Abs format (unit mm)*
G04 Created by KiCad (PCBNEW 9.0.7) date 2026-03-01 08:46:25*
%MOMM*%
%LPD*%
G01*
G04 APERTURE LIST*
%TA.AperFunction,Profile*%
%ADD10C,0.050000*%
%TD*%
%ADD11C,0.050000*%
%TA.AperFunction,Profile*%
%ADD12C,0.100000*%
%TD*%
G04 APERTURE END LIST*
D10*
X153184354Y-110428112D02*
X151612476Y-110428112D01*
X66674976Y-116681237D02*
X147042213Y-116681510D01*
D11*
X43457827Y-33337500D02*
X43448873Y-33337510D01*
X43439944Y-33337540D01*
X43431050Y-33337590D01*
X43422180Y-33337660D01*
X43413346Y-33337749D01*
X43404535Y-33337858D01*
X43395759Y-33337987D01*
X43387008Y-33338135D01*
X43378290Y-33338303D01*
X43369597Y-33338490D01*
X43360937Y-33338697D01*
X43352302Y-33338923D01*
X43343700Y-33339168D01*
X43335122Y-33339432D01*
X43326577Y-33339716D01*
X43318056Y-33340018D01*
X43309567Y-33340340D01*
X43301103Y-33340680D01*
X43292671Y-33341039D01*
X43284263Y-33341418D01*
X43275886Y-33341814D01*
X43267534Y-33342230D01*
X43259213Y-33342664D01*
X43250916Y-33343117D01*
X43242650Y-33343588D01*
X43234408Y-33344078D01*
X43226197Y-33344586D01*
X43218009Y-33345113D01*
X43209852Y-33345658D01*
X43201718Y-33346221D01*
X43193615Y-33346802D01*
X43185535Y-33347401D01*
X43177485Y-33348019D01*
X43169459Y-33348654D01*
X43161462Y-33349307D01*
X43153488Y-33349979D01*
X43145544Y-33350668D01*
X43137622Y-33351375D01*
X43129730Y-33352099D01*
X43121860Y-33352842D01*
X43114020Y-33353601D01*
X43106202Y-33354379D01*
X43098413Y-33355174D01*
X43090647Y-33355987D01*
X43082909Y-33356817D01*
X43075193Y-33357664D01*
X43067505Y-33358529D01*
X43059840Y-33359411D01*
X43052203Y-33360310D01*
X43044588Y-33361227D01*
X43037000Y-33362160D01*
X43029435Y-33363111D01*
X43021897Y-33364078D01*
X43014380Y-33365063D01*
X43006891Y-33366065D01*
X42999424Y-33367083D01*
X42991983Y-33368119D01*
X42984564Y-33369171D01*
X42977172Y-33370240D01*
X42969801Y-33371326D01*
X42962457Y-33372428D01*
X42955134Y-33373547D01*
X42947837Y-33374682D01*
X42940562Y-33375835D01*
X42933312Y-33377003D01*
X42926083Y-33378189D01*
X42918880Y-33379390D01*
X42911698Y-33380608D01*
X42904542Y-33381842D01*
X42897406Y-33383093D01*
X42890295Y-33384360D01*
X42883206Y-33385643D01*
X42876141Y-33386942D01*
X42869096Y-33388258D01*
X42862076Y-33389589D01*
X42855077Y-33390937D01*
X42848102Y-33392300D01*
X42841148Y-33393680D01*
X42834218Y-33395075D01*
X42827308Y-33396487D01*
X42820422Y-33397914D01*
X42813556Y-33399358D01*
X42806713Y-33400816D01*
X42799891Y-33402291D01*
X42793092Y-33403782D01*
X42786314Y-33405288D01*
X42779558Y-33406810D01*
X42772822Y-33408348D01*
X42766109Y-33409901D01*
X42759416Y-33411470D01*
X42752745Y-33413055D01*
X42746095Y-33414655D01*
X42739466Y-33416270D01*
X42732857Y-33417901D01*
X42726270Y-33419547D01*
X42719703Y-33421209D01*
X42713158Y-33422886D01*
X42706632Y-33424579D01*
X42700127Y-33426287D01*
X42693642Y-33428010D01*
X42687178Y-33429748D01*
X42680734Y-33431502D01*
X42674311Y-33433271D01*
X42667906Y-33435055D01*
X42661523Y-33436854D01*
X42655159Y-33438669D01*
X42648815Y-33440498D01*
X42642490Y-33442343D01*
X42636186Y-33444203D01*
X42629901Y-33446078D01*
X42623635Y-33447967D01*
X42617389Y-33449872D01*
X42611162Y-33451792D01*
X42604954Y-33453727D01*
X42598766Y-33455677D01*
X42592596Y-33457641D01*
X42586446Y-33459621D01*
X42580315Y-33461616D01*
X42574202Y-33463625D01*
X42568108Y-33465649D01*
X42562033Y-33467689D01*
X42555976Y-33469743D01*
X42549938Y-33471811D01*
X42543919Y-33473895D01*
X42537917Y-33475993D01*
X42531934Y-33478106D01*
X42525970Y-33480234D01*
X42520023Y-33482377D01*
X42514094Y-33484534D01*
X42508184Y-33486706D01*
X42502291Y-33488893D01*
X42496416Y-33491095D01*
X42490559Y-33493311D01*
X42484720Y-33495542D01*
X42478898Y-33497787D01*
X42473094Y-33500047D01*
X42467307Y-33502322D01*
X42461537Y-33504612D01*
X42455785Y-33506916D01*
X42450050Y-33509235D01*
X42444332Y-33511568D01*
X42438632Y-33513916D01*
X42432947Y-33516279D01*
X42427281Y-33518656D01*
X42421630Y-33521047D01*
X42415998Y-33523454D01*
X42410381Y-33525875D01*
X42404781Y-33528310D01*
X42399198Y-33530760D01*
X42393631Y-33533225D01*
X42388080Y-33535704D01*
X42382547Y-33538198D01*
X42377028Y-33540706D01*
X42371528Y-33543229D01*
X42366041Y-33545767D01*
X42360573Y-33548319D01*
X42355119Y-33550886D01*
X42349682Y-33553467D01*
X42344260Y-33556063D01*
X42338855Y-33558673D01*
X42333464Y-33561298D01*
X42328090Y-33563938D01*
X42322731Y-33566592D01*
X42317388Y-33569261D01*
X42312059Y-33571945D01*
X42306748Y-33574642D01*
X42301450Y-33577356D01*
X42296169Y-33580082D01*
X42285650Y-33585581D01*
X42275192Y-33591138D01*
X42264793Y-33596754D01*
X42254454Y-33602429D01*
X42244173Y-33608163D01*
X42233950Y-33613956D01*
X42223785Y-33619807D01*
X42213677Y-33625719D01*
X42203625Y-33631689D01*
X42193630Y-33637719D01*
X42183690Y-33643809D01*
X42173805Y-33649959D01*
X42163975Y-33656169D01*
X42154199Y-33662439D01*
X42144477Y-33668770D01*
X42134808Y-33675161D01*
X42125191Y-33681613D01*
X42115627Y-33688126D01*
X42106115Y-33694701D01*
X42096654Y-33701337D01*
X42087244Y-33708035D01*
X42077884Y-33714795D01*
X42068575Y-33721618D01*
X42059315Y-33728503D01*
X42050104Y-33735451D01*
X42040942Y-33742462D01*
X42031828Y-33749537D01*
X42022762Y-33756676D01*
X42013743Y-33763880D01*
X42004772Y-33771148D01*
X41995847Y-33778481D01*
X41986968Y-33785879D01*
X41978135Y-33793343D01*
X41969348Y-33800873D01*
X41960605Y-33808470D01*
X41951907Y-33816134D01*
X41943254Y-33823866D01*
X41934644Y-33831665D01*
X41926078Y-33839533D01*
X41917555Y-33847469D01*
X41909074Y-33855475D01*
X41900636Y-33863551D01*
X41892240Y-33871697D01*
X41883886Y-33879914D01*
X41875572Y-33888202D01*
X41867300Y-33896563D01*
X41859068Y-33904996D01*
X41850877Y-33913502D01*
X41842725Y-33922082D01*
X41834613Y-33930736D01*
X41826540Y-33939465D01*
X41818505Y-33948270D01*
X41810509Y-33957152D01*
X41802552Y-33966110D01*
X41794632Y-33975146D01*
X41786749Y-33984260D01*
X41778904Y-33993454D01*
X41771096Y-34002727D01*
X41763324Y-34012082D01*
X41755588Y-34021517D01*
X41747887Y-34031035D01*
X41740223Y-34040636D01*
X41732593Y-34050321D01*
X41724999Y-34060091D01*
X41717439Y-34069947D01*
X41709913Y-34079889D01*
X41702421Y-34089919D01*
X41694962Y-34100037D01*
X41687537Y-34110245D01*
X41680144Y-34120543D01*
X41672785Y-34130933D01*
X41665457Y-34141416D01*
X41658161Y-34151992D01*
X41650897Y-34162663D01*
X41643664Y-34173430D01*
X41636462Y-34184295D01*
X41629291Y-34195257D01*
X41622150Y-34206320D01*
X41615038Y-34217483D01*
X41607957Y-34228748D01*
X41600904Y-34240117D01*
X41593880Y-34251591D01*
X41586885Y-34263172D01*
X41579918Y-34274860D01*
X41572978Y-34286658D01*
X41566066Y-34298567D01*
X41559181Y-34310588D01*
X41552322Y-34322724D01*
X41545490Y-34334975D01*
X41538683Y-34347345D01*
X41531902Y-34359833D01*
X41525145Y-34372444D01*
X41518413Y-34385178D01*
X41511705Y-34398037D01*
X41505020Y-34411024D01*
X41498358Y-34424140D01*
X41491719Y-34437389D01*
X41485101Y-34450771D01*
X41478505Y-34464291D01*
X41471930Y-34477950D01*
X41465375Y-34491750D01*
X41458840Y-34505695D01*
X41452324Y-34519788D01*
X41445826Y-34534031D01*
X41439346Y-34548427D01*
X41432883Y-34562980D01*
X41426436Y-34577692D01*
X41420005Y-34592569D01*
X41413588Y-34607612D01*
X41407185Y-34622826D01*
X41400795Y-34638216D01*
X41394416Y-34653784D01*
X41388049Y-34669537D01*
X41381691Y-34685478D01*
X41375342Y-34701612D01*
X41369001Y-34717945D01*
X41362665Y-34734482D01*
X41356335Y-34751229D01*
X41350008Y-34768192D01*
X41343683Y-34785378D01*
X41337358Y-34802795D01*
X41331031Y-34820449D01*
X41324701Y-34838348D01*
X41318366Y-34856502D01*
X41312023Y-34874919D01*
X41305669Y-34893609D01*
X41299304Y-34912584D01*
X41292923Y-34931855D01*
X41286523Y-34951435D01*
X41280102Y-34971337D01*
X41273655Y-34991578D01*
X41267178Y-35012172D01*
X41260668Y-35033139D01*
X41254119Y-35054499D01*
X41247525Y-35076275D01*
X41240881Y-35098491D01*
X41234180Y-35121176D01*
X41227413Y-35144363D01*
X41220571Y-35168088D01*
X41213645Y-35192392D01*
X41206622Y-35217325D01*
X41199488Y-35242943D01*
X41192226Y-35269314D01*
X41184816Y-35296520D01*
X41177234Y-35324659D01*
X41169448Y-35353853D01*
X41161421Y-35384258D01*
X41153102Y-35416076D01*
X41144422Y-35449581D01*
X41135286Y-35485157D01*
X41125550Y-35523378D01*
X41114983Y-35565172D01*
X41103158Y-35612245D01*
X41089101Y-35668494D01*
X41076577Y-35718755D01*
D10*
X148232917Y-33337504D02*
X43457827Y-33337500D01*
X241697117Y-101203195D02*
G75*
G02*
X245268992Y-97631317I3571983J-105D01*
G01*
X66674976Y-116681237D02*
G75*
G02*
X63103063Y-113109362I24J3571937D01*
G01*
X151612500Y-105928112D02*
X153184354Y-105928112D01*
X153184354Y-64589011D02*
X151612476Y-64589011D01*
X270272117Y-97631320D02*
X245268992Y-97631320D01*
X150612476Y-37231237D02*
X150614169Y-35718753D01*
X148232919Y-33337503D02*
G75*
G02*
X150614197Y-35718753I-19J-2381297D01*
G01*
X263723641Y-35718838D02*
X273249442Y-73818944D01*
X151612500Y-60089011D02*
X153184354Y-60089011D01*
D11*
X31551569Y-73818861D02*
X31545522Y-73843089D01*
X31539516Y-73867234D01*
X31533552Y-73891293D01*
X31527628Y-73915270D01*
X31521747Y-73939162D01*
X31515906Y-73962974D01*
X31510106Y-73986701D01*
X31504346Y-74010347D01*
X31498627Y-74033911D01*
X31492948Y-74057395D01*
X31487309Y-74080798D01*
X31481710Y-74104121D01*
X31476150Y-74127363D01*
X31470630Y-74150527D01*
X31465150Y-74173612D01*
X31459708Y-74196618D01*
X31454306Y-74219547D01*
X31448942Y-74242397D01*
X31443617Y-74265171D01*
X31438330Y-74287868D01*
X31433082Y-74310489D01*
X31427872Y-74333034D01*
X31422699Y-74355504D01*
X31417565Y-74377898D01*
X31412467Y-74400218D01*
X31407408Y-74422464D01*
X31402385Y-74444637D01*
X31397400Y-74466735D01*
X31392451Y-74488762D01*
X31387540Y-74510715D01*
X31382664Y-74532599D01*
X31377825Y-74554408D01*
X31373022Y-74576149D01*
X31368256Y-74597816D01*
X31363525Y-74619416D01*
X31358830Y-74640944D01*
X31354170Y-74662405D01*
X31349547Y-74683794D01*
X31344957Y-74705117D01*
X31340404Y-74726370D01*
X31335885Y-74747558D01*
X31331401Y-74768675D01*
X31326951Y-74789730D01*
X31322536Y-74810714D01*
X31318155Y-74831636D01*
X31313808Y-74852489D01*
X31309495Y-74873281D01*
X31305217Y-74894003D01*
X31300971Y-74914667D01*
X31296759Y-74935261D01*
X31292580Y-74955798D01*
X31288435Y-74976266D01*
X31284322Y-74996677D01*
X31280243Y-75017020D01*
X31276195Y-75037308D01*
X31272182Y-75057529D01*
X31268199Y-75077695D01*
X31264250Y-75097794D01*
X31260332Y-75117840D01*
X31256447Y-75137820D01*
X31252592Y-75157748D01*
X31248771Y-75177610D01*
X31244979Y-75197421D01*
X31241221Y-75217167D01*
X31237492Y-75236864D01*
X31233795Y-75256495D01*
X31230128Y-75276079D01*
X31226494Y-75295598D01*
X31222888Y-75315070D01*
X31219315Y-75334479D01*
X31215770Y-75353842D01*
X31212257Y-75373141D01*
X31208773Y-75392396D01*
X31205320Y-75411588D01*
X31201895Y-75430738D01*
X31198501Y-75449824D01*
X31195136Y-75468870D01*
X31191801Y-75487852D01*
X31188494Y-75506795D01*
X31185218Y-75525676D01*
X31181968Y-75544519D01*
X31178750Y-75563300D01*
X31175558Y-75582044D01*
X31172397Y-75600726D01*
X31169262Y-75619373D01*
X31166158Y-75637959D01*
X31163079Y-75656511D01*
X31160031Y-75675003D01*
X31157008Y-75693462D01*
X31154015Y-75711861D01*
X31151048Y-75730228D01*
X31148111Y-75748536D01*
X31145198Y-75766815D01*
X31142315Y-75785034D01*
X31136628Y-75821357D01*
X31131048Y-75857509D01*
X31125575Y-75893495D01*
X31120206Y-75929318D01*
X31114943Y-75964982D01*
X31109782Y-76000491D01*
X31104724Y-76035850D01*
X31099767Y-76071063D01*
X31094911Y-76106133D01*
X31090154Y-76141065D01*
X31085496Y-76175864D01*
X31080935Y-76210533D01*
X31076472Y-76245078D01*
X31072103Y-76279503D01*
X31067830Y-76313813D01*
X31063651Y-76348011D01*
X31059565Y-76382105D01*
X31055571Y-76416097D01*
X31051669Y-76449994D01*
X31047857Y-76483800D01*
X31044135Y-76517522D01*
X31040502Y-76551164D01*
X31036956Y-76584732D01*
X31033498Y-76618232D01*
X31030126Y-76651671D01*
X31026840Y-76685054D01*
X31023639Y-76718388D01*
X31020522Y-76751679D01*
X31017488Y-76784934D01*
X31014536Y-76818161D01*
X31011666Y-76851367D01*
X31008877Y-76884560D01*
X31006169Y-76917748D01*
X31003539Y-76950940D01*
X31000989Y-76984143D01*
X30998517Y-77017369D01*
X30996122Y-77050626D01*
X30993804Y-77083924D01*
X30991562Y-77117276D01*
X30989395Y-77150691D01*
X30987303Y-77184183D01*
X30985285Y-77217765D01*
X30983340Y-77251450D01*
X30981468Y-77285253D01*
X30979668Y-77319191D01*
X30977939Y-77353280D01*
X30976282Y-77387539D01*
X30974694Y-77421987D01*
X30973177Y-77456647D01*
X30971728Y-77491543D01*
X30970348Y-77526699D01*
X30969036Y-77562146D01*
X30967791Y-77597914D01*
X30966614Y-77634038D01*
X30965502Y-77670559D01*
X30964456Y-77707520D01*
X30963476Y-77744971D01*
X30962560Y-77782970D01*
X30961709Y-77821583D01*
X30960921Y-77860886D01*
X30960196Y-77900970D01*
X30959534Y-77941942D01*
X30958935Y-77983933D01*
X30958397Y-78027102D01*
X30957921Y-78071649D01*
X30957505Y-78117833D01*
X30957149Y-78165995D01*
X30956853Y-78216606D01*
X30956616Y-78270352D01*
X30956436Y-78328295D01*
X30956314Y-78392272D01*
X30956246Y-78466037D01*
X30956226Y-78581237D01*
D10*
X59531226Y-97631237D02*
G75*
G02*
X63103063Y-101203112I-126J-3571963D01*
G01*
X153186047Y-38231342D02*
X151612476Y-38231237D01*
X154186073Y-113109520D02*
X154187742Y-111428195D01*
X34528101Y-97631237D02*
X59531226Y-97631237D01*
D11*
X273248649Y-73818944D02*
X273254696Y-73843172D01*
X273260702Y-73867317D01*
X273266666Y-73891376D01*
X273272590Y-73915353D01*
X273278471Y-73939245D01*
X273284312Y-73963057D01*
X273290112Y-73986784D01*
X273295872Y-74010430D01*
X273301591Y-74033994D01*
X273307270Y-74057478D01*
X273312909Y-74080881D01*
X273318508Y-74104204D01*
X273324068Y-74127446D01*
X273329588Y-74150610D01*
X273335068Y-74173695D01*
X273340510Y-74196701D01*
X273345912Y-74219630D01*
X273351276Y-74242480D01*
X273356601Y-74265254D01*
X273361888Y-74287951D01*
X273367136Y-74310572D01*
X273372346Y-74333117D01*
X273377519Y-74355587D01*
X273382653Y-74377981D01*
X273387751Y-74400301D01*
X273392810Y-74422547D01*
X273397833Y-74444720D01*
X273402818Y-74466818D01*
X273407767Y-74488845D01*
X273412678Y-74510798D01*
X273417554Y-74532682D01*
X273422393Y-74554491D01*
X273427196Y-74576232D01*
X273431962Y-74597899D01*
X273436693Y-74619499D01*
X273441388Y-74641027D01*
X273446048Y-74662488D01*
X273450671Y-74683877D01*
X273455261Y-74705200D01*
X273459814Y-74726453D01*
X273464333Y-74747641D01*
X273468817Y-74768758D01*
X273473267Y-74789813D01*
X273477682Y-74810797D01*
X273482063Y-74831719D01*
X273486410Y-74852572D01*
X273490723Y-74873364D01*
X273495001Y-74894086D01*
X273499247Y-74914750D01*
X273503459Y-74935344D01*
X273507638Y-74955881D01*
X273511783Y-74976349D01*
X273515896Y-74996760D01*
X273519975Y-75017103D01*
X273524023Y-75037391D01*
X273528036Y-75057612D01*
X273532019Y-75077778D01*
X273535968Y-75097877D01*
X273539886Y-75117923D01*
X273543771Y-75137903D01*
X273547626Y-75157831D01*
X273551447Y-75177693D01*
X273555239Y-75197504D01*
X273558997Y-75217250D01*
X273562726Y-75236947D01*
X273566423Y-75256578D01*
X273570090Y-75276162D01*
X273573724Y-75295681D01*
X273577330Y-75315153D01*
X273580903Y-75334562D01*
X273584448Y-75353925D01*
X273587961Y-75373224D01*
X273591445Y-75392479D01*
X273594898Y-75411671D01*
X273598323Y-75430821D01*
X273601717Y-75449907D01*
X273605082Y-75468953D01*
X273608417Y-75487935D01*
X273611724Y-75506878D01*
X273615000Y-75525759D01*
X273618250Y-75544602D01*
X273621468Y-75563383D01*
X273624660Y-75582127D01*
X273627821Y-75600809D01*
X273630956Y-75619456D01*
X273634060Y-75638042D01*
X273637139Y-75656594D01*
X273640187Y-75675086D01*
X273643210Y-75693545D01*
X273646203Y-75711944D01*
X273649170Y-75730311D01*
X273652107Y-75748619D01*
X273655020Y-75766898D01*
X273657903Y-75785117D01*
X273663590Y-75821440D01*
X273669170Y-75857592D01*
X273674643Y-75893578D01*
X273680012Y-75929401D01*
X273685275Y-75965065D01*
X273690436Y-76000574D01*
X273695494Y-76035933D01*
X273700451Y-76071146D01*
X273705307Y-76106216D01*
X273710064Y-76141148D01*
X273714722Y-76175947D01*
X273719283Y-76210616D01*
X273723746Y-76245161D01*
X273728115Y-76279586D01*
X273732388Y-76313896D01*
X273736567Y-76348094D01*
X273740653Y-76382188D01*
X273744647Y-76416180D01*
X273748549Y-76450077D01*
X273752361Y-76483883D01*
X273756083Y-76517605D01*
X273759716Y-76551247D01*
X273763262Y-76584815D01*
X273766720Y-76618315D01*
X273770092Y-76651754D01*
X273773378Y-76685137D01*
X273776579Y-76718471D01*
X273779696Y-76751762D01*
X273782730Y-76785017D01*
X273785682Y-76818244D01*
X273788552Y-76851450D01*
X273791341Y-76884643D01*
X273794049Y-76917831D01*
X273796679Y-76951023D01*
X273799229Y-76984226D01*
X273801701Y-77017452D01*
X273804096Y-77050709D01*
X273806414Y-77084007D01*
X273808656Y-77117359D01*
X273810823Y-77150774D01*
X273812915Y-77184266D01*
X273814933Y-77217848D01*
X273816878Y-77251533D01*
X273818750Y-77285336D01*
X273820550Y-77319274D01*
X273822279Y-77353363D01*
X273823936Y-77387622D01*
X273825524Y-77422070D01*
X273827041Y-77456730D01*
X273828490Y-77491626D01*
X273829870Y-77526782D01*
X273831182Y-77562229D01*
X273832427Y-77597997D01*
X273833604Y-77634121D01*
X273834716Y-77670642D01*
X273835762Y-77707603D01*
X273836742Y-77745054D01*
X273837658Y-77783053D01*
X273838509Y-77821666D01*
X273839297Y-77860969D01*
X273840022Y-77901053D01*
X273840684Y-77942025D01*
X273841283Y-77984016D01*
X273841821Y-78027185D01*
X273842297Y-78071732D01*
X273842713Y-78117916D01*
X273843069Y-78166078D01*
X273843365Y-78216689D01*
X273843602Y-78270435D01*
X273843782Y-78328378D01*
X273843904Y-78392355D01*
X273843972Y-78466120D01*
X273843992Y-78581320D01*
D10*
X154187742Y-37231320D02*
X154186049Y-35718836D01*
X41076577Y-35718755D02*
X31550776Y-73818861D01*
X154186049Y-35718836D02*
G75*
G02*
X156567299Y-33337549I2381351J-64D01*
G01*
X238125242Y-116681320D02*
X157758005Y-116681593D01*
X241697117Y-113109445D02*
G75*
G02*
X238125242Y-116681317I-3571917J45D01*
G01*
X154184354Y-59089011D02*
X154187742Y-43731320D01*
X153186047Y-42731342D02*
X151612476Y-42731237D01*
X241697117Y-101203195D02*
X241697117Y-113109445D01*
X154184354Y-104928112D02*
X154184354Y-65589011D01*
X273843992Y-94059445D02*
G75*
G02*
X270272117Y-97631392I-3571892J-55D01*
G01*
X150612476Y-104928112D02*
X150612476Y-65589011D01*
X157758005Y-116681593D02*
G75*
G02*
X154186007Y-113109520I-5J3571993D01*
G01*
D11*
X261342391Y-33337583D02*
X261351345Y-33337593D01*
X261360274Y-33337623D01*
X261369168Y-33337673D01*
X261378038Y-33337743D01*
X261386872Y-33337832D01*
X261395683Y-33337941D01*
X261404459Y-33338070D01*
X261413210Y-33338218D01*
X261421928Y-33338386D01*
X261430621Y-33338573D01*
X261439281Y-33338780D01*
X261447916Y-33339006D01*
X261456518Y-33339251D01*
X261465096Y-33339515D01*
X261473641Y-33339799D01*
X261482162Y-33340101D01*
X261490651Y-33340423D01*
X261499115Y-33340763D01*
X261507547Y-33341122D01*
X261515955Y-33341501D01*
X261524332Y-33341897D01*
X261532684Y-33342313D01*
X261541005Y-33342747D01*
X261549302Y-33343200D01*
X261557568Y-33343671D01*
X261565810Y-33344161D01*
X261574021Y-33344669D01*
X261582209Y-33345196D01*
X261590366Y-33345741D01*
X261598500Y-33346304D01*
X261606603Y-33346885D01*
X261614683Y-33347484D01*
X261622733Y-33348102D01*
X261630759Y-33348737D01*
X261638756Y-33349390D01*
X261646730Y-33350062D01*
X261654674Y-33350751D01*
X261662596Y-33351458D01*
X261670488Y-33352182D01*
X261678358Y-33352925D01*
X261686198Y-33353684D01*
X261694016Y-33354462D01*
X261701805Y-33355257D01*
X261709571Y-33356070D01*
X261717309Y-33356900D01*
X261725025Y-33357747D01*
X261732713Y-33358612D01*
X261740378Y-33359494D01*
X261748015Y-33360393D01*
X261755630Y-33361310D01*
X261763218Y-33362243D01*
X261770783Y-33363194D01*
X261778321Y-33364161D01*
X261785838Y-33365146D01*
X261793327Y-33366148D01*
X261800794Y-33367166D01*
X261808235Y-33368202D01*
X261815654Y-33369254D01*
X261823046Y-33370323D01*
X261830417Y-33371409D01*
X261837761Y-33372511D01*
X261845084Y-33373630D01*
X261852381Y-33374765D01*
X261859656Y-33375918D01*
X261866906Y-33377086D01*
X261874135Y-33378272D01*
X261881338Y-33379473D01*
X261888520Y-33380691D01*
X261895676Y-33381925D01*
X261902812Y-33383176D01*
X261909923Y-33384443D01*
X261917012Y-33385726D01*
X261924077Y-33387025D01*
X261931122Y-33388341D01*
X261938142Y-33389672D01*
X261945141Y-33391020D01*
X261952116Y-33392383D01*
X261959070Y-33393763D01*
X261966000Y-33395158D01*
X261972910Y-33396570D01*
X261979796Y-33397997D01*
X261986662Y-33399441D01*
X261993505Y-33400899D01*
X262000327Y-33402374D01*
X262007126Y-33403865D01*
X262013904Y-33405371D01*
X262020660Y-33406893D01*
X262027396Y-33408431D01*
X262034109Y-33409984D01*
X262040802Y-33411553D01*
X262047473Y-33413138D01*
X262054123Y-33414738D01*
X262060752Y-33416353D01*
X262067361Y-33417984D01*
X262073948Y-33419630D01*
X262080515Y-33421292D01*
X262087060Y-33422969D01*
X262093586Y-33424662D01*
X262100091Y-33426370D01*
X262106576Y-33428093D01*
X262113040Y-33429831D01*
X262119484Y-33431585D01*
X262125907Y-33433354D01*
X262132312Y-33435138D01*
X262138695Y-33436937D01*
X262145059Y-33438752D01*
X262151403Y-33440581D01*
X262157728Y-33442426D01*
X262164032Y-33444286D01*
X262170317Y-33446161D01*
X262176583Y-33448050D01*
X262182829Y-33449955D01*
X262189056Y-33451875D01*
X262195264Y-33453810D01*
X262201452Y-33455760D01*
X262207622Y-33457724D01*
X262213772Y-33459704D01*
X262219903Y-33461699D01*
X262226016Y-33463708D01*
X262232110Y-33465732D01*
X262238185Y-33467772D01*
X262244242Y-33469826D01*
X262250280Y-33471894D01*
X262256299Y-33473978D01*
X262262301Y-33476076D01*
X262268284Y-33478189D01*
X262274248Y-33480317D01*
X262280195Y-33482460D01*
X262286124Y-33484617D01*
X262292034Y-33486789D01*
X262297927Y-33488976D01*
X262303802Y-33491178D01*
X262309659Y-33493394D01*
X262315498Y-33495625D01*
X262321320Y-33497870D01*
X262327124Y-33500130D01*
X262332911Y-33502405D01*
X262338681Y-33504695D01*
X262344433Y-33506999D01*
X262350168Y-33509318D01*
X262355886Y-33511651D01*
X262361586Y-33513999D01*
X262367271Y-33516362D01*
X262372937Y-33518739D01*
X262378588Y-33521130D01*
X262384220Y-33523537D01*
X262389837Y-33525958D01*
X262395437Y-33528393D01*
X262401020Y-33530843D01*
X262406587Y-33533308D01*
X262412138Y-33535787D01*
X262417671Y-33538281D01*
X262423190Y-33540789D01*
X262428690Y-33543312D01*
X262434177Y-33545850D01*
X262439645Y-33548402D01*
X262445099Y-33550969D01*
X262450536Y-33553550D01*
X262455958Y-33556146D01*
X262461363Y-33558756D01*
X262466754Y-33561381D01*
X262472128Y-33564021D01*
X262477487Y-33566675D01*
X262482830Y-33569344D01*
X262488159Y-33572028D01*
X262493470Y-33574725D01*
X262498768Y-33577439D01*
X262504049Y-33580165D01*
X262514568Y-33585664D01*
X262525026Y-33591221D01*
X262535425Y-33596837D01*
X262545764Y-33602512D01*
X262556045Y-33608246D01*
X262566268Y-33614039D01*
X262576433Y-33619890D01*
X262586541Y-33625802D01*
X262596593Y-33631772D01*
X262606588Y-33637802D01*
X262616528Y-33643892D01*
X262626413Y-33650042D01*
X262636243Y-33656252D01*
X262646019Y-33662522D01*
X262655741Y-33668853D01*
X262665410Y-33675244D01*
X262675027Y-33681696D01*
X262684591Y-33688209D01*
X262694103Y-33694784D01*
X262703564Y-33701420D01*
X262712974Y-33708118D01*
X262722334Y-33714878D01*
X262731643Y-33721701D01*
X262740903Y-33728586D01*
X262750114Y-33735534D01*
X262759276Y-33742545D01*
X262768390Y-33749620D01*
X262777456Y-33756759D01*
X262786475Y-33763963D01*
X262795446Y-33771231D01*
X262804371Y-33778564D01*
X262813250Y-33785962D01*
X262822083Y-33793426D01*
X262830870Y-33800956D01*
X262839613Y-33808553D01*
X262848311Y-33816217D01*
X262856964Y-33823949D01*
X262865574Y-33831748D01*
X262874140Y-33839616D01*
X262882663Y-33847552D01*
X262891144Y-33855558D01*
X262899582Y-33863634D01*
X262907978Y-33871780D01*
X262916332Y-33879997D01*
X262924646Y-33888285D01*
X262932918Y-33896646D01*
X262941150Y-33905079D01*
X262949341Y-33913585D01*
X262957493Y-33922165D01*
X262965605Y-33930819D01*
X262973678Y-33939548D01*
X262981713Y-33948353D01*
X262989709Y-33957235D01*
X262997666Y-33966193D01*
X263005586Y-33975229D01*
X263013469Y-33984343D01*
X263021314Y-33993537D01*
X263029122Y-34002810D01*
X263036894Y-34012165D01*
X263044630Y-34021600D01*
X263052331Y-34031118D01*
X263059995Y-34040719D01*
X263067625Y-34050404D01*
X263075219Y-34060174D01*
X263082779Y-34070030D01*
X263090305Y-34079972D01*
X263097797Y-34090002D01*
X263105256Y-34100120D01*
X263112681Y-34110328D01*
X263120074Y-34120626D01*
X263127433Y-34131016D01*
X263134761Y-34141499D01*
X263142057Y-34152075D01*
X263149321Y-34162746D01*
X263156554Y-34173513D01*
X263163756Y-34184378D01*
X263170927Y-34195340D01*
X263178068Y-34206403D01*
X263185180Y-34217566D01*
X263192261Y-34228831D01*
X263199314Y-34240200D01*
X263206338Y-34251674D01*
X263213333Y-34263255D01*
X263220300Y-34274943D01*
X263227240Y-34286741D01*
X263234152Y-34298650D01*
X263241037Y-34310671D01*
X263247896Y-34322807D01*
X263254728Y-34335058D01*
X263261535Y-34347428D01*
X263268316Y-34359916D01*
X263275073Y-34372527D01*
X263281805Y-34385261D01*
X263288513Y-34398120D01*
X263295198Y-34411107D01*
X263301860Y-34424223D01*
X263308499Y-34437472D01*
X263315117Y-34450854D01*
X263321713Y-34464374D01*
X263328288Y-34478033D01*
X263334843Y-34491833D01*
X263341378Y-34505778D01*
X263347894Y-34519871D01*
X263354392Y-34534114D01*
X263360872Y-34548510D01*
X263367335Y-34563063D01*
X263373782Y-34577775D01*
X263380213Y-34592652D01*
X263386630Y-34607695D01*
X263393033Y-34622909D01*
X263399423Y-34638299D01*
X263405802Y-34653867D01*
X263412169Y-34669620D01*
X263418527Y-34685561D01*
X263424876Y-34701695D01*
X263431217Y-34718028D01*
X263437553Y-34734565D01*
X263443883Y-34751312D01*
X263450210Y-34768275D01*
X263456535Y-34785461D01*
X263462860Y-34802878D01*
X263469187Y-34820532D01*
X263475517Y-34838431D01*
X263481852Y-34856585D01*
X263488195Y-34875002D01*
X263494549Y-34893692D01*
X263500914Y-34912667D01*
X263507295Y-34931938D01*
X263513695Y-34951518D01*
X263520116Y-34971420D01*
X263526563Y-34991661D01*
X263533040Y-35012255D01*
X263539550Y-35033222D01*
X263546099Y-35054582D01*
X263552693Y-35076358D01*
X263559337Y-35098574D01*
X263566038Y-35121259D01*
X263572805Y-35144446D01*
X263579647Y-35168171D01*
X263586573Y-35192475D01*
X263593596Y-35217408D01*
X263600730Y-35243026D01*
X263607992Y-35269397D01*
X263615402Y-35296603D01*
X263622984Y-35324742D01*
X263630770Y-35353936D01*
X263638797Y-35384341D01*
X263647116Y-35416159D01*
X263655796Y-35449664D01*
X263664932Y-35485240D01*
X263674668Y-35523461D01*
X263685235Y-35565255D01*
X263697060Y-35612328D01*
X263711117Y-35668577D01*
X263723641Y-35718838D01*
D10*
X34528101Y-97631237D02*
G75*
G02*
X30956263Y-94059362I-1J3571837D01*
G01*
X30956226Y-78581237D02*
X30956226Y-94059362D01*
X150612476Y-59089011D02*
X150612476Y-43731237D01*
X63103101Y-101203112D02*
X63103101Y-113109362D01*
X150614145Y-113109437D02*
X150612476Y-111428112D01*
X150614145Y-113109437D02*
G75*
G02*
X147042213Y-116681445I-3571945J-63D01*
G01*
X273843992Y-78581320D02*
X273843992Y-94059445D01*
X156567301Y-33337587D02*
X261342391Y-33337583D01*
D12*
%TO.C,REF\u002A\u002A*%
X153184354Y-110428112D02*
G75*
G02*
X154184354Y-111428112I1J-999999D01*
G01*
X154184354Y-104928112D02*
G75*
G02*
X153184354Y-105928112I-1000000J0D01*
G01*
X150612476Y-43731237D02*
G75*
G02*
X151612476Y-42731237I1000000J0D01*
G01*
X151612476Y-38231237D02*
G75*
G02*
X150612476Y-37231237I-1J999999D01*
G01*
X150612476Y-111428112D02*
G75*
G02*
X151612476Y-110428112I1000000J0D01*
G01*
X151612476Y-105928112D02*
G75*
G02*
X150612476Y-104928112I-1J999999D01*
G01*
X153186047Y-42731342D02*
G75*
G02*
X154186047Y-43731342I1J-999999D01*
G01*
X154186047Y-37231342D02*
G75*
G02*
X153186047Y-38231342I-1000000J0D01*
G01*
X153184354Y-64589011D02*
G75*
G02*
X154184354Y-65589011I1J-999999D01*
G01*
X154184354Y-59089011D02*
G75*
G02*
X153184354Y-60089011I-1000000J0D01*
G01*
X150612476Y-65589011D02*
G75*
G02*
X151612476Y-64589011I1000000J0D01*
G01*
X151612476Y-60089011D02*
G75*
G02*
X150612476Y-59089011I-1J999999D01*
G01*
%TD*%
M02*
