%TF.GenerationSoftware,KiCad,Pcbnew,9.0.7*%
%TF.CreationDate,2026-03-01T08:46:25+09:00*%
%TF.ProjectId,Aida_Base,41696461-5f42-4617-9365-2e6b69636164,rev?*%
%TF.SameCoordinates,Original*%
%TF.FileFunction,Paste,Bot*%
%TF.FilePolarity,Positive*%
%FSLAX46Y46*%
G04 Gerber Fmt 4.6, Leading zero omitted, Abs format (unit mm)*
G04 Created by KiCad (PCBNEW 9.0.7) date 2026-03-01 08:46:25*
%MOMM*%
%LPD*%
G01*
G04 APERTURE LIST*
G04 Aperture macros list*
%AMRoundRect*
0 Rectangle with rounded corners*
0 $1 Rounding radius*
0 $2 $3 $4 $5 $6 $7 $8 $9 X,Y pos of 4 corners*
0 Add a 4 corners polygon primitive as box body*
4,1,4,$2,$3,$4,$5,$6,$7,$8,$9,$2,$3,0*
0 Add four circle primitives for the rounded corners*
1,1,$1+$1,$2,$3*
1,1,$1+$1,$4,$5*
1,1,$1+$1,$6,$7*
1,1,$1+$1,$8,$9*
0 Add four rect primitives between the rounded corners*
20,1,$1+$1,$2,$3,$4,$5,0*
20,1,$1+$1,$4,$5,$6,$7,0*
20,1,$1+$1,$6,$7,$8,$9,0*
20,1,$1+$1,$8,$9,$2,$3,0*%
G04 Aperture macros list end*
%ADD10R,2.600000X2.600000*%
%ADD11R,0.900000X1.200000*%
%ADD12RoundRect,0.140000X-0.170000X0.140000X-0.170000X-0.140000X0.170000X-0.140000X0.170000X0.140000X0*%
%ADD13R,0.600000X1.450000*%
%ADD14R,0.300000X1.450000*%
%ADD15RoundRect,0.140000X0.140000X0.170000X-0.140000X0.170000X-0.140000X-0.170000X0.140000X-0.170000X0*%
%ADD16R,1.050000X0.650000*%
%ADD17R,1.315624X0.820000*%
%ADD18RoundRect,0.140000X0.170000X-0.140000X0.170000X0.140000X-0.170000X0.140000X-0.170000X-0.140000X0*%
%ADD19RoundRect,0.135000X-0.135000X-0.185000X0.135000X-0.185000X0.135000X0.185000X-0.135000X0.185000X0*%
%ADD20RoundRect,0.140000X-0.140000X-0.170000X0.140000X-0.170000X0.140000X0.170000X-0.140000X0.170000X0*%
%ADD21RoundRect,0.135000X0.185000X-0.135000X0.185000X0.135000X-0.185000X0.135000X-0.185000X-0.135000X0*%
%ADD22RoundRect,0.135000X-0.185000X0.135000X-0.185000X-0.135000X0.185000X-0.135000X0.185000X0.135000X0*%
%ADD23RoundRect,0.175000X0.325000X-0.175000X0.325000X0.175000X-0.325000X0.175000X-0.325000X-0.175000X0*%
%ADD24RoundRect,0.150000X0.150000X-0.200000X0.150000X0.200000X-0.150000X0.200000X-0.150000X-0.200000X0*%
%ADD25RoundRect,0.150000X-0.587500X-0.150000X0.587500X-0.150000X0.587500X0.150000X-0.587500X0.150000X0*%
%ADD26RoundRect,0.135000X0.135000X0.185000X-0.135000X0.185000X-0.135000X-0.185000X0.135000X-0.185000X0*%
%ADD27RoundRect,0.150000X0.512500X0.150000X-0.512500X0.150000X-0.512500X-0.150000X0.512500X-0.150000X0*%
%ADD28RoundRect,0.218750X0.218750X0.256250X-0.218750X0.256250X-0.218750X-0.256250X0.218750X-0.256250X0*%
%ADD29RoundRect,0.225000X-0.225000X-0.375000X0.225000X-0.375000X0.225000X0.375000X-0.225000X0.375000X0*%
%ADD30R,0.400000X1.900000*%
%ADD31RoundRect,0.162500X0.162500X-0.650000X0.162500X0.650000X-0.162500X0.650000X-0.162500X-0.650000X0*%
%ADD32RoundRect,0.090000X-0.139000X-0.090000X0.139000X-0.090000X0.139000X0.090000X-0.139000X0.090000X0*%
%ADD33R,1.300000X3.400000*%
%ADD34RoundRect,0.250000X0.292217X0.292217X-0.292217X0.292217X-0.292217X-0.292217X0.292217X-0.292217X0*%
%ADD35RoundRect,0.050000X0.387500X0.050000X-0.387500X0.050000X-0.387500X-0.050000X0.387500X-0.050000X0*%
%ADD36RoundRect,0.050000X0.050000X0.387500X-0.050000X0.387500X-0.050000X-0.387500X0.050000X-0.387500X0*%
%ADD37RoundRect,0.150000X0.587500X0.150000X-0.587500X0.150000X-0.587500X-0.150000X0.587500X-0.150000X0*%
%ADD38RoundRect,0.150000X-0.512500X-0.150000X0.512500X-0.150000X0.512500X0.150000X-0.512500X0.150000X0*%
%ADD39RoundRect,0.175000X-0.325000X0.175000X-0.325000X-0.175000X0.325000X-0.175000X0.325000X0.175000X0*%
%ADD40RoundRect,0.150000X-0.150000X0.200000X-0.150000X-0.200000X0.150000X-0.200000X0.150000X0.200000X0*%
%ADD41RoundRect,0.225000X0.225000X0.375000X-0.225000X0.375000X-0.225000X-0.375000X0.225000X-0.375000X0*%
%ADD42RoundRect,0.218750X-0.218750X-0.256250X0.218750X-0.256250X0.218750X0.256250X-0.218750X0.256250X0*%
G04 APERTURE END LIST*
D10*
%TO.C,SW_CMD_L1*%
X98525000Y-110725000D03*
X86975000Y-108525000D03*
%TD*%
%TO.C,SW_A1*%
X55662500Y-72625000D03*
X44112500Y-70425000D03*
%TD*%
%TO.C,SW_L1*%
X236637500Y-72625000D03*
X225087500Y-70425000D03*
%TD*%
%TO.C,SW_/1*%
X265212500Y-91675000D03*
X253662500Y-89475000D03*
%TD*%
%TO.C,SW_F1*%
X112812500Y-72625000D03*
X101262500Y-70425000D03*
%TD*%
%TO.C,SW_I1*%
X217587500Y-53575000D03*
X206037500Y-51375000D03*
%TD*%
%TO.C,SW_K1*%
X217587500Y-72625000D03*
X206037500Y-70425000D03*
%TD*%
%TO.C,SW_S1*%
X74712500Y-72625000D03*
X63162500Y-70425000D03*
%TD*%
%TO.C,SW_C1*%
X84237500Y-91675000D03*
X72687500Y-89475000D03*
%TD*%
%TO.C,SW_V1*%
X103287500Y-91675000D03*
X91737500Y-89475000D03*
%TD*%
%TO.C,SW_X1*%
X65187500Y-91675000D03*
X53637500Y-89475000D03*
%TD*%
%TO.C,SW_B1*%
X122337604Y-91675060D03*
X110787604Y-89475060D03*
%TD*%
%TO.C,SW_OPT_R1*%
X231875000Y-110725000D03*
X220325000Y-108525000D03*
%TD*%
%TO.C,SW_CTL1*%
X141387500Y-110725000D03*
X129837500Y-108525000D03*
%TD*%
%TO.C,SW_D1*%
X93762500Y-72625000D03*
X82212500Y-70425000D03*
%TD*%
%TO.C,SW_SPC1*%
X119956250Y-110725000D03*
X108406250Y-108525000D03*
%TD*%
%TO.C,SW_CMD_R1*%
X212825000Y-110725000D03*
X201275000Y-108525000D03*
%TD*%
%TO.C,SW_BS1*%
X169962500Y-110725000D03*
X158412500Y-108525000D03*
%TD*%
%TO.C,SW_M1*%
X208062500Y-91675000D03*
X196512500Y-89475000D03*
%TD*%
%TO.C,SW_O1*%
X236637500Y-53575000D03*
X225087500Y-51375000D03*
%TD*%
%TO.C,SW_-1*%
X255687500Y-72625000D03*
X244137500Y-70425000D03*
%TD*%
%TO.C,SW_>1*%
X246162500Y-91675000D03*
X234612500Y-89475000D03*
%TD*%
%TO.C,SW_ENT1*%
X191393750Y-110725000D03*
X179843750Y-108525000D03*
%TD*%
%TO.C,SW_W1*%
X74712500Y-53575000D03*
X63162500Y-51375000D03*
%TD*%
%TO.C,SW_E1*%
X93762500Y-53575000D03*
X82212500Y-51375000D03*
%TD*%
%TO.C,SW_Z1*%
X46137500Y-91675000D03*
X34587500Y-89475000D03*
%TD*%
%TO.C,SW_J1*%
X198537500Y-72625000D03*
X186987500Y-70425000D03*
%TD*%
%TO.C,SW_N1*%
X189012500Y-91675000D03*
X177462500Y-89475000D03*
%TD*%
%TO.C,SW_OPT_L1*%
X79475000Y-110725000D03*
X67925000Y-108525000D03*
%TD*%
%TO.C,SW_<1*%
X227112500Y-91675000D03*
X215562500Y-89475000D03*
%TD*%
D11*
%TO.C,D45*%
X126665625Y-88106250D03*
X123365625Y-88106250D03*
%TD*%
D12*
%TO.C,C26*%
X184110000Y-54532500D03*
X184110000Y-55492500D03*
%TD*%
D11*
%TO.C,D15*%
X86184375Y-66675000D03*
X82884375Y-66675000D03*
%TD*%
D13*
%TO.C,J4*%
X250948631Y-41549699D03*
X251748631Y-41549699D03*
D14*
X252948631Y-41549699D03*
X253948631Y-41549699D03*
X254448631Y-41549699D03*
X255448631Y-41549699D03*
D13*
X256648631Y-41549699D03*
X257448631Y-41549699D03*
X257448631Y-41549699D03*
X256648631Y-41549699D03*
D14*
X255948631Y-41549699D03*
X254948631Y-41549699D03*
X253448631Y-41549699D03*
X252448631Y-41549699D03*
D13*
X251748631Y-41549699D03*
X250948631Y-41549699D03*
%TD*%
D15*
%TO.C,C13*%
X182080000Y-43612500D03*
X181120000Y-43612500D03*
%TD*%
D16*
%TO.C,SW2*%
X177096875Y-63218750D03*
X172946875Y-63218750D03*
X177096875Y-65368750D03*
X172946875Y-65368750D03*
%TD*%
D17*
%TO.C,L4*%
X159167188Y-59971875D03*
X159167188Y-61471875D03*
X164682812Y-61471875D03*
X164682812Y-59971875D03*
%TD*%
D15*
%TO.C,C30*%
X182080000Y-41612500D03*
X181120000Y-41612500D03*
%TD*%
D11*
%TO.C,D3*%
X86184375Y-47625000D03*
X82884375Y-47625000D03*
%TD*%
D18*
%TO.C,C31*%
X137517283Y-61201875D03*
X137517283Y-60241875D03*
%TD*%
D11*
%TO.C,D9*%
X168014077Y-51792211D03*
X171314077Y-51792211D03*
%TD*%
D17*
%TO.C,L2*%
X140117188Y-64734375D03*
X140117188Y-66234375D03*
X145632812Y-66234375D03*
X145632812Y-64734375D03*
%TD*%
D19*
%TO.C,R25*%
X137004800Y-91974350D03*
X138024800Y-91974350D03*
%TD*%
D15*
%TO.C,C25*%
X183280000Y-39612500D03*
X182320000Y-39612500D03*
%TD*%
D11*
%TO.C,D28*%
X126665625Y-85725000D03*
X123365625Y-85725000D03*
%TD*%
%TO.C,D14*%
X67134375Y-66675000D03*
X63834375Y-66675000D03*
%TD*%
D20*
%TO.C,C7*%
X123332500Y-48812500D03*
X124292500Y-48812500D03*
%TD*%
D11*
%TO.C,D18*%
X199565666Y-66675036D03*
X202865666Y-66675036D03*
%TD*%
D21*
%TO.C,R12*%
X101798503Y-51922500D03*
X101798503Y-50902500D03*
%TD*%
D16*
%TO.C,SW3*%
X131853125Y-67385983D03*
X127703125Y-67385983D03*
X131853125Y-69535983D03*
X127703125Y-69535983D03*
%TD*%
D22*
%TO.C,R4*%
X158948551Y-41757203D03*
X158948551Y-42777203D03*
%TD*%
D18*
%TO.C,C33*%
X138707909Y-65964375D03*
X138707909Y-65004375D03*
%TD*%
D23*
%TO.C,D44*%
X254948631Y-45648455D03*
D24*
X253248631Y-45648455D03*
X253248631Y-43648455D03*
X255148631Y-43648455D03*
%TD*%
D15*
%TO.C,C29*%
X182080000Y-42612500D03*
X181120000Y-42612500D03*
%TD*%
D11*
%TO.C,D22*%
X244809375Y-66675000D03*
X248109375Y-66675000D03*
%TD*%
%TO.C,D8*%
X168014077Y-49410959D03*
X171314077Y-49410959D03*
%TD*%
D18*
%TO.C,C11*%
X117612500Y-40692500D03*
X117612500Y-39732500D03*
%TD*%
D16*
%TO.C,SW1*%
X131853125Y-63218750D03*
X127703125Y-63218750D03*
X131853125Y-65368750D03*
X127703125Y-65368750D03*
%TD*%
D25*
%TO.C,Q2*%
X169917311Y-46193768D03*
X169917311Y-44293768D03*
X171792311Y-45243768D03*
%TD*%
D11*
%TO.C,D5*%
X136190625Y-49612500D03*
X132890625Y-49612500D03*
%TD*%
D22*
%TO.C,R28*%
X185200000Y-41102500D03*
X185200000Y-42122500D03*
%TD*%
D26*
%TO.C,R30*%
X188110000Y-40612500D03*
X187090000Y-40612500D03*
%TD*%
D11*
%TO.C,D10*%
X206709375Y-47625000D03*
X210009375Y-47625000D03*
%TD*%
D27*
%TO.C,U8*%
X171992311Y-40721890D03*
X171992311Y-41671890D03*
X171992311Y-42621890D03*
X169717311Y-42621890D03*
X169717311Y-40721890D03*
%TD*%
D19*
%TO.C,R16*%
X142365000Y-58340625D03*
X143385000Y-58340625D03*
%TD*%
D22*
%TO.C,R19*%
X137212500Y-43902500D03*
X137212500Y-44922500D03*
%TD*%
D21*
%TO.C,R11*%
X107751633Y-51922500D03*
X107751633Y-50902500D03*
%TD*%
D26*
%TO.C,R18*%
X165910000Y-58340625D03*
X164890000Y-58340625D03*
%TD*%
D11*
%TO.C,D35*%
X71896875Y-104775000D03*
X68596875Y-104775000D03*
%TD*%
D22*
%TO.C,R21*%
X137212500Y-45902500D03*
X137212500Y-46922500D03*
%TD*%
D12*
%TO.C,C23*%
X114912500Y-54932500D03*
X114912500Y-55892500D03*
%TD*%
D11*
%TO.C,D32*%
X216234375Y-85725000D03*
X219534375Y-85725000D03*
%TD*%
%TO.C,D29*%
X190040658Y-85725052D03*
X193340658Y-85725052D03*
%TD*%
D22*
%TO.C,R13*%
X168175450Y-44733768D03*
X168175450Y-45753768D03*
%TD*%
%TO.C,R5*%
X48220333Y-43543142D03*
X48220333Y-44563142D03*
%TD*%
D28*
%TO.C,F2*%
X257962500Y-47625020D03*
X256387500Y-47625020D03*
%TD*%
D11*
%TO.C,D39*%
X159084375Y-104775000D03*
X162384375Y-104775000D03*
%TD*%
%TO.C,D31*%
X197184375Y-85725000D03*
X200484375Y-85725000D03*
%TD*%
D29*
%TO.C,SD2*%
X250762500Y-47625020D03*
X254062500Y-47625020D03*
%TD*%
D22*
%TO.C,R20*%
X203596875Y-48900959D03*
X203596875Y-49920959D03*
%TD*%
D20*
%TO.C,C20*%
X192687000Y-51117500D03*
X193647000Y-51117500D03*
%TD*%
D11*
%TO.C,D41*%
X201946875Y-104775000D03*
X205246875Y-104775000D03*
%TD*%
D22*
%TO.C,R3*%
X147042291Y-41502500D03*
X147042291Y-42522500D03*
%TD*%
D15*
%TO.C,C16*%
X180880000Y-48812500D03*
X179920000Y-48812500D03*
%TD*%
D11*
%TO.C,D23*%
X38559375Y-85725000D03*
X35259375Y-85725000D03*
%TD*%
D30*
%TO.C,Y2*%
X188638154Y-55212500D03*
X187438154Y-55212500D03*
X186238154Y-55212500D03*
%TD*%
D11*
%TO.C,D42*%
X220996875Y-104775000D03*
X224296875Y-104775000D03*
%TD*%
D18*
%TO.C,C12*%
X116612500Y-40692500D03*
X116612500Y-39732500D03*
%TD*%
D15*
%TO.C,C5*%
X111892500Y-48812500D03*
X110932500Y-48812500D03*
%TD*%
D22*
%TO.C,R22*%
X203596918Y-51282211D03*
X203596918Y-52302211D03*
%TD*%
D31*
%TO.C,U5*%
X135517500Y-46450000D03*
X134247500Y-46450000D03*
X132977500Y-46450000D03*
X131707500Y-46450000D03*
X131707500Y-39275000D03*
X132977500Y-39275000D03*
X134247500Y-39275000D03*
X135517500Y-39275000D03*
%TD*%
D20*
%TO.C,C19*%
X195320000Y-41612500D03*
X196280000Y-41612500D03*
%TD*%
D11*
%TO.C,D16*%
X105234375Y-66675000D03*
X101934375Y-66675000D03*
%TD*%
D20*
%TO.C,C4*%
X169779390Y-39290638D03*
X170739390Y-39290638D03*
%TD*%
D15*
%TO.C,C27*%
X111892500Y-43612500D03*
X110932500Y-43612500D03*
%TD*%
D18*
%TO.C,C34*%
X138707909Y-70726875D03*
X138707909Y-69766875D03*
%TD*%
D32*
%TO.C,STLED2*%
X179351898Y-69056288D03*
X180216898Y-69056288D03*
%TD*%
D18*
%TO.C,C22*%
X118612500Y-40692500D03*
X118612500Y-39732500D03*
%TD*%
D17*
%TO.C,L1*%
X140117188Y-59971875D03*
X140117188Y-61471875D03*
X145632812Y-61471875D03*
X145632812Y-59971875D03*
%TD*%
D11*
%TO.C,D25*%
X76659375Y-85725000D03*
X73359375Y-85725000D03*
%TD*%
D15*
%TO.C,C10*%
X111892500Y-42612500D03*
X110932500Y-42612500D03*
%TD*%
D11*
%TO.C,D2*%
X67134375Y-47625000D03*
X63834375Y-47625000D03*
%TD*%
%TO.C,D1*%
X54632837Y-50006272D03*
X51332837Y-50006272D03*
%TD*%
D19*
%TO.C,R24*%
X163200700Y-91974350D03*
X164220700Y-91974350D03*
%TD*%
D11*
%TO.C,D24*%
X57609375Y-85725000D03*
X54309375Y-85725000D03*
%TD*%
D21*
%TO.C,R6*%
X248245501Y-41586577D03*
X248245501Y-40566577D03*
%TD*%
D11*
%TO.C,D21*%
X225759375Y-66675000D03*
X229059375Y-66675000D03*
%TD*%
%TO.C,D37*%
X112378125Y-104775000D03*
X109078125Y-104775000D03*
%TD*%
D26*
%TO.C,R26*%
X167792500Y-91974350D03*
X166772500Y-91974350D03*
%TD*%
D12*
%TO.C,C6*%
X115912500Y-54932500D03*
X115912500Y-55892500D03*
%TD*%
D26*
%TO.C,R9*%
X135050625Y-91974350D03*
X134030625Y-91974350D03*
%TD*%
D33*
%TO.C,LS2*%
X171037620Y-86320365D03*
X162337620Y-86320365D03*
%TD*%
D13*
%TO.C,J3*%
X47351585Y-41549699D03*
X48151585Y-41549699D03*
D14*
X49351585Y-41549699D03*
X50351585Y-41549699D03*
X50851585Y-41549699D03*
X51851585Y-41549699D03*
D13*
X53051585Y-41549699D03*
X53851585Y-41549699D03*
X53851585Y-41549699D03*
X53051585Y-41549699D03*
D14*
X52351585Y-41549699D03*
X51351585Y-41549699D03*
X49851585Y-41549699D03*
X48851585Y-41549699D03*
D13*
X48151585Y-41549699D03*
X47351585Y-41549699D03*
%TD*%
D19*
%TO.C,R2*%
X179274398Y-67270349D03*
X180294398Y-67270349D03*
%TD*%
D31*
%TO.C,U6*%
X201930000Y-51807833D03*
X200660000Y-51807833D03*
X199390000Y-51807833D03*
X198120000Y-51807833D03*
X198120000Y-44632833D03*
X199390000Y-44632833D03*
X200660000Y-44632833D03*
X201930000Y-44632833D03*
%TD*%
D11*
%TO.C,D20*%
X206709375Y-66675000D03*
X210009375Y-66675000D03*
%TD*%
%TO.C,D34*%
X254334375Y-85725000D03*
X257634375Y-85725000D03*
%TD*%
D34*
%TO.C,U3*%
X118450000Y-48200000D03*
X118450000Y-46925000D03*
X117175000Y-48200000D03*
X117175000Y-46925000D03*
D35*
X121250000Y-44962500D03*
X121250000Y-45362500D03*
X121250000Y-45762500D03*
X121250000Y-46162500D03*
X121250000Y-46562500D03*
X121250000Y-46962500D03*
X121250000Y-47362500D03*
X121250000Y-47762500D03*
X121250000Y-48162500D03*
X121250000Y-48562500D03*
X121250000Y-48962500D03*
X121250000Y-49362500D03*
X121250000Y-49762500D03*
X121250000Y-50162500D03*
D36*
X120412500Y-51000000D03*
X120012500Y-51000000D03*
X119612500Y-51000000D03*
X119212500Y-51000000D03*
X118812500Y-51000000D03*
X118412500Y-51000000D03*
X118012500Y-51000000D03*
X117612500Y-51000000D03*
X117212500Y-51000000D03*
X116812500Y-51000000D03*
X116412500Y-51000000D03*
X116012500Y-51000000D03*
X115612500Y-51000000D03*
X115212500Y-51000000D03*
D35*
X114375000Y-50162500D03*
X114375000Y-49762500D03*
X114375000Y-49362500D03*
X114375000Y-48962500D03*
X114375000Y-48562500D03*
X114375000Y-48162500D03*
X114375000Y-47762500D03*
X114375000Y-47362500D03*
X114375000Y-46962500D03*
X114375000Y-46562500D03*
X114375000Y-46162500D03*
X114375000Y-45762500D03*
X114375000Y-45362500D03*
X114375000Y-44962500D03*
D36*
X115212500Y-44125000D03*
X115612500Y-44125000D03*
X116012500Y-44125000D03*
X116412500Y-44125000D03*
X116812500Y-44125000D03*
X117212500Y-44125000D03*
X117612500Y-44125000D03*
X118012500Y-44125000D03*
X118412500Y-44125000D03*
X118812500Y-44125000D03*
X119212500Y-44125000D03*
X119612500Y-44125000D03*
X120012500Y-44125000D03*
X120412500Y-44125000D03*
%TD*%
D15*
%TO.C,C9*%
X111892500Y-41612500D03*
X110932500Y-41612500D03*
%TD*%
D11*
%TO.C,D27*%
X114759375Y-85725000D03*
X111459375Y-85725000D03*
%TD*%
D19*
%TO.C,R10*%
X169749000Y-91974350D03*
X170769000Y-91974350D03*
%TD*%
D37*
%TO.C,Q1*%
X105712568Y-50862500D03*
X105712568Y-52762500D03*
X103837568Y-51812500D03*
%TD*%
D11*
%TO.C,D40*%
X180515625Y-104775000D03*
X183815625Y-104775000D03*
%TD*%
D19*
%TO.C,R1*%
X124505625Y-67189063D03*
X125525625Y-67189063D03*
%TD*%
D38*
%TO.C,U7*%
X103637568Y-46362500D03*
X103637568Y-45412500D03*
X103637568Y-44462500D03*
X105912568Y-44462500D03*
X105912568Y-46362500D03*
%TD*%
D11*
%TO.C,D26*%
X95709375Y-85725000D03*
X92409375Y-85725000D03*
%TD*%
D39*
%TO.C,D43*%
X49851585Y-43648455D03*
D40*
X51551585Y-43648455D03*
X51551585Y-45648455D03*
X49651585Y-45648455D03*
%TD*%
D12*
%TO.C,C17*%
X185110000Y-54532500D03*
X185110000Y-55492500D03*
%TD*%
D32*
%TO.C,STLED1*%
X124583125Y-69056250D03*
X125448125Y-69056250D03*
%TD*%
D11*
%TO.C,D11*%
X225759375Y-47625000D03*
X229059375Y-47625000D03*
%TD*%
D15*
%TO.C,C38*%
X159880000Y-67865625D03*
X158920000Y-67865625D03*
%TD*%
D11*
%TO.C,D30*%
X190040625Y-88106250D03*
X193340625Y-88106250D03*
%TD*%
D18*
%TO.C,C32*%
X138707909Y-61201875D03*
X138707909Y-60241875D03*
%TD*%
D19*
%TO.C,R15*%
X117502500Y-53512500D03*
X118522500Y-53512500D03*
%TD*%
D12*
%TO.C,C1*%
X102012500Y-44532500D03*
X102012500Y-45492500D03*
%TD*%
D41*
%TO.C,SD1*%
X54632861Y-47625028D03*
X51332861Y-47625028D03*
%TD*%
D11*
%TO.C,D36*%
X90946875Y-104775000D03*
X87646875Y-104775000D03*
%TD*%
D19*
%TO.C,R27*%
X113702500Y-40812500D03*
X114722500Y-40812500D03*
%TD*%
D20*
%TO.C,C15*%
X191920000Y-44512500D03*
X192880000Y-44512500D03*
%TD*%
D15*
%TO.C,C18*%
X183280000Y-40612500D03*
X182320000Y-40612500D03*
%TD*%
D11*
%TO.C,D4*%
X136190625Y-51993750D03*
X132890625Y-51993750D03*
%TD*%
D19*
%TO.C,R17*%
X186690000Y-53512500D03*
X187710000Y-53512500D03*
%TD*%
D15*
%TO.C,C3*%
X172692500Y-39290638D03*
X171732500Y-39290638D03*
%TD*%
D26*
%TO.C,R23*%
X141596600Y-91974350D03*
X140576600Y-91974350D03*
%TD*%
D11*
%TO.C,D19*%
X187659406Y-66675036D03*
X190959406Y-66675036D03*
%TD*%
%TO.C,D12*%
X250762500Y-50006250D03*
X254062500Y-50006250D03*
%TD*%
D34*
%TO.C,U4*%
X187625000Y-48200000D03*
X187625000Y-46925000D03*
X186350000Y-48200000D03*
X186350000Y-46925000D03*
D35*
X190425000Y-44962500D03*
X190425000Y-45362500D03*
X190425000Y-45762500D03*
X190425000Y-46162500D03*
X190425000Y-46562500D03*
X190425000Y-46962500D03*
X190425000Y-47362500D03*
X190425000Y-47762500D03*
X190425000Y-48162500D03*
X190425000Y-48562500D03*
X190425000Y-48962500D03*
X190425000Y-49362500D03*
X190425000Y-49762500D03*
X190425000Y-50162500D03*
D36*
X189587500Y-51000000D03*
X189187500Y-51000000D03*
X188787500Y-51000000D03*
X188387500Y-51000000D03*
X187987500Y-51000000D03*
X187587500Y-51000000D03*
X187187500Y-51000000D03*
X186787500Y-51000000D03*
X186387500Y-51000000D03*
X185987500Y-51000000D03*
X185587500Y-51000000D03*
X185187500Y-51000000D03*
X184787500Y-51000000D03*
X184387500Y-51000000D03*
D35*
X183550000Y-50162500D03*
X183550000Y-49762500D03*
X183550000Y-49362500D03*
X183550000Y-48962500D03*
X183550000Y-48562500D03*
X183550000Y-48162500D03*
X183550000Y-47762500D03*
X183550000Y-47362500D03*
X183550000Y-46962500D03*
X183550000Y-46562500D03*
X183550000Y-46162500D03*
X183550000Y-45762500D03*
X183550000Y-45362500D03*
X183550000Y-44962500D03*
D36*
X184387500Y-44125000D03*
X184787500Y-44125000D03*
X185187500Y-44125000D03*
X185587500Y-44125000D03*
X185987500Y-44125000D03*
X186387500Y-44125000D03*
X186787500Y-44125000D03*
X187187500Y-44125000D03*
X187587500Y-44125000D03*
X187987500Y-44125000D03*
X188387500Y-44125000D03*
X188787500Y-44125000D03*
X189187500Y-44125000D03*
X189587500Y-44125000D03*
%TD*%
D21*
%TO.C,R7*%
X56554715Y-41586577D03*
X56554715Y-40566577D03*
%TD*%
D30*
%TO.C,Y1*%
X119512500Y-55212500D03*
X118312500Y-55212500D03*
X117112500Y-55212500D03*
%TD*%
D17*
%TO.C,L3*%
X140117188Y-69496875D03*
X140117188Y-70996875D03*
X145632812Y-70996875D03*
X145632812Y-69496875D03*
%TD*%
D15*
%TO.C,C28*%
X114692500Y-41812500D03*
X113732500Y-41812500D03*
%TD*%
%TO.C,C37*%
X159880000Y-63103125D03*
X158920000Y-63103125D03*
%TD*%
D11*
%TO.C,D46*%
X178134375Y-85725000D03*
X181434375Y-85725000D03*
%TD*%
%TO.C,D17*%
X117140702Y-66675036D03*
X113840702Y-66675036D03*
%TD*%
%TO.C,D38*%
X133809375Y-104775000D03*
X130509375Y-104775000D03*
%TD*%
D16*
%TO.C,SW4*%
X177096894Y-67385975D03*
X172946894Y-67385975D03*
X177096894Y-69535975D03*
X172946894Y-69535975D03*
%TD*%
D11*
%TO.C,D13*%
X48084375Y-66675000D03*
X44784375Y-66675000D03*
%TD*%
D20*
%TO.C,C8*%
X123345084Y-44053142D03*
X124305084Y-44053142D03*
%TD*%
D17*
%TO.C,L5*%
X159167188Y-64734375D03*
X159167188Y-66234375D03*
X164682812Y-66234375D03*
X164682812Y-64734375D03*
%TD*%
D33*
%TO.C,LS1*%
X133762500Y-86320365D03*
X142462500Y-86320365D03*
%TD*%
D15*
%TO.C,C14*%
X182080000Y-44612500D03*
X181120000Y-44612500D03*
%TD*%
D19*
%TO.C,R29*%
X113702500Y-39812500D03*
X114722500Y-39812500D03*
%TD*%
D22*
%TO.C,R8*%
X256579883Y-43543142D03*
X256579883Y-44563142D03*
%TD*%
D17*
%TO.C,L6*%
X159167188Y-69496875D03*
X159167188Y-70996875D03*
X164682812Y-70996875D03*
X164682812Y-69496875D03*
%TD*%
D18*
%TO.C,C2*%
X107612500Y-45492500D03*
X107612500Y-44532500D03*
%TD*%
D15*
%TO.C,C36*%
X160680000Y-58340625D03*
X159720000Y-58340625D03*
%TD*%
D26*
%TO.C,R14*%
X173746063Y-44053142D03*
X172726063Y-44053142D03*
%TD*%
D11*
%TO.C,D33*%
X235284375Y-85725000D03*
X238584375Y-85725000D03*
%TD*%
D20*
%TO.C,C35*%
X162520000Y-58340625D03*
X163480000Y-58340625D03*
%TD*%
D42*
%TO.C,F1*%
X48028170Y-47625020D03*
X49603170Y-47625020D03*
%TD*%
M02*
