%TF.GenerationSoftware,KiCad,Pcbnew,9.0.7*%
%TF.CreationDate,2026-03-01T08:46:25+09:00*%
%TF.ProjectId,Aida_Base,41696461-5f42-4617-9365-2e6b69636164,rev?*%
%TF.SameCoordinates,Original*%
%TF.FileFunction,Soldermask,Bot*%
%TF.FilePolarity,Negative*%
%FSLAX46Y46*%
G04 Gerber Fmt 4.6, Leading zero omitted, Abs format (unit mm)*
G04 Created by KiCad (PCBNEW 9.0.7) date 2026-03-01 08:46:25*
%MOMM*%
%LPD*%
G01*
G04 APERTURE LIST*
G04 Aperture macros list*
%AMRoundRect*
0 Rectangle with rounded corners*
0 $1 Rounding radius*
0 $2 $3 $4 $5 $6 $7 $8 $9 X,Y pos of 4 corners*
0 Add a 4 corners polygon primitive as box body*
4,1,4,$2,$3,$4,$5,$6,$7,$8,$9,$2,$3,0*
0 Add four circle primitives for the rounded corners*
1,1,$1+$1,$2,$3*
1,1,$1+$1,$4,$5*
1,1,$1+$1,$6,$7*
1,1,$1+$1,$8,$9*
0 Add four rect primitives between the rounded corners*
20,1,$1+$1,$2,$3,$4,$5,0*
20,1,$1+$1,$4,$5,$6,$7,0*
20,1,$1+$1,$6,$7,$8,$9,0*
20,1,$1+$1,$8,$9,$2,$3,0*%
%AMFreePoly0*
4,1,23,0.500000,-0.750000,0.000000,-0.750000,0.000000,-0.745722,-0.065263,-0.745722,-0.191342,-0.711940,-0.304381,-0.646677,-0.396677,-0.554381,-0.461940,-0.441342,-0.495722,-0.315263,-0.495722,-0.250000,-0.500000,-0.250000,-0.500000,0.250000,-0.495722,0.250000,-0.495722,0.315263,-0.461940,0.441342,-0.396677,0.554381,-0.304381,0.646677,-0.191342,0.711940,-0.065263,0.745722,0.000000,0.745722,
0.000000,0.750000,0.500000,0.750000,0.500000,-0.750000,0.500000,-0.750000,$1*%
%AMFreePoly1*
4,1,23,0.000000,0.745722,0.065263,0.745722,0.191342,0.711940,0.304381,0.646677,0.396677,0.554381,0.461940,0.441342,0.495722,0.315263,0.495722,0.250000,0.500000,0.250000,0.500000,-0.250000,0.495722,-0.250000,0.495722,-0.315263,0.461940,-0.441342,0.396677,-0.554381,0.304381,-0.646677,0.191342,-0.711940,0.065263,-0.745722,0.000000,-0.745722,0.000000,-0.750000,-0.500000,-0.750000,
-0.500000,0.750000,0.000000,0.750000,0.000000,0.745722,0.000000,0.745722,$1*%
G04 Aperture macros list end*
%ADD10C,3.000000*%
%ADD11C,5.000000*%
%ADD12C,1.600000*%
%ADD13R,2.600000X2.600000*%
%ADD14C,4.400000*%
%ADD15C,0.800000*%
%ADD16O,1.600000X2.000000*%
%ADD17C,0.500000*%
%ADD18R,0.900000X1.200000*%
%ADD19FreePoly0,270.000000*%
%ADD20FreePoly1,270.000000*%
%ADD21RoundRect,0.140000X-0.170000X0.140000X-0.170000X-0.140000X0.170000X-0.140000X0.170000X0.140000X0*%
%ADD22R,1.350000X1.350000*%
%ADD23C,1.350000*%
%ADD24C,0.650000*%
%ADD25R,0.600000X1.450000*%
%ADD26R,0.300000X1.450000*%
%ADD27O,1.000000X1.600000*%
%ADD28O,1.000000X2.100000*%
%ADD29RoundRect,0.140000X0.140000X0.170000X-0.140000X0.170000X-0.140000X-0.170000X0.140000X-0.170000X0*%
%ADD30R,1.050000X0.650000*%
%ADD31R,1.315624X0.820000*%
%ADD32RoundRect,0.140000X0.170000X-0.140000X0.170000X0.140000X-0.170000X0.140000X-0.170000X-0.140000X0*%
%ADD33RoundRect,0.135000X-0.135000X-0.185000X0.135000X-0.185000X0.135000X0.185000X-0.135000X0.185000X0*%
%ADD34RoundRect,0.140000X-0.140000X-0.170000X0.140000X-0.170000X0.140000X0.170000X-0.140000X0.170000X0*%
%ADD35RoundRect,0.135000X0.185000X-0.135000X0.185000X0.135000X-0.185000X0.135000X-0.185000X-0.135000X0*%
%ADD36RoundRect,0.135000X-0.185000X0.135000X-0.185000X-0.135000X0.185000X-0.135000X0.185000X0.135000X0*%
%ADD37RoundRect,0.175000X0.325000X-0.175000X0.325000X0.175000X-0.325000X0.175000X-0.325000X-0.175000X0*%
%ADD38RoundRect,0.150000X0.150000X-0.200000X0.150000X0.200000X-0.150000X0.200000X-0.150000X-0.200000X0*%
%ADD39RoundRect,0.150000X-0.587500X-0.150000X0.587500X-0.150000X0.587500X0.150000X-0.587500X0.150000X0*%
%ADD40RoundRect,0.135000X0.135000X0.185000X-0.135000X0.185000X-0.135000X-0.185000X0.135000X-0.185000X0*%
%ADD41RoundRect,0.150000X0.512500X0.150000X-0.512500X0.150000X-0.512500X-0.150000X0.512500X-0.150000X0*%
%ADD42R,1.700000X1.700000*%
%ADD43C,1.700000*%
%ADD44RoundRect,0.218750X0.218750X0.256250X-0.218750X0.256250X-0.218750X-0.256250X0.218750X-0.256250X0*%
%ADD45RoundRect,0.225000X-0.225000X-0.375000X0.225000X-0.375000X0.225000X0.375000X-0.225000X0.375000X0*%
%ADD46R,0.400000X1.900000*%
%ADD47RoundRect,0.162500X0.162500X-0.650000X0.162500X0.650000X-0.162500X0.650000X-0.162500X-0.650000X0*%
%ADD48RoundRect,0.100000X-0.217500X-0.100000X0.217500X-0.100000X0.217500X0.100000X-0.217500X0.100000X0*%
%ADD49R,1.300000X3.400000*%
%ADD50R,0.850000X0.850000*%
%ADD51C,0.850000*%
%ADD52RoundRect,0.050000X0.387500X0.050000X-0.387500X0.050000X-0.387500X-0.050000X0.387500X-0.050000X0*%
%ADD53RoundRect,0.050000X0.050000X0.387500X-0.050000X0.387500X-0.050000X-0.387500X0.050000X-0.387500X0*%
%ADD54RoundRect,0.144000X1.456000X1.456000X-1.456000X1.456000X-1.456000X-1.456000X1.456000X-1.456000X0*%
%ADD55RoundRect,0.150000X0.587500X0.150000X-0.587500X0.150000X-0.587500X-0.150000X0.587500X-0.150000X0*%
%ADD56RoundRect,0.150000X-0.512500X-0.150000X0.512500X-0.150000X0.512500X0.150000X-0.512500X0.150000X0*%
%ADD57RoundRect,0.175000X-0.325000X0.175000X-0.325000X-0.175000X0.325000X-0.175000X0.325000X0.175000X0*%
%ADD58RoundRect,0.150000X-0.150000X0.200000X-0.150000X-0.200000X0.150000X-0.200000X0.150000X0.200000X0*%
%ADD59RoundRect,0.225000X0.225000X0.375000X-0.225000X0.375000X-0.225000X-0.375000X0.225000X-0.375000X0*%
%ADD60RoundRect,0.218750X-0.218750X-0.256250X0.218750X-0.256250X0.218750X0.256250X-0.218750X0.256250X0*%
G04 APERTURE END LIST*
%TO.C,JP1*%
G36*
X124265625Y-64062500D02*
G01*
X125765625Y-64062500D01*
X125765625Y-64362500D01*
X124265625Y-64362500D01*
X124265625Y-64062500D01*
G37*
%TO.C,JP2*%
G36*
X179034398Y-64143784D02*
G01*
X180534398Y-64143784D01*
X180534398Y-64443784D01*
X179034398Y-64443784D01*
X179034398Y-64143784D01*
G37*
%TD*%
D10*
%TO.C,SW_CMD_L1*%
X90250000Y-108525000D03*
D11*
X95250000Y-104775000D03*
D10*
X95250000Y-110725000D03*
D12*
X100250000Y-99625000D03*
D13*
X98525000Y-110725000D03*
X86975000Y-108525000D03*
%TD*%
D14*
%TO.C,H_btm_R5*%
X204787652Y-75604731D03*
D11*
X204787652Y-75604731D03*
%TD*%
D14*
%TO.C,H_btm_R6*%
X238125180Y-113704763D03*
D11*
X238125180Y-113704763D03*
%TD*%
D14*
%TO.C,H14*%
X157162500Y-75009375D03*
D11*
X157162500Y-75009375D03*
%TD*%
D14*
%TO.C,H4*%
X165496875Y-36314073D03*
D11*
X165496875Y-36314073D03*
%TD*%
D10*
%TO.C,SW_A1*%
X47387500Y-70425000D03*
D11*
X52387500Y-66675000D03*
D10*
X52387500Y-72625000D03*
D12*
X57387500Y-61525000D03*
D13*
X55662500Y-72625000D03*
X44112500Y-70425000D03*
%TD*%
D14*
%TO.C,H_btm_L3*%
X33932845Y-76200052D03*
D11*
X33932845Y-76200052D03*
%TD*%
D10*
%TO.C,SW_L1*%
X228362500Y-70425000D03*
D11*
X233362500Y-66675000D03*
D10*
X233362500Y-72625000D03*
D12*
X238362500Y-61525000D03*
D13*
X236637500Y-72625000D03*
X225087500Y-70425000D03*
%TD*%
D10*
%TO.C,SW_/1*%
X256937500Y-89475000D03*
D11*
X261937500Y-85725000D03*
D10*
X261937500Y-91675000D03*
D12*
X266937500Y-80575000D03*
D13*
X265212500Y-91675000D03*
X253662500Y-89475000D03*
%TD*%
D14*
%TO.C,H8*%
X103584375Y-36314081D03*
D11*
X103584375Y-36314081D03*
%TD*%
D15*
%TO.C,J1*%
X146446875Y-37318750D03*
X146446875Y-44318750D03*
D16*
X148746875Y-41918750D03*
X148746875Y-38918750D03*
X144146875Y-47018750D03*
X148746875Y-45918750D03*
%TD*%
D10*
%TO.C,SW_F1*%
X104537500Y-70425000D03*
D11*
X109537500Y-66675000D03*
D10*
X109537500Y-72625000D03*
D12*
X114537500Y-61525000D03*
D13*
X112812500Y-72625000D03*
X101262500Y-70425000D03*
%TD*%
D10*
%TO.C,SW_I1*%
X209312500Y-51375000D03*
D11*
X214312500Y-47625000D03*
D10*
X214312500Y-53575000D03*
D12*
X219312500Y-42475000D03*
D13*
X217587500Y-53575000D03*
X206037500Y-51375000D03*
%TD*%
D14*
%TO.C,H12*%
X262533013Y-42862516D03*
D11*
X262533013Y-42862516D03*
%TD*%
D14*
%TO.C,H_btm_R3*%
X270867395Y-76200044D03*
D11*
X270867395Y-76200044D03*
%TD*%
D14*
%TO.C,H11*%
X201215774Y-36314073D03*
D11*
X201215774Y-36314073D03*
%TD*%
D17*
%TO.C,REF\u002A\u002A*%
X153934354Y-110728112D03*
X153934354Y-109878112D03*
X153934354Y-109028112D03*
X153934354Y-108178112D03*
X153934354Y-107328112D03*
X153934354Y-106478112D03*
X153934354Y-105628112D03*
%TD*%
D10*
%TO.C,SW_K1*%
X209312500Y-70425000D03*
D11*
X214312500Y-66675000D03*
D10*
X214312500Y-72625000D03*
D12*
X219312500Y-61525000D03*
D13*
X217587500Y-72625000D03*
X206037500Y-70425000D03*
%TD*%
D14*
%TO.C,H_mid_R1*%
X180975132Y-36314073D03*
D11*
X180975132Y-36314073D03*
%TD*%
D10*
%TO.C,SW_S1*%
X66437500Y-70425000D03*
D11*
X71437500Y-66675000D03*
D10*
X71437500Y-72625000D03*
D12*
X76437500Y-61525000D03*
D13*
X74712500Y-72625000D03*
X63162500Y-70425000D03*
%TD*%
D14*
%TO.C,H20*%
X169068750Y-76200000D03*
D11*
X169068750Y-76200000D03*
%TD*%
D10*
%TO.C,SW_C1*%
X75962500Y-89475000D03*
D11*
X80962500Y-85725000D03*
D10*
X80962500Y-91675000D03*
D12*
X85962500Y-80575000D03*
D13*
X84237500Y-91675000D03*
X72687500Y-89475000D03*
%TD*%
D17*
%TO.C,REF\u002A\u002A*%
X150862476Y-37931237D03*
X150862476Y-38781237D03*
X150862476Y-39631237D03*
X150862476Y-40481237D03*
X150862476Y-41331237D03*
X150862476Y-42181237D03*
X150862476Y-43031237D03*
%TD*%
D15*
%TO.C,J2*%
X158353238Y-37318760D03*
X158353238Y-44318760D03*
D16*
X160653238Y-41918760D03*
X160653238Y-38918760D03*
X156053238Y-47018760D03*
X160653238Y-45918760D03*
%TD*%
D17*
%TO.C,REF\u002A\u002A*%
X150862476Y-105628112D03*
X150862476Y-106478112D03*
X150862476Y-107328112D03*
X150862476Y-108178112D03*
X150862476Y-109028112D03*
X150862476Y-109878112D03*
X150862476Y-110728112D03*
%TD*%
D14*
%TO.C,H3*%
X139303246Y-36314081D03*
D11*
X139303246Y-36314081D03*
%TD*%
D14*
%TO.C,H15*%
X147637604Y-52387500D03*
D11*
X147637604Y-52387500D03*
%TD*%
D10*
%TO.C,SW_V1*%
X95012500Y-89475000D03*
D11*
X100012500Y-85725000D03*
D10*
X100012500Y-91675000D03*
D12*
X105012500Y-80575000D03*
D13*
X103287500Y-91675000D03*
X91737500Y-89475000D03*
%TD*%
D14*
%TO.C,H2*%
X128587500Y-54173471D03*
D11*
X128587500Y-54173471D03*
%TD*%
D14*
%TO.C,H_btm_L6*%
X127396986Y-113704771D03*
D11*
X127396986Y-113704771D03*
%TD*%
D14*
%TO.C,H19*%
X135731250Y-76200052D03*
D11*
X135731250Y-76200052D03*
%TD*%
D10*
%TO.C,SW_X1*%
X56912500Y-89475000D03*
D11*
X61912500Y-85725000D03*
D10*
X61912500Y-91675000D03*
D12*
X66912500Y-80575000D03*
D13*
X65187500Y-91675000D03*
X53637500Y-89475000D03*
%TD*%
D14*
%TO.C,H17*%
X147637628Y-84534375D03*
D11*
X147637628Y-84534375D03*
%TD*%
D10*
%TO.C,SW_B1*%
X114062604Y-89475060D03*
D11*
X119062604Y-85725060D03*
D10*
X119062604Y-91675060D03*
D12*
X124062604Y-80575060D03*
D13*
X122337604Y-91675060D03*
X110787604Y-89475060D03*
%TD*%
D14*
%TO.C,H_btm_R4*%
X177403254Y-113704763D03*
D11*
X177403254Y-113704763D03*
%TD*%
D14*
%TO.C,H5*%
X176212628Y-54173463D03*
D11*
X176212628Y-54173463D03*
%TD*%
D10*
%TO.C,SW_OPT_R1*%
X223600000Y-108525000D03*
D11*
X228600000Y-104775000D03*
D10*
X228600000Y-110725000D03*
D12*
X233600000Y-99625000D03*
D13*
X231875000Y-110725000D03*
X220325000Y-108525000D03*
%TD*%
D14*
%TO.C,H13*%
X147637500Y-75009375D03*
D11*
X147637500Y-75009375D03*
%TD*%
D10*
%TO.C,SW_CTL1*%
X133112500Y-108525000D03*
D11*
X138112500Y-104775000D03*
D10*
X138112500Y-110725000D03*
D12*
X143112500Y-99625000D03*
D13*
X141387500Y-110725000D03*
X129837500Y-108525000D03*
%TD*%
D14*
%TO.C,H6*%
X264914265Y-53578150D03*
D11*
X264914265Y-53578150D03*
%TD*%
D17*
%TO.C,REF\u002A\u002A*%
X153936047Y-43031342D03*
X153936047Y-42181342D03*
X153936047Y-41331342D03*
X153936047Y-40481342D03*
X153936047Y-39631342D03*
X153936047Y-38781342D03*
X153936047Y-37931342D03*
%TD*%
D14*
%TO.C,H_mid_R2*%
X246459562Y-36314073D03*
D11*
X246459562Y-36314073D03*
%TD*%
D14*
%TO.C,H1*%
X39885951Y-53578150D03*
D11*
X39885951Y-53578150D03*
%TD*%
D10*
%TO.C,SW_D1*%
X85487500Y-70425000D03*
D11*
X90487500Y-66675000D03*
D10*
X90487500Y-72625000D03*
D12*
X95487500Y-61525000D03*
D13*
X93762500Y-72625000D03*
X82212500Y-70425000D03*
%TD*%
D14*
%TO.C,H16*%
X157162500Y-52387500D03*
D11*
X157162500Y-52387500D03*
%TD*%
D10*
%TO.C,SW_SPC1*%
X111681250Y-108525000D03*
D11*
X116681250Y-104775000D03*
D10*
X116681250Y-110725000D03*
D12*
X121681250Y-99625000D03*
D13*
X119956250Y-110725000D03*
X108406250Y-108525000D03*
%TD*%
D10*
%TO.C,SW_CMD_R1*%
X204550000Y-108525000D03*
D11*
X209550000Y-104775000D03*
D10*
X209550000Y-110725000D03*
D12*
X214550000Y-99625000D03*
D13*
X212825000Y-110725000D03*
X201275000Y-108525000D03*
%TD*%
D10*
%TO.C,SW_BS1*%
X161687500Y-108525000D03*
D11*
X166687500Y-104775000D03*
D10*
X166687500Y-110725000D03*
D12*
X171687500Y-99625000D03*
D13*
X169962500Y-110725000D03*
X158412500Y-108525000D03*
%TD*%
D10*
%TO.C,SW_M1*%
X199787500Y-89475000D03*
D11*
X204787500Y-85725000D03*
D10*
X204787500Y-91675000D03*
D12*
X209787500Y-80575000D03*
D13*
X208062500Y-91675000D03*
X196512500Y-89475000D03*
%TD*%
D10*
%TO.C,SW_O1*%
X228362500Y-51375000D03*
D11*
X233362500Y-47625000D03*
D10*
X233362500Y-53575000D03*
D12*
X238362500Y-42475000D03*
D13*
X236637500Y-53575000D03*
X225087500Y-51375000D03*
%TD*%
D10*
%TO.C,SW_-1*%
X247412500Y-70425000D03*
D11*
X252412500Y-66675000D03*
D10*
X252412500Y-72625000D03*
D12*
X257412500Y-61525000D03*
D13*
X255687500Y-72625000D03*
X244137500Y-70425000D03*
%TD*%
D14*
%TO.C,H_mid_L2*%
X58340654Y-36314073D03*
D11*
X58340654Y-36314073D03*
%TD*%
D10*
%TO.C,SW_>1*%
X237887500Y-89475000D03*
D11*
X242887500Y-85725000D03*
D10*
X242887500Y-91675000D03*
D12*
X247887500Y-80575000D03*
D13*
X246162500Y-91675000D03*
X234612500Y-89475000D03*
%TD*%
D10*
%TO.C,SW_ENT1*%
X183118750Y-108525000D03*
D11*
X188118750Y-104775000D03*
D10*
X188118750Y-110725000D03*
D12*
X193118750Y-99625000D03*
D13*
X191393750Y-110725000D03*
X179843750Y-108525000D03*
%TD*%
D10*
%TO.C,SW_W1*%
X66437500Y-51375000D03*
D11*
X71437500Y-47625000D03*
D10*
X71437500Y-53575000D03*
D12*
X76437500Y-42475000D03*
D13*
X74712500Y-53575000D03*
X63162500Y-51375000D03*
%TD*%
D17*
%TO.C,REF\u002A\u002A*%
X153934354Y-64889011D03*
X153934354Y-64039011D03*
X153934354Y-63189011D03*
X153934354Y-62339011D03*
X153934354Y-61489011D03*
X153934354Y-60639011D03*
X153934354Y-59789011D03*
%TD*%
D10*
%TO.C,SW_E1*%
X85487500Y-51375000D03*
D11*
X90487500Y-47625000D03*
D10*
X90487500Y-53575000D03*
D12*
X95487500Y-42475000D03*
D13*
X93762500Y-53575000D03*
X82212500Y-51375000D03*
%TD*%
D17*
%TO.C,REF\u002A\u002A*%
X150862476Y-59789011D03*
X150862476Y-60639011D03*
X150862476Y-61489011D03*
X150862476Y-62339011D03*
X150862476Y-63189011D03*
X150862476Y-64039011D03*
X150862476Y-64889011D03*
%TD*%
D10*
%TO.C,SW_Z1*%
X37862500Y-89475000D03*
D11*
X42862500Y-85725000D03*
D10*
X42862500Y-91675000D03*
D12*
X47862500Y-80575000D03*
D13*
X46137500Y-91675000D03*
X34587500Y-89475000D03*
%TD*%
D14*
%TO.C,H18*%
X157162612Y-84534426D03*
D11*
X157162612Y-84534426D03*
%TD*%
D14*
%TO.C,H_btm_L4*%
X100012564Y-75604731D03*
D11*
X100012564Y-75604731D03*
%TD*%
D14*
%TO.C,H_mid_L1*%
X123825084Y-36314073D03*
D11*
X123825084Y-36314073D03*
%TD*%
D14*
%TO.C,H7*%
X42267203Y-42862516D03*
D11*
X42267203Y-42862516D03*
%TD*%
D10*
%TO.C,SW_J1*%
X190262500Y-70425000D03*
D11*
X195262500Y-66675000D03*
D10*
X195262500Y-72625000D03*
D12*
X200262500Y-61525000D03*
D13*
X198537500Y-72625000D03*
X186987500Y-70425000D03*
%TD*%
D10*
%TO.C,SW_N1*%
X180737500Y-89475000D03*
D11*
X185737500Y-85725000D03*
D10*
X185737500Y-91675000D03*
D12*
X190737500Y-80575000D03*
D13*
X189012500Y-91675000D03*
X177462500Y-89475000D03*
%TD*%
D10*
%TO.C,SW_OPT_L1*%
X71200000Y-108525000D03*
D11*
X76200000Y-104775000D03*
D10*
X76200000Y-110725000D03*
D12*
X81200000Y-99625000D03*
D13*
X79475000Y-110725000D03*
X67925000Y-108525000D03*
%TD*%
D14*
%TO.C,H_btm_L5*%
X66675060Y-113704771D03*
D11*
X66675060Y-113704771D03*
%TD*%
D10*
%TO.C,SW_<1*%
X218837500Y-89475000D03*
D11*
X223837500Y-85725000D03*
D10*
X223837500Y-91675000D03*
D12*
X228837500Y-80575000D03*
D13*
X227112500Y-91675000D03*
X215562500Y-89475000D03*
%TD*%
D18*
%TO.C,D45*%
X126665625Y-88106250D03*
X123365625Y-88106250D03*
%TD*%
D19*
%TO.C,JP1*%
X125015625Y-63562500D03*
D20*
X125015625Y-64862500D03*
%TD*%
D21*
%TO.C,C26*%
X184110000Y-54532500D03*
X184110000Y-55492500D03*
%TD*%
D22*
%TO.C,J5*%
X102989129Y-48612500D03*
D23*
X104989129Y-48612500D03*
X106989129Y-48612500D03*
%TD*%
D18*
%TO.C,D15*%
X86184375Y-66675000D03*
X82884375Y-66675000D03*
%TD*%
D24*
%TO.C,J4*%
X251308631Y-40104699D03*
X257088631Y-40104699D03*
D25*
X250948631Y-41549699D03*
X251748631Y-41549699D03*
D26*
X252948631Y-41549699D03*
X253948631Y-41549699D03*
X254448631Y-41549699D03*
X255448631Y-41549699D03*
D25*
X256648631Y-41549699D03*
X257448631Y-41549699D03*
X257448631Y-41549699D03*
X256648631Y-41549699D03*
D26*
X255948631Y-41549699D03*
X254948631Y-41549699D03*
X253448631Y-41549699D03*
X252448631Y-41549699D03*
D25*
X251748631Y-41549699D03*
X250948631Y-41549699D03*
D27*
X249878631Y-36454699D03*
D28*
X249878631Y-40634699D03*
D27*
X258518631Y-36454699D03*
D28*
X258518631Y-40634699D03*
%TD*%
D29*
%TO.C,C13*%
X182080000Y-43612500D03*
X181120000Y-43612500D03*
%TD*%
D30*
%TO.C,SW2*%
X177096875Y-63218750D03*
X172946875Y-63218750D03*
X177096875Y-65368750D03*
X172946875Y-65368750D03*
%TD*%
D31*
%TO.C,L4*%
X159167188Y-59971875D03*
X159167188Y-61471875D03*
X164682812Y-61471875D03*
X164682812Y-59971875D03*
%TD*%
D29*
%TO.C,C30*%
X182080000Y-41612500D03*
X181120000Y-41612500D03*
%TD*%
D18*
%TO.C,D3*%
X86184375Y-47625000D03*
X82884375Y-47625000D03*
%TD*%
D32*
%TO.C,C31*%
X137517283Y-61201875D03*
X137517283Y-60241875D03*
%TD*%
D18*
%TO.C,D9*%
X168014077Y-51792211D03*
X171314077Y-51792211D03*
%TD*%
D22*
%TO.C,J23*%
X96845373Y-66675036D03*
D23*
X94845373Y-66675036D03*
%TD*%
D31*
%TO.C,L2*%
X140117188Y-64734375D03*
X140117188Y-66234375D03*
X145632812Y-66234375D03*
X145632812Y-64734375D03*
%TD*%
D33*
%TO.C,R25*%
X137004800Y-91974350D03*
X138024800Y-91974350D03*
%TD*%
D29*
%TO.C,C25*%
X183280000Y-39612500D03*
X182320000Y-39612500D03*
%TD*%
D18*
%TO.C,D28*%
X126665625Y-85725000D03*
X123365625Y-85725000D03*
%TD*%
%TO.C,D14*%
X67134375Y-66675000D03*
X63834375Y-66675000D03*
%TD*%
D34*
%TO.C,C7*%
X123332500Y-48812500D03*
X124292500Y-48812500D03*
%TD*%
D18*
%TO.C,D18*%
X199565666Y-66675036D03*
X202865666Y-66675036D03*
%TD*%
D35*
%TO.C,R12*%
X101798503Y-51922500D03*
X101798503Y-50902500D03*
%TD*%
D30*
%TO.C,SW3*%
X131853125Y-67385983D03*
X127703125Y-67385983D03*
X131853125Y-69535983D03*
X127703125Y-69535983D03*
%TD*%
D36*
%TO.C,R4*%
X158948551Y-41757203D03*
X158948551Y-42777203D03*
%TD*%
D32*
%TO.C,C33*%
X138707909Y-65964375D03*
X138707909Y-65004375D03*
%TD*%
D37*
%TO.C,D44*%
X254948631Y-45648455D03*
D38*
X253248631Y-45648455D03*
X253248631Y-43648455D03*
X255148631Y-43648455D03*
%TD*%
D29*
%TO.C,C29*%
X182080000Y-42612500D03*
X181120000Y-42612500D03*
%TD*%
D18*
%TO.C,D22*%
X244809375Y-66675000D03*
X248109375Y-66675000D03*
%TD*%
%TO.C,D8*%
X168014077Y-49410959D03*
X171314077Y-49410959D03*
%TD*%
D32*
%TO.C,C11*%
X117612500Y-40692500D03*
X117612500Y-39732500D03*
%TD*%
D30*
%TO.C,SW1*%
X131853125Y-63218750D03*
X127703125Y-63218750D03*
X131853125Y-65368750D03*
X127703125Y-65368750D03*
%TD*%
D39*
%TO.C,Q2*%
X169917311Y-46193768D03*
X169917311Y-44293768D03*
X171792311Y-45243768D03*
%TD*%
D18*
%TO.C,D5*%
X136190625Y-49612500D03*
X132890625Y-49612500D03*
%TD*%
D36*
%TO.C,R28*%
X185200000Y-41102500D03*
X185200000Y-42122500D03*
%TD*%
D40*
%TO.C,R30*%
X188110000Y-40612500D03*
X187090000Y-40612500D03*
%TD*%
D18*
%TO.C,D10*%
X206709375Y-47625000D03*
X210009375Y-47625000D03*
%TD*%
D41*
%TO.C,U8*%
X171992311Y-40721890D03*
X171992311Y-41671890D03*
X171992311Y-42621890D03*
X169717311Y-42621890D03*
X169717311Y-40721890D03*
%TD*%
D33*
%TO.C,R16*%
X142365000Y-58340625D03*
X143385000Y-58340625D03*
%TD*%
D36*
%TO.C,R19*%
X137212500Y-43902500D03*
X137212500Y-44922500D03*
%TD*%
D35*
%TO.C,R11*%
X107751633Y-51922500D03*
X107751633Y-50902500D03*
%TD*%
D40*
%TO.C,R18*%
X165910000Y-58340625D03*
X164890000Y-58340625D03*
%TD*%
D18*
%TO.C,D35*%
X71896875Y-104775000D03*
X68596875Y-104775000D03*
%TD*%
D22*
%TO.C,J17*%
X106012500Y-84812500D03*
D23*
X104012500Y-84812500D03*
X106012500Y-86812500D03*
X104012500Y-86812500D03*
%TD*%
D36*
%TO.C,R21*%
X137212500Y-45902500D03*
X137212500Y-46922500D03*
%TD*%
D22*
%TO.C,J18*%
X210788000Y-84804500D03*
D23*
X208788000Y-84804500D03*
X210788000Y-86804500D03*
X208788000Y-86804500D03*
%TD*%
D21*
%TO.C,C23*%
X114912500Y-54932500D03*
X114912500Y-55892500D03*
%TD*%
D18*
%TO.C,D32*%
X216234375Y-85725000D03*
X219534375Y-85725000D03*
%TD*%
%TO.C,D29*%
X190040658Y-85725052D03*
X193340658Y-85725052D03*
%TD*%
D36*
%TO.C,R13*%
X168175450Y-44733768D03*
X168175450Y-45753768D03*
%TD*%
%TO.C,R5*%
X48220333Y-43543142D03*
X48220333Y-44563142D03*
%TD*%
D42*
%TO.C,J9*%
X139461875Y-100012500D03*
D43*
X136921875Y-100012500D03*
X134381875Y-100012500D03*
%TD*%
D44*
%TO.C,F2*%
X257962500Y-47625020D03*
X256387500Y-47625020D03*
%TD*%
D18*
%TO.C,D39*%
X159084375Y-104775000D03*
X162384375Y-104775000D03*
%TD*%
%TO.C,D31*%
X197184375Y-85725000D03*
X200484375Y-85725000D03*
%TD*%
D45*
%TO.C,SD2*%
X250762500Y-47625020D03*
X254062500Y-47625020D03*
%TD*%
D36*
%TO.C,R20*%
X203596875Y-48900959D03*
X203596875Y-49920959D03*
%TD*%
D34*
%TO.C,C20*%
X192687000Y-51117500D03*
X193647000Y-51117500D03*
%TD*%
D18*
%TO.C,D41*%
X201946875Y-104775000D03*
X205246875Y-104775000D03*
%TD*%
D36*
%TO.C,R3*%
X147042291Y-41502500D03*
X147042291Y-42522500D03*
%TD*%
D29*
%TO.C,C16*%
X180880000Y-48812500D03*
X179920000Y-48812500D03*
%TD*%
D18*
%TO.C,D23*%
X38559375Y-85725000D03*
X35259375Y-85725000D03*
%TD*%
D22*
%TO.C,J21*%
X226218750Y-80962500D03*
D23*
X224218750Y-80962500D03*
X222218750Y-80962500D03*
X220218750Y-80962500D03*
X218218750Y-80962500D03*
X216218750Y-80962500D03*
%TD*%
D46*
%TO.C,Y2*%
X188638154Y-55212500D03*
X187438154Y-55212500D03*
X186238154Y-55212500D03*
%TD*%
D18*
%TO.C,D42*%
X220996875Y-104775000D03*
X224296875Y-104775000D03*
%TD*%
D32*
%TO.C,C12*%
X116612500Y-40692500D03*
X116612500Y-39732500D03*
%TD*%
D22*
%TO.C,J20*%
X73985983Y-80962548D03*
D23*
X75985983Y-80962548D03*
X77985983Y-80962548D03*
X79985983Y-80962548D03*
X81985983Y-80962548D03*
X83985983Y-80962548D03*
%TD*%
D29*
%TO.C,C5*%
X111892500Y-48812500D03*
X110932500Y-48812500D03*
%TD*%
D36*
%TO.C,R22*%
X203596918Y-51282211D03*
X203596918Y-52302211D03*
%TD*%
D47*
%TO.C,U5*%
X135517500Y-46450000D03*
X134247500Y-46450000D03*
X132977500Y-46450000D03*
X131707500Y-46450000D03*
X131707500Y-39275000D03*
X132977500Y-39275000D03*
X134247500Y-39275000D03*
X135517500Y-39275000D03*
%TD*%
D42*
%TO.C,J13*%
X141922596Y-94654747D03*
D43*
X139382596Y-94654747D03*
X136842596Y-94654747D03*
X134302596Y-94654747D03*
%TD*%
D34*
%TO.C,C19*%
X195320000Y-41612500D03*
X196280000Y-41612500D03*
%TD*%
D18*
%TO.C,D16*%
X105234375Y-66675000D03*
X101934375Y-66675000D03*
%TD*%
D34*
%TO.C,C4*%
X169779390Y-39290638D03*
X170739390Y-39290638D03*
%TD*%
D29*
%TO.C,C27*%
X111892500Y-43612500D03*
X110932500Y-43612500D03*
%TD*%
D32*
%TO.C,C34*%
X138707909Y-70726875D03*
X138707909Y-69766875D03*
%TD*%
D48*
%TO.C,STLED2*%
X179376898Y-69056288D03*
X180191898Y-69056288D03*
%TD*%
D32*
%TO.C,C22*%
X118612500Y-40692500D03*
X118612500Y-39732500D03*
%TD*%
D31*
%TO.C,L1*%
X140117188Y-59971875D03*
X140117188Y-61471875D03*
X145632812Y-61471875D03*
X145632812Y-59971875D03*
%TD*%
D18*
%TO.C,D25*%
X76659375Y-85725000D03*
X73359375Y-85725000D03*
%TD*%
D29*
%TO.C,C10*%
X111892500Y-42612500D03*
X110932500Y-42612500D03*
%TD*%
D18*
%TO.C,D2*%
X67134375Y-47625000D03*
X63834375Y-47625000D03*
%TD*%
%TO.C,D1*%
X54632837Y-50006272D03*
X51332837Y-50006272D03*
%TD*%
D33*
%TO.C,R24*%
X163200700Y-91974350D03*
X164220700Y-91974350D03*
%TD*%
D18*
%TO.C,D24*%
X57609375Y-85725000D03*
X54309375Y-85725000D03*
%TD*%
D35*
%TO.C,R6*%
X248245501Y-41586577D03*
X248245501Y-40566577D03*
%TD*%
D18*
%TO.C,D21*%
X225759375Y-66675000D03*
X229059375Y-66675000D03*
%TD*%
%TO.C,D37*%
X112378125Y-104775000D03*
X109078125Y-104775000D03*
%TD*%
D22*
%TO.C,J22*%
X245268750Y-80962500D03*
D23*
X243268750Y-80962500D03*
X241268750Y-80962500D03*
X239268750Y-80962500D03*
%TD*%
D22*
%TO.C,J19*%
X57745341Y-80962548D03*
D23*
X59745341Y-80962548D03*
X61745341Y-80962548D03*
X63745341Y-80962548D03*
%TD*%
D40*
%TO.C,R26*%
X167792500Y-91974350D03*
X166772500Y-91974350D03*
%TD*%
D22*
%TO.C,J24*%
X218479743Y-66675036D03*
D23*
X220479743Y-66675036D03*
%TD*%
D21*
%TO.C,C6*%
X115912500Y-54932500D03*
X115912500Y-55892500D03*
%TD*%
D40*
%TO.C,R9*%
X135050625Y-91974350D03*
X134030625Y-91974350D03*
%TD*%
D49*
%TO.C,LS2*%
X171037620Y-86320365D03*
X162337620Y-86320365D03*
%TD*%
D24*
%TO.C,J3*%
X47711585Y-40104699D03*
X53491585Y-40104699D03*
D25*
X47351585Y-41549699D03*
X48151585Y-41549699D03*
D26*
X49351585Y-41549699D03*
X50351585Y-41549699D03*
X50851585Y-41549699D03*
X51851585Y-41549699D03*
D25*
X53051585Y-41549699D03*
X53851585Y-41549699D03*
X53851585Y-41549699D03*
X53051585Y-41549699D03*
D26*
X52351585Y-41549699D03*
X51351585Y-41549699D03*
X49851585Y-41549699D03*
X48851585Y-41549699D03*
D25*
X48151585Y-41549699D03*
X47351585Y-41549699D03*
D27*
X46281585Y-36454699D03*
D28*
X46281585Y-40634699D03*
D27*
X54921585Y-36454699D03*
D28*
X54921585Y-40634699D03*
%TD*%
D50*
%TO.C,J16*%
X174426581Y-80367235D03*
D51*
X174426581Y-81367235D03*
X174426581Y-82367235D03*
X174426581Y-83367235D03*
%TD*%
D33*
%TO.C,R2*%
X179274398Y-67270349D03*
X180294398Y-67270349D03*
%TD*%
D47*
%TO.C,U6*%
X201930000Y-51807833D03*
X200660000Y-51807833D03*
X199390000Y-51807833D03*
X198120000Y-51807833D03*
X198120000Y-44632833D03*
X199390000Y-44632833D03*
X200660000Y-44632833D03*
X201930000Y-44632833D03*
%TD*%
D18*
%TO.C,D20*%
X206709375Y-66675000D03*
X210009375Y-66675000D03*
%TD*%
%TO.C,D34*%
X254334375Y-85725000D03*
X257634375Y-85725000D03*
%TD*%
D52*
%TO.C,U3*%
X121250000Y-44962500D03*
X121250000Y-45362500D03*
X121250000Y-45762500D03*
X121250000Y-46162500D03*
X121250000Y-46562500D03*
X121250000Y-46962500D03*
X121250000Y-47362500D03*
X121250000Y-47762500D03*
X121250000Y-48162500D03*
X121250000Y-48562500D03*
X121250000Y-48962500D03*
X121250000Y-49362500D03*
X121250000Y-49762500D03*
X121250000Y-50162500D03*
D53*
X120412500Y-51000000D03*
X120012500Y-51000000D03*
X119612500Y-51000000D03*
X119212500Y-51000000D03*
X118812500Y-51000000D03*
X118412500Y-51000000D03*
X118012500Y-51000000D03*
X117612500Y-51000000D03*
X117212500Y-51000000D03*
X116812500Y-51000000D03*
X116412500Y-51000000D03*
X116012500Y-51000000D03*
X115612500Y-51000000D03*
X115212500Y-51000000D03*
D52*
X114375000Y-50162500D03*
X114375000Y-49762500D03*
X114375000Y-49362500D03*
X114375000Y-48962500D03*
X114375000Y-48562500D03*
X114375000Y-48162500D03*
X114375000Y-47762500D03*
X114375000Y-47362500D03*
X114375000Y-46962500D03*
X114375000Y-46562500D03*
X114375000Y-46162500D03*
X114375000Y-45762500D03*
X114375000Y-45362500D03*
X114375000Y-44962500D03*
D53*
X115212500Y-44125000D03*
X115612500Y-44125000D03*
X116012500Y-44125000D03*
X116412500Y-44125000D03*
X116812500Y-44125000D03*
X117212500Y-44125000D03*
X117612500Y-44125000D03*
X118012500Y-44125000D03*
X118412500Y-44125000D03*
X118812500Y-44125000D03*
X119212500Y-44125000D03*
X119612500Y-44125000D03*
X120012500Y-44125000D03*
X120412500Y-44125000D03*
D54*
X117812500Y-47562500D03*
%TD*%
D29*
%TO.C,C9*%
X111892500Y-41612500D03*
X110932500Y-41612500D03*
%TD*%
D18*
%TO.C,D27*%
X114759375Y-85725000D03*
X111459375Y-85725000D03*
%TD*%
D33*
%TO.C,R10*%
X169749000Y-91974350D03*
X170769000Y-91974350D03*
%TD*%
D55*
%TO.C,Q1*%
X105712568Y-50862500D03*
X105712568Y-52762500D03*
X103837568Y-51812500D03*
%TD*%
D18*
%TO.C,D40*%
X180515625Y-104775000D03*
X183815625Y-104775000D03*
%TD*%
D33*
%TO.C,R1*%
X124505625Y-67189063D03*
X125525625Y-67189063D03*
%TD*%
D56*
%TO.C,U7*%
X103637568Y-46362500D03*
X103637568Y-45412500D03*
X103637568Y-44462500D03*
X105912568Y-44462500D03*
X105912568Y-46362500D03*
%TD*%
D18*
%TO.C,D26*%
X95709375Y-85725000D03*
X92409375Y-85725000D03*
%TD*%
D22*
%TO.C,TP2*%
X156567299Y-42267203D03*
%TD*%
D50*
%TO.C,J15*%
X130373527Y-82748487D03*
D51*
X130373527Y-81748487D03*
X130373527Y-80748487D03*
X130373527Y-79748487D03*
%TD*%
D57*
%TO.C,D43*%
X49851585Y-43648455D03*
D58*
X51551585Y-43648455D03*
X51551585Y-45648455D03*
X49651585Y-45648455D03*
%TD*%
D19*
%TO.C,JP2*%
X179784398Y-63643784D03*
D20*
X179784398Y-64943784D03*
%TD*%
D21*
%TO.C,C17*%
X185110000Y-54532500D03*
X185110000Y-55492500D03*
%TD*%
D48*
%TO.C,STLED1*%
X124608125Y-69056250D03*
X125423125Y-69056250D03*
%TD*%
D18*
%TO.C,D11*%
X225759375Y-47625000D03*
X229059375Y-47625000D03*
%TD*%
D50*
%TO.C,J11*%
X130373551Y-94059375D03*
D51*
X130373551Y-93059375D03*
X130373551Y-92059375D03*
X130373551Y-91059375D03*
%TD*%
D29*
%TO.C,C38*%
X159880000Y-67865625D03*
X158920000Y-67865625D03*
%TD*%
D18*
%TO.C,D30*%
X190040625Y-88106250D03*
X193340625Y-88106250D03*
%TD*%
D32*
%TO.C,C32*%
X138707909Y-61201875D03*
X138707909Y-60241875D03*
%TD*%
D33*
%TO.C,R15*%
X117502500Y-53512500D03*
X118522500Y-53512500D03*
%TD*%
D22*
%TO.C,TP1*%
X144661039Y-42012500D03*
%TD*%
D21*
%TO.C,C1*%
X102012500Y-44532500D03*
X102012500Y-45492500D03*
%TD*%
D59*
%TO.C,SD1*%
X54632861Y-47625028D03*
X51332861Y-47625028D03*
%TD*%
D18*
%TO.C,D36*%
X90946875Y-104775000D03*
X87646875Y-104775000D03*
%TD*%
D33*
%TO.C,R27*%
X113702500Y-40812500D03*
X114722500Y-40812500D03*
%TD*%
D34*
%TO.C,C15*%
X191920000Y-44512500D03*
X192880000Y-44512500D03*
%TD*%
D29*
%TO.C,C18*%
X183280000Y-40612500D03*
X182320000Y-40612500D03*
%TD*%
D18*
%TO.C,D4*%
X136190625Y-51993750D03*
X132890625Y-51993750D03*
%TD*%
D33*
%TO.C,R17*%
X186690000Y-53512500D03*
X187710000Y-53512500D03*
%TD*%
D29*
%TO.C,C3*%
X172692500Y-39290638D03*
X171732500Y-39290638D03*
%TD*%
D50*
%TO.C,J8*%
X164473451Y-80367235D03*
D51*
X165473451Y-80367235D03*
X166473451Y-80367235D03*
X167473451Y-80367235D03*
X168473451Y-80367235D03*
%TD*%
D40*
%TO.C,R23*%
X141596600Y-91974350D03*
X140576600Y-91974350D03*
%TD*%
D18*
%TO.C,D19*%
X187659406Y-66675036D03*
X190959406Y-66675036D03*
%TD*%
%TO.C,D12*%
X250762500Y-50006250D03*
X254062500Y-50006250D03*
%TD*%
D52*
%TO.C,U4*%
X190425000Y-44962500D03*
X190425000Y-45362500D03*
X190425000Y-45762500D03*
X190425000Y-46162500D03*
X190425000Y-46562500D03*
X190425000Y-46962500D03*
X190425000Y-47362500D03*
X190425000Y-47762500D03*
X190425000Y-48162500D03*
X190425000Y-48562500D03*
X190425000Y-48962500D03*
X190425000Y-49362500D03*
X190425000Y-49762500D03*
X190425000Y-50162500D03*
D53*
X189587500Y-51000000D03*
X189187500Y-51000000D03*
X188787500Y-51000000D03*
X188387500Y-51000000D03*
X187987500Y-51000000D03*
X187587500Y-51000000D03*
X187187500Y-51000000D03*
X186787500Y-51000000D03*
X186387500Y-51000000D03*
X185987500Y-51000000D03*
X185587500Y-51000000D03*
X185187500Y-51000000D03*
X184787500Y-51000000D03*
X184387500Y-51000000D03*
D52*
X183550000Y-50162500D03*
X183550000Y-49762500D03*
X183550000Y-49362500D03*
X183550000Y-48962500D03*
X183550000Y-48562500D03*
X183550000Y-48162500D03*
X183550000Y-47762500D03*
X183550000Y-47362500D03*
X183550000Y-46962500D03*
X183550000Y-46562500D03*
X183550000Y-46162500D03*
X183550000Y-45762500D03*
X183550000Y-45362500D03*
X183550000Y-44962500D03*
D53*
X184387500Y-44125000D03*
X184787500Y-44125000D03*
X185187500Y-44125000D03*
X185587500Y-44125000D03*
X185987500Y-44125000D03*
X186387500Y-44125000D03*
X186787500Y-44125000D03*
X187187500Y-44125000D03*
X187587500Y-44125000D03*
X187987500Y-44125000D03*
X188387500Y-44125000D03*
X188787500Y-44125000D03*
X189187500Y-44125000D03*
X189587500Y-44125000D03*
D54*
X186987500Y-47562500D03*
%TD*%
D35*
%TO.C,R7*%
X56554715Y-41586577D03*
X56554715Y-40566577D03*
%TD*%
D46*
%TO.C,Y1*%
X119512500Y-55212500D03*
X118312500Y-55212500D03*
X117112500Y-55212500D03*
%TD*%
D31*
%TO.C,L3*%
X140117188Y-69496875D03*
X140117188Y-70996875D03*
X145632812Y-70996875D03*
X145632812Y-69496875D03*
%TD*%
D29*
%TO.C,C28*%
X114692500Y-41812500D03*
X113732500Y-41812500D03*
%TD*%
D50*
%TO.C,J7*%
X140112596Y-80367235D03*
D51*
X139112596Y-80367235D03*
X138112596Y-80367235D03*
X137112596Y-80367235D03*
X136112596Y-80367235D03*
%TD*%
D29*
%TO.C,C37*%
X159880000Y-63103125D03*
X158920000Y-63103125D03*
%TD*%
D18*
%TO.C,D46*%
X178134375Y-85725000D03*
X181434375Y-85725000D03*
%TD*%
D42*
%TO.C,J14*%
X163115634Y-94654747D03*
D43*
X165655634Y-94654747D03*
X168195634Y-94654747D03*
X170735634Y-94654747D03*
%TD*%
D22*
%TO.C,J6*%
X164306260Y-45839081D03*
D23*
X164306260Y-43839081D03*
X164306260Y-41839081D03*
%TD*%
D18*
%TO.C,D17*%
X117140702Y-66675036D03*
X113840702Y-66675036D03*
%TD*%
D50*
%TO.C,J12*%
X174426581Y-94059434D03*
D51*
X174426581Y-93059434D03*
X174426581Y-92059434D03*
X174426581Y-91059434D03*
%TD*%
D18*
%TO.C,D38*%
X133809375Y-104775000D03*
X130509375Y-104775000D03*
%TD*%
D30*
%TO.C,SW4*%
X177096894Y-67385975D03*
X172946894Y-67385975D03*
X177096894Y-69535975D03*
X172946894Y-69535975D03*
%TD*%
D18*
%TO.C,D13*%
X48084375Y-66675000D03*
X44784375Y-66675000D03*
%TD*%
D34*
%TO.C,C8*%
X123345084Y-44053142D03*
X124305084Y-44053142D03*
%TD*%
D31*
%TO.C,L5*%
X159167188Y-64734375D03*
X159167188Y-66234375D03*
X164682812Y-66234375D03*
X164682812Y-64734375D03*
%TD*%
D49*
%TO.C,LS1*%
X133762500Y-86320365D03*
X142462500Y-86320365D03*
%TD*%
D29*
%TO.C,C14*%
X182080000Y-44612500D03*
X181120000Y-44612500D03*
%TD*%
D42*
%TO.C,J10*%
X162956886Y-100012564D03*
D43*
X165496886Y-100012564D03*
X168036886Y-100012564D03*
%TD*%
D33*
%TO.C,R29*%
X113702500Y-39812500D03*
X114722500Y-39812500D03*
%TD*%
D36*
%TO.C,R8*%
X256579883Y-43543142D03*
X256579883Y-44563142D03*
%TD*%
D31*
%TO.C,L6*%
X159167188Y-69496875D03*
X159167188Y-70996875D03*
X164682812Y-70996875D03*
X164682812Y-69496875D03*
%TD*%
D32*
%TO.C,C2*%
X107612500Y-45492500D03*
X107612500Y-44532500D03*
%TD*%
D29*
%TO.C,C36*%
X160680000Y-58340625D03*
X159720000Y-58340625D03*
%TD*%
D40*
%TO.C,R14*%
X173746063Y-44053142D03*
X172726063Y-44053142D03*
%TD*%
D18*
%TO.C,D33*%
X235284375Y-85725000D03*
X238584375Y-85725000D03*
%TD*%
D34*
%TO.C,C35*%
X162520000Y-58340625D03*
X163480000Y-58340625D03*
%TD*%
D60*
%TO.C,F1*%
X48028170Y-47625020D03*
X49603170Y-47625020D03*
%TD*%
M02*
