M48
; DRILL file {KiCad 9.0.7} date 2026-03-01T08:46:20+0900
; FORMAT={-:-/ absolute / metric / decimal}
; #@! TF.CreationDate,2026-03-01T08:46:20+09:00
; #@! TF.GenerationSoftware,Kicad,Pcbnew,9.0.7
; #@! TF.FileFunction,Plated,1,2,PTH
FMAT,2
METRIC
; #@! TA.AperFunction,Plated,PTH,ViaDrill
T1C0.300
; #@! TA.AperFunction,Plated,PTH,ComponentDrill
T2C0.350
; #@! TA.AperFunction,Plated,PTH,ViaDrill
T3C0.400
; #@! TA.AperFunction,Plated,PTH,ComponentDrill
T4C0.500
; #@! TA.AperFunction,Plated,PTH,ComponentDrill
T5C0.600
; #@! TA.AperFunction,Plated,PTH,ComponentDrill
T6C0.800
; #@! TA.AperFunction,Plated,PTH,ComponentDrill
T7C0.900
; #@! TA.AperFunction,Plated,PTH,ComponentDrill
T8C1.000
; #@! TA.AperFunction,Plated,PTH,ComponentDrill
T9C2.700
%
G90
G05
T1
X48.22Y-45.839
X114.912Y-54.112
X116.412Y-45.212
X117.212Y-49.662
X118.412Y-41.612
T2
X116.537Y-46.288
X116.537Y-47.562
X116.537Y-48.837
X117.812Y-46.288
X117.812Y-47.562
X117.812Y-48.837
X119.087Y-46.288
X119.087Y-47.562
X119.087Y-48.837
X185.713Y-46.288
X185.713Y-47.562
X185.713Y-48.837
X186.987Y-46.288
X186.987Y-47.562
X186.987Y-48.837
X188.262Y-46.288
X188.262Y-47.562
X188.262Y-48.837
T3
X33.337Y-80.367
X33.337Y-95.25
X33.933Y-72.033
X37.505Y-58.341
X39.291Y-47.625
X43.458Y-35.123
X48.012Y-89.812
X50.412Y-70.212
X50.601Y-35.123
X52.812Y-43.413
X52.812Y-46.413
X55.612Y-66.812
X59.012Y-43.012
X59.012Y-46.413
X59.412Y-50.006
X60.081Y-63.906
X62.508Y-35.123
X63.012Y-39.212
X63.698Y-97.631
X65.013Y-38.612
X65.013Y-42.012
X67.013Y-89.812
X74.612Y-55.412
X74.859Y-101.812
X75.009Y-47.625
X75.013Y-42.012
X76.612Y-38.612
X78.013Y-42.012
X80.962Y-35.123
X81.013Y-76.212
X81.412Y-108.812
X85.725Y-114.895
X86.013Y-89.812
X88.412Y-81.812
X89.412Y-38.612
X93.812Y-74.812
X94.013Y-42.012
X94.059Y-47.625
X95.012Y-76.812
X95.612Y-54.812
X97.012Y-42.012
X99.417Y-35.123
X100.212Y-67.412
X100.412Y-108.812
X100.612Y-38.612
X100.812Y-46.413
X104.0Y-50.312
X104.3Y-64.812
X104.913Y-83.713
X105.012Y-60.612
X105.012Y-93.513
X105.612Y-72.529
X105.969Y-56.244
X106.412Y-38.612
X106.412Y-42.012
X106.615Y-47.219
X107.156Y-114.895
X107.414Y-47.463
X107.511Y-46.619
X107.763Y-94.662
X108.323Y-46.537
X108.389Y-93.964
X108.6Y-44.512
X108.99Y-93.363
X109.131Y-46.275
X109.537Y-92.696
X109.812Y-42.012
X110.1Y-45.802
X110.545Y-52.358
X111.3Y-49.612
X111.4Y-52.112
X112.492Y-45.194
X112.531Y-44.345
X112.612Y-60.312
X112.812Y-38.612
X112.812Y-79.013
X113.048Y-51.455
X113.064Y-53.652
X113.109Y-35.123
X113.132Y-41.812
X113.34Y-54.404
X113.512Y-78.612
X113.612Y-60.312
X113.646Y-50.857
X113.65Y-44.443
X113.733Y-42.413
X114.052Y-54.867
X114.109Y-87.326
X114.212Y-78.212
X114.348Y-51.249
X114.612Y-95.845
X114.912Y-77.737
X114.952Y-87.027
X115.412Y-96.512
X115.562Y-56.962
X115.912Y-54.112
X116.612Y-38.837
X117.112Y-64.612
X117.512Y-97.712
X118.712Y-97.712
X119.063Y-82.153
X119.412Y-64.612
X120.512Y-108.712
X120.612Y-54.812
X120.612Y-58.812
X120.612Y-63.562
X121.27Y-54.005
X121.362Y-76.2
X121.812Y-39.913
X122.012Y-50.812
X122.012Y-58.012
X122.012Y-75.412
X122.064Y-97.188
X122.641Y-44.755
X122.712Y-74.512
X122.712Y-40.812
X122.712Y-51.812
X122.812Y-77.013
X122.864Y-89.812
X123.312Y-50.812
X123.312Y-101.899
X123.387Y-61.413
X123.972Y-49.653
X124.042Y-61.929
X124.112Y-58.812
X124.42Y-75.009
X124.612Y-68.212
X124.697Y-88.032
X124.812Y-46.762
X125.112Y-49.512
X125.212Y-44.064
X125.212Y-51.612
X125.412Y-46.116
X125.812Y-47.412
X126.012Y-51.912
X126.212Y-84.412
X126.912Y-73.812
X127.412Y-50.412
X127.992Y-75.009
X129.778Y-64.889
X129.778Y-69.056
X130.6Y-86.612
X131.012Y-49.612
X131.512Y-57.912
X131.564Y-35.123
X131.652Y-49.052
X131.713Y-45.012
X132.159Y-71.438
X132.213Y-57.412
X132.412Y-94.662
X132.799Y-56.799
X134.612Y-52.212
X134.737Y-60.962
X134.812Y-63.219
X136.412Y-47.612
X138.213Y-86.412
X139.012Y-58.612
X139.012Y-63.412
X139.012Y-68.212
X143.213Y-109.012
X148.233Y-48.816
X148.233Y-56.555
X148.233Y-69.652
X148.233Y-79.177
X148.233Y-88.702
X148.233Y-114.895
X148.828Y-35.123
X155.972Y-35.123
X155.972Y-48.816
X155.972Y-56.555
X155.972Y-69.652
X155.972Y-79.177
X155.972Y-88.702
X155.972Y-114.895
X157.812Y-61.472
X157.812Y-66.234
X159.412Y-57.212
X161.2Y-52.862
X161.612Y-58.322
X163.4Y-48.012
X163.812Y-57.212
X166.012Y-64.734
X166.012Y-69.497
X166.612Y-59.412
X166.688Y-86.32
X167.153Y-54.643
X167.2Y-45.839
X167.412Y-58.341
X168.0Y-54.212
X168.014Y-50.612
X168.213Y-108.812
X168.8Y-44.138
X169.213Y-48.012
X170.713Y-41.712
X170.806Y-59.419
X172.412Y-46.212
X173.131Y-42.322
X173.236Y-47.03
X173.4Y-35.212
X174.213Y-57.212
X175.812Y-94.412
X176.213Y-80.962
X176.446Y-43.238
X176.812Y-46.413
X176.812Y-94.412
X176.945Y-43.926
X177.213Y-96.712
X177.402Y-44.643
X177.412Y-68.212
X177.412Y-81.412
X177.487Y-47.012
X177.763Y-45.412
X177.912Y-96.012
X178.2Y-47.412
X178.612Y-56.412
X178.736Y-95.212
X179.0Y-47.812
X179.2Y-85.612
X179.326Y-48.762
X181.2Y-49.612
X181.6Y-48.812
X181.904Y-50.089
X182.012Y-59.212
X182.588Y-85.712
X182.619Y-50.47
X182.712Y-58.73
X182.8Y-43.612
X183.0Y-63.612
X183.075Y-51.212
X183.564Y-53.812
X183.891Y-50.973
X184.2Y-40.612
X184.249Y-39.588
X184.265Y-53.332
X184.6Y-59.904
X184.912Y-75.312
X184.998Y-76.252
X185.026Y-53.711
X185.58Y-76.835
X185.6Y-45.212
X185.737Y-80.367
X185.92Y-53.535
X186.147Y-77.401
X186.612Y-39.012
X186.643Y-41.488
X186.7Y-49.662
X186.735Y-77.99
X186.812Y-78.812
X187.523Y-56.554
X187.801Y-41.862
X188.213Y-81.513
X189.31Y-80.367
X189.339Y-55.123
X189.45Y-54.038
X190.041Y-56.623
X191.124Y-55.334
X191.4Y-89.812
X191.4Y-108.412
X191.42Y-56.08
X191.512Y-59.912
X192.286Y-80.367
X192.627Y-49.657
X193.142Y-45.962
X193.337Y-57.412
X193.712Y-45.274
X194.512Y-51.112
X194.812Y-45.812
X195.512Y-49.712
X195.712Y-48.812
X195.912Y-46.012
X196.112Y-48.112
X196.564Y-46.612
X197.048Y-35.123
X197.112Y-47.212
X197.412Y-41.812
X197.644Y-114.895
X197.812Y-82.426
X198.212Y-38.612
X198.263Y-78.492
X198.287Y-58.911
X198.512Y-49.412
X199.071Y-101.899
X199.074Y-63.555
X199.275Y-85.484
X199.812Y-54.412
X200.025Y-46.434
X201.512Y-43.16
X202.012Y-48.412
X202.612Y-41.812
X203.6Y-53.137
X203.6Y-62.812
X204.212Y-38.612
X204.612Y-56.087
X204.612Y-68.378
X205.383Y-35.123
X205.605Y-46.52
X205.612Y-41.812
X205.612Y-56.112
X207.169Y-80.367
X212.8Y-91.612
X212.8Y-108.612
X215.8Y-51.612
X217.012Y-38.612
X217.012Y-41.812
X217.4Y-74.612
X217.487Y-57.367
X217.938Y-58.155
X219.075Y-114.895
X223.838Y-35.123
X230.812Y-38.612
X230.812Y-41.812
X231.9Y-91.612
X231.9Y-108.212
X236.012Y-55.612
X236.4Y-101.812
X238.012Y-70.812
X238.012Y-82.013
X239.012Y-87.013
X241.102Y-97.631
X242.888Y-35.123
X243.012Y-41.812
X243.412Y-38.612
X244.412Y-59.012
X244.412Y-67.812
X247.812Y-46.413
X249.2Y-47.612
X249.412Y-43.612
X249.8Y-49.411
X251.812Y-43.612
X252.212Y-46.612
X254.199Y-35.123
X255.2Y-46.612
X257.2Y-45.413
X259.5Y-72.513
X261.938Y-35.123
X265.2Y-89.212
X265.509Y-47.625
X267.295Y-57.15
X270.867Y-71.438
X271.463Y-80.367
X271.463Y-95.25
T4
X130.374Y-79.748
X130.374Y-80.748
X130.374Y-81.748
X130.374Y-82.748
X130.374Y-91.059
X130.374Y-92.059
X130.374Y-93.059
X130.374Y-94.059
X136.113Y-80.367
X137.113Y-80.367
X138.113Y-80.367
X139.113Y-80.367
X140.113Y-80.367
X164.473Y-80.367
X165.473Y-80.367
X166.473Y-80.367
X167.473Y-80.367
X168.473Y-80.367
X174.427Y-80.367
X174.427Y-81.367
X174.427Y-82.367
X174.427Y-83.367
X174.427Y-91.059
X174.427Y-92.059
X174.427Y-93.059
X174.427Y-94.059
T6
X57.745Y-80.963
X59.745Y-80.963
X61.745Y-80.963
X63.745Y-80.963
X73.986Y-80.963
X75.986Y-80.963
X77.986Y-80.963
X79.986Y-80.963
X81.986Y-80.963
X83.986Y-80.963
X94.845Y-66.675
X96.845Y-66.675
X102.989Y-48.612
X104.012Y-84.812
X104.012Y-86.812
X104.989Y-48.612
X106.012Y-84.812
X106.012Y-86.812
X106.989Y-48.612
X144.661Y-42.012
X156.567Y-42.267
X164.306Y-41.839
X164.306Y-43.839
X164.306Y-45.839
X208.788Y-84.804
X208.788Y-86.804
X210.788Y-84.804
X210.788Y-86.804
X216.219Y-80.962
X218.219Y-80.962
X218.48Y-66.675
X220.219Y-80.962
X220.48Y-66.675
X222.219Y-80.962
X224.219Y-80.962
X226.219Y-80.962
X239.269Y-80.962
X241.269Y-80.962
X243.269Y-80.962
X245.269Y-80.962
T8
X134.303Y-94.655
X134.382Y-100.012
X136.843Y-94.655
X136.922Y-100.012
X139.383Y-94.655
X139.462Y-100.012
X141.923Y-94.655
X162.957Y-100.013
X163.116Y-94.655
X165.497Y-100.013
X165.656Y-94.655
X168.037Y-100.013
X168.196Y-94.655
X170.736Y-94.655
T9
X33.933Y-76.2
X39.886Y-53.578
X42.267Y-42.863
X58.341Y-36.314
X66.675Y-113.705
X100.013Y-75.605
X103.584Y-36.314
X123.825Y-36.314
X127.397Y-113.705
X128.588Y-54.173
X135.731Y-76.2
X139.303Y-36.314
X147.637Y-75.009
X147.638Y-52.387
X147.638Y-84.534
X157.162Y-52.387
X157.162Y-75.009
X157.163Y-84.534
X165.497Y-36.314
X169.069Y-76.2
X176.213Y-54.173
X177.403Y-113.705
X180.975Y-36.314
X201.216Y-36.314
X204.788Y-75.605
X238.125Y-113.705
X246.46Y-36.314
X262.533Y-42.863
X264.914Y-53.578
X270.867Y-76.2
T5
X46.282Y-36.155G85X46.282Y-36.755
G05
X46.282Y-40.085G85X46.282Y-41.185
G05
X54.922Y-36.155G85X54.922Y-36.755
G05
X54.922Y-40.085G85X54.922Y-41.185
G05
X249.879Y-36.155G85X249.879Y-36.755
G05
X249.879Y-40.085G85X249.879Y-41.185
G05
X258.519Y-36.155G85X258.519Y-36.755
G05
X258.519Y-40.085G85X258.519Y-41.185
G05
T7
X144.147Y-46.819G85X144.147Y-47.219
G05
X148.747Y-38.719G85X148.747Y-39.119
G05
X148.747Y-41.719G85X148.747Y-42.119
G05
X148.747Y-45.719G85X148.747Y-46.119
G05
X156.053Y-46.819G85X156.053Y-47.219
G05
X160.653Y-38.719G85X160.653Y-39.119
G05
X160.653Y-41.719G85X160.653Y-42.119
G05
X160.653Y-45.719G85X160.653Y-46.119
G05
M30
