%TF.GenerationSoftware,KiCad,Pcbnew,9.0.7*%
%TF.CreationDate,2026-03-01T08:50:18+09:00*%
%TF.ProjectId,Aida_Mid_Inside,41696461-5f4d-4696-945f-496e73696465,rev?*%
%TF.SameCoordinates,Original*%
%TF.FileFunction,Legend,Bot*%
%TF.FilePolarity,Positive*%
%FSLAX46Y46*%
G04 Gerber Fmt 4.6, Leading zero omitted, Abs format (unit mm)*
G04 Created by KiCad (PCBNEW 9.0.7) date 2026-03-01 08:50:18*
%MOMM*%
%LPD*%
G01*
G04 APERTURE LIST*
%ADD10C,0.375000*%
%ADD11C,0.150000*%
G04 APERTURE END LIST*
D10*
G36*
X129457638Y-47468086D02*
G01*
X129462120Y-47468297D01*
X129466265Y-47470014D01*
X129502844Y-47473617D01*
X130175218Y-47473617D01*
X130390942Y-47575135D01*
X130518350Y-47778987D01*
X130543204Y-47977819D01*
X130477140Y-48153992D01*
X130313113Y-48241474D01*
X129687613Y-48241474D01*
X129515377Y-48160421D01*
X129427494Y-47457366D01*
X129457638Y-47468086D01*
G37*
G36*
X133433304Y-48241474D02*
G01*
X132544756Y-48241474D01*
X132303605Y-48127990D01*
X132183272Y-48021027D01*
X132040908Y-47793244D01*
X131998196Y-47451556D01*
X132077137Y-47241047D01*
X132147003Y-47161200D01*
X132480950Y-47045045D01*
X133283751Y-47045045D01*
X133433304Y-48241474D01*
G37*
G36*
X133236876Y-46670045D02*
G01*
X132491184Y-46670045D01*
X132250034Y-46556562D01*
X132129702Y-46449600D01*
X131987336Y-46221818D01*
X131962482Y-46022985D01*
X132041424Y-45812475D01*
X132121357Y-45721123D01*
X132317575Y-45616474D01*
X133105179Y-45616474D01*
X133236876Y-46670045D01*
G37*
G36*
X138880333Y-48949807D02*
G01*
X123448068Y-48949807D01*
X123448068Y-46403256D01*
X123781401Y-46403256D01*
X123785697Y-46476290D01*
X123817615Y-46542119D01*
X123842561Y-46569113D01*
X124688479Y-47321040D01*
X124058129Y-48329599D01*
X124041798Y-48362528D01*
X124029716Y-48434682D01*
X124046166Y-48505968D01*
X124088645Y-48565531D01*
X124150683Y-48604305D01*
X124222837Y-48616387D01*
X124294123Y-48599937D01*
X124353686Y-48557458D01*
X124376129Y-48528349D01*
X124972761Y-47573736D01*
X125075542Y-47665097D01*
X125173934Y-48452231D01*
X125182046Y-48488080D01*
X125218210Y-48551676D01*
X125275959Y-48596592D01*
X125346499Y-48615988D01*
X125419092Y-48606914D01*
X125482688Y-48570751D01*
X125527604Y-48513002D01*
X125547000Y-48442461D01*
X125546038Y-48405718D01*
X125314484Y-46553282D01*
X126226978Y-46553282D01*
X126234082Y-46626095D01*
X126268510Y-46690646D01*
X126325019Y-46737110D01*
X126395009Y-46758411D01*
X126467822Y-46751307D01*
X126501793Y-46737272D01*
X126728289Y-46616474D01*
X127210932Y-46616474D01*
X127452083Y-46729958D01*
X127572415Y-46836920D01*
X127714779Y-47064700D01*
X127811062Y-47834961D01*
X127732120Y-48045473D01*
X127652189Y-48136823D01*
X127455970Y-48241474D01*
X126973327Y-48241474D01*
X126707681Y-48116464D01*
X126673049Y-48104148D01*
X126599972Y-48100700D01*
X126531137Y-48125481D01*
X126477026Y-48174717D01*
X126445875Y-48240912D01*
X126442427Y-48313989D01*
X126467208Y-48382824D01*
X126516444Y-48436935D01*
X126548007Y-48455770D01*
X126851578Y-48598628D01*
X126886210Y-48610943D01*
X126890691Y-48611154D01*
X126894836Y-48612871D01*
X126931415Y-48616474D01*
X127502844Y-48616474D01*
X127539423Y-48612871D01*
X127547936Y-48609344D01*
X127557108Y-48608450D01*
X127591079Y-48594415D01*
X127858936Y-48451558D01*
X127881691Y-48436383D01*
X127885011Y-48434742D01*
X127887114Y-48432767D01*
X127889516Y-48431166D01*
X127891869Y-48428304D01*
X127911809Y-48409586D01*
X128036810Y-48266728D01*
X128052429Y-48244879D01*
X128055045Y-48242080D01*
X128056398Y-48239327D01*
X128058186Y-48236827D01*
X128059416Y-48233189D01*
X128071263Y-48209095D01*
X128178406Y-47923381D01*
X128187876Y-47887865D01*
X128187585Y-47879296D01*
X128189858Y-47871031D01*
X128188896Y-47834288D01*
X128081753Y-46977145D01*
X128073641Y-46941296D01*
X128071685Y-46937856D01*
X128071032Y-46933955D01*
X128054701Y-46901027D01*
X128019095Y-46844058D01*
X128976544Y-46844058D01*
X128977506Y-46880802D01*
X129173935Y-48452230D01*
X129182047Y-48488080D01*
X129218210Y-48551676D01*
X129275960Y-48596591D01*
X129346500Y-48615988D01*
X129419093Y-48606914D01*
X129482689Y-48570750D01*
X129489102Y-48562504D01*
X129565864Y-48598628D01*
X129600496Y-48610943D01*
X129604977Y-48611154D01*
X129609122Y-48612871D01*
X129645701Y-48616474D01*
X130359987Y-48616474D01*
X130396566Y-48612871D01*
X130405079Y-48609344D01*
X130414251Y-48608450D01*
X130448222Y-48594415D01*
X130716079Y-48451558D01*
X130732772Y-48440425D01*
X130737243Y-48438394D01*
X130739595Y-48435876D01*
X130746659Y-48431166D01*
X130766194Y-48407406D01*
X130787188Y-48384937D01*
X130790934Y-48377318D01*
X130793123Y-48374656D01*
X130794552Y-48369959D01*
X130803406Y-48351953D01*
X130910549Y-48066237D01*
X130920019Y-48030722D01*
X130919728Y-48022154D01*
X130922001Y-48013889D01*
X130921039Y-47977145D01*
X130885324Y-47691431D01*
X130877212Y-47655581D01*
X130875256Y-47652141D01*
X130874603Y-47648241D01*
X130858272Y-47615313D01*
X130679701Y-47329599D01*
X130657259Y-47300490D01*
X130643484Y-47290666D01*
X130632101Y-47278156D01*
X130600538Y-47259321D01*
X130296967Y-47116464D01*
X130262335Y-47104148D01*
X130257853Y-47103936D01*
X130253709Y-47102220D01*
X130217130Y-47098617D01*
X129544756Y-47098617D01*
X129372519Y-47017564D01*
X129355339Y-46880127D01*
X129421404Y-46703955D01*
X129585432Y-46616474D01*
X130068075Y-46616474D01*
X130333721Y-46741485D01*
X130368353Y-46753800D01*
X130441430Y-46757248D01*
X130510265Y-46732467D01*
X130564376Y-46683231D01*
X130595527Y-46617037D01*
X130598975Y-46543959D01*
X130574194Y-46475124D01*
X130524958Y-46421013D01*
X130493395Y-46402178D01*
X130189824Y-46259321D01*
X130155192Y-46247005D01*
X130150710Y-46246793D01*
X130146566Y-46245077D01*
X130109987Y-46241474D01*
X129538558Y-46241474D01*
X129501979Y-46245077D01*
X129493465Y-46248603D01*
X129484294Y-46249498D01*
X129450323Y-46263533D01*
X129182466Y-46406390D01*
X129165772Y-46417522D01*
X129161303Y-46419554D01*
X129158950Y-46422071D01*
X129151886Y-46426783D01*
X129132355Y-46450536D01*
X129111357Y-46473010D01*
X129107609Y-46480631D01*
X129105422Y-46483292D01*
X129103993Y-46487987D01*
X129095139Y-46505995D01*
X128987996Y-46791709D01*
X128978526Y-46827224D01*
X128978816Y-46835792D01*
X128976544Y-46844058D01*
X128019095Y-46844058D01*
X127876128Y-46615313D01*
X127868560Y-46605496D01*
X127866643Y-46601543D01*
X127859818Y-46594157D01*
X127853686Y-46586204D01*
X127850112Y-46583655D01*
X127841697Y-46574549D01*
X127680983Y-46431692D01*
X127670793Y-46424286D01*
X127667815Y-46421013D01*
X127659286Y-46415923D01*
X127651250Y-46410083D01*
X127647066Y-46408631D01*
X127636252Y-46402178D01*
X127332681Y-46259321D01*
X127298049Y-46247005D01*
X127293567Y-46246793D01*
X127289423Y-46245077D01*
X127252844Y-46241474D01*
X126681415Y-46241474D01*
X126644836Y-46245077D01*
X126636322Y-46248603D01*
X126627151Y-46249498D01*
X126593180Y-46263533D01*
X126325323Y-46406390D01*
X126294743Y-46426783D01*
X126248279Y-46483292D01*
X126226978Y-46553282D01*
X125314484Y-46553282D01*
X125243688Y-45986915D01*
X131583687Y-45986915D01*
X131584649Y-46023658D01*
X131620363Y-46309373D01*
X131628475Y-46345222D01*
X131630430Y-46348660D01*
X131631084Y-46352564D01*
X131647416Y-46385492D01*
X131825988Y-46671206D01*
X131833555Y-46681022D01*
X131835473Y-46684976D01*
X131842297Y-46692361D01*
X131848430Y-46700315D01*
X131852003Y-46702863D01*
X131860419Y-46711970D01*
X131983224Y-46821130D01*
X131976960Y-46823309D01*
X131943595Y-46838729D01*
X131934803Y-46846556D01*
X131924249Y-46851776D01*
X131897450Y-46876932D01*
X131772450Y-47019789D01*
X131756830Y-47041637D01*
X131754214Y-47044438D01*
X131752860Y-47047191D01*
X131751074Y-47049690D01*
X131749844Y-47053324D01*
X131737996Y-47077423D01*
X131630853Y-47363138D01*
X131621383Y-47398654D01*
X131621673Y-47407221D01*
X131619401Y-47415487D01*
X131620363Y-47452231D01*
X131673935Y-47880801D01*
X131682047Y-47916651D01*
X131684002Y-47920090D01*
X131684656Y-47923991D01*
X131700987Y-47956920D01*
X131879558Y-48242633D01*
X131887129Y-48252453D01*
X131889044Y-48256403D01*
X131895862Y-48263781D01*
X131902000Y-48271743D01*
X131905575Y-48274292D01*
X131913989Y-48283398D01*
X132074703Y-48426256D01*
X132084894Y-48433663D01*
X132087872Y-48436935D01*
X132096396Y-48442022D01*
X132104436Y-48447865D01*
X132108618Y-48449316D01*
X132119435Y-48455771D01*
X132423008Y-48598628D01*
X132457639Y-48610943D01*
X132462120Y-48611154D01*
X132466265Y-48612871D01*
X132502844Y-48616474D01*
X133645701Y-48616474D01*
X133682280Y-48612871D01*
X133693141Y-48608372D01*
X133704807Y-48606914D01*
X133726653Y-48594491D01*
X133749870Y-48584875D01*
X133758181Y-48576563D01*
X133768403Y-48570751D01*
X133783834Y-48550910D01*
X133801602Y-48533143D01*
X133806100Y-48522283D01*
X133813319Y-48513002D01*
X133819982Y-48488767D01*
X133829598Y-48465553D01*
X133829598Y-48453797D01*
X133832715Y-48442461D01*
X133831753Y-48405718D01*
X133830088Y-48392395D01*
X136747518Y-48392395D01*
X136747518Y-48465553D01*
X136775514Y-48533143D01*
X136827246Y-48584875D01*
X136894836Y-48612871D01*
X136931415Y-48616474D01*
X138359986Y-48616474D01*
X138396565Y-48612871D01*
X138407426Y-48608372D01*
X138419092Y-48606914D01*
X138440938Y-48594491D01*
X138464155Y-48584875D01*
X138472466Y-48576563D01*
X138482688Y-48570751D01*
X138498119Y-48550910D01*
X138515887Y-48533143D01*
X138520385Y-48522283D01*
X138527604Y-48513002D01*
X138534267Y-48488767D01*
X138543883Y-48465553D01*
X138543883Y-48453797D01*
X138547000Y-48442461D01*
X138546038Y-48405718D01*
X138171038Y-45405717D01*
X138162926Y-45369868D01*
X138126763Y-45306272D01*
X138069013Y-45261356D01*
X137998473Y-45241960D01*
X137925880Y-45251034D01*
X137862284Y-45287197D01*
X137817368Y-45344947D01*
X137797972Y-45415487D01*
X137798934Y-45452231D01*
X138147589Y-48241474D01*
X136931415Y-48241474D01*
X136894836Y-48245077D01*
X136827246Y-48273073D01*
X136775514Y-48324805D01*
X136747518Y-48392395D01*
X133830088Y-48392395D01*
X133456753Y-45405717D01*
X133454598Y-45396193D01*
X133454598Y-45392395D01*
X133452703Y-45387821D01*
X133448641Y-45369868D01*
X133436218Y-45348021D01*
X133426602Y-45324805D01*
X133418290Y-45316493D01*
X133412478Y-45306272D01*
X133392638Y-45290841D01*
X133374870Y-45273073D01*
X133364008Y-45268574D01*
X133354728Y-45261356D01*
X133330495Y-45254692D01*
X133307280Y-45245077D01*
X133288962Y-45243272D01*
X133284188Y-45241960D01*
X133280418Y-45242431D01*
X133270701Y-45241474D01*
X132270701Y-45241474D01*
X132234122Y-45245077D01*
X132225608Y-45248603D01*
X132216437Y-45249498D01*
X132182466Y-45263533D01*
X131914609Y-45406390D01*
X131891860Y-45421560D01*
X131888535Y-45423205D01*
X131886426Y-45425184D01*
X131884029Y-45426783D01*
X131881680Y-45429639D01*
X131861736Y-45448361D01*
X131736736Y-45591218D01*
X131721116Y-45613066D01*
X131718500Y-45615867D01*
X131717146Y-45618620D01*
X131715360Y-45621119D01*
X131714130Y-45624753D01*
X131702282Y-45648852D01*
X131595139Y-45934566D01*
X131585669Y-45970081D01*
X131585959Y-45978649D01*
X131583687Y-45986915D01*
X125243688Y-45986915D01*
X125171038Y-45405717D01*
X125162926Y-45369868D01*
X125126763Y-45306272D01*
X125069013Y-45261356D01*
X124998473Y-45241960D01*
X124925880Y-45251034D01*
X124862284Y-45287197D01*
X124817368Y-45344947D01*
X124797972Y-45415487D01*
X124798934Y-45452231D01*
X125004985Y-47100646D01*
X124091697Y-46288835D01*
X124061964Y-46267226D01*
X123992847Y-46243246D01*
X123919813Y-46247542D01*
X123853984Y-46279460D01*
X123805381Y-46334139D01*
X123781401Y-46403256D01*
X123448068Y-46403256D01*
X123448068Y-44908141D01*
X138880333Y-44908141D01*
X138880333Y-48949807D01*
G37*
D11*
%TO.C,SW_LEFT1*%
X102537500Y-49125000D02*
X102537500Y-49525000D01*
X102537500Y-53325000D02*
X102537500Y-53825000D01*
X102537500Y-53825000D02*
X107037500Y-53825000D01*
X107037500Y-49125000D02*
X102537500Y-49125000D01*
X107037500Y-49825000D02*
X107037500Y-49125000D01*
X107537500Y-54325000D02*
X107537500Y-55325000D01*
X108037500Y-55825000D02*
X107537500Y-55325000D01*
X111037500Y-51325000D02*
X108537500Y-51325000D01*
X111037500Y-55825000D02*
X108037500Y-55825000D01*
X111537500Y-51825000D02*
X111037500Y-51325000D01*
X111537500Y-55325000D02*
X111037500Y-55825000D01*
X107037500Y-53825000D02*
G75*
G02*
X107537500Y-54325000I-1J-500001D01*
G01*
X108537500Y-51325000D02*
G75*
G02*
X107037500Y-49825000I1J1500001D01*
G01*
%TO.C,SW_LEFT3*%
X131112500Y-87225000D02*
X131112500Y-87625000D01*
X131112500Y-91425000D02*
X131112500Y-91925000D01*
X131112500Y-91925000D02*
X135612500Y-91925000D01*
X135612500Y-87225000D02*
X131112500Y-87225000D01*
X135612500Y-87925000D02*
X135612500Y-87225000D01*
X136112500Y-92425000D02*
X136112500Y-93425000D01*
X136612500Y-93925000D02*
X136112500Y-93425000D01*
X139612500Y-89425000D02*
X137112500Y-89425000D01*
X139612500Y-93925000D02*
X136612500Y-93925000D01*
X140112500Y-89925000D02*
X139612500Y-89425000D01*
X140112500Y-93425000D02*
X139612500Y-93925000D01*
X135612500Y-91925000D02*
G75*
G02*
X136112500Y-92425000I-1J-500001D01*
G01*
X137112500Y-89425000D02*
G75*
G02*
X135612500Y-87925000I1J1500001D01*
G01*
%TO.C,SW_LEFT2*%
X121587500Y-68175000D02*
X121587500Y-68575000D01*
X121587500Y-72375000D02*
X121587500Y-72875000D01*
X121587500Y-72875000D02*
X126087500Y-72875000D01*
X126087500Y-68175000D02*
X121587500Y-68175000D01*
X126087500Y-68875000D02*
X126087500Y-68175000D01*
X126587500Y-73375000D02*
X126587500Y-74375000D01*
X127087500Y-74875000D02*
X126587500Y-74375000D01*
X130087500Y-70375000D02*
X127587500Y-70375000D01*
X130087500Y-74875000D02*
X127087500Y-74875000D01*
X130587500Y-70875000D02*
X130087500Y-70375000D01*
X130587500Y-74375000D02*
X130087500Y-74875000D01*
X126087500Y-72875000D02*
G75*
G02*
X126587500Y-73375000I-1J-500001D01*
G01*
X127587500Y-70375000D02*
G75*
G02*
X126087500Y-68875000I1J1500001D01*
G01*
%TD*%
M02*
