%TF.GenerationSoftware,KiCad,Pcbnew,9.0.7*%
%TF.CreationDate,2026-03-01T08:50:18+09:00*%
%TF.ProjectId,Aida_Mid_Inside,41696461-5f4d-4696-945f-496e73696465,rev?*%
%TF.SameCoordinates,Original*%
%TF.FileFunction,Soldermask,Top*%
%TF.FilePolarity,Negative*%
%FSLAX46Y46*%
G04 Gerber Fmt 4.6, Leading zero omitted, Abs format (unit mm)*
G04 Created by KiCad (PCBNEW 9.0.7) date 2026-03-01 08:50:18*
%MOMM*%
%LPD*%
G01*
G04 APERTURE LIST*
G04 Aperture macros list*
%AMFreePoly0*
4,1,18,1.804926,0.992426,1.822500,0.950000,1.822500,-0.780000,1.804926,-0.822426,1.781286,-0.836983,1.335531,-0.983935,0.881507,-1.322037,0.637215,-1.683591,0.598901,-1.708907,0.587500,-1.710000,-0.837500,-1.710000,-0.879926,-1.692426,-0.897500,-1.650000,-0.897500,0.950000,-0.879926,0.992426,-0.837500,1.010000,1.762500,1.010000,1.804926,0.992426,1.804926,0.992426,$1*%
G04 Aperture macros list end*
%ADD10R,1.350000X1.350000*%
%ADD11C,4.400000*%
%ADD12C,3.000000*%
%ADD13C,1.600000*%
%ADD14C,0.800000*%
%ADD15C,5.500000*%
%ADD16C,5.000000*%
%ADD17FreePoly0,180.000000*%
%ADD18R,2.600000X2.600000*%
G04 APERTURE END LIST*
D10*
%TO.C,TP3*%
X122039145Y-49410951D03*
%TD*%
D11*
%TO.C,H6*%
X135731344Y-76200044D03*
%TD*%
%TO.C,H7*%
X147637604Y-84534426D03*
%TD*%
%TO.C,H4*%
X147637604Y-52387524D03*
%TD*%
D10*
%TO.C,TP6*%
X135136031Y-82153166D03*
%TD*%
%TO.C,TP1*%
X128587588Y-36314065D03*
%TD*%
%TO.C,TP7*%
X143470413Y-84534418D03*
%TD*%
%TO.C,TP4*%
X141684474Y-52387516D03*
%TD*%
D12*
%TO.C,SW_LEFT1*%
X104537500Y-51375000D03*
D13*
X114537500Y-42475000D03*
D14*
X101337500Y-50025000D03*
X101337500Y-52825000D03*
%TD*%
D12*
%TO.C,SW_LEFT3*%
X133112500Y-89475000D03*
D13*
X143112500Y-80575000D03*
D14*
X129912500Y-88125000D03*
X129912500Y-90925000D03*
%TD*%
D11*
%TO.C,H2*%
X103584442Y-36314073D03*
D15*
X103584442Y-36314073D03*
%TD*%
D10*
%TO.C,TP5*%
X142279787Y-75009367D03*
%TD*%
D11*
%TO.C,H1*%
X123825084Y-36314073D03*
%TD*%
D10*
%TO.C,TP8*%
X139303222Y-40481256D03*
%TD*%
D11*
%TO.C,H8*%
X139303222Y-36314073D03*
%TD*%
%TO.C,H3*%
X128587588Y-54173463D03*
D15*
X128587588Y-54173463D03*
%TD*%
D10*
%TO.C,TP2*%
X106561007Y-40481256D03*
%TD*%
D12*
%TO.C,SW_LEFT2*%
X123587500Y-70425000D03*
D13*
X133587500Y-61525000D03*
D14*
X120387500Y-69075000D03*
X120387500Y-71875000D03*
%TD*%
D11*
%TO.C,H5*%
X147637604Y-75009367D03*
D15*
X147637604Y-75009367D03*
%TD*%
D12*
%TO.C,SW_RIGHT2*%
X133587500Y-70425000D03*
X128587500Y-72625000D03*
D16*
X128587500Y-66675000D03*
D13*
X123587500Y-61525000D03*
D17*
X125775000Y-72975000D03*
D18*
X136862500Y-70425000D03*
%TD*%
D12*
%TO.C,SW_RIGHT3*%
X143112500Y-89475000D03*
X138112500Y-91675000D03*
D16*
X138112500Y-85725000D03*
D13*
X133112500Y-80575000D03*
D17*
X135300000Y-92025000D03*
D18*
X146387500Y-89475000D03*
%TD*%
D12*
%TO.C,SW_RIGHT1*%
X114537500Y-51375000D03*
X109537500Y-53575000D03*
D16*
X109537500Y-47625000D03*
D13*
X104537500Y-42475000D03*
D17*
X106725000Y-53925000D03*
D18*
X117812500Y-51375000D03*
%TD*%
M02*
