%TF.GenerationSoftware,KiCad,Pcbnew,9.0.7*%
%TF.CreationDate,2026-03-01T08:50:18+09:00*%
%TF.ProjectId,Aida_Mid_Inside,41696461-5f4d-4696-945f-496e73696465,rev?*%
%TF.SameCoordinates,Original*%
%TF.FileFunction,Copper,L1,Top*%
%TF.FilePolarity,Positive*%
%FSLAX46Y46*%
G04 Gerber Fmt 4.6, Leading zero omitted, Abs format (unit mm)*
G04 Created by KiCad (PCBNEW 9.0.7) date 2026-03-01 08:50:18*
%MOMM*%
%LPD*%
G01*
G04 APERTURE LIST*
G04 Aperture macros list*
%AMFreePoly0*
4,1,18,1.804926,0.992426,1.822500,0.950000,1.822500,-0.780000,1.804926,-0.822426,1.781286,-0.836983,1.335531,-0.983935,0.881507,-1.322037,0.637215,-1.683591,0.598901,-1.708907,0.587500,-1.710000,-0.837500,-1.710000,-0.879926,-1.692426,-0.897500,-1.650000,-0.897500,0.950000,-0.879926,0.992426,-0.837500,1.010000,1.762500,1.010000,1.804926,0.992426,1.804926,0.992426,$1*%
G04 Aperture macros list end*
%TA.AperFunction,ComponentPad*%
%ADD10R,1.350000X1.350000*%
%TD*%
%TA.AperFunction,ComponentPad*%
%ADD11C,4.400000*%
%TD*%
%TA.AperFunction,ComponentPad*%
%ADD12C,0.800000*%
%TD*%
%TA.AperFunction,ConnectorPad*%
%ADD13C,4.400000*%
%TD*%
%TA.AperFunction,ComponentPad*%
%ADD14C,5.500000*%
%TD*%
%TA.AperFunction,SMDPad,CuDef*%
%ADD15FreePoly0,180.000000*%
%TD*%
%TA.AperFunction,SMDPad,CuDef*%
%ADD16R,2.600000X2.600000*%
%TD*%
%TA.AperFunction,ViaPad*%
%ADD17C,0.600000*%
%TD*%
%TA.AperFunction,Conductor*%
%ADD18C,0.381000*%
%TD*%
G04 APERTURE END LIST*
D10*
%TO.P,TP3,1,1*%
%TO.N,COL_3_to_Base*%
X122039145Y-49410951D03*
%TD*%
D11*
%TO.P,H6,1,1*%
%TO.N,COL_5_from_Base*%
X135731344Y-76200044D03*
%TD*%
%TO.P,H7,1,1*%
%TO.N,COL_5_to_Base*%
X147637604Y-84534426D03*
%TD*%
%TO.P,H4,1,1*%
%TO.N,COL_4_from_Base*%
X147637604Y-52387524D03*
%TD*%
D10*
%TO.P,TP6,1,1*%
%TO.N,COL_5_from_Base*%
X135136031Y-82153166D03*
%TD*%
%TO.P,TP1,1,1*%
%TO.N,GND*%
X128587588Y-36314065D03*
%TD*%
%TO.P,TP7,1,1*%
%TO.N,COL_5_to_Base*%
X143470413Y-84534418D03*
%TD*%
%TO.P,TP4,1,1*%
%TO.N,COL_4_from_Base*%
X141684474Y-52387516D03*
%TD*%
D12*
%TO.P,SW_LEFT1,2,2*%
%TO.N,COL_3_to_Base*%
X101337500Y-50025000D03*
X101337500Y-52825000D03*
%TD*%
%TO.P,SW_LEFT3,2,2*%
%TO.N,COL_5_to_Base*%
X129912500Y-88125000D03*
X129912500Y-90925000D03*
%TD*%
D13*
%TO.P,H2,1,1*%
%TO.N,COL_3_from_Base*%
X103584442Y-36314073D03*
D14*
X103584442Y-36314073D03*
%TD*%
D10*
%TO.P,TP5,1,1*%
%TO.N,COL_4_to_Base*%
X142279787Y-75009367D03*
%TD*%
D11*
%TO.P,H1,1,1*%
%TO.N,GND*%
X123825084Y-36314073D03*
%TD*%
D10*
%TO.P,TP8,1,1*%
%TO.N,COL_4_from_Top_to_Base*%
X139303222Y-40481256D03*
%TD*%
D11*
%TO.P,H8,1,1*%
%TO.N,COL_4_from_Top_to_Base*%
X139303222Y-36314073D03*
%TD*%
D13*
%TO.P,H3,1,1*%
%TO.N,COL_3_to_Base*%
X128587588Y-54173463D03*
D14*
X128587588Y-54173463D03*
%TD*%
D10*
%TO.P,TP2,1,1*%
%TO.N,COL_3_from_Base*%
X106561007Y-40481256D03*
%TD*%
D12*
%TO.P,SW_LEFT2,2,2*%
%TO.N,COL_4_to_Base*%
X120387500Y-69075000D03*
X120387500Y-71875000D03*
%TD*%
D13*
%TO.P,H5,1,1*%
%TO.N,COL_4_to_Base*%
X147637604Y-75009367D03*
D14*
X147637604Y-75009367D03*
%TD*%
D15*
%TO.P,SW_RIGHT2,1,1*%
%TO.N,COL_4_from_Base*%
X125775000Y-72975000D03*
D16*
%TO.P,SW_RIGHT2,2,2*%
%TO.N,COL_4_to_Base*%
X136862500Y-70425000D03*
%TD*%
D15*
%TO.P,SW_RIGHT3,1,1*%
%TO.N,COL_5_from_Base*%
X135300000Y-92025000D03*
D16*
%TO.P,SW_RIGHT3,2,2*%
%TO.N,COL_5_to_Base*%
X146387500Y-89475000D03*
%TD*%
D15*
%TO.P,SW_RIGHT1,1,1*%
%TO.N,COL_3_from_Base*%
X106725000Y-53925000D03*
D16*
%TO.P,SW_RIGHT1,2,2*%
%TO.N,COL_3_to_Base*%
X117812500Y-51375000D03*
%TD*%
D17*
%TO.N,COL_4_from_Base*%
X127475000Y-70731242D03*
%TO.N,GND*%
X149212500Y-70212500D03*
X120412500Y-74812500D03*
X149412500Y-93812500D03*
X149412500Y-88212500D03*
X141212500Y-39612500D03*
X149412500Y-78812500D03*
X101412500Y-55812500D03*
X149612500Y-49812500D03*
X101412500Y-39612500D03*
X130012500Y-93812500D03*
X130012500Y-86612500D03*
X136012500Y-34412500D03*
X107212500Y-34412500D03*
X130012500Y-75412500D03*
X149212500Y-55812500D03*
%TO.N,COL_3_from_Base*%
X106596000Y-51612500D03*
%TO.N,COL_3_to_Base*%
X117871954Y-49433500D03*
%TO.N,COL_5_from_Base*%
X135157784Y-89613978D03*
%TD*%
D18*
%TO.N,COL_4_from_Base*%
X147637604Y-53578150D02*
X147637604Y-52387524D01*
X125775000Y-72431242D02*
X125775000Y-72975000D01*
X127475000Y-70731242D02*
X125775000Y-72431242D01*
%TO.N,COL_3_from_Base*%
X103584442Y-37504691D02*
X103584442Y-36314073D01*
X106561007Y-50601577D02*
X106561007Y-40481256D01*
X106596000Y-51612500D02*
X106596000Y-53796000D01*
X106596000Y-50636570D02*
X106561007Y-50601577D01*
X106596000Y-51612500D02*
X106596000Y-50636570D01*
X106561007Y-40481256D02*
X103584442Y-37504691D01*
X106596000Y-53796000D02*
X106725000Y-53925000D01*
%TO.N,COL_4_to_Base*%
X120387500Y-69075000D02*
X120979000Y-68483500D01*
X134921000Y-68483500D02*
X136862500Y-70425000D01*
X142009375Y-75009367D02*
X141412500Y-74412492D01*
X124391696Y-68483500D02*
X125529000Y-69620804D01*
X125529000Y-69620804D02*
X131646000Y-69620804D01*
X120979000Y-68483500D02*
X124391696Y-68483500D01*
X140849992Y-74412492D02*
X136862500Y-70425000D01*
X142279787Y-75009367D02*
X142009375Y-75009367D01*
X132783304Y-68483500D02*
X134921000Y-68483500D01*
X141412500Y-74412492D02*
X140849992Y-74412492D01*
X131646000Y-69620804D02*
X132783304Y-68483500D01*
X147637604Y-75009367D02*
X142279787Y-75009367D01*
%TO.N,COL_3_to_Base*%
X117812500Y-51375000D02*
X117812500Y-49492954D01*
X117812500Y-49492954D02*
X117871954Y-49433500D01*
%TO.N,COL_5_from_Base*%
X135157784Y-91882784D02*
X135300000Y-92025000D01*
X135157784Y-89613978D02*
X135157784Y-91882784D01*
X135136031Y-89592225D02*
X135136031Y-82153166D01*
X135731344Y-76200044D02*
X135136031Y-76795357D01*
X135157784Y-89613978D02*
X135136031Y-89592225D01*
X135136031Y-76795357D02*
X135136031Y-82153166D01*
%TO.N,COL_5_to_Base*%
X146387500Y-85784530D02*
X146387500Y-89475000D01*
X147637604Y-84534426D02*
X146387500Y-85784530D01*
%TO.N,COL_4_from_Top_to_Base*%
X139303222Y-36314073D02*
X139303222Y-40481256D01*
%TD*%
%TA.AperFunction,Conductor*%
%TO.N,GND*%
G36*
X122156178Y-69194185D02*
G01*
X122201933Y-69246989D01*
X122211877Y-69316147D01*
X122187514Y-69373987D01*
X122128892Y-69450382D01*
X122014157Y-69649109D01*
X122014150Y-69649123D01*
X121926342Y-69861112D01*
X121866953Y-70082759D01*
X121866951Y-70082770D01*
X121837000Y-70310258D01*
X121837000Y-70539741D01*
X121851833Y-70652400D01*
X121866952Y-70767238D01*
X121903718Y-70904451D01*
X121926342Y-70988887D01*
X122014150Y-71200876D01*
X122014157Y-71200890D01*
X122128892Y-71399617D01*
X122268581Y-71581661D01*
X122268589Y-71581670D01*
X122430830Y-71743911D01*
X122430838Y-71743918D01*
X122430839Y-71743919D01*
X122468566Y-71772868D01*
X122612882Y-71883607D01*
X122612885Y-71883608D01*
X122612888Y-71883611D01*
X122811612Y-71998344D01*
X122811617Y-71998346D01*
X122811623Y-71998349D01*
X122891698Y-72031517D01*
X123023613Y-72086158D01*
X123245262Y-72145548D01*
X123334185Y-72157255D01*
X123398082Y-72185522D01*
X123436553Y-72243846D01*
X123442000Y-72280194D01*
X123442000Y-73925003D01*
X123444895Y-73979036D01*
X123480478Y-74118444D01*
X123480479Y-74118448D01*
X123499517Y-74164408D01*
X123551310Y-74259262D01*
X123649354Y-74364567D01*
X123705265Y-74397740D01*
X123773092Y-74437983D01*
X123819054Y-74457021D01*
X123870084Y-74475024D01*
X124012500Y-74495500D01*
X124012503Y-74495500D01*
X126612504Y-74495500D01*
X126666536Y-74492604D01*
X126713005Y-74480743D01*
X126805946Y-74457021D01*
X126851908Y-74437983D01*
X126946761Y-74386190D01*
X127052066Y-74288147D01*
X127125483Y-74164408D01*
X127144521Y-74118446D01*
X127162524Y-74067416D01*
X127176522Y-73970054D01*
X127205545Y-73906500D01*
X127264323Y-73868725D01*
X127334192Y-73868724D01*
X127386940Y-73900021D01*
X127430830Y-73943911D01*
X127430838Y-73943918D01*
X127430839Y-73943919D01*
X127473715Y-73976819D01*
X127612882Y-74083607D01*
X127612885Y-74083608D01*
X127612888Y-74083611D01*
X127811612Y-74198344D01*
X127811617Y-74198346D01*
X127811623Y-74198349D01*
X127867653Y-74221557D01*
X128023613Y-74286158D01*
X128245262Y-74345548D01*
X128472766Y-74375500D01*
X128472773Y-74375500D01*
X128702227Y-74375500D01*
X128702234Y-74375500D01*
X128929738Y-74345548D01*
X129151387Y-74286158D01*
X129363388Y-74198344D01*
X129562112Y-74083611D01*
X129744161Y-73943919D01*
X129744165Y-73943914D01*
X129744170Y-73943911D01*
X129906411Y-73781670D01*
X129906414Y-73781665D01*
X129906419Y-73781661D01*
X130046111Y-73599612D01*
X130160844Y-73400888D01*
X130248658Y-73188887D01*
X130308048Y-72967238D01*
X130338000Y-72739734D01*
X130338000Y-72510266D01*
X130308048Y-72282762D01*
X130248658Y-72061113D01*
X130175134Y-71883611D01*
X130160849Y-71849123D01*
X130160846Y-71849117D01*
X130160844Y-71849112D01*
X130046111Y-71650388D01*
X130046108Y-71650385D01*
X130046107Y-71650382D01*
X129906418Y-71468338D01*
X129906411Y-71468330D01*
X129744170Y-71306089D01*
X129744161Y-71306081D01*
X129562117Y-71166392D01*
X129363390Y-71051657D01*
X129363376Y-71051650D01*
X129151387Y-70963842D01*
X128929738Y-70904452D01*
X128891715Y-70899446D01*
X128702241Y-70874500D01*
X128702234Y-70874500D01*
X128472766Y-70874500D01*
X128472761Y-70874500D01*
X128472753Y-70874501D01*
X128415684Y-70882014D01*
X128346649Y-70871248D01*
X128294394Y-70824867D01*
X128275500Y-70759075D01*
X128275500Y-70652397D01*
X128275499Y-70652395D01*
X128256182Y-70555283D01*
X128244737Y-70497745D01*
X128238734Y-70483254D01*
X128231268Y-70413786D01*
X128262543Y-70351307D01*
X128322633Y-70315655D01*
X128353297Y-70311804D01*
X131713000Y-70311804D01*
X131780039Y-70331489D01*
X131825794Y-70384293D01*
X131837000Y-70435804D01*
X131837000Y-70539741D01*
X131851833Y-70652400D01*
X131866952Y-70767238D01*
X131903718Y-70904451D01*
X131926342Y-70988887D01*
X132014150Y-71200876D01*
X132014157Y-71200890D01*
X132128892Y-71399617D01*
X132268581Y-71581661D01*
X132268589Y-71581670D01*
X132430830Y-71743911D01*
X132430838Y-71743918D01*
X132430839Y-71743919D01*
X132468566Y-71772868D01*
X132612882Y-71883607D01*
X132612885Y-71883608D01*
X132612888Y-71883611D01*
X132811612Y-71998344D01*
X132811617Y-71998346D01*
X132811623Y-71998349D01*
X132891698Y-72031517D01*
X133023613Y-72086158D01*
X133245262Y-72145548D01*
X133472766Y-72175500D01*
X133472773Y-72175500D01*
X133702227Y-72175500D01*
X133702234Y-72175500D01*
X133929738Y-72145548D01*
X134151387Y-72086158D01*
X134363388Y-71998344D01*
X134562112Y-71883611D01*
X134744161Y-71743919D01*
X134850320Y-71637759D01*
X134911641Y-71604276D01*
X134981333Y-71609260D01*
X135037267Y-71651131D01*
X135061684Y-71716595D01*
X135062000Y-71725440D01*
X135062000Y-71772868D01*
X135062001Y-71772876D01*
X135068408Y-71832483D01*
X135118702Y-71967328D01*
X135118706Y-71967335D01*
X135204952Y-72082544D01*
X135204955Y-72082547D01*
X135320164Y-72168793D01*
X135320171Y-72168797D01*
X135455017Y-72219091D01*
X135455016Y-72219091D01*
X135461944Y-72219835D01*
X135514627Y-72225500D01*
X137634415Y-72225499D01*
X137701454Y-72245184D01*
X137722096Y-72261818D01*
X140409499Y-74949222D01*
X140409502Y-74949225D01*
X140454440Y-74979251D01*
X140522684Y-75024850D01*
X140648430Y-75076935D01*
X140648435Y-75076937D01*
X140648439Y-75076937D01*
X140648440Y-75076938D01*
X140781931Y-75103492D01*
X140781934Y-75103492D01*
X140980288Y-75103492D01*
X141047327Y-75123177D01*
X141093082Y-75175981D01*
X141104288Y-75227492D01*
X141104288Y-75732243D01*
X141110695Y-75791850D01*
X141160989Y-75926695D01*
X141160993Y-75926702D01*
X141247239Y-76041911D01*
X141247242Y-76041914D01*
X141362451Y-76128160D01*
X141362458Y-76128164D01*
X141497304Y-76178458D01*
X141497303Y-76178458D01*
X141504231Y-76179202D01*
X141556914Y-76184867D01*
X143002659Y-76184866D01*
X143062270Y-76178458D01*
X143197118Y-76128163D01*
X143312333Y-76041913D01*
X143398583Y-75926698D01*
X143445791Y-75800127D01*
X143451589Y-75784582D01*
X143453867Y-75785431D01*
X143482497Y-75735144D01*
X143544404Y-75702752D01*
X143568609Y-75700367D01*
X144359108Y-75700367D01*
X144426147Y-75720052D01*
X144471902Y-75772856D01*
X144479772Y-75797227D01*
X144479976Y-75797177D01*
X144480711Y-75800112D01*
X144480713Y-75800121D01*
X144480715Y-75800127D01*
X144508899Y-75893038D01*
X144573424Y-76105749D01*
X144606196Y-76184867D01*
X144675303Y-76351707D01*
X144695644Y-76400813D01*
X144695646Y-76400818D01*
X144846188Y-76682461D01*
X144846205Y-76682489D01*
X145023616Y-76948005D01*
X145023633Y-76948028D01*
X145226242Y-77194907D01*
X145452063Y-77420728D01*
X145452068Y-77420732D01*
X145452069Y-77420733D01*
X145698948Y-77623342D01*
X145698955Y-77623347D01*
X145698965Y-77623354D01*
X145964481Y-77800765D01*
X145964486Y-77800768D01*
X145964498Y-77800776D01*
X145964507Y-77800780D01*
X145964509Y-77800782D01*
X146246152Y-77951324D01*
X146246154Y-77951324D01*
X146246160Y-77951328D01*
X146541223Y-78073547D01*
X146846844Y-78166256D01*
X147160081Y-78228563D01*
X147477917Y-78259867D01*
X147477920Y-78259867D01*
X147797288Y-78259867D01*
X147797291Y-78259867D01*
X148115127Y-78228563D01*
X148428364Y-78166256D01*
X148733985Y-78073547D01*
X149029048Y-77951328D01*
X149310710Y-77800776D01*
X149576260Y-77623342D01*
X149823139Y-77420733D01*
X149823144Y-77420728D01*
X149901899Y-77341974D01*
X149963222Y-77308489D01*
X150032914Y-77313473D01*
X150088847Y-77355345D01*
X150113264Y-77420809D01*
X150113580Y-77429655D01*
X150113580Y-82968684D01*
X150093895Y-83035723D01*
X150041091Y-83081478D01*
X149971933Y-83091422D01*
X149908377Y-83062397D01*
X149884586Y-83034656D01*
X149846787Y-82974500D01*
X149843496Y-82969262D01*
X149654383Y-82732122D01*
X149439908Y-82517647D01*
X149202768Y-82328534D01*
X148945945Y-82167161D01*
X148945942Y-82167159D01*
X148672672Y-82035559D01*
X148386387Y-81935383D01*
X148386375Y-81935379D01*
X148158160Y-81883290D01*
X148090667Y-81867886D01*
X148090664Y-81867885D01*
X148090652Y-81867883D01*
X147789267Y-81833926D01*
X147789261Y-81833926D01*
X147485947Y-81833926D01*
X147485940Y-81833926D01*
X147184555Y-81867883D01*
X147184541Y-81867886D01*
X146888832Y-81935379D01*
X146888820Y-81935383D01*
X146602535Y-82035559D01*
X146329265Y-82167159D01*
X146072441Y-82328533D01*
X145835300Y-82517646D01*
X145620824Y-82732122D01*
X145431711Y-82969263D01*
X145270337Y-83226087D01*
X145138737Y-83499357D01*
X145038561Y-83785642D01*
X145038557Y-83785654D01*
X144971064Y-84081363D01*
X144971061Y-84081377D01*
X144937104Y-84382762D01*
X144937104Y-84686089D01*
X144971061Y-84987474D01*
X144971064Y-84987488D01*
X145038557Y-85283197D01*
X145038561Y-85283209D01*
X145138737Y-85569494D01*
X145270337Y-85842764D01*
X145270339Y-85842767D01*
X145431712Y-86099590D01*
X145500982Y-86186452D01*
X145620824Y-86336729D01*
X145660181Y-86376086D01*
X145693666Y-86437409D01*
X145696500Y-86463767D01*
X145696500Y-87550500D01*
X145676815Y-87617539D01*
X145624011Y-87663294D01*
X145572500Y-87674500D01*
X145039629Y-87674500D01*
X145039623Y-87674501D01*
X144980016Y-87680908D01*
X144845171Y-87731202D01*
X144845164Y-87731206D01*
X144729955Y-87817452D01*
X144729952Y-87817455D01*
X144643706Y-87932664D01*
X144643702Y-87932671D01*
X144593408Y-88067517D01*
X144589204Y-88106623D01*
X144587001Y-88127123D01*
X144587000Y-88127135D01*
X144587000Y-88174557D01*
X144567315Y-88241596D01*
X144514511Y-88287351D01*
X144445353Y-88297295D01*
X144381797Y-88268270D01*
X144375319Y-88262238D01*
X144269170Y-88156089D01*
X144269161Y-88156081D01*
X144087117Y-88016392D01*
X143888390Y-87901657D01*
X143888376Y-87901650D01*
X143676387Y-87813842D01*
X143454738Y-87754452D01*
X143416715Y-87749446D01*
X143227241Y-87724500D01*
X143227234Y-87724500D01*
X142997766Y-87724500D01*
X142997758Y-87724500D01*
X142781215Y-87753009D01*
X142770262Y-87754452D01*
X142678199Y-87779120D01*
X142548612Y-87813842D01*
X142336623Y-87901650D01*
X142336609Y-87901657D01*
X142137882Y-88016392D01*
X141955838Y-88156081D01*
X141793581Y-88318338D01*
X141653892Y-88500382D01*
X141539157Y-88699109D01*
X141539150Y-88699123D01*
X141451342Y-88911112D01*
X141391953Y-89132759D01*
X141391951Y-89132770D01*
X141362000Y-89360258D01*
X141362000Y-89589741D01*
X141380731Y-89732011D01*
X141391952Y-89817238D01*
X141423622Y-89935432D01*
X141451342Y-90038887D01*
X141539150Y-90250876D01*
X141539157Y-90250890D01*
X141653892Y-90449617D01*
X141793581Y-90631661D01*
X141793589Y-90631670D01*
X141955830Y-90793911D01*
X141955838Y-90793918D01*
X142137882Y-90933607D01*
X142137885Y-90933608D01*
X142137888Y-90933611D01*
X142336612Y-91048344D01*
X142336617Y-91048346D01*
X142336623Y-91048349D01*
X142427980Y-91086190D01*
X142548613Y-91136158D01*
X142770262Y-91195548D01*
X142997766Y-91225500D01*
X142997773Y-91225500D01*
X143227227Y-91225500D01*
X143227234Y-91225500D01*
X143454738Y-91195548D01*
X143676387Y-91136158D01*
X143888388Y-91048344D01*
X144087112Y-90933611D01*
X144269161Y-90793919D01*
X144375320Y-90687759D01*
X144436641Y-90654276D01*
X144506333Y-90659260D01*
X144562267Y-90701131D01*
X144586684Y-90766595D01*
X144587000Y-90775440D01*
X144587000Y-90822868D01*
X144587001Y-90822876D01*
X144593408Y-90882483D01*
X144643702Y-91017328D01*
X144643706Y-91017335D01*
X144729952Y-91132544D01*
X144729955Y-91132547D01*
X144845164Y-91218793D01*
X144845171Y-91218797D01*
X144980017Y-91269091D01*
X144980016Y-91269091D01*
X144986944Y-91269835D01*
X145039627Y-91275500D01*
X147735372Y-91275499D01*
X147794983Y-91269091D01*
X147929831Y-91218796D01*
X148045046Y-91132546D01*
X148131296Y-91017331D01*
X148181591Y-90882483D01*
X148188000Y-90822873D01*
X148187999Y-88127128D01*
X148181591Y-88067517D01*
X148169951Y-88036309D01*
X148131297Y-87932671D01*
X148131293Y-87932664D01*
X148045047Y-87817455D01*
X148045044Y-87817452D01*
X147929835Y-87731206D01*
X147929828Y-87731202D01*
X147794982Y-87680908D01*
X147794983Y-87680908D01*
X147735383Y-87674501D01*
X147735381Y-87674500D01*
X147735373Y-87674500D01*
X147735365Y-87674500D01*
X147202500Y-87674500D01*
X147193814Y-87671949D01*
X147184853Y-87673238D01*
X147160812Y-87662259D01*
X147135461Y-87654815D01*
X147129533Y-87647974D01*
X147121297Y-87644213D01*
X147107007Y-87621978D01*
X147089706Y-87602011D01*
X147087418Y-87591496D01*
X147083523Y-87585435D01*
X147078500Y-87550500D01*
X147078500Y-87327774D01*
X147098185Y-87260735D01*
X147150989Y-87214980D01*
X147216384Y-87204554D01*
X147297296Y-87213670D01*
X147485943Y-87234925D01*
X147485944Y-87234926D01*
X147485947Y-87234926D01*
X147789264Y-87234926D01*
X147789265Y-87234925D01*
X147943298Y-87217570D01*
X148090652Y-87200968D01*
X148090655Y-87200967D01*
X148090667Y-87200966D01*
X148386376Y-87133472D01*
X148672669Y-87033294D01*
X148945945Y-86901691D01*
X149202768Y-86740318D01*
X149439908Y-86551205D01*
X149654383Y-86336730D01*
X149843496Y-86099590D01*
X149884586Y-86034196D01*
X149936920Y-85987904D01*
X150005974Y-85977255D01*
X150069822Y-86005630D01*
X150108194Y-86064020D01*
X150113580Y-86100167D01*
X150113580Y-94326301D01*
X150111047Y-94334925D01*
X150112336Y-94343823D01*
X150101356Y-94367930D01*
X150093895Y-94393340D01*
X150087102Y-94399225D01*
X150083376Y-94407408D01*
X150061105Y-94421752D01*
X150041091Y-94439095D01*
X150030641Y-94441373D01*
X150024636Y-94445242D01*
X149989943Y-94450249D01*
X149989707Y-94450301D01*
X149989374Y-94450301D01*
X149952913Y-94450303D01*
X149952777Y-94450338D01*
X149944700Y-94450347D01*
X149944677Y-94450340D01*
X149944573Y-94450347D01*
X129507498Y-94450300D01*
X129440458Y-94430615D01*
X129394704Y-94377811D01*
X129383498Y-94326304D01*
X129383485Y-91866148D01*
X129403169Y-91799109D01*
X129455973Y-91753354D01*
X129525131Y-91743410D01*
X129554938Y-91751587D01*
X129649834Y-91790894D01*
X129649836Y-91790894D01*
X129649841Y-91790896D01*
X129823804Y-91825499D01*
X129823807Y-91825500D01*
X129823809Y-91825500D01*
X130001193Y-91825500D01*
X130001194Y-91825499D01*
X130059182Y-91813964D01*
X130175158Y-91790896D01*
X130175161Y-91790894D01*
X130175166Y-91790894D01*
X130339047Y-91723013D01*
X130486535Y-91624464D01*
X130611964Y-91499035D01*
X130710513Y-91351547D01*
X130778394Y-91187666D01*
X130793622Y-91111113D01*
X130812276Y-91017331D01*
X130813000Y-91013691D01*
X130813000Y-90836309D01*
X130813000Y-90836306D01*
X130812999Y-90836304D01*
X130778396Y-90662341D01*
X130778393Y-90662332D01*
X130710516Y-90498459D01*
X130710509Y-90498446D01*
X130611964Y-90350965D01*
X130611961Y-90350961D01*
X130486538Y-90225538D01*
X130486534Y-90225535D01*
X130339053Y-90126990D01*
X130339040Y-90126983D01*
X130175167Y-90059106D01*
X130175158Y-90059103D01*
X130001194Y-90024500D01*
X130001191Y-90024500D01*
X129823809Y-90024500D01*
X129823806Y-90024500D01*
X129649841Y-90059103D01*
X129649837Y-90059105D01*
X129649835Y-90059105D01*
X129649834Y-90059106D01*
X129612404Y-90074610D01*
X129554925Y-90098418D01*
X129485456Y-90105886D01*
X129422977Y-90074610D01*
X129387325Y-90014521D01*
X129383474Y-89983862D01*
X129383471Y-89360258D01*
X131362000Y-89360258D01*
X131362000Y-89589741D01*
X131380731Y-89732011D01*
X131391952Y-89817238D01*
X131423622Y-89935432D01*
X131451342Y-90038887D01*
X131539150Y-90250876D01*
X131539157Y-90250890D01*
X131653892Y-90449617D01*
X131793581Y-90631661D01*
X131793589Y-90631670D01*
X131955830Y-90793911D01*
X131955838Y-90793918D01*
X132137882Y-90933607D01*
X132137885Y-90933608D01*
X132137888Y-90933611D01*
X132336612Y-91048344D01*
X132336617Y-91048346D01*
X132336623Y-91048349D01*
X132427980Y-91086190D01*
X132548613Y-91136158D01*
X132770262Y-91195548D01*
X132859185Y-91207255D01*
X132923082Y-91235522D01*
X132961553Y-91293846D01*
X132967000Y-91330194D01*
X132967000Y-92975003D01*
X132969895Y-93029036D01*
X133005478Y-93168444D01*
X133005479Y-93168448D01*
X133024517Y-93214408D01*
X133076310Y-93309262D01*
X133174354Y-93414567D01*
X133233780Y-93449825D01*
X133298092Y-93487983D01*
X133344054Y-93507021D01*
X133395084Y-93525024D01*
X133537500Y-93545500D01*
X133537503Y-93545500D01*
X136137504Y-93545500D01*
X136191536Y-93542604D01*
X136238005Y-93530743D01*
X136330946Y-93507021D01*
X136376908Y-93487983D01*
X136471761Y-93436190D01*
X136577066Y-93338147D01*
X136650483Y-93214408D01*
X136669521Y-93168446D01*
X136687524Y-93117416D01*
X136701522Y-93020054D01*
X136730545Y-92956500D01*
X136789323Y-92918725D01*
X136859192Y-92918724D01*
X136911940Y-92950021D01*
X136955830Y-92993911D01*
X136955838Y-92993918D01*
X136955839Y-92993919D01*
X137001603Y-93029035D01*
X137137882Y-93133607D01*
X137137885Y-93133608D01*
X137137888Y-93133611D01*
X137336612Y-93248344D01*
X137336617Y-93248346D01*
X137336623Y-93248349D01*
X137427980Y-93286190D01*
X137548613Y-93336158D01*
X137770262Y-93395548D01*
X137997766Y-93425500D01*
X137997773Y-93425500D01*
X138227227Y-93425500D01*
X138227234Y-93425500D01*
X138454738Y-93395548D01*
X138676387Y-93336158D01*
X138888388Y-93248344D01*
X139087112Y-93133611D01*
X139269161Y-92993919D01*
X139269165Y-92993914D01*
X139269170Y-92993911D01*
X139431411Y-92831670D01*
X139431414Y-92831665D01*
X139431419Y-92831661D01*
X139571111Y-92649612D01*
X139685844Y-92450888D01*
X139773658Y-92238887D01*
X139833048Y-92017238D01*
X139863000Y-91789734D01*
X139863000Y-91560266D01*
X139833048Y-91332762D01*
X139773658Y-91111113D01*
X139700134Y-90933611D01*
X139685849Y-90899123D01*
X139685846Y-90899117D01*
X139685844Y-90899112D01*
X139571111Y-90700388D01*
X139571108Y-90700385D01*
X139571107Y-90700382D01*
X139431418Y-90518338D01*
X139431411Y-90518330D01*
X139269170Y-90356089D01*
X139269161Y-90356081D01*
X139087117Y-90216392D01*
X138888390Y-90101657D01*
X138888376Y-90101650D01*
X138676387Y-90013842D01*
X138454738Y-89954452D01*
X138416715Y-89949446D01*
X138227241Y-89924500D01*
X138227234Y-89924500D01*
X137997766Y-89924500D01*
X137997758Y-89924500D01*
X137781215Y-89953009D01*
X137770262Y-89954452D01*
X137676576Y-89979554D01*
X137548612Y-90013842D01*
X137336623Y-90101650D01*
X137336609Y-90101657D01*
X137137882Y-90216392D01*
X136955838Y-90356081D01*
X136955829Y-90356089D01*
X136916241Y-90395677D01*
X136854918Y-90429162D01*
X136785226Y-90424176D01*
X136729293Y-90382304D01*
X136705984Y-90326724D01*
X136705104Y-90320970D01*
X136705104Y-90320965D01*
X136669521Y-90181554D01*
X136650483Y-90135592D01*
X136598690Y-90040739D01*
X136598689Y-90040737D01*
X136500645Y-89935432D01*
X136376913Y-89862020D01*
X136376908Y-89862017D01*
X136330946Y-89842979D01*
X136330931Y-89842973D01*
X136330924Y-89842971D01*
X136279917Y-89824976D01*
X136226096Y-89817238D01*
X136137500Y-89804500D01*
X136137498Y-89804500D01*
X136082284Y-89804500D01*
X136015245Y-89784815D01*
X135969490Y-89732011D01*
X135958284Y-89680500D01*
X135958284Y-89535133D01*
X135958283Y-89535131D01*
X135927522Y-89380488D01*
X135927521Y-89380481D01*
X135917467Y-89356208D01*
X135867181Y-89234806D01*
X135867180Y-89234805D01*
X135867178Y-89234799D01*
X135847927Y-89205988D01*
X135827051Y-89139311D01*
X135827031Y-89137099D01*
X135827031Y-87624943D01*
X135846716Y-87557904D01*
X135899520Y-87512149D01*
X135968678Y-87502205D01*
X136032234Y-87531230D01*
X136047979Y-87547632D01*
X136058375Y-87560669D01*
X136058379Y-87560673D01*
X136058380Y-87560674D01*
X136276826Y-87779120D01*
X136518357Y-87971735D01*
X136779935Y-88136095D01*
X137058271Y-88270135D01*
X137135890Y-88297295D01*
X137349852Y-88372164D01*
X137349864Y-88372168D01*
X137651048Y-88440911D01*
X137651054Y-88440911D01*
X137651062Y-88440913D01*
X137855706Y-88463970D01*
X137958029Y-88475499D01*
X137958032Y-88475500D01*
X137958035Y-88475500D01*
X138266968Y-88475500D01*
X138266969Y-88475499D01*
X138423856Y-88457822D01*
X138573937Y-88440913D01*
X138573942Y-88440912D01*
X138573952Y-88440911D01*
X138875136Y-88372168D01*
X139166729Y-88270135D01*
X139445065Y-88136095D01*
X139706643Y-87971735D01*
X139948174Y-87779120D01*
X140166620Y-87560674D01*
X140359235Y-87319143D01*
X140523595Y-87057565D01*
X140657635Y-86779229D01*
X140759668Y-86487636D01*
X140828411Y-86186452D01*
X140863000Y-85879465D01*
X140863000Y-85570535D01*
X140849616Y-85451746D01*
X140828413Y-85263562D01*
X140828410Y-85263544D01*
X140826983Y-85257294D01*
X140759668Y-84962364D01*
X140657635Y-84670771D01*
X140523595Y-84392435D01*
X140359235Y-84130857D01*
X140166620Y-83889326D01*
X140088847Y-83811553D01*
X142294913Y-83811553D01*
X142294913Y-85257288D01*
X142294914Y-85257294D01*
X142301321Y-85316901D01*
X142351615Y-85451746D01*
X142351619Y-85451753D01*
X142437865Y-85566962D01*
X142437868Y-85566965D01*
X142553077Y-85653211D01*
X142553084Y-85653215D01*
X142687930Y-85703509D01*
X142687929Y-85703509D01*
X142694857Y-85704253D01*
X142747540Y-85709918D01*
X144193285Y-85709917D01*
X144252896Y-85703509D01*
X144387744Y-85653214D01*
X144502959Y-85566964D01*
X144589209Y-85451749D01*
X144639504Y-85316901D01*
X144645913Y-85257291D01*
X144645912Y-83811546D01*
X144639504Y-83751935D01*
X144609272Y-83670880D01*
X144589210Y-83617089D01*
X144589206Y-83617082D01*
X144502960Y-83501873D01*
X144502957Y-83501870D01*
X144387748Y-83415624D01*
X144387741Y-83415620D01*
X144252895Y-83365326D01*
X144252896Y-83365326D01*
X144193296Y-83358919D01*
X144193294Y-83358918D01*
X144193286Y-83358918D01*
X144193277Y-83358918D01*
X142747542Y-83358918D01*
X142747536Y-83358919D01*
X142687929Y-83365326D01*
X142553084Y-83415620D01*
X142553077Y-83415624D01*
X142437868Y-83501870D01*
X142437865Y-83501873D01*
X142351619Y-83617082D01*
X142351615Y-83617089D01*
X142301321Y-83751935D01*
X142294914Y-83811534D01*
X142294914Y-83811541D01*
X142294913Y-83811553D01*
X140088847Y-83811553D01*
X139948174Y-83670880D01*
X139706643Y-83478265D01*
X139468557Y-83328666D01*
X139445062Y-83313903D01*
X139166736Y-83179868D01*
X139166722Y-83179862D01*
X138875147Y-83077835D01*
X138875135Y-83077831D01*
X138573955Y-83009089D01*
X138573937Y-83009086D01*
X138266971Y-82974500D01*
X138266965Y-82974500D01*
X137958035Y-82974500D01*
X137958028Y-82974500D01*
X137651062Y-83009086D01*
X137651044Y-83009089D01*
X137349864Y-83077831D01*
X137349852Y-83077835D01*
X137058277Y-83179862D01*
X137058263Y-83179868D01*
X136779937Y-83313903D01*
X136518358Y-83478264D01*
X136276826Y-83670879D01*
X136058378Y-83889327D01*
X136047977Y-83902370D01*
X135990788Y-83942510D01*
X135920976Y-83945359D01*
X135860707Y-83910012D01*
X135829115Y-83847693D01*
X135827031Y-83825056D01*
X135827031Y-83441988D01*
X135846716Y-83374949D01*
X135899520Y-83329194D01*
X135911314Y-83325151D01*
X135911246Y-83324968D01*
X136053359Y-83271963D01*
X136053358Y-83271963D01*
X136053362Y-83271962D01*
X136168577Y-83185712D01*
X136254827Y-83070497D01*
X136305122Y-82935649D01*
X136311531Y-82876039D01*
X136311530Y-81430294D01*
X136305122Y-81370683D01*
X136258117Y-81244657D01*
X136254828Y-81235837D01*
X136254824Y-81235830D01*
X136168578Y-81120621D01*
X136168575Y-81120618D01*
X136053366Y-81034372D01*
X136053359Y-81034368D01*
X135911246Y-80981364D01*
X135912094Y-80979089D01*
X135861785Y-80950431D01*
X135829410Y-80888515D01*
X135827031Y-80864343D01*
X135827031Y-80471530D01*
X142062000Y-80471530D01*
X142062000Y-80678469D01*
X142102368Y-80881412D01*
X142102370Y-80881420D01*
X142181558Y-81072596D01*
X142296524Y-81244657D01*
X142442842Y-81390975D01*
X142442845Y-81390977D01*
X142614902Y-81505941D01*
X142806080Y-81585130D01*
X143009030Y-81625499D01*
X143009034Y-81625500D01*
X143009035Y-81625500D01*
X143215966Y-81625500D01*
X143215967Y-81625499D01*
X143418920Y-81585130D01*
X143610098Y-81505941D01*
X143782155Y-81390977D01*
X143928477Y-81244655D01*
X144043441Y-81072598D01*
X144122630Y-80881420D01*
X144163000Y-80678465D01*
X144163000Y-80471535D01*
X144122630Y-80268580D01*
X144043441Y-80077402D01*
X143928477Y-79905345D01*
X143928475Y-79905342D01*
X143782157Y-79759024D01*
X143696126Y-79701541D01*
X143610098Y-79644059D01*
X143418920Y-79564870D01*
X143418912Y-79564868D01*
X143215969Y-79524500D01*
X143215965Y-79524500D01*
X143009035Y-79524500D01*
X143009030Y-79524500D01*
X142806087Y-79564868D01*
X142806079Y-79564870D01*
X142614903Y-79644058D01*
X142442842Y-79759024D01*
X142296524Y-79905342D01*
X142181558Y-80077403D01*
X142102370Y-80268579D01*
X142102368Y-80268587D01*
X142062000Y-80471530D01*
X135827031Y-80471530D01*
X135827031Y-79017663D01*
X135846716Y-78950624D01*
X135899520Y-78904869D01*
X135937147Y-78894443D01*
X136002628Y-78887065D01*
X136184393Y-78866586D01*
X136184396Y-78866585D01*
X136184407Y-78866584D01*
X136480116Y-78799090D01*
X136766409Y-78698912D01*
X137039685Y-78567309D01*
X137296508Y-78405936D01*
X137533648Y-78216823D01*
X137748123Y-78002348D01*
X137937236Y-77765208D01*
X138098609Y-77508385D01*
X138230212Y-77235109D01*
X138330390Y-76948816D01*
X138397884Y-76653107D01*
X138403428Y-76603908D01*
X138426210Y-76401701D01*
X138431844Y-76351701D01*
X138431844Y-76048387D01*
X138403872Y-75800127D01*
X138397886Y-75746995D01*
X138397885Y-75746990D01*
X138397884Y-75746981D01*
X138330390Y-75451272D01*
X138230212Y-75164979D01*
X138098609Y-74891703D01*
X137937236Y-74634880D01*
X137748123Y-74397740D01*
X137533648Y-74183265D01*
X137510008Y-74164413D01*
X137419253Y-74092038D01*
X137296508Y-73994152D01*
X137096891Y-73868724D01*
X137039682Y-73832777D01*
X136766412Y-73701177D01*
X136480127Y-73601001D01*
X136480115Y-73600997D01*
X136251900Y-73548908D01*
X136184407Y-73533504D01*
X136184404Y-73533503D01*
X136184392Y-73533501D01*
X135883007Y-73499544D01*
X135883001Y-73499544D01*
X135579687Y-73499544D01*
X135579680Y-73499544D01*
X135278295Y-73533501D01*
X135278281Y-73533504D01*
X134982572Y-73600997D01*
X134982560Y-73601001D01*
X134696275Y-73701177D01*
X134423005Y-73832777D01*
X134166181Y-73994151D01*
X133929040Y-74183264D01*
X133714564Y-74397740D01*
X133525451Y-74634881D01*
X133364077Y-74891705D01*
X133232477Y-75164975D01*
X133132301Y-75451260D01*
X133132297Y-75451272D01*
X133064804Y-75746981D01*
X133064801Y-75746995D01*
X133030844Y-76048380D01*
X133030844Y-76351707D01*
X133064801Y-76653092D01*
X133064804Y-76653106D01*
X133132297Y-76948815D01*
X133132301Y-76948827D01*
X133232477Y-77235112D01*
X133364077Y-77508382D01*
X133364079Y-77508385D01*
X133525452Y-77765208D01*
X133714565Y-78002348D01*
X133929040Y-78216823D01*
X134166180Y-78405936D01*
X134387004Y-78544689D01*
X134433294Y-78597023D01*
X134445031Y-78649682D01*
X134445031Y-80864343D01*
X134438694Y-80885921D01*
X134436961Y-80908346D01*
X134429040Y-80918800D01*
X134425346Y-80931382D01*
X134408351Y-80946107D01*
X134394768Y-80964037D01*
X134379462Y-80971140D01*
X134372542Y-80977137D01*
X134363694Y-80980773D01*
X134355153Y-80983902D01*
X134353548Y-80984075D01*
X134290078Y-81007747D01*
X134289728Y-81007876D01*
X134255193Y-81010145D01*
X134220706Y-81012612D01*
X134220379Y-81012433D01*
X134220009Y-81012458D01*
X134189827Y-80995750D01*
X134159383Y-80979127D01*
X134159204Y-80978799D01*
X134158880Y-80978620D01*
X134142493Y-80948195D01*
X134125899Y-80917803D01*
X134125895Y-80917376D01*
X134125749Y-80917105D01*
X134125877Y-80915437D01*
X134125448Y-80867255D01*
X134162999Y-80678469D01*
X134163000Y-80678466D01*
X134163000Y-80471534D01*
X134162999Y-80471530D01*
X134122631Y-80268587D01*
X134122630Y-80268580D01*
X134043441Y-80077402D01*
X133928477Y-79905345D01*
X133928475Y-79905342D01*
X133782157Y-79759024D01*
X133696126Y-79701541D01*
X133610098Y-79644059D01*
X133418920Y-79564870D01*
X133418912Y-79564868D01*
X133215969Y-79524500D01*
X133215965Y-79524500D01*
X133009035Y-79524500D01*
X133009030Y-79524500D01*
X132806087Y-79564868D01*
X132806079Y-79564870D01*
X132614903Y-79644058D01*
X132442842Y-79759024D01*
X132296524Y-79905342D01*
X132181558Y-80077403D01*
X132102370Y-80268579D01*
X132102368Y-80268587D01*
X132062000Y-80471530D01*
X132062000Y-80678469D01*
X132102368Y-80881412D01*
X132102370Y-80881420D01*
X132181558Y-81072596D01*
X132296524Y-81244657D01*
X132442842Y-81390975D01*
X132442845Y-81390977D01*
X132614902Y-81505941D01*
X132806080Y-81585130D01*
X133009030Y-81625499D01*
X133009034Y-81625500D01*
X133009035Y-81625500D01*
X133215966Y-81625500D01*
X133215967Y-81625499D01*
X133418920Y-81585130D01*
X133610098Y-81505941D01*
X133767641Y-81400674D01*
X133834318Y-81379797D01*
X133901698Y-81398282D01*
X133948388Y-81450261D01*
X133960531Y-81503777D01*
X133960531Y-82876036D01*
X133960532Y-82876042D01*
X133966939Y-82935649D01*
X134017233Y-83070494D01*
X134017237Y-83070501D01*
X134103483Y-83185710D01*
X134103486Y-83185713D01*
X134218695Y-83271959D01*
X134218702Y-83271963D01*
X134360816Y-83324968D01*
X134359966Y-83327246D01*
X134410254Y-83355876D01*
X134442646Y-83417783D01*
X134445031Y-83441988D01*
X134445031Y-88039584D01*
X134425346Y-88106623D01*
X134372542Y-88152378D01*
X134303384Y-88162322D01*
X134245544Y-88137959D01*
X134087117Y-88016392D01*
X133888390Y-87901657D01*
X133888376Y-87901650D01*
X133676387Y-87813842D01*
X133454738Y-87754452D01*
X133416715Y-87749446D01*
X133227241Y-87724500D01*
X133227234Y-87724500D01*
X132997766Y-87724500D01*
X132997758Y-87724500D01*
X132781215Y-87753009D01*
X132770262Y-87754452D01*
X132678199Y-87779120D01*
X132548612Y-87813842D01*
X132336623Y-87901650D01*
X132336609Y-87901657D01*
X132137882Y-88016392D01*
X131955838Y-88156081D01*
X131793581Y-88318338D01*
X131653892Y-88500382D01*
X131539157Y-88699109D01*
X131539150Y-88699123D01*
X131451342Y-88911112D01*
X131391953Y-89132759D01*
X131391951Y-89132770D01*
X131362000Y-89360258D01*
X129383471Y-89360258D01*
X129383469Y-89066141D01*
X129403153Y-88999102D01*
X129455957Y-88953347D01*
X129525115Y-88943403D01*
X129554919Y-88951579D01*
X129649834Y-88990894D01*
X129649836Y-88990894D01*
X129649841Y-88990896D01*
X129823804Y-89025499D01*
X129823807Y-89025500D01*
X129823809Y-89025500D01*
X130001193Y-89025500D01*
X130001194Y-89025499D01*
X130059182Y-89013964D01*
X130175158Y-88990896D01*
X130175161Y-88990894D01*
X130175166Y-88990894D01*
X130339047Y-88923013D01*
X130486535Y-88824464D01*
X130611964Y-88699035D01*
X130710513Y-88551547D01*
X130778394Y-88387666D01*
X130813000Y-88213691D01*
X130813000Y-88036309D01*
X130813000Y-88036306D01*
X130812999Y-88036304D01*
X130778396Y-87862341D01*
X130778393Y-87862332D01*
X130710516Y-87698459D01*
X130710509Y-87698446D01*
X130611964Y-87550965D01*
X130611961Y-87550961D01*
X130486538Y-87425538D01*
X130486534Y-87425535D01*
X130339053Y-87326990D01*
X130339040Y-87326983D01*
X130175167Y-87259106D01*
X130175158Y-87259103D01*
X130001194Y-87224500D01*
X130001191Y-87224500D01*
X129823809Y-87224500D01*
X129823806Y-87224500D01*
X129649841Y-87259103D01*
X129649832Y-87259106D01*
X129554910Y-87298424D01*
X129485440Y-87305893D01*
X129422961Y-87274617D01*
X129387310Y-87214528D01*
X129383458Y-87183870D01*
X129383403Y-77157924D01*
X129383447Y-77157763D01*
X129383450Y-77091871D01*
X129383403Y-77091871D01*
X129383403Y-77025955D01*
X129383403Y-77017938D01*
X129383385Y-77017667D01*
X129383387Y-76970923D01*
X129383386Y-76970916D01*
X129383386Y-76970912D01*
X129348970Y-76731487D01*
X129325953Y-76653092D01*
X129280826Y-76499389D01*
X129260251Y-76454333D01*
X129180349Y-76279362D01*
X129180339Y-76279344D01*
X129049569Y-76075857D01*
X129049562Y-76075847D01*
X128891161Y-75893041D01*
X128891158Y-75893038D01*
X128708352Y-75734637D01*
X128708342Y-75734630D01*
X128504855Y-75603860D01*
X128504837Y-75603850D01*
X128284817Y-75503376D01*
X128284812Y-75503374D01*
X128284811Y-75503374D01*
X128240134Y-75490256D01*
X128052712Y-75435229D01*
X127813283Y-75400813D01*
X127813277Y-75400813D01*
X127692329Y-75400817D01*
X127675958Y-75400817D01*
X119982696Y-75400700D01*
X119915657Y-75381014D01*
X119869903Y-75328210D01*
X119858698Y-75276704D01*
X119858692Y-72816232D01*
X119878376Y-72749195D01*
X119931180Y-72703440D01*
X120000339Y-72693496D01*
X120030144Y-72701673D01*
X120099059Y-72730217D01*
X120124834Y-72740894D01*
X120124836Y-72740894D01*
X120124841Y-72740896D01*
X120298804Y-72775499D01*
X120298807Y-72775500D01*
X120298809Y-72775500D01*
X120476193Y-72775500D01*
X120476194Y-72775499D01*
X120534182Y-72763964D01*
X120650158Y-72740896D01*
X120650161Y-72740894D01*
X120650166Y-72740894D01*
X120814047Y-72673013D01*
X120961535Y-72574464D01*
X121086964Y-72449035D01*
X121185513Y-72301547D01*
X121253394Y-72137666D01*
X121267370Y-72067407D01*
X121287276Y-71967331D01*
X121288000Y-71963691D01*
X121288000Y-71786309D01*
X121288000Y-71786306D01*
X121287999Y-71786304D01*
X121253396Y-71612341D01*
X121253393Y-71612332D01*
X121185516Y-71448459D01*
X121185509Y-71448446D01*
X121086964Y-71300965D01*
X121086961Y-71300961D01*
X120961538Y-71175538D01*
X120961534Y-71175535D01*
X120814053Y-71076990D01*
X120814040Y-71076983D01*
X120650167Y-71009106D01*
X120650158Y-71009103D01*
X120476194Y-70974500D01*
X120476191Y-70974500D01*
X120298809Y-70974500D01*
X120298806Y-70974500D01*
X120124841Y-71009103D01*
X120124837Y-71009105D01*
X120124835Y-71009105D01*
X120124834Y-71009106D01*
X120087616Y-71024522D01*
X120030137Y-71048330D01*
X119960668Y-71055797D01*
X119898189Y-71024522D01*
X119862537Y-70964432D01*
X119858686Y-70933768D01*
X119858686Y-70810084D01*
X119858683Y-70016227D01*
X119878367Y-69949191D01*
X119931171Y-69903436D01*
X120000330Y-69893492D01*
X120030136Y-69901669D01*
X120124834Y-69940894D01*
X120124836Y-69940894D01*
X120124841Y-69940896D01*
X120298804Y-69975499D01*
X120298807Y-69975500D01*
X120298809Y-69975500D01*
X120476193Y-69975500D01*
X120476194Y-69975499D01*
X120534182Y-69963964D01*
X120650158Y-69940896D01*
X120650161Y-69940894D01*
X120650166Y-69940894D01*
X120814047Y-69873013D01*
X120961535Y-69774464D01*
X121086964Y-69649035D01*
X121185513Y-69501547D01*
X121253394Y-69337666D01*
X121257675Y-69316147D01*
X121265997Y-69274309D01*
X121298382Y-69212398D01*
X121359097Y-69177824D01*
X121387614Y-69174500D01*
X122089139Y-69174500D01*
X122156178Y-69194185D01*
G37*
%TD.AperFunction*%
%TA.AperFunction,Conductor*%
G36*
X137737656Y-33837987D02*
G01*
X137804694Y-33857672D01*
X137850449Y-33910476D01*
X137860392Y-33979635D01*
X137831367Y-34043190D01*
X137803627Y-34066980D01*
X137738061Y-34108178D01*
X137500918Y-34297293D01*
X137286442Y-34511769D01*
X137097329Y-34748910D01*
X136935955Y-35005734D01*
X136804355Y-35279004D01*
X136704179Y-35565289D01*
X136704175Y-35565301D01*
X136636682Y-35861010D01*
X136636679Y-35861024D01*
X136602722Y-36162409D01*
X136602722Y-36465736D01*
X136636679Y-36767121D01*
X136636682Y-36767135D01*
X136704175Y-37062844D01*
X136704179Y-37062856D01*
X136804355Y-37349141D01*
X136935955Y-37622411D01*
X136935957Y-37622414D01*
X137097330Y-37879237D01*
X137286443Y-38116377D01*
X137500918Y-38330852D01*
X137738058Y-38519965D01*
X137994881Y-38681338D01*
X138268157Y-38812941D01*
X138427542Y-38868712D01*
X138529177Y-38904276D01*
X138548166Y-38917895D01*
X138569425Y-38927604D01*
X138576028Y-38937878D01*
X138585953Y-38944997D01*
X138594565Y-38966723D01*
X138607199Y-38986382D01*
X138609954Y-39005546D01*
X138611700Y-39009950D01*
X138612222Y-39021317D01*
X138612222Y-39192433D01*
X138592537Y-39259472D01*
X138539733Y-39305227D01*
X138527938Y-39309271D01*
X138528007Y-39309454D01*
X138385893Y-39362458D01*
X138385886Y-39362462D01*
X138270677Y-39448708D01*
X138270674Y-39448711D01*
X138184428Y-39563920D01*
X138184424Y-39563927D01*
X138134130Y-39698773D01*
X138127723Y-39758372D01*
X138127723Y-39758379D01*
X138127722Y-39758391D01*
X138127722Y-41204126D01*
X138127723Y-41204132D01*
X138134130Y-41263739D01*
X138184424Y-41398584D01*
X138184428Y-41398591D01*
X138270674Y-41513800D01*
X138270677Y-41513803D01*
X138385886Y-41600049D01*
X138385893Y-41600053D01*
X138520739Y-41650347D01*
X138520738Y-41650347D01*
X138527666Y-41651091D01*
X138580349Y-41656756D01*
X140026094Y-41656755D01*
X140085705Y-41650347D01*
X140220553Y-41600052D01*
X140335768Y-41513802D01*
X140422018Y-41398587D01*
X140472313Y-41263739D01*
X140478722Y-41204129D01*
X140478721Y-39758384D01*
X140472313Y-39698773D01*
X140422018Y-39563925D01*
X140422017Y-39563924D01*
X140422015Y-39563920D01*
X140335769Y-39448711D01*
X140335766Y-39448708D01*
X140220557Y-39362462D01*
X140220550Y-39362458D01*
X140078437Y-39309454D01*
X140079285Y-39307179D01*
X140063959Y-39298449D01*
X140037019Y-39286146D01*
X140033933Y-39281345D01*
X140028976Y-39278521D01*
X140015255Y-39252281D01*
X139999245Y-39227368D01*
X139998113Y-39219497D01*
X139996601Y-39216605D01*
X139994222Y-39192433D01*
X139994222Y-39021317D01*
X140013907Y-38954278D01*
X140066711Y-38908523D01*
X140077267Y-38904276D01*
X140152223Y-38878047D01*
X140338287Y-38812941D01*
X140611563Y-38681338D01*
X140868386Y-38519965D01*
X141105526Y-38330852D01*
X141320001Y-38116377D01*
X141509114Y-37879237D01*
X141549503Y-37814958D01*
X141601835Y-37768669D01*
X141670888Y-37758020D01*
X141734737Y-37786395D01*
X141773109Y-37844784D01*
X141778495Y-37880955D01*
X141776728Y-47470528D01*
X141776712Y-47558642D01*
X141776696Y-47558703D01*
X141776700Y-47624525D01*
X141776700Y-47624569D01*
X141776687Y-47698204D01*
X141776703Y-47698457D01*
X141776705Y-47745535D01*
X141776705Y-47745536D01*
X141781586Y-47779471D01*
X141811143Y-47984968D01*
X141879302Y-48217058D01*
X141979797Y-48437085D01*
X141979801Y-48437091D01*
X141979802Y-48437093D01*
X142110580Y-48640572D01*
X142110583Y-48640576D01*
X142151748Y-48688080D01*
X142268991Y-48823377D01*
X142451804Y-48981777D01*
X142655298Y-49112549D01*
X142655302Y-49112550D01*
X142655304Y-49112552D01*
X142681468Y-49124500D01*
X142875332Y-49213031D01*
X143107425Y-49281177D01*
X143346854Y-49315601D01*
X143466542Y-49315600D01*
X149945710Y-49316201D01*
X149952996Y-49316202D01*
X149953011Y-49316207D01*
X149989599Y-49316208D01*
X150021474Y-49325572D01*
X150056622Y-49335894D01*
X150056628Y-49335900D01*
X150056635Y-49335903D01*
X150077885Y-49360434D01*
X150102375Y-49388699D01*
X150102377Y-49388708D01*
X150102382Y-49388714D01*
X150102389Y-49388764D01*
X150113580Y-49440208D01*
X150113580Y-50821782D01*
X150093895Y-50888821D01*
X150041091Y-50934576D01*
X149971933Y-50944520D01*
X149908377Y-50915495D01*
X149884586Y-50887754D01*
X149843906Y-50823013D01*
X149843496Y-50822360D01*
X149654383Y-50585220D01*
X149439908Y-50370745D01*
X149202768Y-50181632D01*
X149025389Y-50070177D01*
X148945942Y-50020257D01*
X148672672Y-49888657D01*
X148386387Y-49788481D01*
X148386375Y-49788477D01*
X148158160Y-49736388D01*
X148090667Y-49720984D01*
X148090664Y-49720983D01*
X148090652Y-49720981D01*
X147789267Y-49687024D01*
X147789261Y-49687024D01*
X147485947Y-49687024D01*
X147485940Y-49687024D01*
X147184555Y-49720981D01*
X147184541Y-49720984D01*
X146888832Y-49788477D01*
X146888820Y-49788481D01*
X146602535Y-49888657D01*
X146329265Y-50020257D01*
X146072441Y-50181631D01*
X145835300Y-50370744D01*
X145620824Y-50585220D01*
X145431711Y-50822361D01*
X145270337Y-51079185D01*
X145138737Y-51352455D01*
X145038561Y-51638740D01*
X145038557Y-51638752D01*
X144971064Y-51934461D01*
X144971061Y-51934475D01*
X144937104Y-52235860D01*
X144937104Y-52539187D01*
X144971061Y-52840572D01*
X144971064Y-52840586D01*
X145038557Y-53136295D01*
X145038561Y-53136307D01*
X145138737Y-53422592D01*
X145270337Y-53695862D01*
X145270339Y-53695865D01*
X145431712Y-53952688D01*
X145620825Y-54189828D01*
X145835300Y-54404303D01*
X146072440Y-54593416D01*
X146329263Y-54754789D01*
X146602539Y-54886392D01*
X146817555Y-54961629D01*
X146888820Y-54986566D01*
X146888832Y-54986570D01*
X147184541Y-55054064D01*
X147184550Y-55054065D01*
X147184555Y-55054066D01*
X147385478Y-55076704D01*
X147485941Y-55088023D01*
X147485944Y-55088024D01*
X147485947Y-55088024D01*
X147789264Y-55088024D01*
X147789265Y-55088023D01*
X147962987Y-55068450D01*
X148090652Y-55054066D01*
X148090655Y-55054065D01*
X148090667Y-55054064D01*
X148386376Y-54986570D01*
X148672669Y-54886392D01*
X148945945Y-54754789D01*
X149202768Y-54593416D01*
X149439908Y-54404303D01*
X149654383Y-54189828D01*
X149843496Y-53952688D01*
X149884586Y-53887294D01*
X149936920Y-53841002D01*
X150005974Y-53830353D01*
X150069822Y-53858728D01*
X150108194Y-53917118D01*
X150113580Y-53953265D01*
X150113580Y-72589079D01*
X150093895Y-72656118D01*
X150041091Y-72701873D01*
X149971933Y-72711817D01*
X149908377Y-72682792D01*
X149901899Y-72676760D01*
X149823144Y-72598005D01*
X149576265Y-72395396D01*
X149576242Y-72395379D01*
X149310726Y-72217968D01*
X149310698Y-72217951D01*
X149029055Y-72067409D01*
X149029050Y-72067407D01*
X148733986Y-71945187D01*
X148428358Y-71852476D01*
X148115125Y-71790170D01*
X148115126Y-71790170D01*
X147875745Y-71766594D01*
X147797291Y-71758867D01*
X147477917Y-71758867D01*
X147405426Y-71766006D01*
X147160081Y-71790170D01*
X146846849Y-71852476D01*
X146541221Y-71945187D01*
X146246157Y-72067407D01*
X146246152Y-72067409D01*
X145964509Y-72217951D01*
X145964481Y-72217968D01*
X145698965Y-72395379D01*
X145698942Y-72395396D01*
X145452063Y-72598005D01*
X145226242Y-72823826D01*
X145023633Y-73070705D01*
X145023616Y-73070728D01*
X144846205Y-73336244D01*
X144846188Y-73336272D01*
X144695646Y-73617915D01*
X144695644Y-73617920D01*
X144573424Y-73912984D01*
X144519111Y-74092031D01*
X144486863Y-74198342D01*
X144480711Y-74218621D01*
X144479976Y-74221557D01*
X144479249Y-74221375D01*
X144448346Y-74280463D01*
X144387633Y-74315042D01*
X144359108Y-74318367D01*
X143568609Y-74318367D01*
X143501570Y-74298682D01*
X143455815Y-74245878D01*
X143451772Y-74234083D01*
X143451589Y-74234152D01*
X143398584Y-74092038D01*
X143398580Y-74092031D01*
X143312334Y-73976822D01*
X143312331Y-73976819D01*
X143197122Y-73890573D01*
X143197115Y-73890569D01*
X143062269Y-73840275D01*
X143062270Y-73840275D01*
X143002670Y-73833868D01*
X143002668Y-73833867D01*
X143002660Y-73833867D01*
X143002652Y-73833867D01*
X141827909Y-73833867D01*
X141760870Y-73814182D01*
X141759020Y-73812971D01*
X141739811Y-73800136D01*
X141739809Y-73800135D01*
X141739806Y-73800133D01*
X141614061Y-73748048D01*
X141614051Y-73748045D01*
X141480560Y-73721492D01*
X141480558Y-73721492D01*
X141187576Y-73721492D01*
X141120537Y-73701807D01*
X141099895Y-73685173D01*
X139597864Y-72183142D01*
X140874473Y-72183142D01*
X140874498Y-72313074D01*
X140874498Y-72313075D01*
X140905191Y-72467233D01*
X140905194Y-72467247D01*
X140905196Y-72467252D01*
X140905197Y-72467255D01*
X140965365Y-72612465D01*
X140965366Y-72612467D01*
X140965367Y-72612469D01*
X140965368Y-72612470D01*
X141052712Y-72743166D01*
X141163869Y-72854317D01*
X141294571Y-72941653D01*
X141439796Y-73001820D01*
X141593968Y-73032505D01*
X141601735Y-73032505D01*
X141606721Y-73032506D01*
X141606758Y-73032517D01*
X141672565Y-73032517D01*
X141672574Y-73032517D01*
X141738458Y-73032528D01*
X141738462Y-73032526D01*
X141746488Y-73032528D01*
X141746671Y-73032517D01*
X144011501Y-73032517D01*
X144011542Y-73032528D01*
X144077434Y-73032517D01*
X144143242Y-73032517D01*
X144151468Y-73032517D01*
X144151867Y-73032489D01*
X144156030Y-73032489D01*
X144310199Y-73001804D01*
X144310200Y-73001803D01*
X144310202Y-73001803D01*
X144358606Y-72981748D01*
X144455421Y-72941638D01*
X144586120Y-72854304D01*
X144697275Y-72743156D01*
X144784617Y-72612462D01*
X144844790Y-72467242D01*
X144875484Y-72313076D01*
X144875486Y-72300309D01*
X144875500Y-72300259D01*
X144875500Y-72234254D01*
X144875515Y-72168588D01*
X144875514Y-72168585D01*
X144875516Y-72160753D01*
X144875500Y-72160489D01*
X144875500Y-58800148D01*
X144875530Y-58800036D01*
X144875500Y-58734143D01*
X144875500Y-58668475D01*
X144875500Y-58660605D01*
X144875454Y-58659920D01*
X144875453Y-58655567D01*
X144844743Y-58501443D01*
X144784573Y-58356265D01*
X144697252Y-58225605D01*
X144586131Y-58114478D01*
X144455475Y-58027149D01*
X144455474Y-58027148D01*
X144455472Y-58027147D01*
X144310305Y-57966971D01*
X144310303Y-57966970D01*
X144233574Y-57951677D01*
X144156179Y-57936252D01*
X144156174Y-57936251D01*
X144156168Y-57936251D01*
X144151496Y-57936249D01*
X144151496Y-57936248D01*
X144143345Y-57936244D01*
X144143242Y-57936217D01*
X144077610Y-57936217D01*
X144077602Y-57936217D01*
X144003899Y-57936180D01*
X144003338Y-57936217D01*
X141599092Y-57936217D01*
X141598333Y-57936265D01*
X141594275Y-57936263D01*
X141594263Y-57936264D01*
X141440014Y-57966880D01*
X141440013Y-57966880D01*
X141294700Y-58027016D01*
X141163921Y-58114357D01*
X141163919Y-58114358D01*
X141052698Y-58225550D01*
X140965322Y-58356303D01*
X140905147Y-58501597D01*
X140905145Y-58501603D01*
X140874486Y-58655842D01*
X140874500Y-58734143D01*
X140874500Y-72160489D01*
X140874483Y-72160753D01*
X140874488Y-72183091D01*
X140874473Y-72183142D01*
X139597864Y-72183142D01*
X138699318Y-71284596D01*
X138665833Y-71223273D01*
X138662999Y-71196915D01*
X138662999Y-69077129D01*
X138662998Y-69077123D01*
X138656591Y-69017516D01*
X138606297Y-68882671D01*
X138606293Y-68882664D01*
X138520047Y-68767455D01*
X138520044Y-68767452D01*
X138404835Y-68681206D01*
X138404828Y-68681202D01*
X138269982Y-68630908D01*
X138269983Y-68630908D01*
X138210383Y-68624501D01*
X138210381Y-68624500D01*
X138210373Y-68624500D01*
X138210365Y-68624500D01*
X136090584Y-68624500D01*
X136023545Y-68604815D01*
X136002903Y-68588181D01*
X135361492Y-67946769D01*
X135361485Y-67946763D01*
X135248312Y-67871144D01*
X135248309Y-67871142D01*
X135122561Y-67819056D01*
X135122551Y-67819053D01*
X134989060Y-67792500D01*
X134989058Y-67792500D01*
X132715246Y-67792500D01*
X132715244Y-67792500D01*
X132581752Y-67819053D01*
X132581742Y-67819056D01*
X132455999Y-67871140D01*
X132455986Y-67871147D01*
X132342818Y-67946764D01*
X132342814Y-67946767D01*
X131396097Y-68893485D01*
X131334774Y-68926970D01*
X131308416Y-68929804D01*
X130521852Y-68929804D01*
X130454813Y-68910119D01*
X130409058Y-68857315D01*
X130399114Y-68788157D01*
X130428139Y-68724601D01*
X130434171Y-68718123D01*
X130527794Y-68624500D01*
X130641620Y-68510674D01*
X130834235Y-68269143D01*
X130998595Y-68007565D01*
X131132635Y-67729229D01*
X131234668Y-67437636D01*
X131303411Y-67136452D01*
X131338000Y-66829465D01*
X131338000Y-66520535D01*
X131303411Y-66213548D01*
X131234668Y-65912364D01*
X131132635Y-65620771D01*
X130998595Y-65342435D01*
X130834235Y-65080857D01*
X130641620Y-64839326D01*
X130423174Y-64620880D01*
X130181643Y-64428265D01*
X129920065Y-64263905D01*
X129920062Y-64263903D01*
X129641736Y-64129868D01*
X129641722Y-64129862D01*
X129350147Y-64027835D01*
X129350135Y-64027831D01*
X129048955Y-63959089D01*
X129048937Y-63959086D01*
X128741971Y-63924500D01*
X128741965Y-63924500D01*
X128433035Y-63924500D01*
X128433028Y-63924500D01*
X128126062Y-63959086D01*
X128126044Y-63959089D01*
X127824864Y-64027831D01*
X127824852Y-64027835D01*
X127533277Y-64129862D01*
X127533263Y-64129868D01*
X127254937Y-64263903D01*
X126993358Y-64428264D01*
X126751826Y-64620879D01*
X126533379Y-64839326D01*
X126340764Y-65080858D01*
X126176403Y-65342437D01*
X126042368Y-65620763D01*
X126042362Y-65620777D01*
X125940335Y-65912352D01*
X125940331Y-65912364D01*
X125871589Y-66213544D01*
X125871586Y-66213562D01*
X125837000Y-66520528D01*
X125837000Y-66829471D01*
X125871586Y-67136437D01*
X125871589Y-67136455D01*
X125940331Y-67437635D01*
X125940335Y-67437647D01*
X126042362Y-67729222D01*
X126042368Y-67729236D01*
X126176403Y-68007562D01*
X126176405Y-68007565D01*
X126340765Y-68269143D01*
X126484463Y-68449334D01*
X126533379Y-68510673D01*
X126740829Y-68718123D01*
X126774314Y-68779446D01*
X126769330Y-68849138D01*
X126727458Y-68905071D01*
X126661994Y-68929488D01*
X126653148Y-68929804D01*
X125866583Y-68929804D01*
X125799544Y-68910119D01*
X125778902Y-68893485D01*
X124832188Y-67946769D01*
X124832181Y-67946763D01*
X124719008Y-67871144D01*
X124719005Y-67871142D01*
X124593257Y-67819056D01*
X124593247Y-67819053D01*
X124459756Y-67792500D01*
X124459754Y-67792500D01*
X120910942Y-67792500D01*
X120910940Y-67792500D01*
X120777448Y-67819053D01*
X120777438Y-67819056D01*
X120651690Y-67871142D01*
X120651687Y-67871144D01*
X120538514Y-67946763D01*
X120538507Y-67946769D01*
X120340348Y-68144929D01*
X120279025Y-68178414D01*
X120276859Y-68178865D01*
X120124840Y-68209104D01*
X120124832Y-68209106D01*
X120030130Y-68248333D01*
X119960660Y-68255802D01*
X119898181Y-68224526D01*
X119862530Y-68164437D01*
X119858678Y-68133772D01*
X119858677Y-67946769D01*
X119858659Y-61421530D01*
X122537000Y-61421530D01*
X122537000Y-61628469D01*
X122577368Y-61831412D01*
X122577370Y-61831420D01*
X122656558Y-62022596D01*
X122771524Y-62194657D01*
X122917842Y-62340975D01*
X122917845Y-62340977D01*
X123089902Y-62455941D01*
X123281080Y-62535130D01*
X123484030Y-62575499D01*
X123484034Y-62575500D01*
X123484035Y-62575500D01*
X123690966Y-62575500D01*
X123690967Y-62575499D01*
X123893920Y-62535130D01*
X124085098Y-62455941D01*
X124257155Y-62340977D01*
X124403477Y-62194655D01*
X124518441Y-62022598D01*
X124597630Y-61831420D01*
X124638000Y-61628465D01*
X124638000Y-61421535D01*
X124637999Y-61421530D01*
X132537000Y-61421530D01*
X132537000Y-61628469D01*
X132577368Y-61831412D01*
X132577370Y-61831420D01*
X132656558Y-62022596D01*
X132771524Y-62194657D01*
X132917842Y-62340975D01*
X132917845Y-62340977D01*
X133089902Y-62455941D01*
X133281080Y-62535130D01*
X133484030Y-62575499D01*
X133484034Y-62575500D01*
X133484035Y-62575500D01*
X133690966Y-62575500D01*
X133690967Y-62575499D01*
X133893920Y-62535130D01*
X134085098Y-62455941D01*
X134257155Y-62340977D01*
X134403477Y-62194655D01*
X134518441Y-62022598D01*
X134597630Y-61831420D01*
X134638000Y-61628465D01*
X134638000Y-61421535D01*
X134597630Y-61218580D01*
X134518441Y-61027402D01*
X134403477Y-60855345D01*
X134403475Y-60855342D01*
X134257157Y-60709024D01*
X134171126Y-60651541D01*
X134085098Y-60594059D01*
X133893920Y-60514870D01*
X133893912Y-60514868D01*
X133690969Y-60474500D01*
X133690965Y-60474500D01*
X133484035Y-60474500D01*
X133484030Y-60474500D01*
X133281087Y-60514868D01*
X133281079Y-60514870D01*
X133089903Y-60594058D01*
X132917842Y-60709024D01*
X132771524Y-60855342D01*
X132656558Y-61027403D01*
X132577370Y-61218579D01*
X132577368Y-61218587D01*
X132537000Y-61421530D01*
X124637999Y-61421530D01*
X124597630Y-61218580D01*
X124518441Y-61027402D01*
X124403477Y-60855345D01*
X124403475Y-60855342D01*
X124257157Y-60709024D01*
X124171126Y-60651541D01*
X124085098Y-60594059D01*
X123893920Y-60514870D01*
X123893912Y-60514868D01*
X123690969Y-60474500D01*
X123690965Y-60474500D01*
X123484035Y-60474500D01*
X123484030Y-60474500D01*
X123281087Y-60514868D01*
X123281079Y-60514870D01*
X123089903Y-60594058D01*
X122917842Y-60709024D01*
X122771524Y-60855342D01*
X122656558Y-61027403D01*
X122577370Y-61218579D01*
X122577368Y-61218587D01*
X122537000Y-61421530D01*
X119858659Y-61421530D01*
X119858650Y-58108070D01*
X119858651Y-58108068D01*
X119858650Y-58042176D01*
X119858650Y-58027017D01*
X119858650Y-57976290D01*
X119858650Y-57966301D01*
X119858649Y-57966287D01*
X119858649Y-57921229D01*
X119858649Y-57921227D01*
X119824219Y-57681793D01*
X119756064Y-57449696D01*
X119655572Y-57229661D01*
X119524788Y-57026168D01*
X119366374Y-56843359D01*
X119301828Y-56787433D01*
X119183558Y-56684957D01*
X119183559Y-56684957D01*
X119183556Y-56684955D01*
X118980055Y-56554182D01*
X118980053Y-56554181D01*
X118980043Y-56554175D01*
X118760013Y-56453701D01*
X118527923Y-56385563D01*
X118527918Y-56385562D01*
X118527914Y-56385561D01*
X118288477Y-56351145D01*
X118167529Y-56351150D01*
X118093996Y-56351152D01*
X118093297Y-56351197D01*
X100978183Y-56351150D01*
X100978046Y-56351150D01*
X100969845Y-56351140D01*
X100969692Y-56351100D01*
X100932916Y-56351100D01*
X100899285Y-56341184D01*
X100866014Y-56331415D01*
X100865967Y-56331361D01*
X100865898Y-56331341D01*
X100842924Y-56304768D01*
X100820259Y-56278611D01*
X100820241Y-56278532D01*
X100820202Y-56278486D01*
X100820145Y-56278087D01*
X100809053Y-56227089D01*
X100809053Y-56213315D01*
X100809056Y-56190500D01*
X100809055Y-56190497D01*
X100809056Y-56182295D01*
X100809050Y-56182189D01*
X100809052Y-55114407D01*
X100809055Y-53766382D01*
X100828740Y-53699344D01*
X100881544Y-53653590D01*
X100950702Y-53643646D01*
X100980507Y-53651823D01*
X101074834Y-53690894D01*
X101074836Y-53690894D01*
X101074841Y-53690896D01*
X101248804Y-53725499D01*
X101248807Y-53725500D01*
X101248809Y-53725500D01*
X101426193Y-53725500D01*
X101426194Y-53725499D01*
X101484182Y-53713964D01*
X101600158Y-53690896D01*
X101600161Y-53690894D01*
X101600166Y-53690894D01*
X101764047Y-53623013D01*
X101911535Y-53524464D01*
X102036964Y-53399035D01*
X102135513Y-53251547D01*
X102203394Y-53087666D01*
X102205500Y-53077082D01*
X102237276Y-52917331D01*
X102238000Y-52913691D01*
X102238000Y-52736309D01*
X102238000Y-52736306D01*
X102237999Y-52736304D01*
X102203396Y-52562341D01*
X102203393Y-52562332D01*
X102135516Y-52398459D01*
X102135509Y-52398446D01*
X102036964Y-52250965D01*
X102036961Y-52250961D01*
X101911538Y-52125538D01*
X101911534Y-52125535D01*
X101764053Y-52026990D01*
X101764040Y-52026983D01*
X101600167Y-51959106D01*
X101600158Y-51959103D01*
X101426194Y-51924500D01*
X101426191Y-51924500D01*
X101248809Y-51924500D01*
X101248806Y-51924500D01*
X101074841Y-51959103D01*
X101074832Y-51959106D01*
X100980511Y-51998175D01*
X100911041Y-52005644D01*
X100848562Y-51974368D01*
X100812910Y-51914279D01*
X100809059Y-51883614D01*
X100809061Y-50966384D01*
X100828746Y-50899346D01*
X100881550Y-50853592D01*
X100950708Y-50843648D01*
X100980508Y-50851823D01*
X101074834Y-50890894D01*
X101074837Y-50890894D01*
X101074841Y-50890896D01*
X101248804Y-50925499D01*
X101248807Y-50925500D01*
X101248809Y-50925500D01*
X101426193Y-50925500D01*
X101426194Y-50925499D01*
X101484182Y-50913964D01*
X101600158Y-50890896D01*
X101600161Y-50890894D01*
X101600166Y-50890894D01*
X101764047Y-50823013D01*
X101911535Y-50724464D01*
X102036964Y-50599035D01*
X102135513Y-50451547D01*
X102203394Y-50287666D01*
X102238000Y-50113691D01*
X102238000Y-49936309D01*
X102238000Y-49936306D01*
X102237999Y-49936304D01*
X102203396Y-49762341D01*
X102203393Y-49762332D01*
X102135516Y-49598459D01*
X102135509Y-49598446D01*
X102036964Y-49450965D01*
X102036961Y-49450961D01*
X101911538Y-49325538D01*
X101911534Y-49325535D01*
X101764053Y-49226990D01*
X101764040Y-49226983D01*
X101600167Y-49159106D01*
X101600158Y-49159103D01*
X101426194Y-49124500D01*
X101426191Y-49124500D01*
X101248809Y-49124500D01*
X101248806Y-49124500D01*
X101074841Y-49159103D01*
X101074837Y-49159105D01*
X101074835Y-49159105D01*
X101074834Y-49159106D01*
X101037995Y-49174365D01*
X100980516Y-49198173D01*
X100911047Y-49205640D01*
X100848568Y-49174365D01*
X100812916Y-49114275D01*
X100809065Y-49083611D01*
X100809066Y-49054327D01*
X100809080Y-42371530D01*
X103487000Y-42371530D01*
X103487000Y-42578469D01*
X103527368Y-42781412D01*
X103527370Y-42781420D01*
X103606558Y-42972596D01*
X103721524Y-43144657D01*
X103867842Y-43290975D01*
X103867845Y-43290977D01*
X104039902Y-43405941D01*
X104231080Y-43485130D01*
X104434030Y-43525499D01*
X104434034Y-43525500D01*
X104434035Y-43525500D01*
X104640966Y-43525500D01*
X104640967Y-43525499D01*
X104843920Y-43485130D01*
X105035098Y-43405941D01*
X105207155Y-43290977D01*
X105353477Y-43144655D01*
X105468441Y-42972598D01*
X105547630Y-42781420D01*
X105588000Y-42578465D01*
X105588000Y-42371535D01*
X105547630Y-42168580D01*
X105468441Y-41977402D01*
X105353477Y-41805345D01*
X105353475Y-41805342D01*
X105207157Y-41659024D01*
X105118894Y-41600049D01*
X105035098Y-41544059D01*
X104843920Y-41464870D01*
X104843912Y-41464868D01*
X104640969Y-41424500D01*
X104640965Y-41424500D01*
X104434035Y-41424500D01*
X104434030Y-41424500D01*
X104231087Y-41464868D01*
X104231079Y-41464870D01*
X104039903Y-41544058D01*
X103867842Y-41659024D01*
X103721524Y-41805342D01*
X103606558Y-41977403D01*
X103527370Y-42168579D01*
X103527368Y-42168587D01*
X103487000Y-42371530D01*
X100809080Y-42371530D01*
X100809089Y-38402644D01*
X100828774Y-38335605D01*
X100881578Y-38289851D01*
X100950736Y-38279907D01*
X101014292Y-38308932D01*
X101028937Y-38323975D01*
X101152772Y-38474867D01*
X101173080Y-38499613D01*
X101398901Y-38725434D01*
X101398906Y-38725438D01*
X101398907Y-38725439D01*
X101645786Y-38928048D01*
X101645793Y-38928053D01*
X101645803Y-38928060D01*
X101911319Y-39105471D01*
X101911324Y-39105474D01*
X101911336Y-39105482D01*
X101911345Y-39105486D01*
X101911347Y-39105488D01*
X102192990Y-39256030D01*
X102192992Y-39256030D01*
X102192998Y-39256034D01*
X102488061Y-39378253D01*
X102793682Y-39470962D01*
X103106919Y-39533269D01*
X103424755Y-39564573D01*
X103424758Y-39564573D01*
X103744126Y-39564573D01*
X103744129Y-39564573D01*
X104061965Y-39533269D01*
X104375202Y-39470962D01*
X104456217Y-39446385D01*
X104526084Y-39445762D01*
X104579894Y-39477365D01*
X105349188Y-40246658D01*
X105382673Y-40307981D01*
X105385507Y-40334339D01*
X105385507Y-41204126D01*
X105385508Y-41204132D01*
X105391915Y-41263739D01*
X105442209Y-41398584D01*
X105442213Y-41398591D01*
X105528459Y-41513800D01*
X105528462Y-41513803D01*
X105643671Y-41600049D01*
X105643678Y-41600053D01*
X105785792Y-41653058D01*
X105784942Y-41655336D01*
X105835230Y-41683966D01*
X105867622Y-41745873D01*
X105870007Y-41770078D01*
X105870007Y-49939565D01*
X105850322Y-50006604D01*
X105797518Y-50052359D01*
X105728360Y-50062303D01*
X105670521Y-50037941D01*
X105512112Y-49916389D01*
X105313388Y-49801656D01*
X105313376Y-49801650D01*
X105101387Y-49713842D01*
X104879738Y-49654452D01*
X104841715Y-49649446D01*
X104652241Y-49624500D01*
X104652234Y-49624500D01*
X104422766Y-49624500D01*
X104422758Y-49624500D01*
X104206215Y-49653009D01*
X104195262Y-49654452D01*
X104103199Y-49679120D01*
X103973612Y-49713842D01*
X103761623Y-49801650D01*
X103761609Y-49801657D01*
X103562882Y-49916392D01*
X103380838Y-50056081D01*
X103218581Y-50218338D01*
X103078892Y-50400382D01*
X102964157Y-50599109D01*
X102964150Y-50599123D01*
X102876342Y-50811112D01*
X102816953Y-51032759D01*
X102816951Y-51032770D01*
X102787000Y-51260258D01*
X102787000Y-51489741D01*
X102805731Y-51632011D01*
X102816952Y-51717238D01*
X102848622Y-51835432D01*
X102876342Y-51938887D01*
X102964150Y-52150876D01*
X102964157Y-52150890D01*
X103078892Y-52349617D01*
X103218581Y-52531661D01*
X103218589Y-52531670D01*
X103380830Y-52693911D01*
X103380838Y-52693918D01*
X103562882Y-52833607D01*
X103562885Y-52833608D01*
X103562888Y-52833611D01*
X103761612Y-52948344D01*
X103761617Y-52948346D01*
X103761623Y-52948349D01*
X103852980Y-52986190D01*
X103973613Y-53036158D01*
X104195262Y-53095548D01*
X104284185Y-53107255D01*
X104348082Y-53135522D01*
X104386553Y-53193846D01*
X104392000Y-53230194D01*
X104392000Y-54875003D01*
X104394895Y-54929036D01*
X104430478Y-55068444D01*
X104430479Y-55068448D01*
X104449517Y-55114408D01*
X104501310Y-55209262D01*
X104599354Y-55314567D01*
X104658780Y-55349825D01*
X104723092Y-55387983D01*
X104769054Y-55407021D01*
X104820084Y-55425024D01*
X104962500Y-55445500D01*
X104962503Y-55445500D01*
X107562504Y-55445500D01*
X107616536Y-55442604D01*
X107663005Y-55430743D01*
X107755946Y-55407021D01*
X107801908Y-55387983D01*
X107896761Y-55336190D01*
X108002066Y-55238147D01*
X108075483Y-55114408D01*
X108094521Y-55068446D01*
X108112524Y-55017416D01*
X108126522Y-54920054D01*
X108155545Y-54856500D01*
X108214323Y-54818725D01*
X108284192Y-54818724D01*
X108336940Y-54850021D01*
X108380830Y-54893911D01*
X108380838Y-54893918D01*
X108380839Y-54893919D01*
X108426603Y-54929035D01*
X108562882Y-55033607D01*
X108562885Y-55033608D01*
X108562888Y-55033611D01*
X108761612Y-55148344D01*
X108761617Y-55148346D01*
X108761623Y-55148349D01*
X108852980Y-55186190D01*
X108973613Y-55236158D01*
X109195262Y-55295548D01*
X109422766Y-55325500D01*
X109422773Y-55325500D01*
X109652227Y-55325500D01*
X109652234Y-55325500D01*
X109879738Y-55295548D01*
X110101387Y-55236158D01*
X110313388Y-55148344D01*
X110512112Y-55033611D01*
X110694161Y-54893919D01*
X110694165Y-54893914D01*
X110694170Y-54893911D01*
X110856411Y-54731670D01*
X110856414Y-54731665D01*
X110856419Y-54731661D01*
X110996111Y-54549612D01*
X111110844Y-54350888D01*
X111198658Y-54138887D01*
X111232181Y-54013776D01*
X125337088Y-54013776D01*
X125337088Y-54333150D01*
X125344096Y-54404303D01*
X125368391Y-54650985D01*
X125430697Y-54964217D01*
X125523408Y-55269845D01*
X125645628Y-55564909D01*
X125645630Y-55564914D01*
X125796172Y-55846557D01*
X125796189Y-55846585D01*
X125973600Y-56112101D01*
X125973617Y-56112124D01*
X126176226Y-56359003D01*
X126402047Y-56584824D01*
X126402052Y-56584828D01*
X126402053Y-56584829D01*
X126648932Y-56787438D01*
X126648939Y-56787443D01*
X126648949Y-56787450D01*
X126914465Y-56964861D01*
X126914470Y-56964864D01*
X126914482Y-56964872D01*
X126914491Y-56964876D01*
X126914493Y-56964878D01*
X127196136Y-57115420D01*
X127196138Y-57115420D01*
X127196144Y-57115424D01*
X127491207Y-57237643D01*
X127796828Y-57330352D01*
X128110065Y-57392659D01*
X128427901Y-57423963D01*
X128427904Y-57423963D01*
X128747272Y-57423963D01*
X128747275Y-57423963D01*
X129065111Y-57392659D01*
X129378348Y-57330352D01*
X129683969Y-57237643D01*
X129979032Y-57115424D01*
X130260694Y-56964872D01*
X130526244Y-56787438D01*
X130773123Y-56584829D01*
X130998954Y-56358998D01*
X131201563Y-56112119D01*
X131378997Y-55846569D01*
X131529549Y-55564907D01*
X131651768Y-55269844D01*
X131744477Y-54964223D01*
X131806784Y-54650986D01*
X131838088Y-54333150D01*
X131838088Y-54013776D01*
X131806784Y-53695940D01*
X131744477Y-53382703D01*
X131651768Y-53077082D01*
X131529549Y-52782019D01*
X131505116Y-52736309D01*
X131379003Y-52500368D01*
X131379001Y-52500366D01*
X131378997Y-52500357D01*
X131324189Y-52418330D01*
X131201575Y-52234824D01*
X131201568Y-52234814D01*
X131201563Y-52234807D01*
X130998954Y-51987928D01*
X130998953Y-51987927D01*
X130998949Y-51987922D01*
X130773125Y-51762098D01*
X130767124Y-51757173D01*
X130654386Y-51664651D01*
X140508974Y-51664651D01*
X140508974Y-53110386D01*
X140508975Y-53110392D01*
X140515382Y-53169999D01*
X140565676Y-53304844D01*
X140565680Y-53304851D01*
X140651926Y-53420060D01*
X140651929Y-53420063D01*
X140767138Y-53506309D01*
X140767145Y-53506313D01*
X140901991Y-53556607D01*
X140901990Y-53556607D01*
X140908918Y-53557351D01*
X140961601Y-53563016D01*
X142407346Y-53563015D01*
X142466957Y-53556607D01*
X142601805Y-53506312D01*
X142717020Y-53420062D01*
X142803270Y-53304847D01*
X142853565Y-53169999D01*
X142859974Y-53110389D01*
X142859973Y-51664644D01*
X142853565Y-51605033D01*
X142836579Y-51559492D01*
X142803271Y-51470187D01*
X142803267Y-51470180D01*
X142717021Y-51354971D01*
X142717018Y-51354968D01*
X142601809Y-51268722D01*
X142601802Y-51268718D01*
X142466956Y-51218424D01*
X142466957Y-51218424D01*
X142407357Y-51212017D01*
X142407355Y-51212016D01*
X142407347Y-51212016D01*
X142407338Y-51212016D01*
X140961603Y-51212016D01*
X140961597Y-51212017D01*
X140901990Y-51218424D01*
X140767145Y-51268718D01*
X140767138Y-51268722D01*
X140651929Y-51354968D01*
X140651926Y-51354971D01*
X140565680Y-51470180D01*
X140565676Y-51470187D01*
X140515382Y-51605033D01*
X140508975Y-51664632D01*
X140508975Y-51664639D01*
X140508974Y-51664651D01*
X130654386Y-51664651D01*
X130526249Y-51559492D01*
X130526226Y-51559475D01*
X130260710Y-51382064D01*
X130260682Y-51382047D01*
X129979039Y-51231505D01*
X129979034Y-51231503D01*
X129945032Y-51217419D01*
X129826152Y-51168177D01*
X129683970Y-51109283D01*
X129378342Y-51016572D01*
X129065109Y-50954266D01*
X129065110Y-50954266D01*
X128825729Y-50930690D01*
X128747275Y-50922963D01*
X128427901Y-50922963D01*
X128355410Y-50930102D01*
X128110065Y-50954266D01*
X127796833Y-51016572D01*
X127491205Y-51109283D01*
X127196141Y-51231503D01*
X127196136Y-51231505D01*
X126914493Y-51382047D01*
X126914465Y-51382064D01*
X126648949Y-51559475D01*
X126648926Y-51559492D01*
X126402047Y-51762101D01*
X126176226Y-51987922D01*
X125973617Y-52234801D01*
X125973600Y-52234824D01*
X125796189Y-52500340D01*
X125796172Y-52500368D01*
X125645630Y-52782011D01*
X125645628Y-52782016D01*
X125523408Y-53077080D01*
X125430697Y-53382708D01*
X125368391Y-53695940D01*
X125352359Y-53858728D01*
X125337088Y-54013776D01*
X111232181Y-54013776D01*
X111258048Y-53917238D01*
X111288000Y-53689734D01*
X111288000Y-53460266D01*
X111258048Y-53232762D01*
X111198658Y-53011113D01*
X111128023Y-52840586D01*
X111110849Y-52799123D01*
X111110846Y-52799117D01*
X111110844Y-52799112D01*
X110996111Y-52600388D01*
X110996108Y-52600385D01*
X110996107Y-52600382D01*
X110856418Y-52418338D01*
X110856411Y-52418330D01*
X110694170Y-52256089D01*
X110694161Y-52256081D01*
X110512117Y-52116392D01*
X110313390Y-52001657D01*
X110313376Y-52001650D01*
X110101387Y-51913842D01*
X109879738Y-51854452D01*
X109841715Y-51849446D01*
X109652241Y-51824500D01*
X109652234Y-51824500D01*
X109422766Y-51824500D01*
X109422758Y-51824500D01*
X109206215Y-51853009D01*
X109195262Y-51854452D01*
X109101576Y-51879554D01*
X108973612Y-51913842D01*
X108761623Y-52001650D01*
X108761609Y-52001657D01*
X108562882Y-52116392D01*
X108380838Y-52256081D01*
X108380829Y-52256089D01*
X108341241Y-52295677D01*
X108279918Y-52329162D01*
X108210226Y-52324176D01*
X108154293Y-52282304D01*
X108130984Y-52226724D01*
X108130104Y-52220970D01*
X108130104Y-52220965D01*
X108094521Y-52081554D01*
X108075483Y-52035592D01*
X108023690Y-51940739D01*
X108023689Y-51940737D01*
X107925645Y-51835432D01*
X107802050Y-51762101D01*
X107801908Y-51762017D01*
X107755946Y-51742979D01*
X107755931Y-51742973D01*
X107755924Y-51742971D01*
X107704917Y-51724976D01*
X107651096Y-51717238D01*
X107562500Y-51704500D01*
X107562498Y-51704500D01*
X107520500Y-51704500D01*
X107453461Y-51684815D01*
X107407706Y-51632011D01*
X107396500Y-51580500D01*
X107396500Y-51533655D01*
X107396499Y-51533653D01*
X107383873Y-51470180D01*
X107365737Y-51379003D01*
X107355782Y-51354970D01*
X107334899Y-51304552D01*
X107334890Y-51304531D01*
X107316552Y-51260258D01*
X112787000Y-51260258D01*
X112787000Y-51489741D01*
X112805731Y-51632011D01*
X112816952Y-51717238D01*
X112848622Y-51835432D01*
X112876342Y-51938887D01*
X112964150Y-52150876D01*
X112964157Y-52150890D01*
X113078892Y-52349617D01*
X113218581Y-52531661D01*
X113218589Y-52531670D01*
X113380830Y-52693911D01*
X113380838Y-52693918D01*
X113562882Y-52833607D01*
X113562885Y-52833608D01*
X113562888Y-52833611D01*
X113761612Y-52948344D01*
X113761617Y-52948346D01*
X113761623Y-52948349D01*
X113852980Y-52986190D01*
X113973613Y-53036158D01*
X114195262Y-53095548D01*
X114422766Y-53125500D01*
X114422773Y-53125500D01*
X114652227Y-53125500D01*
X114652234Y-53125500D01*
X114879738Y-53095548D01*
X115101387Y-53036158D01*
X115313388Y-52948344D01*
X115512112Y-52833611D01*
X115694161Y-52693919D01*
X115800320Y-52587759D01*
X115861641Y-52554276D01*
X115931333Y-52559260D01*
X115987267Y-52601131D01*
X116011684Y-52666595D01*
X116012000Y-52675440D01*
X116012000Y-52722868D01*
X116012001Y-52722876D01*
X116018408Y-52782483D01*
X116068702Y-52917328D01*
X116068706Y-52917335D01*
X116154952Y-53032544D01*
X116154955Y-53032547D01*
X116270164Y-53118793D01*
X116270171Y-53118797D01*
X116405017Y-53169091D01*
X116405016Y-53169091D01*
X116411944Y-53169835D01*
X116464627Y-53175500D01*
X119160372Y-53175499D01*
X119219983Y-53169091D01*
X119354831Y-53118796D01*
X119470046Y-53032546D01*
X119556296Y-52917331D01*
X119606591Y-52782483D01*
X119613000Y-52722873D01*
X119612999Y-50027128D01*
X119606591Y-49967517D01*
X119594951Y-49936309D01*
X119556297Y-49832671D01*
X119556293Y-49832664D01*
X119470047Y-49717455D01*
X119470044Y-49717452D01*
X119354835Y-49631206D01*
X119354828Y-49631202D01*
X119219982Y-49580908D01*
X119219983Y-49580908D01*
X119160383Y-49574501D01*
X119160381Y-49574500D01*
X119160373Y-49574500D01*
X119160365Y-49574500D01*
X118796454Y-49574500D01*
X118729415Y-49554815D01*
X118683660Y-49502011D01*
X118672454Y-49450500D01*
X118672454Y-49354655D01*
X118672453Y-49354653D01*
X118664806Y-49316208D01*
X118641691Y-49200003D01*
X118640933Y-49198173D01*
X118581351Y-49054327D01*
X118581344Y-49054314D01*
X118493743Y-48923211D01*
X118493740Y-48923207D01*
X118382246Y-48811713D01*
X118382242Y-48811710D01*
X118346547Y-48787859D01*
X118251139Y-48724109D01*
X118251126Y-48724102D01*
X118164174Y-48688086D01*
X120863645Y-48688086D01*
X120863645Y-50133821D01*
X120863646Y-50133827D01*
X120870053Y-50193434D01*
X120920347Y-50328279D01*
X120920351Y-50328286D01*
X121006597Y-50443495D01*
X121006600Y-50443498D01*
X121121809Y-50529744D01*
X121121816Y-50529748D01*
X121256662Y-50580042D01*
X121256661Y-50580042D01*
X121263589Y-50580786D01*
X121316272Y-50586451D01*
X122762017Y-50586450D01*
X122821628Y-50580042D01*
X122956476Y-50529747D01*
X123071691Y-50443497D01*
X123157941Y-50328282D01*
X123208236Y-50193434D01*
X123214645Y-50133824D01*
X123214644Y-48688079D01*
X123208236Y-48628468D01*
X123157941Y-48493620D01*
X123157940Y-48493619D01*
X123157938Y-48493615D01*
X123071692Y-48378406D01*
X123071689Y-48378403D01*
X122956480Y-48292157D01*
X122956473Y-48292153D01*
X122821627Y-48241859D01*
X122821628Y-48241859D01*
X122762028Y-48235452D01*
X122762026Y-48235451D01*
X122762018Y-48235451D01*
X122762009Y-48235451D01*
X121316274Y-48235451D01*
X121316268Y-48235452D01*
X121256661Y-48241859D01*
X121121816Y-48292153D01*
X121121809Y-48292157D01*
X121006600Y-48378403D01*
X121006597Y-48378406D01*
X120920351Y-48493615D01*
X120920347Y-48493622D01*
X120870053Y-48628468D01*
X120863646Y-48688067D01*
X120863646Y-48688074D01*
X120863645Y-48688086D01*
X118164174Y-48688086D01*
X118105455Y-48663764D01*
X118105443Y-48663761D01*
X117950799Y-48633000D01*
X117950796Y-48633000D01*
X117793112Y-48633000D01*
X117793109Y-48633000D01*
X117638464Y-48663761D01*
X117638452Y-48663764D01*
X117492781Y-48724102D01*
X117492768Y-48724109D01*
X117361665Y-48811710D01*
X117361661Y-48811713D01*
X117250167Y-48923207D01*
X117250164Y-48923211D01*
X117162563Y-49054314D01*
X117162556Y-49054327D01*
X117102218Y-49199998D01*
X117102215Y-49200010D01*
X117071454Y-49354653D01*
X117071454Y-49450500D01*
X117051769Y-49517539D01*
X116998965Y-49563294D01*
X116947454Y-49574500D01*
X116464629Y-49574500D01*
X116464623Y-49574501D01*
X116405016Y-49580908D01*
X116270171Y-49631202D01*
X116270164Y-49631206D01*
X116154955Y-49717452D01*
X116154952Y-49717455D01*
X116068706Y-49832664D01*
X116068702Y-49832671D01*
X116018408Y-49967517D01*
X116012738Y-50020259D01*
X116012001Y-50027123D01*
X116012000Y-50027135D01*
X116012000Y-50074557D01*
X115992315Y-50141596D01*
X115939511Y-50187351D01*
X115870353Y-50197295D01*
X115806797Y-50168270D01*
X115800319Y-50162238D01*
X115694170Y-50056089D01*
X115694161Y-50056081D01*
X115512117Y-49916392D01*
X115313390Y-49801657D01*
X115313376Y-49801650D01*
X115101387Y-49713842D01*
X114879738Y-49654452D01*
X114841715Y-49649446D01*
X114652241Y-49624500D01*
X114652234Y-49624500D01*
X114422766Y-49624500D01*
X114422758Y-49624500D01*
X114206215Y-49653009D01*
X114195262Y-49654452D01*
X114103199Y-49679120D01*
X113973612Y-49713842D01*
X113761623Y-49801650D01*
X113761609Y-49801657D01*
X113562882Y-49916392D01*
X113380838Y-50056081D01*
X113218581Y-50218338D01*
X113078892Y-50400382D01*
X112964157Y-50599109D01*
X112964150Y-50599123D01*
X112876342Y-50811112D01*
X112816953Y-51032759D01*
X112816951Y-51032770D01*
X112787000Y-51260258D01*
X107316552Y-51260258D01*
X107305394Y-51233321D01*
X107301658Y-51227731D01*
X107297197Y-51217419D01*
X107294237Y-51193435D01*
X107287019Y-51170369D01*
X107287000Y-51168177D01*
X107287000Y-50568509D01*
X107262133Y-50443498D01*
X107260445Y-50435013D01*
X107260443Y-50435010D01*
X107258677Y-50429184D01*
X107259740Y-50428861D01*
X107252007Y-50389976D01*
X107252007Y-49524913D01*
X107271692Y-49457874D01*
X107324496Y-49412119D01*
X107393654Y-49402175D01*
X107457210Y-49431200D01*
X107472952Y-49447598D01*
X107483380Y-49460674D01*
X107701826Y-49679120D01*
X107943357Y-49871735D01*
X108204935Y-50036095D01*
X108483271Y-50170135D01*
X108549853Y-50193433D01*
X108774852Y-50272164D01*
X108774864Y-50272168D01*
X109076048Y-50340911D01*
X109076054Y-50340911D01*
X109076062Y-50340913D01*
X109280706Y-50363970D01*
X109383029Y-50375499D01*
X109383032Y-50375500D01*
X109383035Y-50375500D01*
X109691968Y-50375500D01*
X109691969Y-50375499D01*
X109848856Y-50357822D01*
X109998937Y-50340913D01*
X109998942Y-50340912D01*
X109998952Y-50340911D01*
X110300136Y-50272168D01*
X110591729Y-50170135D01*
X110870065Y-50036095D01*
X111131643Y-49871735D01*
X111373174Y-49679120D01*
X111591620Y-49460674D01*
X111784235Y-49219143D01*
X111948595Y-48957565D01*
X112082635Y-48679229D01*
X112184668Y-48387636D01*
X112253411Y-48086452D01*
X112264846Y-47984968D01*
X112270322Y-47936356D01*
X112288000Y-47779465D01*
X112288000Y-47470535D01*
X112253411Y-47163548D01*
X112184668Y-46862364D01*
X112082635Y-46570771D01*
X111948595Y-46292435D01*
X111784235Y-46030857D01*
X111591620Y-45789326D01*
X111373174Y-45570880D01*
X111131643Y-45378265D01*
X110870065Y-45213905D01*
X110870062Y-45213903D01*
X110591736Y-45079868D01*
X110591722Y-45079862D01*
X110300147Y-44977835D01*
X110300135Y-44977831D01*
X109998955Y-44909089D01*
X109998937Y-44909086D01*
X109691971Y-44874500D01*
X109691965Y-44874500D01*
X109383035Y-44874500D01*
X109383028Y-44874500D01*
X109076062Y-44909086D01*
X109076044Y-44909089D01*
X108774864Y-44977831D01*
X108774852Y-44977835D01*
X108483277Y-45079862D01*
X108483263Y-45079868D01*
X108204937Y-45213903D01*
X107943358Y-45378264D01*
X107701826Y-45570879D01*
X107483381Y-45789324D01*
X107472953Y-45802401D01*
X107415763Y-45842540D01*
X107345952Y-45845388D01*
X107285683Y-45810042D01*
X107254091Y-45747722D01*
X107252007Y-45725086D01*
X107252007Y-42371530D01*
X113487000Y-42371530D01*
X113487000Y-42578469D01*
X113527368Y-42781412D01*
X113527370Y-42781420D01*
X113606558Y-42972596D01*
X113721524Y-43144657D01*
X113867842Y-43290975D01*
X113867845Y-43290977D01*
X114039902Y-43405941D01*
X114231080Y-43485130D01*
X114434030Y-43525499D01*
X114434034Y-43525500D01*
X114434035Y-43525500D01*
X114640966Y-43525500D01*
X114640967Y-43525499D01*
X114843920Y-43485130D01*
X115035098Y-43405941D01*
X115207155Y-43290977D01*
X115353477Y-43144655D01*
X115468441Y-42972598D01*
X115547630Y-42781420D01*
X115588000Y-42578465D01*
X115588000Y-42371535D01*
X115547630Y-42168580D01*
X115468441Y-41977402D01*
X115353477Y-41805345D01*
X115353475Y-41805342D01*
X115207157Y-41659024D01*
X115118894Y-41600049D01*
X115035098Y-41544059D01*
X114843920Y-41464870D01*
X114843912Y-41464868D01*
X114640969Y-41424500D01*
X114640965Y-41424500D01*
X114434035Y-41424500D01*
X114434030Y-41424500D01*
X114231087Y-41464868D01*
X114231079Y-41464870D01*
X114039903Y-41544058D01*
X113867842Y-41659024D01*
X113721524Y-41805342D01*
X113606558Y-41977403D01*
X113527370Y-42168579D01*
X113527368Y-42168587D01*
X113487000Y-42371530D01*
X107252007Y-42371530D01*
X107252007Y-41770078D01*
X107271692Y-41703039D01*
X107324496Y-41657284D01*
X107336290Y-41653241D01*
X107336222Y-41653058D01*
X107478335Y-41600053D01*
X107478334Y-41600053D01*
X107478338Y-41600052D01*
X107593553Y-41513802D01*
X107679803Y-41398587D01*
X107730098Y-41263739D01*
X107736507Y-41204129D01*
X107736506Y-39758384D01*
X107730098Y-39698773D01*
X107679803Y-39563925D01*
X107679802Y-39563924D01*
X107679800Y-39563920D01*
X107593554Y-39448711D01*
X107593551Y-39448708D01*
X107478342Y-39362462D01*
X107478335Y-39362458D01*
X107343489Y-39312164D01*
X107343490Y-39312164D01*
X107283890Y-39305757D01*
X107283888Y-39305756D01*
X107283880Y-39305756D01*
X107283872Y-39305756D01*
X106414090Y-39305756D01*
X106347051Y-39286071D01*
X106326409Y-39269437D01*
X105863875Y-38806902D01*
X105830390Y-38745579D01*
X105835374Y-38675887D01*
X105863872Y-38631542D01*
X105995808Y-38499608D01*
X106198417Y-38252729D01*
X106375851Y-37987179D01*
X106526403Y-37705517D01*
X106648622Y-37410454D01*
X106741331Y-37104833D01*
X106803638Y-36791596D01*
X106834942Y-36473760D01*
X106834942Y-36154386D01*
X106803638Y-35836550D01*
X106754839Y-35591220D01*
X127412588Y-35591220D01*
X127412588Y-36064065D01*
X128271902Y-36064065D01*
X128267508Y-36068459D01*
X128214847Y-36159671D01*
X128187588Y-36261404D01*
X128187588Y-36366726D01*
X128214847Y-36468459D01*
X128267508Y-36559671D01*
X128271902Y-36564065D01*
X127412588Y-36564065D01*
X127412588Y-37036909D01*
X127418989Y-37096437D01*
X127418991Y-37096444D01*
X127469233Y-37231151D01*
X127469237Y-37231158D01*
X127555397Y-37346252D01*
X127555400Y-37346255D01*
X127670494Y-37432415D01*
X127670501Y-37432419D01*
X127805208Y-37482661D01*
X127805215Y-37482663D01*
X127864743Y-37489064D01*
X127864760Y-37489065D01*
X128337588Y-37489065D01*
X128337588Y-36629751D01*
X128341982Y-36634145D01*
X128433194Y-36686806D01*
X128534927Y-36714065D01*
X128640249Y-36714065D01*
X128741982Y-36686806D01*
X128833194Y-36634145D01*
X128837588Y-36629751D01*
X128837588Y-37489065D01*
X129310416Y-37489065D01*
X129310432Y-37489064D01*
X129369960Y-37482663D01*
X129369967Y-37482661D01*
X129504674Y-37432419D01*
X129504681Y-37432415D01*
X129619775Y-37346255D01*
X129619778Y-37346252D01*
X129705938Y-37231158D01*
X129705942Y-37231151D01*
X129756184Y-37096444D01*
X129756186Y-37096437D01*
X129762587Y-37036909D01*
X129762588Y-37036892D01*
X129762588Y-36564065D01*
X128903274Y-36564065D01*
X128907668Y-36559671D01*
X128960329Y-36468459D01*
X128987588Y-36366726D01*
X128987588Y-36261404D01*
X128960329Y-36159671D01*
X128907668Y-36068459D01*
X128903274Y-36064065D01*
X129762588Y-36064065D01*
X129762588Y-35591237D01*
X129762587Y-35591220D01*
X129756186Y-35531692D01*
X129756184Y-35531685D01*
X129705942Y-35396978D01*
X129705938Y-35396971D01*
X129619778Y-35281877D01*
X129619775Y-35281874D01*
X129504681Y-35195714D01*
X129504674Y-35195710D01*
X129369967Y-35145468D01*
X129369960Y-35145466D01*
X129310432Y-35139065D01*
X128837588Y-35139065D01*
X128837588Y-35998379D01*
X128833194Y-35993985D01*
X128741982Y-35941324D01*
X128640249Y-35914065D01*
X128534927Y-35914065D01*
X128433194Y-35941324D01*
X128341982Y-35993985D01*
X128337588Y-35998379D01*
X128337588Y-35139065D01*
X127864743Y-35139065D01*
X127805215Y-35145466D01*
X127805208Y-35145468D01*
X127670501Y-35195710D01*
X127670494Y-35195714D01*
X127555400Y-35281874D01*
X127555397Y-35281877D01*
X127469237Y-35396971D01*
X127469233Y-35396978D01*
X127418991Y-35531685D01*
X127418989Y-35531692D01*
X127412588Y-35591220D01*
X106754839Y-35591220D01*
X106741331Y-35523313D01*
X106648622Y-35217692D01*
X106526403Y-34922629D01*
X106493428Y-34860938D01*
X106375857Y-34640978D01*
X106375855Y-34640976D01*
X106375851Y-34640967D01*
X106375840Y-34640950D01*
X106198429Y-34375434D01*
X106198422Y-34375424D01*
X106198417Y-34375417D01*
X105995808Y-34128538D01*
X105995807Y-34128537D01*
X105995803Y-34128532D01*
X105916777Y-34049506D01*
X105883292Y-33988183D01*
X105888276Y-33918491D01*
X105930148Y-33862558D01*
X105995612Y-33838141D01*
X106004442Y-33837825D01*
X137737656Y-33837987D01*
G37*
%TD.AperFunction*%
%TD*%
M02*
