M48
; DRILL file {KiCad 9.0.7} date 2026-03-01T08:50:15+0900
; FORMAT={-:-/ absolute / metric / decimal}
; #@! TF.CreationDate,2026-03-01T08:50:15+09:00
; #@! TF.GenerationSoftware,Kicad,Pcbnew,9.0.7
; #@! TF.FileFunction,Plated,1,2,PTH
FMAT,2
METRIC
; #@! TA.AperFunction,Plated,PTH,ViaDrill
T1C0.300
; #@! TA.AperFunction,Plated,PTH,ComponentDrill
T2C0.400
; #@! TA.AperFunction,Plated,PTH,ComponentDrill
T3C0.800
; #@! TA.AperFunction,Plated,PTH,ComponentDrill
T4C2.200
; #@! TA.AperFunction,Plated,PTH,ComponentDrill
T5C3.200
%
G90
G05
T1
X101.412Y-39.612
X101.412Y-55.812
X106.596Y-51.612
X107.212Y-34.413
X117.872Y-49.433
X120.412Y-74.812
X127.475Y-70.731
X130.012Y-75.412
X130.012Y-86.612
X130.012Y-93.812
X135.158Y-89.614
X136.012Y-34.413
X141.213Y-39.612
X149.213Y-55.812
X149.213Y-70.212
X149.412Y-78.812
X149.412Y-88.212
X149.412Y-93.812
X149.612Y-49.812
T2
X101.337Y-50.025
X101.337Y-52.825
X120.387Y-69.075
X120.387Y-71.875
X129.912Y-88.125
X129.912Y-90.925
T3
X106.561Y-40.481
X122.039Y-49.411
X128.588Y-36.314
X135.136Y-82.153
X139.303Y-40.481
X141.684Y-52.388
X142.28Y-75.009
X143.47Y-84.534
T4
X123.825Y-36.314
X135.731Y-76.2
X139.303Y-36.314
X147.638Y-52.388
X147.638Y-84.534
T5
X103.584Y-36.314
X128.588Y-54.173
X147.638Y-75.009
M30
