%TF.GenerationSoftware,KiCad,Pcbnew,9.0.7*%
%TF.CreationDate,2026-03-01T08:50:18+09:00*%
%TF.ProjectId,Aida_Mid_Inside,41696461-5f4d-4696-945f-496e73696465,rev?*%
%TF.SameCoordinates,Original*%
%TF.FileFunction,Legend,Top*%
%TF.FilePolarity,Positive*%
%FSLAX46Y46*%
G04 Gerber Fmt 4.6, Leading zero omitted, Abs format (unit mm)*
G04 Created by KiCad (PCBNEW 9.0.7) date 2026-03-01 08:50:18*
%MOMM*%
%LPD*%
G01*
G04 APERTURE LIST*
%ADD10C,0.375000*%
%ADD11C,0.100000*%
%ADD12C,0.150000*%
%ADD13C,0.120000*%
G04 APERTURE END LIST*
D10*
G36*
X130361923Y-47161199D02*
G01*
X130431789Y-47241046D01*
X130510731Y-47451556D01*
X130468019Y-47793245D01*
X130325655Y-48021027D01*
X130205321Y-48127991D01*
X129964170Y-48241474D01*
X129075624Y-48241474D01*
X129225177Y-47045045D01*
X130027978Y-47045045D01*
X130361923Y-47161199D01*
G37*
G36*
X130387570Y-45721123D02*
G01*
X130467503Y-45812475D01*
X130546445Y-46022985D01*
X130521591Y-46221818D01*
X130379227Y-46449598D01*
X130258895Y-46556560D01*
X130017744Y-46670045D01*
X129272052Y-46670045D01*
X129403749Y-45616474D01*
X130191353Y-45616474D01*
X130387570Y-45721123D01*
G37*
G36*
X132993551Y-48160421D02*
G01*
X132821313Y-48241474D01*
X132195815Y-48241474D01*
X132031787Y-48153992D01*
X131965723Y-47977819D01*
X131990577Y-47778988D01*
X132117985Y-47575135D01*
X132333711Y-47473617D01*
X133006084Y-47473617D01*
X133042663Y-47470014D01*
X133046807Y-47468297D01*
X133051290Y-47468086D01*
X133081433Y-47457366D01*
X132993551Y-48160421D01*
G37*
G36*
X125244713Y-45721123D02*
G01*
X125324646Y-45812475D01*
X125403588Y-46022985D01*
X125360877Y-46364675D01*
X125218513Y-46592455D01*
X125098181Y-46699417D01*
X124857030Y-46812902D01*
X123968481Y-46812902D01*
X124118035Y-45616474D01*
X125048496Y-45616474D01*
X125244713Y-45721123D01*
G37*
G36*
X139060860Y-48949807D02*
G01*
X123057166Y-48949807D01*
X123057166Y-48442461D01*
X123390499Y-48442461D01*
X123409895Y-48513001D01*
X123454811Y-48570751D01*
X123518407Y-48606914D01*
X123591000Y-48615988D01*
X123661540Y-48596592D01*
X123719290Y-48551676D01*
X123755453Y-48488080D01*
X123763565Y-48452231D01*
X123921606Y-47187902D01*
X124361896Y-47187902D01*
X125129254Y-48522438D01*
X125150611Y-48552352D01*
X125208573Y-48596991D01*
X125279207Y-48616051D01*
X125351756Y-48606629D01*
X125415177Y-48570162D01*
X125459816Y-48512201D01*
X125478635Y-48442461D01*
X128676213Y-48442461D01*
X128679330Y-48453797D01*
X128679330Y-48465553D01*
X128688945Y-48488768D01*
X128695609Y-48513001D01*
X128702827Y-48522281D01*
X128707326Y-48533143D01*
X128725094Y-48550911D01*
X128740525Y-48570751D01*
X128750746Y-48576563D01*
X128759058Y-48584875D01*
X128782274Y-48594491D01*
X128804121Y-48606914D01*
X128815786Y-48608372D01*
X128826648Y-48612871D01*
X128863227Y-48616474D01*
X130006084Y-48616474D01*
X130042663Y-48612871D01*
X130046807Y-48611154D01*
X130051289Y-48610943D01*
X130085921Y-48598628D01*
X130389493Y-48455770D01*
X130400306Y-48449317D01*
X130404492Y-48447865D01*
X130412533Y-48442020D01*
X130421056Y-48436935D01*
X130424033Y-48433663D01*
X130434225Y-48426256D01*
X130594939Y-48283398D01*
X130603354Y-48274291D01*
X130606928Y-48271743D01*
X130613063Y-48263784D01*
X130619885Y-48256403D01*
X130621800Y-48252452D01*
X130629370Y-48242634D01*
X130772336Y-48013888D01*
X131586927Y-48013888D01*
X131589199Y-48022153D01*
X131588909Y-48030722D01*
X131598379Y-48066238D01*
X131705522Y-48351953D01*
X131714376Y-48369960D01*
X131715805Y-48374656D01*
X131717992Y-48377316D01*
X131721740Y-48384938D01*
X131742738Y-48407411D01*
X131762269Y-48431165D01*
X131769333Y-48435876D01*
X131771686Y-48438394D01*
X131776155Y-48440425D01*
X131792849Y-48451558D01*
X132060706Y-48594415D01*
X132094677Y-48608450D01*
X132103848Y-48609344D01*
X132112362Y-48612871D01*
X132148941Y-48616474D01*
X132863227Y-48616474D01*
X132899806Y-48612871D01*
X132903950Y-48611154D01*
X132908432Y-48610943D01*
X132943064Y-48598628D01*
X133019825Y-48562504D01*
X133026239Y-48570751D01*
X133089835Y-48606914D01*
X133162428Y-48615988D01*
X133232968Y-48596592D01*
X133290718Y-48551676D01*
X133326881Y-48488080D01*
X133334993Y-48452231D01*
X133407643Y-47871032D01*
X134319071Y-47871032D01*
X134321343Y-47879297D01*
X134321053Y-47887865D01*
X134330523Y-47923380D01*
X134437665Y-48209094D01*
X134449515Y-48233197D01*
X134450743Y-48236827D01*
X134452526Y-48239321D01*
X134453882Y-48242079D01*
X134456503Y-48244884D01*
X134472119Y-48266728D01*
X134597119Y-48409586D01*
X134617056Y-48428300D01*
X134619412Y-48431166D01*
X134621816Y-48432769D01*
X134623918Y-48434742D01*
X134627233Y-48436381D01*
X134649992Y-48451558D01*
X134917850Y-48594415D01*
X134951821Y-48608450D01*
X134960992Y-48609344D01*
X134969506Y-48612871D01*
X135006085Y-48616474D01*
X135577513Y-48616474D01*
X135614092Y-48612871D01*
X135618236Y-48611154D01*
X135622718Y-48610943D01*
X135657350Y-48598628D01*
X135960922Y-48455770D01*
X135983225Y-48442461D01*
X136961928Y-48442461D01*
X136981324Y-48513001D01*
X137026240Y-48570751D01*
X137089836Y-48606914D01*
X137162429Y-48615988D01*
X137232969Y-48596592D01*
X137290719Y-48551676D01*
X137326882Y-48488080D01*
X137334994Y-48452231D01*
X137433385Y-47665096D01*
X137536166Y-47573735D01*
X138132799Y-48528349D01*
X138155241Y-48557458D01*
X138214805Y-48599936D01*
X138286091Y-48616387D01*
X138358245Y-48604305D01*
X138420283Y-48565531D01*
X138462761Y-48505968D01*
X138479212Y-48434682D01*
X138467130Y-48362528D01*
X138450799Y-48329599D01*
X137820449Y-47321039D01*
X138666367Y-46569114D01*
X138691313Y-46542119D01*
X138723231Y-46476290D01*
X138727527Y-46403256D01*
X138703547Y-46334139D01*
X138654943Y-46279460D01*
X138589114Y-46247542D01*
X138516081Y-46243246D01*
X138446964Y-46267226D01*
X138417230Y-46288835D01*
X137503941Y-47100647D01*
X137709994Y-45452230D01*
X137710956Y-45415487D01*
X137691560Y-45344946D01*
X137646644Y-45287197D01*
X137583048Y-45251034D01*
X137510455Y-45241960D01*
X137439915Y-45261356D01*
X137382166Y-45306272D01*
X137346002Y-45369868D01*
X137337890Y-45405717D01*
X136962890Y-48405717D01*
X136961928Y-48442461D01*
X135983225Y-48442461D01*
X135992485Y-48436935D01*
X136041721Y-48382824D01*
X136066502Y-48313989D01*
X136063054Y-48240912D01*
X136031904Y-48174717D01*
X135977793Y-48125481D01*
X135908957Y-48100700D01*
X135835880Y-48104148D01*
X135801249Y-48116463D01*
X135535599Y-48241474D01*
X135052959Y-48241474D01*
X134856740Y-48136824D01*
X134776807Y-48045473D01*
X134697866Y-47834962D01*
X134794148Y-47064700D01*
X134936514Y-46836918D01*
X135056844Y-46729958D01*
X135297997Y-46616474D01*
X135780639Y-46616474D01*
X136007135Y-46737272D01*
X136041106Y-46751307D01*
X136113918Y-46758411D01*
X136183909Y-46737110D01*
X136240418Y-46690646D01*
X136274846Y-46626095D01*
X136281950Y-46553282D01*
X136260649Y-46483292D01*
X136214185Y-46426782D01*
X136183605Y-46406390D01*
X135915748Y-46263533D01*
X135881777Y-46249498D01*
X135872605Y-46248603D01*
X135864092Y-46245077D01*
X135827513Y-46241474D01*
X135256085Y-46241474D01*
X135219506Y-46245077D01*
X135215361Y-46246793D01*
X135210880Y-46247005D01*
X135176249Y-46259320D01*
X134872676Y-46402177D01*
X134861858Y-46408632D01*
X134857678Y-46410083D01*
X134849643Y-46415922D01*
X134841113Y-46421013D01*
X134838134Y-46424286D01*
X134827945Y-46431692D01*
X134667231Y-46574549D01*
X134658815Y-46583655D01*
X134655242Y-46586204D01*
X134649109Y-46594157D01*
X134642285Y-46601543D01*
X134640367Y-46605496D01*
X134632800Y-46615313D01*
X134454228Y-46901027D01*
X134437896Y-46933955D01*
X134437242Y-46937856D01*
X134435287Y-46941296D01*
X134427175Y-46977146D01*
X134320033Y-47834289D01*
X134319071Y-47871032D01*
X133407643Y-47871032D01*
X133531422Y-46880802D01*
X133532384Y-46844058D01*
X133530111Y-46835792D01*
X133530402Y-46827225D01*
X133520932Y-46791709D01*
X133413789Y-46505995D01*
X133404934Y-46487987D01*
X133403506Y-46483292D01*
X133401318Y-46480631D01*
X133397571Y-46473010D01*
X133376576Y-46450540D01*
X133357042Y-46426782D01*
X133349975Y-46422069D01*
X133347625Y-46419554D01*
X133343157Y-46417523D01*
X133326462Y-46406390D01*
X133058605Y-46263533D01*
X133024634Y-46249498D01*
X133015462Y-46248603D01*
X133006949Y-46245077D01*
X132970370Y-46241474D01*
X132398941Y-46241474D01*
X132362362Y-46245077D01*
X132358217Y-46246793D01*
X132353736Y-46247005D01*
X132319104Y-46259320D01*
X132015533Y-46402178D01*
X131983970Y-46421013D01*
X131934734Y-46475124D01*
X131909953Y-46543959D01*
X131913401Y-46617036D01*
X131944552Y-46683231D01*
X131998663Y-46732467D01*
X132067498Y-46757248D01*
X132140575Y-46753800D01*
X132175207Y-46741484D01*
X132440853Y-46616474D01*
X132923496Y-46616474D01*
X133087523Y-46703955D01*
X133153588Y-46880128D01*
X133136408Y-47017564D01*
X132964172Y-47098617D01*
X132291799Y-47098617D01*
X132255220Y-47102220D01*
X132251075Y-47103936D01*
X132246594Y-47104148D01*
X132211963Y-47116463D01*
X131908390Y-47259320D01*
X131876827Y-47278156D01*
X131865443Y-47290666D01*
X131851669Y-47300490D01*
X131829227Y-47329600D01*
X131650656Y-47615313D01*
X131634325Y-47648242D01*
X131633672Y-47652141D01*
X131631716Y-47655581D01*
X131623604Y-47691431D01*
X131587889Y-47977145D01*
X131586927Y-48013888D01*
X130772336Y-48013888D01*
X130807941Y-47956920D01*
X130824272Y-47923992D01*
X130824925Y-47920090D01*
X130826881Y-47916651D01*
X130834993Y-47880802D01*
X130888565Y-47452231D01*
X130889527Y-47415488D01*
X130887254Y-47407222D01*
X130887545Y-47398654D01*
X130878075Y-47363139D01*
X130770932Y-47077423D01*
X130759083Y-47053326D01*
X130757854Y-47049690D01*
X130756066Y-47047189D01*
X130754714Y-47044439D01*
X130752099Y-47041641D01*
X130736478Y-47019789D01*
X130611478Y-46876932D01*
X130584679Y-46851776D01*
X130574124Y-46846556D01*
X130565333Y-46838729D01*
X130531968Y-46823309D01*
X130525703Y-46821130D01*
X130648509Y-46711970D01*
X130656924Y-46702863D01*
X130660498Y-46700315D01*
X130666630Y-46692361D01*
X130673455Y-46684976D01*
X130675372Y-46681022D01*
X130682940Y-46671206D01*
X130861513Y-46385492D01*
X130877844Y-46352564D01*
X130878497Y-46348662D01*
X130880453Y-46345223D01*
X130888565Y-46309373D01*
X130924279Y-46023659D01*
X130925241Y-45986915D01*
X130922968Y-45978649D01*
X130923259Y-45970082D01*
X130913789Y-45934566D01*
X130806646Y-45648852D01*
X130794797Y-45624753D01*
X130793568Y-45621119D01*
X130791781Y-45618620D01*
X130790428Y-45615867D01*
X130787811Y-45613066D01*
X130772192Y-45591218D01*
X130647192Y-45448361D01*
X130627251Y-45429642D01*
X130624899Y-45426782D01*
X130622497Y-45425180D01*
X130620393Y-45423205D01*
X130617071Y-45421562D01*
X130594319Y-45406390D01*
X130326462Y-45263533D01*
X130292491Y-45249498D01*
X130283319Y-45248603D01*
X130274806Y-45245077D01*
X130238227Y-45241474D01*
X129238227Y-45241474D01*
X129228509Y-45242431D01*
X129224740Y-45241960D01*
X129219965Y-45243272D01*
X129201648Y-45245077D01*
X129178432Y-45254692D01*
X129154200Y-45261356D01*
X129144919Y-45268574D01*
X129134058Y-45273073D01*
X129116287Y-45290843D01*
X129096451Y-45306272D01*
X129090639Y-45316491D01*
X129082326Y-45324805D01*
X129072708Y-45348024D01*
X129060287Y-45369868D01*
X129056224Y-45387821D01*
X129054330Y-45392395D01*
X129054330Y-45396193D01*
X129052175Y-45405717D01*
X128677175Y-48405717D01*
X128676213Y-48442461D01*
X125478635Y-48442461D01*
X125478876Y-48441567D01*
X125469454Y-48369017D01*
X125454344Y-48335511D01*
X124794469Y-47187902D01*
X124898942Y-47187902D01*
X124935521Y-47184299D01*
X124939665Y-47182582D01*
X124944147Y-47182371D01*
X124978779Y-47170055D01*
X125282350Y-47027198D01*
X125293164Y-47020744D01*
X125297348Y-47019293D01*
X125305384Y-47013452D01*
X125313913Y-47008363D01*
X125316891Y-47005089D01*
X125327081Y-46997684D01*
X125487795Y-46854827D01*
X125496210Y-46845720D01*
X125499784Y-46843172D01*
X125505916Y-46835218D01*
X125512741Y-46827833D01*
X125514658Y-46823879D01*
X125522226Y-46814063D01*
X125700799Y-46528349D01*
X125717130Y-46495421D01*
X125717783Y-46491519D01*
X125719739Y-46488080D01*
X125727851Y-46452230D01*
X125781422Y-46023658D01*
X125782384Y-45986915D01*
X125780111Y-45978649D01*
X125780402Y-45970082D01*
X125770932Y-45934566D01*
X125663789Y-45648852D01*
X125651940Y-45624753D01*
X125650711Y-45621119D01*
X125648924Y-45618620D01*
X125647571Y-45615867D01*
X125644954Y-45613066D01*
X125629335Y-45591218D01*
X125504335Y-45448361D01*
X125484394Y-45429642D01*
X125482042Y-45426782D01*
X125479640Y-45425180D01*
X125477536Y-45423205D01*
X125474214Y-45421562D01*
X125451462Y-45406390D01*
X125183605Y-45263533D01*
X125149634Y-45249498D01*
X125140462Y-45248603D01*
X125131949Y-45245077D01*
X125095370Y-45241474D01*
X123952513Y-45241474D01*
X123942795Y-45242431D01*
X123939026Y-45241960D01*
X123934251Y-45243272D01*
X123915934Y-45245077D01*
X123892718Y-45254692D01*
X123868486Y-45261356D01*
X123859205Y-45268574D01*
X123848344Y-45273073D01*
X123830573Y-45290843D01*
X123810737Y-45306272D01*
X123804925Y-45316491D01*
X123796612Y-45324805D01*
X123786994Y-45348024D01*
X123774573Y-45369868D01*
X123770510Y-45387821D01*
X123768616Y-45392395D01*
X123768616Y-45396193D01*
X123766461Y-45405717D01*
X123391461Y-48405717D01*
X123390499Y-48442461D01*
X123057166Y-48442461D01*
X123057166Y-44908141D01*
X139060860Y-44908141D01*
X139060860Y-48949807D01*
G37*
D11*
X108601365Y-35183502D02*
X109077555Y-35183502D01*
X108506127Y-35469217D02*
X108839460Y-34469217D01*
X108839460Y-34469217D02*
X109172793Y-35469217D01*
X109506127Y-35469217D02*
X109506127Y-34802550D01*
X109506127Y-34469217D02*
X109458508Y-34516836D01*
X109458508Y-34516836D02*
X109506127Y-34564455D01*
X109506127Y-34564455D02*
X109553746Y-34516836D01*
X109553746Y-34516836D02*
X109506127Y-34469217D01*
X109506127Y-34469217D02*
X109506127Y-34564455D01*
X110410888Y-35469217D02*
X110410888Y-34469217D01*
X110410888Y-35421598D02*
X110315650Y-35469217D01*
X110315650Y-35469217D02*
X110125174Y-35469217D01*
X110125174Y-35469217D02*
X110029936Y-35421598D01*
X110029936Y-35421598D02*
X109982317Y-35373978D01*
X109982317Y-35373978D02*
X109934698Y-35278740D01*
X109934698Y-35278740D02*
X109934698Y-34993026D01*
X109934698Y-34993026D02*
X109982317Y-34897788D01*
X109982317Y-34897788D02*
X110029936Y-34850169D01*
X110029936Y-34850169D02*
X110125174Y-34802550D01*
X110125174Y-34802550D02*
X110315650Y-34802550D01*
X110315650Y-34802550D02*
X110410888Y-34850169D01*
X111315650Y-35469217D02*
X111315650Y-34945407D01*
X111315650Y-34945407D02*
X111268031Y-34850169D01*
X111268031Y-34850169D02*
X111172793Y-34802550D01*
X111172793Y-34802550D02*
X110982317Y-34802550D01*
X110982317Y-34802550D02*
X110887079Y-34850169D01*
X111315650Y-35421598D02*
X111220412Y-35469217D01*
X111220412Y-35469217D02*
X110982317Y-35469217D01*
X110982317Y-35469217D02*
X110887079Y-35421598D01*
X110887079Y-35421598D02*
X110839460Y-35326359D01*
X110839460Y-35326359D02*
X110839460Y-35231121D01*
X110839460Y-35231121D02*
X110887079Y-35135883D01*
X110887079Y-35135883D02*
X110982317Y-35088264D01*
X110982317Y-35088264D02*
X111220412Y-35088264D01*
X111220412Y-35088264D02*
X111315650Y-35040645D01*
X112553746Y-35469217D02*
X112553746Y-34469217D01*
X112553746Y-34469217D02*
X112791841Y-34469217D01*
X112791841Y-34469217D02*
X112934698Y-34516836D01*
X112934698Y-34516836D02*
X113029936Y-34612074D01*
X113029936Y-34612074D02*
X113077555Y-34707312D01*
X113077555Y-34707312D02*
X113125174Y-34897788D01*
X113125174Y-34897788D02*
X113125174Y-35040645D01*
X113125174Y-35040645D02*
X113077555Y-35231121D01*
X113077555Y-35231121D02*
X113029936Y-35326359D01*
X113029936Y-35326359D02*
X112934698Y-35421598D01*
X112934698Y-35421598D02*
X112791841Y-35469217D01*
X112791841Y-35469217D02*
X112553746Y-35469217D01*
X113553746Y-35469217D02*
X113553746Y-34469217D01*
X113553746Y-34469217D02*
X114125174Y-35469217D01*
X114125174Y-35469217D02*
X114125174Y-34469217D01*
X114791841Y-34469217D02*
X114887079Y-34469217D01*
X114887079Y-34469217D02*
X114982317Y-34516836D01*
X114982317Y-34516836D02*
X115029936Y-34564455D01*
X115029936Y-34564455D02*
X115077555Y-34659693D01*
X115077555Y-34659693D02*
X115125174Y-34850169D01*
X115125174Y-34850169D02*
X115125174Y-35088264D01*
X115125174Y-35088264D02*
X115077555Y-35278740D01*
X115077555Y-35278740D02*
X115029936Y-35373978D01*
X115029936Y-35373978D02*
X114982317Y-35421598D01*
X114982317Y-35421598D02*
X114887079Y-35469217D01*
X114887079Y-35469217D02*
X114791841Y-35469217D01*
X114791841Y-35469217D02*
X114696603Y-35421598D01*
X114696603Y-35421598D02*
X114648984Y-35373978D01*
X114648984Y-35373978D02*
X114601365Y-35278740D01*
X114601365Y-35278740D02*
X114553746Y-35088264D01*
X114553746Y-35088264D02*
X114553746Y-34850169D01*
X114553746Y-34850169D02*
X114601365Y-34659693D01*
X114601365Y-34659693D02*
X114648984Y-34564455D01*
X114648984Y-34564455D02*
X114696603Y-34516836D01*
X114696603Y-34516836D02*
X114791841Y-34469217D01*
X115744222Y-34469217D02*
X115839460Y-34469217D01*
X115839460Y-34469217D02*
X115934698Y-34516836D01*
X115934698Y-34516836D02*
X115982317Y-34564455D01*
X115982317Y-34564455D02*
X116029936Y-34659693D01*
X116029936Y-34659693D02*
X116077555Y-34850169D01*
X116077555Y-34850169D02*
X116077555Y-35088264D01*
X116077555Y-35088264D02*
X116029936Y-35278740D01*
X116029936Y-35278740D02*
X115982317Y-35373978D01*
X115982317Y-35373978D02*
X115934698Y-35421598D01*
X115934698Y-35421598D02*
X115839460Y-35469217D01*
X115839460Y-35469217D02*
X115744222Y-35469217D01*
X115744222Y-35469217D02*
X115648984Y-35421598D01*
X115648984Y-35421598D02*
X115601365Y-35373978D01*
X115601365Y-35373978D02*
X115553746Y-35278740D01*
X115553746Y-35278740D02*
X115506127Y-35088264D01*
X115506127Y-35088264D02*
X115506127Y-34850169D01*
X115506127Y-34850169D02*
X115553746Y-34659693D01*
X115553746Y-34659693D02*
X115601365Y-34564455D01*
X115601365Y-34564455D02*
X115648984Y-34516836D01*
X115648984Y-34516836D02*
X115744222Y-34469217D01*
X117029936Y-35469217D02*
X116458508Y-35469217D01*
X116744222Y-35469217D02*
X116744222Y-34469217D01*
X116744222Y-34469217D02*
X116648984Y-34612074D01*
X116648984Y-34612074D02*
X116553746Y-34707312D01*
X116553746Y-34707312D02*
X116458508Y-34754931D01*
X117648984Y-34469217D02*
X117744222Y-34469217D01*
X117744222Y-34469217D02*
X117839460Y-34516836D01*
X117839460Y-34516836D02*
X117887079Y-34564455D01*
X117887079Y-34564455D02*
X117934698Y-34659693D01*
X117934698Y-34659693D02*
X117982317Y-34850169D01*
X117982317Y-34850169D02*
X117982317Y-35088264D01*
X117982317Y-35088264D02*
X117934698Y-35278740D01*
X117934698Y-35278740D02*
X117887079Y-35373978D01*
X117887079Y-35373978D02*
X117839460Y-35421598D01*
X117839460Y-35421598D02*
X117744222Y-35469217D01*
X117744222Y-35469217D02*
X117648984Y-35469217D01*
X117648984Y-35469217D02*
X117553746Y-35421598D01*
X117553746Y-35421598D02*
X117506127Y-35373978D01*
X117506127Y-35373978D02*
X117458508Y-35278740D01*
X117458508Y-35278740D02*
X117410889Y-35088264D01*
X117410889Y-35088264D02*
X117410889Y-34850169D01*
X117410889Y-34850169D02*
X117458508Y-34659693D01*
X117458508Y-34659693D02*
X117506127Y-34564455D01*
X117506127Y-34564455D02*
X117553746Y-34516836D01*
X117553746Y-34516836D02*
X117648984Y-34469217D01*
X108648984Y-37079161D02*
X108648984Y-36079161D01*
X108648984Y-36460113D02*
X108744222Y-36412494D01*
X108744222Y-36412494D02*
X108934698Y-36412494D01*
X108934698Y-36412494D02*
X109029936Y-36460113D01*
X109029936Y-36460113D02*
X109077555Y-36507732D01*
X109077555Y-36507732D02*
X109125174Y-36602970D01*
X109125174Y-36602970D02*
X109125174Y-36888684D01*
X109125174Y-36888684D02*
X109077555Y-36983922D01*
X109077555Y-36983922D02*
X109029936Y-37031542D01*
X109029936Y-37031542D02*
X108934698Y-37079161D01*
X108934698Y-37079161D02*
X108744222Y-37079161D01*
X108744222Y-37079161D02*
X108648984Y-37031542D01*
X109458508Y-36412494D02*
X109696603Y-37079161D01*
X109934698Y-36412494D02*
X109696603Y-37079161D01*
X109696603Y-37079161D02*
X109601365Y-37317256D01*
X109601365Y-37317256D02*
X109553746Y-37364875D01*
X109553746Y-37364875D02*
X109458508Y-37412494D01*
X111696603Y-36602970D02*
X111648984Y-36555351D01*
X111648984Y-36555351D02*
X111553746Y-36507732D01*
X111553746Y-36507732D02*
X111458508Y-36507732D01*
X111458508Y-36507732D02*
X111363270Y-36555351D01*
X111363270Y-36555351D02*
X111315651Y-36602970D01*
X111315651Y-36602970D02*
X111268032Y-36698208D01*
X111268032Y-36698208D02*
X111268032Y-36793446D01*
X111268032Y-36793446D02*
X111315651Y-36888684D01*
X111315651Y-36888684D02*
X111363270Y-36936303D01*
X111363270Y-36936303D02*
X111458508Y-36983922D01*
X111458508Y-36983922D02*
X111553746Y-36983922D01*
X111553746Y-36983922D02*
X111648984Y-36936303D01*
X111648984Y-36936303D02*
X111696603Y-36888684D01*
X111696603Y-36507732D02*
X111696603Y-36888684D01*
X111696603Y-36888684D02*
X111744222Y-36936303D01*
X111744222Y-36936303D02*
X111791841Y-36936303D01*
X111791841Y-36936303D02*
X111887080Y-36888684D01*
X111887080Y-36888684D02*
X111934699Y-36793446D01*
X111934699Y-36793446D02*
X111934699Y-36555351D01*
X111934699Y-36555351D02*
X111839461Y-36412494D01*
X111839461Y-36412494D02*
X111696603Y-36317256D01*
X111696603Y-36317256D02*
X111506127Y-36269637D01*
X111506127Y-36269637D02*
X111315651Y-36317256D01*
X111315651Y-36317256D02*
X111172794Y-36412494D01*
X111172794Y-36412494D02*
X111077556Y-36555351D01*
X111077556Y-36555351D02*
X111029937Y-36745827D01*
X111029937Y-36745827D02*
X111077556Y-36936303D01*
X111077556Y-36936303D02*
X111172794Y-37079161D01*
X111172794Y-37079161D02*
X111315651Y-37174399D01*
X111315651Y-37174399D02*
X111506127Y-37222018D01*
X111506127Y-37222018D02*
X111696603Y-37174399D01*
X111696603Y-37174399D02*
X111839461Y-37079161D01*
X112363270Y-36412494D02*
X112363270Y-37269637D01*
X112363270Y-37269637D02*
X112315651Y-37364875D01*
X112315651Y-37364875D02*
X112220413Y-37412494D01*
X112220413Y-37412494D02*
X112172794Y-37412494D01*
X112363270Y-36079161D02*
X112315651Y-36126780D01*
X112315651Y-36126780D02*
X112363270Y-36174399D01*
X112363270Y-36174399D02*
X112410889Y-36126780D01*
X112410889Y-36126780D02*
X112363270Y-36079161D01*
X112363270Y-36079161D02*
X112363270Y-36174399D01*
X112839460Y-36412494D02*
X112839460Y-37412494D01*
X112839460Y-36460113D02*
X112934698Y-36412494D01*
X112934698Y-36412494D02*
X113125174Y-36412494D01*
X113125174Y-36412494D02*
X113220412Y-36460113D01*
X113220412Y-36460113D02*
X113268031Y-36507732D01*
X113268031Y-36507732D02*
X113315650Y-36602970D01*
X113315650Y-36602970D02*
X113315650Y-36888684D01*
X113315650Y-36888684D02*
X113268031Y-36983922D01*
X113268031Y-36983922D02*
X113220412Y-37031542D01*
X113220412Y-37031542D02*
X113125174Y-37079161D01*
X113125174Y-37079161D02*
X112934698Y-37079161D01*
X112934698Y-37079161D02*
X112839460Y-37031542D01*
X113696603Y-37031542D02*
X113791841Y-37079161D01*
X113791841Y-37079161D02*
X113982317Y-37079161D01*
X113982317Y-37079161D02*
X114077555Y-37031542D01*
X114077555Y-37031542D02*
X114125174Y-36936303D01*
X114125174Y-36936303D02*
X114125174Y-36888684D01*
X114125174Y-36888684D02*
X114077555Y-36793446D01*
X114077555Y-36793446D02*
X113982317Y-36745827D01*
X113982317Y-36745827D02*
X113839460Y-36745827D01*
X113839460Y-36745827D02*
X113744222Y-36698208D01*
X113744222Y-36698208D02*
X113696603Y-36602970D01*
X113696603Y-36602970D02*
X113696603Y-36555351D01*
X113696603Y-36555351D02*
X113744222Y-36460113D01*
X113744222Y-36460113D02*
X113839460Y-36412494D01*
X113839460Y-36412494D02*
X113982317Y-36412494D01*
X113982317Y-36412494D02*
X114077555Y-36460113D01*
X114553746Y-37079161D02*
X114553746Y-36079161D01*
X114648984Y-36698208D02*
X114934698Y-37079161D01*
X114934698Y-36412494D02*
X114553746Y-36793446D01*
X115744222Y-37031542D02*
X115648984Y-37079161D01*
X115648984Y-37079161D02*
X115458508Y-37079161D01*
X115458508Y-37079161D02*
X115363270Y-37031542D01*
X115363270Y-37031542D02*
X115315651Y-36936303D01*
X115315651Y-36936303D02*
X115315651Y-36555351D01*
X115315651Y-36555351D02*
X115363270Y-36460113D01*
X115363270Y-36460113D02*
X115458508Y-36412494D01*
X115458508Y-36412494D02*
X115648984Y-36412494D01*
X115648984Y-36412494D02*
X115744222Y-36460113D01*
X115744222Y-36460113D02*
X115791841Y-36555351D01*
X115791841Y-36555351D02*
X115791841Y-36650589D01*
X115791841Y-36650589D02*
X115315651Y-36745827D01*
X116220413Y-36412494D02*
X116220413Y-37079161D01*
X116220413Y-36507732D02*
X116268032Y-36460113D01*
X116268032Y-36460113D02*
X116363270Y-36412494D01*
X116363270Y-36412494D02*
X116506127Y-36412494D01*
X116506127Y-36412494D02*
X116601365Y-36460113D01*
X116601365Y-36460113D02*
X116648984Y-36555351D01*
X116648984Y-36555351D02*
X116648984Y-37079161D01*
X117125175Y-36412494D02*
X117125175Y-37079161D01*
X117125175Y-36507732D02*
X117172794Y-36460113D01*
X117172794Y-36460113D02*
X117268032Y-36412494D01*
X117268032Y-36412494D02*
X117410889Y-36412494D01*
X117410889Y-36412494D02*
X117506127Y-36460113D01*
X117506127Y-36460113D02*
X117553746Y-36555351D01*
X117553746Y-36555351D02*
X117553746Y-37079161D01*
D12*
X119824858Y-51880531D02*
X119777239Y-51928151D01*
X119777239Y-51928151D02*
X119634382Y-51975770D01*
X119634382Y-51975770D02*
X119539144Y-51975770D01*
X119539144Y-51975770D02*
X119396287Y-51928151D01*
X119396287Y-51928151D02*
X119301049Y-51832912D01*
X119301049Y-51832912D02*
X119253430Y-51737674D01*
X119253430Y-51737674D02*
X119205811Y-51547198D01*
X119205811Y-51547198D02*
X119205811Y-51404341D01*
X119205811Y-51404341D02*
X119253430Y-51213865D01*
X119253430Y-51213865D02*
X119301049Y-51118627D01*
X119301049Y-51118627D02*
X119396287Y-51023389D01*
X119396287Y-51023389D02*
X119539144Y-50975770D01*
X119539144Y-50975770D02*
X119634382Y-50975770D01*
X119634382Y-50975770D02*
X119777239Y-51023389D01*
X119777239Y-51023389D02*
X119824858Y-51071008D01*
X120443906Y-50975770D02*
X120634382Y-50975770D01*
X120634382Y-50975770D02*
X120729620Y-51023389D01*
X120729620Y-51023389D02*
X120824858Y-51118627D01*
X120824858Y-51118627D02*
X120872477Y-51309103D01*
X120872477Y-51309103D02*
X120872477Y-51642436D01*
X120872477Y-51642436D02*
X120824858Y-51832912D01*
X120824858Y-51832912D02*
X120729620Y-51928151D01*
X120729620Y-51928151D02*
X120634382Y-51975770D01*
X120634382Y-51975770D02*
X120443906Y-51975770D01*
X120443906Y-51975770D02*
X120348668Y-51928151D01*
X120348668Y-51928151D02*
X120253430Y-51832912D01*
X120253430Y-51832912D02*
X120205811Y-51642436D01*
X120205811Y-51642436D02*
X120205811Y-51309103D01*
X120205811Y-51309103D02*
X120253430Y-51118627D01*
X120253430Y-51118627D02*
X120348668Y-51023389D01*
X120348668Y-51023389D02*
X120443906Y-50975770D01*
X121777239Y-51975770D02*
X121301049Y-51975770D01*
X121301049Y-51975770D02*
X121301049Y-50975770D01*
X122015335Y-50975770D02*
X122634382Y-50975770D01*
X122634382Y-50975770D02*
X122301049Y-51356722D01*
X122301049Y-51356722D02*
X122443906Y-51356722D01*
X122443906Y-51356722D02*
X122539144Y-51404341D01*
X122539144Y-51404341D02*
X122586763Y-51451960D01*
X122586763Y-51451960D02*
X122634382Y-51547198D01*
X122634382Y-51547198D02*
X122634382Y-51785293D01*
X122634382Y-51785293D02*
X122586763Y-51880531D01*
X122586763Y-51880531D02*
X122539144Y-51928151D01*
X122539144Y-51928151D02*
X122443906Y-51975770D01*
X122443906Y-51975770D02*
X122158192Y-51975770D01*
X122158192Y-51975770D02*
X122062954Y-51928151D01*
X122062954Y-51928151D02*
X122015335Y-51880531D01*
X122824859Y-52071008D02*
X123586763Y-52071008D01*
X123682002Y-51309103D02*
X124062954Y-51309103D01*
X123824859Y-50975770D02*
X123824859Y-51832912D01*
X123824859Y-51832912D02*
X123872478Y-51928151D01*
X123872478Y-51928151D02*
X123967716Y-51975770D01*
X123967716Y-51975770D02*
X124062954Y-51975770D01*
X124539145Y-51975770D02*
X124443907Y-51928151D01*
X124443907Y-51928151D02*
X124396288Y-51880531D01*
X124396288Y-51880531D02*
X124348669Y-51785293D01*
X124348669Y-51785293D02*
X124348669Y-51499579D01*
X124348669Y-51499579D02*
X124396288Y-51404341D01*
X124396288Y-51404341D02*
X124443907Y-51356722D01*
X124443907Y-51356722D02*
X124539145Y-51309103D01*
X124539145Y-51309103D02*
X124682002Y-51309103D01*
X124682002Y-51309103D02*
X124777240Y-51356722D01*
X124777240Y-51356722D02*
X124824859Y-51404341D01*
X124824859Y-51404341D02*
X124872478Y-51499579D01*
X124872478Y-51499579D02*
X124872478Y-51785293D01*
X124872478Y-51785293D02*
X124824859Y-51880531D01*
X124824859Y-51880531D02*
X124777240Y-51928151D01*
X124777240Y-51928151D02*
X124682002Y-51975770D01*
X124682002Y-51975770D02*
X124539145Y-51975770D01*
X134922119Y-80726807D02*
X134874500Y-80774427D01*
X134874500Y-80774427D02*
X134731643Y-80822046D01*
X134731643Y-80822046D02*
X134636405Y-80822046D01*
X134636405Y-80822046D02*
X134493548Y-80774427D01*
X134493548Y-80774427D02*
X134398310Y-80679188D01*
X134398310Y-80679188D02*
X134350691Y-80583950D01*
X134350691Y-80583950D02*
X134303072Y-80393474D01*
X134303072Y-80393474D02*
X134303072Y-80250617D01*
X134303072Y-80250617D02*
X134350691Y-80060141D01*
X134350691Y-80060141D02*
X134398310Y-79964903D01*
X134398310Y-79964903D02*
X134493548Y-79869665D01*
X134493548Y-79869665D02*
X134636405Y-79822046D01*
X134636405Y-79822046D02*
X134731643Y-79822046D01*
X134731643Y-79822046D02*
X134874500Y-79869665D01*
X134874500Y-79869665D02*
X134922119Y-79917284D01*
X135541167Y-79822046D02*
X135731643Y-79822046D01*
X135731643Y-79822046D02*
X135826881Y-79869665D01*
X135826881Y-79869665D02*
X135922119Y-79964903D01*
X135922119Y-79964903D02*
X135969738Y-80155379D01*
X135969738Y-80155379D02*
X135969738Y-80488712D01*
X135969738Y-80488712D02*
X135922119Y-80679188D01*
X135922119Y-80679188D02*
X135826881Y-80774427D01*
X135826881Y-80774427D02*
X135731643Y-80822046D01*
X135731643Y-80822046D02*
X135541167Y-80822046D01*
X135541167Y-80822046D02*
X135445929Y-80774427D01*
X135445929Y-80774427D02*
X135350691Y-80679188D01*
X135350691Y-80679188D02*
X135303072Y-80488712D01*
X135303072Y-80488712D02*
X135303072Y-80155379D01*
X135303072Y-80155379D02*
X135350691Y-79964903D01*
X135350691Y-79964903D02*
X135445929Y-79869665D01*
X135445929Y-79869665D02*
X135541167Y-79822046D01*
X136874500Y-80822046D02*
X136398310Y-80822046D01*
X136398310Y-80822046D02*
X136398310Y-79822046D01*
X137684024Y-79822046D02*
X137207834Y-79822046D01*
X137207834Y-79822046D02*
X137160215Y-80298236D01*
X137160215Y-80298236D02*
X137207834Y-80250617D01*
X137207834Y-80250617D02*
X137303072Y-80202998D01*
X137303072Y-80202998D02*
X137541167Y-80202998D01*
X137541167Y-80202998D02*
X137636405Y-80250617D01*
X137636405Y-80250617D02*
X137684024Y-80298236D01*
X137684024Y-80298236D02*
X137731643Y-80393474D01*
X137731643Y-80393474D02*
X137731643Y-80631569D01*
X137731643Y-80631569D02*
X137684024Y-80726807D01*
X137684024Y-80726807D02*
X137636405Y-80774427D01*
X137636405Y-80774427D02*
X137541167Y-80822046D01*
X137541167Y-80822046D02*
X137303072Y-80822046D01*
X137303072Y-80822046D02*
X137207834Y-80774427D01*
X137207834Y-80774427D02*
X137160215Y-80726807D01*
X137922120Y-80917284D02*
X138684024Y-80917284D01*
X138779263Y-80155379D02*
X139160215Y-80155379D01*
X138922120Y-80822046D02*
X138922120Y-79964903D01*
X138922120Y-79964903D02*
X138969739Y-79869665D01*
X138969739Y-79869665D02*
X139064977Y-79822046D01*
X139064977Y-79822046D02*
X139160215Y-79822046D01*
X139493549Y-80822046D02*
X139493549Y-80155379D01*
X139493549Y-80345855D02*
X139541168Y-80250617D01*
X139541168Y-80250617D02*
X139588787Y-80202998D01*
X139588787Y-80202998D02*
X139684025Y-80155379D01*
X139684025Y-80155379D02*
X139779263Y-80155379D01*
X140255454Y-80822046D02*
X140160216Y-80774427D01*
X140160216Y-80774427D02*
X140112597Y-80726807D01*
X140112597Y-80726807D02*
X140064978Y-80631569D01*
X140064978Y-80631569D02*
X140064978Y-80345855D01*
X140064978Y-80345855D02*
X140112597Y-80250617D01*
X140112597Y-80250617D02*
X140160216Y-80202998D01*
X140160216Y-80202998D02*
X140255454Y-80155379D01*
X140255454Y-80155379D02*
X140398311Y-80155379D01*
X140398311Y-80155379D02*
X140493549Y-80202998D01*
X140493549Y-80202998D02*
X140541168Y-80250617D01*
X140541168Y-80250617D02*
X140588787Y-80345855D01*
X140588787Y-80345855D02*
X140588787Y-80631569D01*
X140588787Y-80631569D02*
X140541168Y-80726807D01*
X140541168Y-80726807D02*
X140493549Y-80774427D01*
X140493549Y-80774427D02*
X140398311Y-80822046D01*
X140398311Y-80822046D02*
X140255454Y-80822046D01*
X141017359Y-80822046D02*
X141017359Y-80155379D01*
X141017359Y-80250617D02*
X141064978Y-80202998D01*
X141064978Y-80202998D02*
X141160216Y-80155379D01*
X141160216Y-80155379D02*
X141303073Y-80155379D01*
X141303073Y-80155379D02*
X141398311Y-80202998D01*
X141398311Y-80202998D02*
X141445930Y-80298236D01*
X141445930Y-80298236D02*
X141445930Y-80822046D01*
X141445930Y-80298236D02*
X141493549Y-80202998D01*
X141493549Y-80202998D02*
X141588787Y-80155379D01*
X141588787Y-80155379D02*
X141731644Y-80155379D01*
X141731644Y-80155379D02*
X141826883Y-80202998D01*
X141826883Y-80202998D02*
X141874502Y-80298236D01*
X141874502Y-80298236D02*
X141874502Y-80822046D01*
X127825683Y-37926503D02*
X127730445Y-37878884D01*
X127730445Y-37878884D02*
X127587588Y-37878884D01*
X127587588Y-37878884D02*
X127444731Y-37926503D01*
X127444731Y-37926503D02*
X127349493Y-38021741D01*
X127349493Y-38021741D02*
X127301874Y-38116979D01*
X127301874Y-38116979D02*
X127254255Y-38307455D01*
X127254255Y-38307455D02*
X127254255Y-38450312D01*
X127254255Y-38450312D02*
X127301874Y-38640788D01*
X127301874Y-38640788D02*
X127349493Y-38736026D01*
X127349493Y-38736026D02*
X127444731Y-38831265D01*
X127444731Y-38831265D02*
X127587588Y-38878884D01*
X127587588Y-38878884D02*
X127682826Y-38878884D01*
X127682826Y-38878884D02*
X127825683Y-38831265D01*
X127825683Y-38831265D02*
X127873302Y-38783645D01*
X127873302Y-38783645D02*
X127873302Y-38450312D01*
X127873302Y-38450312D02*
X127682826Y-38450312D01*
X128301874Y-38878884D02*
X128301874Y-37878884D01*
X128301874Y-37878884D02*
X128873302Y-38878884D01*
X128873302Y-38878884D02*
X128873302Y-37878884D01*
X129349493Y-38878884D02*
X129349493Y-37878884D01*
X129349493Y-37878884D02*
X129587588Y-37878884D01*
X129587588Y-37878884D02*
X129730445Y-37926503D01*
X129730445Y-37926503D02*
X129825683Y-38021741D01*
X129825683Y-38021741D02*
X129873302Y-38116979D01*
X129873302Y-38116979D02*
X129920921Y-38307455D01*
X129920921Y-38307455D02*
X129920921Y-38450312D01*
X129920921Y-38450312D02*
X129873302Y-38640788D01*
X129873302Y-38640788D02*
X129825683Y-38736026D01*
X129825683Y-38736026D02*
X129730445Y-38831265D01*
X129730445Y-38831265D02*
X129587588Y-38878884D01*
X129587588Y-38878884D02*
X129349493Y-38878884D01*
X140062913Y-82809122D02*
X140015294Y-82856742D01*
X140015294Y-82856742D02*
X139872437Y-82904361D01*
X139872437Y-82904361D02*
X139777199Y-82904361D01*
X139777199Y-82904361D02*
X139634342Y-82856742D01*
X139634342Y-82856742D02*
X139539104Y-82761503D01*
X139539104Y-82761503D02*
X139491485Y-82666265D01*
X139491485Y-82666265D02*
X139443866Y-82475789D01*
X139443866Y-82475789D02*
X139443866Y-82332932D01*
X139443866Y-82332932D02*
X139491485Y-82142456D01*
X139491485Y-82142456D02*
X139539104Y-82047218D01*
X139539104Y-82047218D02*
X139634342Y-81951980D01*
X139634342Y-81951980D02*
X139777199Y-81904361D01*
X139777199Y-81904361D02*
X139872437Y-81904361D01*
X139872437Y-81904361D02*
X140015294Y-81951980D01*
X140015294Y-81951980D02*
X140062913Y-81999599D01*
X140681961Y-81904361D02*
X140872437Y-81904361D01*
X140872437Y-81904361D02*
X140967675Y-81951980D01*
X140967675Y-81951980D02*
X141062913Y-82047218D01*
X141062913Y-82047218D02*
X141110532Y-82237694D01*
X141110532Y-82237694D02*
X141110532Y-82571027D01*
X141110532Y-82571027D02*
X141062913Y-82761503D01*
X141062913Y-82761503D02*
X140967675Y-82856742D01*
X140967675Y-82856742D02*
X140872437Y-82904361D01*
X140872437Y-82904361D02*
X140681961Y-82904361D01*
X140681961Y-82904361D02*
X140586723Y-82856742D01*
X140586723Y-82856742D02*
X140491485Y-82761503D01*
X140491485Y-82761503D02*
X140443866Y-82571027D01*
X140443866Y-82571027D02*
X140443866Y-82237694D01*
X140443866Y-82237694D02*
X140491485Y-82047218D01*
X140491485Y-82047218D02*
X140586723Y-81951980D01*
X140586723Y-81951980D02*
X140681961Y-81904361D01*
X142015294Y-82904361D02*
X141539104Y-82904361D01*
X141539104Y-82904361D02*
X141539104Y-81904361D01*
X142824818Y-81904361D02*
X142348628Y-81904361D01*
X142348628Y-81904361D02*
X142301009Y-82380551D01*
X142301009Y-82380551D02*
X142348628Y-82332932D01*
X142348628Y-82332932D02*
X142443866Y-82285313D01*
X142443866Y-82285313D02*
X142681961Y-82285313D01*
X142681961Y-82285313D02*
X142777199Y-82332932D01*
X142777199Y-82332932D02*
X142824818Y-82380551D01*
X142824818Y-82380551D02*
X142872437Y-82475789D01*
X142872437Y-82475789D02*
X142872437Y-82713884D01*
X142872437Y-82713884D02*
X142824818Y-82809122D01*
X142824818Y-82809122D02*
X142777199Y-82856742D01*
X142777199Y-82856742D02*
X142681961Y-82904361D01*
X142681961Y-82904361D02*
X142443866Y-82904361D01*
X142443866Y-82904361D02*
X142348628Y-82856742D01*
X142348628Y-82856742D02*
X142301009Y-82809122D01*
X143062914Y-82999599D02*
X143824818Y-82999599D01*
X143920057Y-82237694D02*
X144301009Y-82237694D01*
X144062914Y-81904361D02*
X144062914Y-82761503D01*
X144062914Y-82761503D02*
X144110533Y-82856742D01*
X144110533Y-82856742D02*
X144205771Y-82904361D01*
X144205771Y-82904361D02*
X144301009Y-82904361D01*
X144777200Y-82904361D02*
X144681962Y-82856742D01*
X144681962Y-82856742D02*
X144634343Y-82809122D01*
X144634343Y-82809122D02*
X144586724Y-82713884D01*
X144586724Y-82713884D02*
X144586724Y-82428170D01*
X144586724Y-82428170D02*
X144634343Y-82332932D01*
X144634343Y-82332932D02*
X144681962Y-82285313D01*
X144681962Y-82285313D02*
X144777200Y-82237694D01*
X144777200Y-82237694D02*
X144920057Y-82237694D01*
X144920057Y-82237694D02*
X145015295Y-82285313D01*
X145015295Y-82285313D02*
X145062914Y-82332932D01*
X145062914Y-82332932D02*
X145110533Y-82428170D01*
X145110533Y-82428170D02*
X145110533Y-82713884D01*
X145110533Y-82713884D02*
X145062914Y-82809122D01*
X145062914Y-82809122D02*
X145015295Y-82856742D01*
X145015295Y-82856742D02*
X144920057Y-82904361D01*
X144920057Y-82904361D02*
X144777200Y-82904361D01*
X138493997Y-54857096D02*
X138446378Y-54904716D01*
X138446378Y-54904716D02*
X138303521Y-54952335D01*
X138303521Y-54952335D02*
X138208283Y-54952335D01*
X138208283Y-54952335D02*
X138065426Y-54904716D01*
X138065426Y-54904716D02*
X137970188Y-54809477D01*
X137970188Y-54809477D02*
X137922569Y-54714239D01*
X137922569Y-54714239D02*
X137874950Y-54523763D01*
X137874950Y-54523763D02*
X137874950Y-54380906D01*
X137874950Y-54380906D02*
X137922569Y-54190430D01*
X137922569Y-54190430D02*
X137970188Y-54095192D01*
X137970188Y-54095192D02*
X138065426Y-53999954D01*
X138065426Y-53999954D02*
X138208283Y-53952335D01*
X138208283Y-53952335D02*
X138303521Y-53952335D01*
X138303521Y-53952335D02*
X138446378Y-53999954D01*
X138446378Y-53999954D02*
X138493997Y-54047573D01*
X139113045Y-53952335D02*
X139303521Y-53952335D01*
X139303521Y-53952335D02*
X139398759Y-53999954D01*
X139398759Y-53999954D02*
X139493997Y-54095192D01*
X139493997Y-54095192D02*
X139541616Y-54285668D01*
X139541616Y-54285668D02*
X139541616Y-54619001D01*
X139541616Y-54619001D02*
X139493997Y-54809477D01*
X139493997Y-54809477D02*
X139398759Y-54904716D01*
X139398759Y-54904716D02*
X139303521Y-54952335D01*
X139303521Y-54952335D02*
X139113045Y-54952335D01*
X139113045Y-54952335D02*
X139017807Y-54904716D01*
X139017807Y-54904716D02*
X138922569Y-54809477D01*
X138922569Y-54809477D02*
X138874950Y-54619001D01*
X138874950Y-54619001D02*
X138874950Y-54285668D01*
X138874950Y-54285668D02*
X138922569Y-54095192D01*
X138922569Y-54095192D02*
X139017807Y-53999954D01*
X139017807Y-53999954D02*
X139113045Y-53952335D01*
X140446378Y-54952335D02*
X139970188Y-54952335D01*
X139970188Y-54952335D02*
X139970188Y-53952335D01*
X141208283Y-54285668D02*
X141208283Y-54952335D01*
X140970188Y-53904716D02*
X140732093Y-54619001D01*
X140732093Y-54619001D02*
X141351140Y-54619001D01*
X141493998Y-55047573D02*
X142255902Y-55047573D01*
X142351141Y-54285668D02*
X142732093Y-54285668D01*
X142493998Y-54952335D02*
X142493998Y-54095192D01*
X142493998Y-54095192D02*
X142541617Y-53999954D01*
X142541617Y-53999954D02*
X142636855Y-53952335D01*
X142636855Y-53952335D02*
X142732093Y-53952335D01*
X143065427Y-54952335D02*
X143065427Y-54285668D01*
X143065427Y-54476144D02*
X143113046Y-54380906D01*
X143113046Y-54380906D02*
X143160665Y-54333287D01*
X143160665Y-54333287D02*
X143255903Y-54285668D01*
X143255903Y-54285668D02*
X143351141Y-54285668D01*
X143827332Y-54952335D02*
X143732094Y-54904716D01*
X143732094Y-54904716D02*
X143684475Y-54857096D01*
X143684475Y-54857096D02*
X143636856Y-54761858D01*
X143636856Y-54761858D02*
X143636856Y-54476144D01*
X143636856Y-54476144D02*
X143684475Y-54380906D01*
X143684475Y-54380906D02*
X143732094Y-54333287D01*
X143732094Y-54333287D02*
X143827332Y-54285668D01*
X143827332Y-54285668D02*
X143970189Y-54285668D01*
X143970189Y-54285668D02*
X144065427Y-54333287D01*
X144065427Y-54333287D02*
X144113046Y-54380906D01*
X144113046Y-54380906D02*
X144160665Y-54476144D01*
X144160665Y-54476144D02*
X144160665Y-54761858D01*
X144160665Y-54761858D02*
X144113046Y-54857096D01*
X144113046Y-54857096D02*
X144065427Y-54904716D01*
X144065427Y-54904716D02*
X143970189Y-54952335D01*
X143970189Y-54952335D02*
X143827332Y-54952335D01*
X144589237Y-54952335D02*
X144589237Y-54285668D01*
X144589237Y-54380906D02*
X144636856Y-54333287D01*
X144636856Y-54333287D02*
X144732094Y-54285668D01*
X144732094Y-54285668D02*
X144874951Y-54285668D01*
X144874951Y-54285668D02*
X144970189Y-54333287D01*
X144970189Y-54333287D02*
X145017808Y-54428525D01*
X145017808Y-54428525D02*
X145017808Y-54952335D01*
X145017808Y-54428525D02*
X145065427Y-54333287D01*
X145065427Y-54333287D02*
X145160665Y-54285668D01*
X145160665Y-54285668D02*
X145303522Y-54285668D01*
X145303522Y-54285668D02*
X145398761Y-54333287D01*
X145398761Y-54333287D02*
X145446380Y-54428525D01*
X145446380Y-54428525D02*
X145446380Y-54952335D01*
X140065500Y-77478947D02*
X140017881Y-77526567D01*
X140017881Y-77526567D02*
X139875024Y-77574186D01*
X139875024Y-77574186D02*
X139779786Y-77574186D01*
X139779786Y-77574186D02*
X139636929Y-77526567D01*
X139636929Y-77526567D02*
X139541691Y-77431328D01*
X139541691Y-77431328D02*
X139494072Y-77336090D01*
X139494072Y-77336090D02*
X139446453Y-77145614D01*
X139446453Y-77145614D02*
X139446453Y-77002757D01*
X139446453Y-77002757D02*
X139494072Y-76812281D01*
X139494072Y-76812281D02*
X139541691Y-76717043D01*
X139541691Y-76717043D02*
X139636929Y-76621805D01*
X139636929Y-76621805D02*
X139779786Y-76574186D01*
X139779786Y-76574186D02*
X139875024Y-76574186D01*
X139875024Y-76574186D02*
X140017881Y-76621805D01*
X140017881Y-76621805D02*
X140065500Y-76669424D01*
X140684548Y-76574186D02*
X140875024Y-76574186D01*
X140875024Y-76574186D02*
X140970262Y-76621805D01*
X140970262Y-76621805D02*
X141065500Y-76717043D01*
X141065500Y-76717043D02*
X141113119Y-76907519D01*
X141113119Y-76907519D02*
X141113119Y-77240852D01*
X141113119Y-77240852D02*
X141065500Y-77431328D01*
X141065500Y-77431328D02*
X140970262Y-77526567D01*
X140970262Y-77526567D02*
X140875024Y-77574186D01*
X140875024Y-77574186D02*
X140684548Y-77574186D01*
X140684548Y-77574186D02*
X140589310Y-77526567D01*
X140589310Y-77526567D02*
X140494072Y-77431328D01*
X140494072Y-77431328D02*
X140446453Y-77240852D01*
X140446453Y-77240852D02*
X140446453Y-76907519D01*
X140446453Y-76907519D02*
X140494072Y-76717043D01*
X140494072Y-76717043D02*
X140589310Y-76621805D01*
X140589310Y-76621805D02*
X140684548Y-76574186D01*
X142017881Y-77574186D02*
X141541691Y-77574186D01*
X141541691Y-77574186D02*
X141541691Y-76574186D01*
X142779786Y-76907519D02*
X142779786Y-77574186D01*
X142541691Y-76526567D02*
X142303596Y-77240852D01*
X142303596Y-77240852D02*
X142922643Y-77240852D01*
X143065501Y-77669424D02*
X143827405Y-77669424D01*
X143922644Y-76907519D02*
X144303596Y-76907519D01*
X144065501Y-76574186D02*
X144065501Y-77431328D01*
X144065501Y-77431328D02*
X144113120Y-77526567D01*
X144113120Y-77526567D02*
X144208358Y-77574186D01*
X144208358Y-77574186D02*
X144303596Y-77574186D01*
X144779787Y-77574186D02*
X144684549Y-77526567D01*
X144684549Y-77526567D02*
X144636930Y-77478947D01*
X144636930Y-77478947D02*
X144589311Y-77383709D01*
X144589311Y-77383709D02*
X144589311Y-77097995D01*
X144589311Y-77097995D02*
X144636930Y-77002757D01*
X144636930Y-77002757D02*
X144684549Y-76955138D01*
X144684549Y-76955138D02*
X144779787Y-76907519D01*
X144779787Y-76907519D02*
X144922644Y-76907519D01*
X144922644Y-76907519D02*
X145017882Y-76955138D01*
X145017882Y-76955138D02*
X145065501Y-77002757D01*
X145065501Y-77002757D02*
X145113120Y-77097995D01*
X145113120Y-77097995D02*
X145113120Y-77383709D01*
X145113120Y-77383709D02*
X145065501Y-77478947D01*
X145065501Y-77478947D02*
X145017882Y-77526567D01*
X145017882Y-77526567D02*
X144922644Y-77574186D01*
X144922644Y-77574186D02*
X144779787Y-77574186D01*
X130874200Y-42950836D02*
X130826581Y-42998456D01*
X130826581Y-42998456D02*
X130683724Y-43046075D01*
X130683724Y-43046075D02*
X130588486Y-43046075D01*
X130588486Y-43046075D02*
X130445629Y-42998456D01*
X130445629Y-42998456D02*
X130350391Y-42903217D01*
X130350391Y-42903217D02*
X130302772Y-42807979D01*
X130302772Y-42807979D02*
X130255153Y-42617503D01*
X130255153Y-42617503D02*
X130255153Y-42474646D01*
X130255153Y-42474646D02*
X130302772Y-42284170D01*
X130302772Y-42284170D02*
X130350391Y-42188932D01*
X130350391Y-42188932D02*
X130445629Y-42093694D01*
X130445629Y-42093694D02*
X130588486Y-42046075D01*
X130588486Y-42046075D02*
X130683724Y-42046075D01*
X130683724Y-42046075D02*
X130826581Y-42093694D01*
X130826581Y-42093694D02*
X130874200Y-42141313D01*
X131493248Y-42046075D02*
X131683724Y-42046075D01*
X131683724Y-42046075D02*
X131778962Y-42093694D01*
X131778962Y-42093694D02*
X131874200Y-42188932D01*
X131874200Y-42188932D02*
X131921819Y-42379408D01*
X131921819Y-42379408D02*
X131921819Y-42712741D01*
X131921819Y-42712741D02*
X131874200Y-42903217D01*
X131874200Y-42903217D02*
X131778962Y-42998456D01*
X131778962Y-42998456D02*
X131683724Y-43046075D01*
X131683724Y-43046075D02*
X131493248Y-43046075D01*
X131493248Y-43046075D02*
X131398010Y-42998456D01*
X131398010Y-42998456D02*
X131302772Y-42903217D01*
X131302772Y-42903217D02*
X131255153Y-42712741D01*
X131255153Y-42712741D02*
X131255153Y-42379408D01*
X131255153Y-42379408D02*
X131302772Y-42188932D01*
X131302772Y-42188932D02*
X131398010Y-42093694D01*
X131398010Y-42093694D02*
X131493248Y-42046075D01*
X132826581Y-43046075D02*
X132350391Y-43046075D01*
X132350391Y-43046075D02*
X132350391Y-42046075D01*
X133588486Y-42379408D02*
X133588486Y-43046075D01*
X133350391Y-41998456D02*
X133112296Y-42712741D01*
X133112296Y-42712741D02*
X133731343Y-42712741D01*
X133874201Y-43141313D02*
X134636105Y-43141313D01*
X134731344Y-42379408D02*
X135112296Y-42379408D01*
X134874201Y-43046075D02*
X134874201Y-42188932D01*
X134874201Y-42188932D02*
X134921820Y-42093694D01*
X134921820Y-42093694D02*
X135017058Y-42046075D01*
X135017058Y-42046075D02*
X135112296Y-42046075D01*
X135445630Y-43046075D02*
X135445630Y-42379408D01*
X135445630Y-42569884D02*
X135493249Y-42474646D01*
X135493249Y-42474646D02*
X135540868Y-42427027D01*
X135540868Y-42427027D02*
X135636106Y-42379408D01*
X135636106Y-42379408D02*
X135731344Y-42379408D01*
X136207535Y-43046075D02*
X136112297Y-42998456D01*
X136112297Y-42998456D02*
X136064678Y-42950836D01*
X136064678Y-42950836D02*
X136017059Y-42855598D01*
X136017059Y-42855598D02*
X136017059Y-42569884D01*
X136017059Y-42569884D02*
X136064678Y-42474646D01*
X136064678Y-42474646D02*
X136112297Y-42427027D01*
X136112297Y-42427027D02*
X136207535Y-42379408D01*
X136207535Y-42379408D02*
X136350392Y-42379408D01*
X136350392Y-42379408D02*
X136445630Y-42427027D01*
X136445630Y-42427027D02*
X136493249Y-42474646D01*
X136493249Y-42474646D02*
X136540868Y-42569884D01*
X136540868Y-42569884D02*
X136540868Y-42855598D01*
X136540868Y-42855598D02*
X136493249Y-42950836D01*
X136493249Y-42950836D02*
X136445630Y-42998456D01*
X136445630Y-42998456D02*
X136350392Y-43046075D01*
X136350392Y-43046075D02*
X136207535Y-43046075D01*
X136969440Y-43046075D02*
X136969440Y-42379408D01*
X136969440Y-42474646D02*
X137017059Y-42427027D01*
X137017059Y-42427027D02*
X137112297Y-42379408D01*
X137112297Y-42379408D02*
X137255154Y-42379408D01*
X137255154Y-42379408D02*
X137350392Y-42427027D01*
X137350392Y-42427027D02*
X137398011Y-42522265D01*
X137398011Y-42522265D02*
X137398011Y-43046075D01*
X137398011Y-42522265D02*
X137445630Y-42427027D01*
X137445630Y-42427027D02*
X137540868Y-42379408D01*
X137540868Y-42379408D02*
X137683725Y-42379408D01*
X137683725Y-42379408D02*
X137778964Y-42427027D01*
X137778964Y-42427027D02*
X137826583Y-42522265D01*
X137826583Y-42522265D02*
X137826583Y-43046075D01*
X138064678Y-43141313D02*
X138826582Y-43141313D01*
X138921821Y-42046075D02*
X139493249Y-42046075D01*
X139207535Y-43046075D02*
X139207535Y-42046075D01*
X139969440Y-43046075D02*
X139874202Y-42998456D01*
X139874202Y-42998456D02*
X139826583Y-42950836D01*
X139826583Y-42950836D02*
X139778964Y-42855598D01*
X139778964Y-42855598D02*
X139778964Y-42569884D01*
X139778964Y-42569884D02*
X139826583Y-42474646D01*
X139826583Y-42474646D02*
X139874202Y-42427027D01*
X139874202Y-42427027D02*
X139969440Y-42379408D01*
X139969440Y-42379408D02*
X140112297Y-42379408D01*
X140112297Y-42379408D02*
X140207535Y-42427027D01*
X140207535Y-42427027D02*
X140255154Y-42474646D01*
X140255154Y-42474646D02*
X140302773Y-42569884D01*
X140302773Y-42569884D02*
X140302773Y-42855598D01*
X140302773Y-42855598D02*
X140255154Y-42950836D01*
X140255154Y-42950836D02*
X140207535Y-42998456D01*
X140207535Y-42998456D02*
X140112297Y-43046075D01*
X140112297Y-43046075D02*
X139969440Y-43046075D01*
X140731345Y-42379408D02*
X140731345Y-43379408D01*
X140731345Y-42427027D02*
X140826583Y-42379408D01*
X140826583Y-42379408D02*
X141017059Y-42379408D01*
X141017059Y-42379408D02*
X141112297Y-42427027D01*
X141112297Y-42427027D02*
X141159916Y-42474646D01*
X141159916Y-42474646D02*
X141207535Y-42569884D01*
X141207535Y-42569884D02*
X141207535Y-42855598D01*
X141207535Y-42855598D02*
X141159916Y-42950836D01*
X141159916Y-42950836D02*
X141112297Y-42998456D01*
X141112297Y-42998456D02*
X141017059Y-43046075D01*
X141017059Y-43046075D02*
X140826583Y-43046075D01*
X140826583Y-43046075D02*
X140731345Y-42998456D01*
X108133034Y-40840836D02*
X108085415Y-40888456D01*
X108085415Y-40888456D02*
X107942558Y-40936075D01*
X107942558Y-40936075D02*
X107847320Y-40936075D01*
X107847320Y-40936075D02*
X107704463Y-40888456D01*
X107704463Y-40888456D02*
X107609225Y-40793217D01*
X107609225Y-40793217D02*
X107561606Y-40697979D01*
X107561606Y-40697979D02*
X107513987Y-40507503D01*
X107513987Y-40507503D02*
X107513987Y-40364646D01*
X107513987Y-40364646D02*
X107561606Y-40174170D01*
X107561606Y-40174170D02*
X107609225Y-40078932D01*
X107609225Y-40078932D02*
X107704463Y-39983694D01*
X107704463Y-39983694D02*
X107847320Y-39936075D01*
X107847320Y-39936075D02*
X107942558Y-39936075D01*
X107942558Y-39936075D02*
X108085415Y-39983694D01*
X108085415Y-39983694D02*
X108133034Y-40031313D01*
X108752082Y-39936075D02*
X108942558Y-39936075D01*
X108942558Y-39936075D02*
X109037796Y-39983694D01*
X109037796Y-39983694D02*
X109133034Y-40078932D01*
X109133034Y-40078932D02*
X109180653Y-40269408D01*
X109180653Y-40269408D02*
X109180653Y-40602741D01*
X109180653Y-40602741D02*
X109133034Y-40793217D01*
X109133034Y-40793217D02*
X109037796Y-40888456D01*
X109037796Y-40888456D02*
X108942558Y-40936075D01*
X108942558Y-40936075D02*
X108752082Y-40936075D01*
X108752082Y-40936075D02*
X108656844Y-40888456D01*
X108656844Y-40888456D02*
X108561606Y-40793217D01*
X108561606Y-40793217D02*
X108513987Y-40602741D01*
X108513987Y-40602741D02*
X108513987Y-40269408D01*
X108513987Y-40269408D02*
X108561606Y-40078932D01*
X108561606Y-40078932D02*
X108656844Y-39983694D01*
X108656844Y-39983694D02*
X108752082Y-39936075D01*
X110085415Y-40936075D02*
X109609225Y-40936075D01*
X109609225Y-40936075D02*
X109609225Y-39936075D01*
X110323511Y-39936075D02*
X110942558Y-39936075D01*
X110942558Y-39936075D02*
X110609225Y-40317027D01*
X110609225Y-40317027D02*
X110752082Y-40317027D01*
X110752082Y-40317027D02*
X110847320Y-40364646D01*
X110847320Y-40364646D02*
X110894939Y-40412265D01*
X110894939Y-40412265D02*
X110942558Y-40507503D01*
X110942558Y-40507503D02*
X110942558Y-40745598D01*
X110942558Y-40745598D02*
X110894939Y-40840836D01*
X110894939Y-40840836D02*
X110847320Y-40888456D01*
X110847320Y-40888456D02*
X110752082Y-40936075D01*
X110752082Y-40936075D02*
X110466368Y-40936075D01*
X110466368Y-40936075D02*
X110371130Y-40888456D01*
X110371130Y-40888456D02*
X110323511Y-40840836D01*
X111133035Y-41031313D02*
X111894939Y-41031313D01*
X111990178Y-40269408D02*
X112371130Y-40269408D01*
X112133035Y-40936075D02*
X112133035Y-40078932D01*
X112133035Y-40078932D02*
X112180654Y-39983694D01*
X112180654Y-39983694D02*
X112275892Y-39936075D01*
X112275892Y-39936075D02*
X112371130Y-39936075D01*
X112704464Y-40936075D02*
X112704464Y-40269408D01*
X112704464Y-40459884D02*
X112752083Y-40364646D01*
X112752083Y-40364646D02*
X112799702Y-40317027D01*
X112799702Y-40317027D02*
X112894940Y-40269408D01*
X112894940Y-40269408D02*
X112990178Y-40269408D01*
X113466369Y-40936075D02*
X113371131Y-40888456D01*
X113371131Y-40888456D02*
X113323512Y-40840836D01*
X113323512Y-40840836D02*
X113275893Y-40745598D01*
X113275893Y-40745598D02*
X113275893Y-40459884D01*
X113275893Y-40459884D02*
X113323512Y-40364646D01*
X113323512Y-40364646D02*
X113371131Y-40317027D01*
X113371131Y-40317027D02*
X113466369Y-40269408D01*
X113466369Y-40269408D02*
X113609226Y-40269408D01*
X113609226Y-40269408D02*
X113704464Y-40317027D01*
X113704464Y-40317027D02*
X113752083Y-40364646D01*
X113752083Y-40364646D02*
X113799702Y-40459884D01*
X113799702Y-40459884D02*
X113799702Y-40745598D01*
X113799702Y-40745598D02*
X113752083Y-40840836D01*
X113752083Y-40840836D02*
X113704464Y-40888456D01*
X113704464Y-40888456D02*
X113609226Y-40936075D01*
X113609226Y-40936075D02*
X113466369Y-40936075D01*
X114228274Y-40936075D02*
X114228274Y-40269408D01*
X114228274Y-40364646D02*
X114275893Y-40317027D01*
X114275893Y-40317027D02*
X114371131Y-40269408D01*
X114371131Y-40269408D02*
X114513988Y-40269408D01*
X114513988Y-40269408D02*
X114609226Y-40317027D01*
X114609226Y-40317027D02*
X114656845Y-40412265D01*
X114656845Y-40412265D02*
X114656845Y-40936075D01*
X114656845Y-40412265D02*
X114704464Y-40317027D01*
X114704464Y-40317027D02*
X114799702Y-40269408D01*
X114799702Y-40269408D02*
X114942559Y-40269408D01*
X114942559Y-40269408D02*
X115037798Y-40317027D01*
X115037798Y-40317027D02*
X115085417Y-40412265D01*
X115085417Y-40412265D02*
X115085417Y-40936075D01*
D13*
%TO.C,TP3*%
X120929145Y-48300951D02*
X122039145Y-48300951D01*
X120929145Y-49410951D02*
X120929145Y-48300951D01*
X120929145Y-50410951D02*
X120929145Y-50520951D01*
X120929145Y-50410951D02*
X123149145Y-50410951D01*
X120929145Y-50520951D02*
X123149145Y-50520951D01*
X123149145Y-50410951D02*
X123149145Y-50520951D01*
%TO.C,TP6*%
X134026031Y-81043166D02*
X135136031Y-81043166D01*
X134026031Y-82153166D02*
X134026031Y-81043166D01*
X134026031Y-83153166D02*
X134026031Y-83263166D01*
X134026031Y-83153166D02*
X136246031Y-83153166D01*
X134026031Y-83263166D02*
X136246031Y-83263166D01*
X136246031Y-83153166D02*
X136246031Y-83263166D01*
%TO.C,TP1*%
X127477588Y-35204065D02*
X128587588Y-35204065D01*
X127477588Y-36314065D02*
X127477588Y-35204065D01*
X127477588Y-37314065D02*
X127477588Y-37424065D01*
X127477588Y-37314065D02*
X129697588Y-37314065D01*
X127477588Y-37424065D02*
X129697588Y-37424065D01*
X129697588Y-37314065D02*
X129697588Y-37424065D01*
%TO.C,TP7*%
X142360413Y-83424418D02*
X143470413Y-83424418D01*
X142360413Y-84534418D02*
X142360413Y-83424418D01*
X142360413Y-85534418D02*
X142360413Y-85644418D01*
X142360413Y-85534418D02*
X144580413Y-85534418D01*
X142360413Y-85644418D02*
X144580413Y-85644418D01*
X144580413Y-85534418D02*
X144580413Y-85644418D01*
D12*
%TO.C,*%
X143400000Y-35725000D02*
X143400000Y-47825000D01*
X143650000Y-35725000D02*
X143650000Y-33725000D01*
X149250000Y-33725000D02*
X143650000Y-33725000D01*
X149250000Y-35725000D02*
X149250000Y-33725000D01*
X149500000Y-35725000D02*
X143400000Y-35725000D01*
X149500000Y-35725000D02*
X149500000Y-47825000D01*
X149500000Y-47825000D02*
X143400000Y-47825000D01*
D13*
%TO.C,TP4*%
X140574474Y-51277516D02*
X141684474Y-51277516D01*
X140574474Y-52387516D02*
X140574474Y-51277516D01*
X140574474Y-53387516D02*
X140574474Y-53497516D01*
X140574474Y-53387516D02*
X142794474Y-53387516D01*
X140574474Y-53497516D02*
X142794474Y-53497516D01*
X142794474Y-53387516D02*
X142794474Y-53497516D01*
%TO.C,TP5*%
X141169787Y-73899367D02*
X142279787Y-73899367D01*
X141169787Y-75009367D02*
X141169787Y-73899367D01*
X141169787Y-76009367D02*
X141169787Y-76119367D01*
X141169787Y-76009367D02*
X143389787Y-76009367D01*
X141169787Y-76119367D02*
X143389787Y-76119367D01*
X143389787Y-76009367D02*
X143389787Y-76119367D01*
%TO.C,TP8*%
X138193222Y-39371256D02*
X139303222Y-39371256D01*
X138193222Y-40481256D02*
X138193222Y-39371256D01*
X138193222Y-41481256D02*
X138193222Y-41591256D01*
X138193222Y-41481256D02*
X140413222Y-41481256D01*
X138193222Y-41591256D02*
X140413222Y-41591256D01*
X140413222Y-41481256D02*
X140413222Y-41591256D01*
%TO.C,TP2*%
X105451007Y-39371256D02*
X106561007Y-39371256D01*
X105451007Y-40481256D02*
X105451007Y-39371256D01*
X105451007Y-41481256D02*
X105451007Y-41591256D01*
X105451007Y-41481256D02*
X107671007Y-41481256D01*
X105451007Y-41591256D02*
X107671007Y-41591256D01*
X107671007Y-41481256D02*
X107671007Y-41591256D01*
D12*
%TO.C,SW_RIGHT2*%
X126587500Y-70875000D02*
X127087500Y-70375000D01*
X126587500Y-74375000D02*
X127087500Y-74875000D01*
X127087500Y-70375000D02*
X129587500Y-70375000D01*
X127087500Y-74875000D02*
X130087500Y-74875000D01*
X130087500Y-74875000D02*
X130587500Y-74375000D01*
X130587500Y-73375000D02*
X130587500Y-74375000D01*
X131087500Y-68175000D02*
X135587500Y-68175000D01*
X131087500Y-68875000D02*
X131087500Y-68175000D01*
X135587500Y-68175000D02*
X135587500Y-68675000D01*
X135587500Y-72275000D02*
X135587500Y-72875000D01*
X135587500Y-72875000D02*
X131087500Y-72875000D01*
X130587500Y-73375000D02*
G75*
G02*
X131087500Y-72875000I500001J-1D01*
G01*
X131087500Y-68875000D02*
G75*
G02*
X129587500Y-70375000I-1500001J1D01*
G01*
%TO.C,SW_RIGHT3*%
X136112500Y-89925000D02*
X136612500Y-89425000D01*
X136112500Y-93425000D02*
X136612500Y-93925000D01*
X136612500Y-89425000D02*
X139112500Y-89425000D01*
X136612500Y-93925000D02*
X139612500Y-93925000D01*
X139612500Y-93925000D02*
X140112500Y-93425000D01*
X140112500Y-92425000D02*
X140112500Y-93425000D01*
X140612500Y-87225000D02*
X145112500Y-87225000D01*
X140612500Y-87925000D02*
X140612500Y-87225000D01*
X145112500Y-87225000D02*
X145112500Y-87725000D01*
X145112500Y-91325000D02*
X145112500Y-91925000D01*
X145112500Y-91925000D02*
X140612500Y-91925000D01*
X140112500Y-92425000D02*
G75*
G02*
X140612500Y-91925000I500001J-1D01*
G01*
X140612500Y-87925000D02*
G75*
G02*
X139112500Y-89425000I-1500001J1D01*
G01*
%TO.C,SW_RIGHT1*%
X107537500Y-51825000D02*
X108037500Y-51325000D01*
X107537500Y-55325000D02*
X108037500Y-55825000D01*
X108037500Y-51325000D02*
X110537500Y-51325000D01*
X108037500Y-55825000D02*
X111037500Y-55825000D01*
X111037500Y-55825000D02*
X111537500Y-55325000D01*
X111537500Y-54325000D02*
X111537500Y-55325000D01*
X112037500Y-49125000D02*
X116537500Y-49125000D01*
X112037500Y-49825000D02*
X112037500Y-49125000D01*
X116537500Y-49125000D02*
X116537500Y-49625000D01*
X116537500Y-53225000D02*
X116537500Y-53825000D01*
X116537500Y-53825000D02*
X112037500Y-53825000D01*
X111537500Y-54325000D02*
G75*
G02*
X112037500Y-53825000I500001J-1D01*
G01*
X112037500Y-49825000D02*
G75*
G02*
X110537500Y-51325000I-1500001J1D01*
G01*
%TD*%
M02*
